<?xml version="1.0" encoding="UTF-8" standalone="no"?>
<!-- Created with Inkscape (http://www.inkscape.org/) -->

<svg
   xmlns:dc="http://purl.org/dc/elements/1.1/"
   xmlns:cc="http://creativecommons.org/ns#"
   xmlns:rdf="http://www.w3.org/1999/02/22-rdf-syntax-ns#"
   xmlns:svg="http://www.w3.org/2000/svg"
   xmlns="http://www.w3.org/2000/svg"
   xmlns:sodipodi="http://sodipodi.sourceforge.net/DTD/sodipodi-0.dtd"
   xmlns:inkscape="http://www.inkscape.org/namespaces/inkscape"
   id="svg2"
   version="1.1"
   inkscape:version="0.91 r13725"
   xml:space="preserve"
   width="178.5289"
   height="170.38768"
   viewBox="0 0 178.5289 170.38768"
   sodipodi:docname="atrasoBuffer-TempoContaminacao.svg"><metadata
     id="metadata8"><rdf:RDF><cc:Work
         rdf:about=""><dc:format>image/svg+xml</dc:format><dc:type
           rdf:resource="http://purl.org/dc/dcmitype/StillImage" /><dc:title></dc:title></cc:Work></rdf:RDF></metadata><defs
     id="defs6" /><sodipodi:namedview
     pagecolor="#ffffff"
     bordercolor="#666666"
     borderopacity="1"
     objecttolerance="10"
     gridtolerance="10"
     guidetolerance="10"
     inkscape:pageopacity="0"
     inkscape:pageshadow="2"
     inkscape:window-width="1855"
     inkscape:window-height="1056"
     id="namedview4"
     showgrid="false"
     fit-margin-left="10"
     fit-margin-top="10"
     fit-margin-right="10"
     fit-margin-bottom="10"
     inkscape:zoom="4"
     inkscape:cx="77.59577"
     inkscape:cy="84.29395"
     inkscape:window-x="1985"
     inkscape:window-y="24"
     inkscape:window-maximized="1"
     inkscape:current-layer="g10" /><g
     id="g10"
     inkscape:groupmode="layer"
     inkscape:label="ink_ext_XXXXXX"
     transform="matrix(1.25,0,0,-1.25,10.004451,162.18748)"><text
       transform="scale(1,-1)"
       style="font-style:oblique;font-variant:normal;font-size:8.06150818px;font-family:Helvetica;-inkscape-font-specification:Helvetica-Oblique;writing-mode:lr-tb;fill:#000000;fill-opacity:1;fill-rule:nonzero;stroke:none"
       id="text16"
       x="22.466219"
       y="-110.62714"><tspan
         x="22.466219 90.657791"
         y="-110.62714"
         sodipodi:role="line"
         id="tspan18">AY</tspan><tspan
         x="4.2817292"
         y="-65.167274"
         id="tspan20">A</tspan><tspan
         x="4.2817292"
         y="-37.891098"
         id="tspan22">Y</tspan></text>
<path
       inkscape:connector-curvature="0"
       id="path24"
       style="fill:none;stroke:#000000;stroke-width:0.5;stroke-linecap:round;stroke-linejoin:round;stroke-miterlimit:10;stroke-dasharray:none;stroke-opacity:1"
       d="m 58.8965,67.3648 c 7.0375,3.3082 9.7445,-1.8644 9.8043,-7.0378 0.0597,-8.3 -6.857,-16.5403 4.1504,-19.3684" /><path
       inkscape:connector-curvature="0"
       id="path26"
       style="fill:#000000;fill-opacity:1;fill-rule:evenodd;stroke:none"
       d="M 76.9418,40.2973 71.0473,38.432 c 1.1418,1.6243 1.5031,3.6094 0.9015,5.4739 l 4.993,-3.6086" /><path
       inkscape:connector-curvature="0"
       id="path28"
       style="fill:none;stroke:#231f20;stroke-width:0.5;stroke-linecap:round;stroke-linejoin:round;stroke-miterlimit:10;stroke-dasharray:none;stroke-opacity:1"
       d="m 27.3176,4.20703 91.6694,0" /><path
       inkscape:connector-curvature="0"
       id="path30"
       style="fill:#231f20;fill-opacity:1;fill-rule:evenodd;stroke:none"
       d="m 118.264,6.97305 8.302,-2.76602 -8.302,-2.76719 0,5.53321" /><text
       transform="scale(1,-1)"
       style="font-variant:normal;font-weight:normal;font-size:8px;font-family:Helvetica;-inkscape-font-specification:'Helvetica, Normal';writing-mode:lr;fill:#000000;fill-opacity:1;fill-rule:nonzero;stroke:none;font-style:normal;font-stretch:normal;text-anchor:start;text-align:start;line-height:125%;"
       id="text34"
       x="1.99453"
       y="-1.8"
       sodipodi:linespacing="125%"><tspan
         sodipodi:role="line"
         id="tspan4212">Tempo</tspan></text>
<path
       inkscape:connector-curvature="0"
       id="path38"
       style="fill:none;stroke:#231f20;stroke-width:0.5;stroke-linecap:butt;stroke-linejoin:round;stroke-miterlimit:10;stroke-dasharray:1.9248, 0.9624;stroke-dashoffset:0;stroke-opacity:1"
       d="m 58.8965,13.2301 0,81.2023 m 18.0453,-81.2023 0,36.0898" /><path
       inkscape:connector-curvature="0"
       id="path40"
       style="fill:none;stroke:#231f20;stroke-width:0.5;stroke-linecap:round;stroke-linejoin:round;stroke-miterlimit:10;stroke-dasharray:none;stroke-opacity:1"
       d="m 0.25,58.3422 54.1352,0 9.0226,18.0449 63.1582,0" /><path
       inkscape:connector-curvature="0"
       id="path42"
       style="fill:#ffffff;fill-opacity:1;fill-rule:evenodd;stroke:none"
       d="m 49.8738,121.5 0,-18.045 18.045,9.023 -18.045,9.022" /><path
       inkscape:connector-curvature="0"
       id="path44"
       style="fill:none;stroke:#231f20;stroke-width:0.5;stroke-linecap:round;stroke-linejoin:round;stroke-miterlimit:10;stroke-dasharray:none;stroke-opacity:1"
       d="m 49.8738,121.5 0,-18.045 18.045,9.023 -18.045,9.022 z m -4.5109,-9.022 4.5109,0 m 18.045,0 4.5113,0 m -27.0672,0 -13.5344,0 m 40.6016,0 13.5344,0" /><path
       inkscape:connector-curvature="0"
       id="path46"
       style="fill:none;stroke:#000000;stroke-width:0.5;stroke-linecap:round;stroke-linejoin:round;stroke-miterlimit:10;stroke-dasharray:none;stroke-opacity:1"
       d="m 108.22,85.4102 18.346,0" /><path
       inkscape:connector-curvature="0"
       id="path48"
       style="fill:#000000;fill-opacity:1;fill-rule:evenodd;stroke:none"
       d="m 104.009,85.4102 5.533,2.7668 c -0.841,-1.7446 -0.841,-3.85 0,-5.534 l -5.533,2.7672" /><path
       inkscape:connector-curvature="0"
       id="path50"
       style="fill:none;stroke:#000000;stroke-width:0.5;stroke-linecap:round;stroke-linejoin:round;stroke-miterlimit:10;stroke-dasharray:none;stroke-opacity:1"
       d="m 54.2645,85.4102 -18.4055,0" /><path
       inkscape:connector-curvature="0"
       id="path52"
       style="fill:#000000;fill-opacity:1;fill-rule:evenodd;stroke:none"
       d="M 58.4148,85.4102 52.8813,82.643 c 0.9023,1.684 0.9023,3.7894 0,5.534 l 5.5335,-2.7668" /><text
       transform="scale(1,-1)"
       style="font-style:oblique;font-variant:normal;font-size:7.99997997px;font-family:Helvetica;-inkscape-font-specification:Helvetica-Oblique;writing-mode:lr-tb;fill:#000000;fill-opacity:1;fill-rule:nonzero;stroke:none;"
       id="text56"
       x="78.685898"
       y="-83.003899"><tspan
         x="78.685898"
         y="-83.003899"
         id="tspan58"
         style="fill:#000000;fill-opacity:1;">t</tspan></text>
<text
       transform="scale(1,-1)"
       style="font-variant:normal;font-weight:normal;font-size:6px;font-family:Helvetica;-inkscape-font-specification:Helvetica;writing-mode:lr-tb;fill:#000000;fill-opacity:1;fill-rule:nonzero;stroke:none;"
       id="text60"
       x="80.909798"
       y="-81.003899"><tspan
         x="80.909798 84.245796"
         y="-81.003899"
         sodipodi:role="line"
         id="tspan62">pd</tspan></text>
<path
       inkscape:connector-curvature="0"
       id="path64"
       style="fill:none;stroke:#000000;stroke-width:0.5;stroke-linecap:round;stroke-linejoin:round;stroke-miterlimit:10;stroke-dasharray:none;stroke-opacity:1"
       d="m 81.152,22.2523 18.3457,0" /><path
       inkscape:connector-curvature="0"
       id="path66"
       style="fill:#000000;fill-opacity:1;fill-rule:evenodd;stroke:none"
       d="m 76.9418,22.2523 5.5332,2.7668 c -0.8418,-1.7453 -0.8418,-3.85 0,-5.5332 l -5.5332,2.7664" /><path
       inkscape:connector-curvature="0"
       id="path68"
       style="fill:none;stroke:#000000;stroke-width:0.5;stroke-linecap:round;stroke-linejoin:round;stroke-miterlimit:10;stroke-dasharray:none;stroke-opacity:1"
       d="m 54.7461,22.2523 -18.4063,0" /><path
       inkscape:connector-curvature="0"
       id="path70"
       style="fill:#000000;fill-opacity:1;fill-rule:evenodd;stroke:none"
       d="m 58.8965,22.2523 -5.5336,-2.7664 c 0.9016,1.6832 0.9016,3.7879 0,5.5332 l 5.5336,-2.7668" /><text
       transform="scale(1,-1)"
       style="font-style:oblique;font-variant:normal;font-size:7.99997997px;font-family:Helvetica;-inkscape-font-specification:Helvetica-Oblique;writing-mode:lr-tb;fill:#000000;fill-opacity:1;fill-rule:nonzero;stroke:none;"
       id="text74"
       x="65.092201"
       y="-19.8449"><tspan
         x="65.092201"
         y="-19.8449"
         id="tspan76"
         style="fill:#000000;fill-opacity:1;">t</tspan></text>
<text
       transform="scale(1,-1)"
       style="font-variant:normal;font-weight:normal;font-size:6px;font-family:Helvetica;-inkscape-font-specification:Helvetica;writing-mode:lr-tb;fill:#000000;fill-opacity:1;fill-rule:nonzero;stroke:none;"
       id="text78"
       x="67.316399"
       y="-17.8449"><tspan
         x="67.316399 70.31591"
         y="-17.8449"
         sodipodi:role="line"
         id="tspan80">cd</tspan></text>
<path
       inkscape:connector-curvature="0"
       id="path82"
       style="fill:none;stroke:#231f20;stroke-width:0.5;stroke-linecap:butt;stroke-linejoin:round;stroke-miterlimit:10;stroke-dasharray:1.9248, 0.9624;stroke-dashoffset:0;stroke-opacity:1"
       d="m 104.009,31.275 0,63.1574" /><path
       inkscape:connector-curvature="0"
       id="path84"
       style="fill:none;stroke:#000000;stroke-width:0.5;stroke-linecap:round;stroke-linejoin:round;stroke-miterlimit:10;stroke-dasharray:none;stroke-opacity:1"
       d="m 58.8965,67.3648 c 5.5336,5.6543 13.2328,0.3008 17.7445,-5.7144 7.5188,-9.9848 6.1953,-21.7738 23.218,-21.5941" /><path
       inkscape:connector-curvature="0"
       id="path86"
       style="fill:#000000;fill-opacity:1;fill-rule:evenodd;stroke:none"
       d="m 104.009,40.2973 -5.3531,-3.1278 c 0.782,1.8035 0.6621,3.8496 -0.3008,5.534 l 5.6539,-2.4062" /><path
       inkscape:connector-curvature="0"
       id="path88"
       style="fill:none;stroke:#000000;stroke-width:0.5;stroke-linecap:round;stroke-linejoin:round;stroke-miterlimit:10;stroke-dasharray:none;stroke-opacity:1"
       d="m 0.25,76.3871 54.1352,0 9.0226,-18.0449 63.1582,0 M 0.25,49.3199 l 72.1801,0 9.0226,-18.0449 M 99.4977,49.3199 108.52,31.275 m -27.0673,0 9.0223,18.0449 m 0,-18.0449 9.0227,18.0449 m -18.045,0 L 90.475,31.275 M 90.2953,48.8988 99.4977,31.275 m -99.2477,0 72.1801,0 9.0226,18.0449 18.045,0 m -18.045,-18.0449 18.045,0 9.0223,18.0449 18.046,0 M 108.52,31.275 l 18.046,0" /></g></svg>