<?xml version="1.0" encoding="UTF-8" standalone="no"?>
<svg
   xmlns:dc="http://purl.org/dc/elements/1.1/"
   xmlns:cc="http://creativecommons.org/ns#"
   xmlns:rdf="http://www.w3.org/1999/02/22-rdf-syntax-ns#"
   xmlns:svg="http://www.w3.org/2000/svg"
   xmlns="http://www.w3.org/2000/svg"
   xmlns:sodipodi="http://sodipodi.sourceforge.net/DTD/sodipodi-0.dtd"
   xmlns:inkscape="http://www.inkscape.org/namespaces/inkscape"
   viewBox="0 0 255.33874 253.26871"
   height="253.26871"
   width="255.33873"
   xml:space="preserve"
   version="1.1"
   id="svg2"
   inkscape:version="0.91 r13725"
   sodipodi:docname="glitch-A-1.svg"><sodipodi:namedview
     pagecolor="#ffffff"
     bordercolor="#666666"
     borderopacity="1"
     objecttolerance="10"
     gridtolerance="10"
     guidetolerance="10"
     inkscape:pageopacity="0"
     inkscape:pageshadow="2"
     inkscape:window-width="1855"
     inkscape:window-height="1056"
     id="namedview145"
     showgrid="false"
     inkscape:zoom="3.5022092"
     inkscape:cx="127.66937"
     inkscape:cy="126.63435"
     inkscape:window-x="65"
     inkscape:window-y="24"
     inkscape:window-maximized="1"
     inkscape:current-layer="svg2"
     fit-margin-left="5"
     fit-margin-top="5"
     fit-margin-right="5"
     fit-margin-bottom="5" /><metadata
     id="metadata8"><rdf:RDF><cc:Work
         rdf:about=""><dc:format>image/svg+xml</dc:format><dc:type
           rdf:resource="http://purl.org/dc/dcmitype/StillImage" /><dc:title></dc:title></cc:Work></rdf:RDF></metadata><defs
     id="defs6"><marker
       inkscape:isstock="true"
       style="overflow:visible"
       id="marker8386"
       refX="0"
       refY="0"
       orient="auto"
       inkscape:stockid="Arrow1Mend"><path
         transform="matrix(-0.4,0,0,-0.4,-4,0)"
         style="fill:#000000;fill-opacity:1;fill-rule:evenodd;stroke:#000000;stroke-width:1pt;stroke-opacity:1"
         d="M 0,0 5,-5 -12.5,0 5,5 0,0 Z"
         id="path8388"
         inkscape:connector-curvature="0" /></marker><marker
       inkscape:stockid="Arrow1Mend"
       orient="auto"
       refY="0"
       refX="0"
       id="marker7234"
       style="overflow:visible"
       inkscape:isstock="true"
       inkscape:collect="always"><path
         inkscape:connector-curvature="0"
         id="path7236"
         d="M 0,0 5,-5 -12.5,0 5,5 0,0 Z"
         style="fill:#000000;fill-opacity:1;fill-rule:evenodd;stroke:#000000;stroke-width:1pt;stroke-opacity:1"
         transform="matrix(-0.4,0,0,-0.4,-4,0)" /></marker><marker
       inkscape:isstock="true"
       style="overflow:visible"
       id="marker5757"
       refX="0"
       refY="0"
       orient="auto"
       inkscape:stockid="Arrow1Mend"><path
         inkscape:connector-curvature="0"
         transform="matrix(-0.4,0,0,-0.4,-4,0)"
         style="fill:#000000;fill-opacity:1;fill-rule:evenodd;stroke:#000000;stroke-width:1pt;stroke-opacity:1"
         d="M 0,0 5,-5 -12.5,0 5,5 0,0 Z"
         id="path5759" /></marker><marker
       inkscape:isstock="true"
       style="overflow:visible"
       id="marker4625"
       refX="0"
       refY="0"
       orient="auto"
       inkscape:stockid="Arrow1Mend"
       inkscape:collect="always"><path
         transform="matrix(-0.4,0,0,-0.4,-4,0)"
         style="fill:#000000;fill-opacity:1;fill-rule:evenodd;stroke:#000000;stroke-width:1pt;stroke-opacity:1"
         d="M 0,0 5,-5 -12.5,0 5,5 0,0 Z"
         id="path4627"
         inkscape:connector-curvature="0" /></marker><marker
       inkscape:stockid="Arrow1Mend"
       orient="auto"
       refY="0"
       refX="0"
       id="Arrow1Mend"
       style="overflow:visible"
       inkscape:isstock="true"
       inkscape:collect="always"><path
         id="path4324"
         d="M 0,0 5,-5 -12.5,0 5,5 0,0 Z"
         style="fill:#000000;fill-opacity:1;fill-rule:evenodd;stroke:#000000;stroke-width:1pt;stroke-opacity:1"
         transform="matrix(-0.4,0,0,-0.4,-4,0)"
         inkscape:connector-curvature="0" /></marker><marker
       inkscape:stockid="Arrow1Lend"
       orient="auto"
       refY="0"
       refX="0"
       id="Arrow1Lend"
       style="overflow:visible"
       inkscape:isstock="true"><path
         id="path4318"
         d="M 0,0 5,-5 -12.5,0 5,5 0,0 Z"
         style="fill:#000000;fill-opacity:1;fill-rule:evenodd;stroke:#000000;stroke-width:1pt;stroke-opacity:1"
         transform="matrix(-0.8,0,0,-0.8,-10,0)"
         inkscape:connector-curvature="0" /></marker></defs><path
     id="path14"
     style="fill:#ffffff;fill-opacity:1;fill-rule:evenodd;stroke:none"
     d="m 71.118625,5.3124734 0,11.2787496 11.27825,-5.63875 -11.27825,-5.6399996"
     inkscape:connector-curvature="0" /><path
     id="path18"
     style="fill:#ffffff;fill-opacity:1;fill-rule:evenodd;stroke:none"
     d="m 85.253875,10.952473 c 0,-0.75125 -0.601125,-1.4287496 -1.42825,-1.4287496 -0.752,0 -1.42875,0.6774996 -1.42875,1.4287496 0,0.7525 0.67675,1.42875 1.42875,1.42875 0.827125,0 1.42825,-0.67625 1.42825,-1.42875"
     inkscape:connector-curvature="0" /><path
     id="path20"
     style="fill:none;stroke:#231f20;stroke-width:0.625;stroke-linecap:round;stroke-linejoin:round;stroke-miterlimit:10;stroke-dasharray:none;stroke-opacity:1"
     d="m 85.253875,10.952473 2.78175,0"
     inkscape:connector-curvature="0" /><path
     id="path22"
     style="fill:none;stroke:#231f20;stroke-width:0.625;stroke-linecap:round;stroke-linejoin:round;stroke-miterlimit:10;stroke-dasharray:none;stroke-opacity:1"
     d="m 68.336875,10.952473 2.78175,0"
     inkscape:connector-curvature="0" /><path
     id="path24"
     style="fill:none;stroke:#231f20;stroke-width:0.625;stroke-linecap:round;stroke-linejoin:round;stroke-miterlimit:10;stroke-dasharray:none;stroke-opacity:1"
     d="m 85.253875,10.952473 c 0,-0.75125 -0.601125,-1.4287496 -1.42825,-1.4287496 -0.752,0 -1.42875,0.6774996 -1.42875,1.4287496 0,0.7525 0.67675,1.42875 1.42875,1.42875 0.827125,0 1.42825,-0.67625 1.42825,-1.42875 z"
     inkscape:connector-curvature="0" /><path
     id="path26"
     style="fill:#ffffff;fill-opacity:1;fill-rule:evenodd;stroke:none"
     d="m 71.118625,17.592473 0,11.27875 11.27825,-5.64 -11.27825,-5.63875"
     inkscape:connector-curvature="0" /><path
     id="path28"
     style="fill:none;stroke:#000000;stroke-width:1.50399995;stroke-linecap:round;stroke-linejoin:round;stroke-miterlimit:10;stroke-dasharray:none;stroke-opacity:1"
     d="m 71.118625,17.592473 0,11.27875 11.27825,-5.64 -11.27825,-5.63875 z"
     inkscape:connector-curvature="0" /><path
     id="path30"
     style="fill:#ffffff;fill-opacity:1;fill-rule:evenodd;stroke:none;stroke-width:1.50399995;stroke-miterlimit:10;stroke-dasharray:none"
     d="m 85.253875,23.231223 c 0,-0.75125 -0.601125,-1.4275 -1.42825,-1.4275 -0.752,0 -1.42875,0.67625 -1.42875,1.4275 0,0.7525 0.67675,1.42875 1.42875,1.42875 0.827125,0 1.42825,-0.67625 1.42825,-1.42875"
     inkscape:connector-curvature="0" /><path
     id="path32"
     style="fill:none;stroke:#000000;stroke-width:1.50399995;stroke-linecap:round;stroke-linejoin:round;stroke-miterlimit:10;stroke-dasharray:none;stroke-opacity:1"
     d="m 85.253875,23.231223 2.78175,0"
     inkscape:connector-curvature="0" /><path
     id="path34"
     style="fill:none;stroke:#000000;stroke-width:1.50399995;stroke-linecap:round;stroke-linejoin:round;stroke-miterlimit:10;stroke-dasharray:none;stroke-opacity:1"
     d="m 68.336875,23.231223 2.78175,0"
     inkscape:connector-curvature="0" /><path
     id="path36"
     style="fill:none;stroke:#000000;stroke-width:1.50399995;stroke-linecap:round;stroke-linejoin:round;stroke-miterlimit:10;stroke-dasharray:none;stroke-opacity:1"
     d="m 85.253875,23.231223 c 0,-0.75125 -0.601125,-1.4275 -1.42825,-1.4275 -0.752,0 -1.42875,0.67625 -1.42875,1.4275 0,0.7525 0.67675,1.42875 1.42875,1.42875 0.827125,0 1.42825,-0.67625 1.42825,-1.42875 z"
     inkscape:connector-curvature="0" /><path
     id="path38"
     style="fill:none;stroke:#000000;stroke-width:0.625;stroke-linecap:round;stroke-linejoin:round;stroke-miterlimit:10;stroke-dasharray:none;stroke-opacity:1"
     d="m 99.314375,10.952473 5.639125,0"
     inkscape:connector-curvature="0" /><path
     id="path40"
     style="fill:none;stroke:#000000;stroke-width:1.50374997;stroke-linecap:round;stroke-linejoin:round;stroke-miterlimit:10;stroke-dasharray:none;stroke-opacity:1"
     d="m 121.8705,6.3137234 -16.917,0 0,22.5574996 16.917,0"
     inkscape:connector-curvature="0" /><path
     id="path42"
     style="fill:#000000;fill-opacity:0;stroke:#000000;stroke-width:1.50374997;stroke-linecap:round;stroke-linejoin:round;stroke-miterlimit:10;stroke-dasharray:none;stroke-opacity:1"
     d="m 121.8705,6.3137234 c 6.24125,0 11.27825,5.0387496 11.27825,11.2787496 0,6.24 -5.037,11.27875 -11.27825,11.27875"
     inkscape:connector-curvature="0" /><path
     id="path44"
     style="fill:none;stroke:#000000;stroke-width:1.50374997;stroke-linecap:round;stroke-linejoin:round;stroke-miterlimit:10;stroke-dasharray:none;stroke-opacity:1"
     d="m 138.7875,17.592473 -5.63875,0"
     inkscape:connector-curvature="0" /><path
     id="path46"
     style="fill:none;stroke:#000000;stroke-width:1.50374997;stroke-linecap:round;stroke-linejoin:round;stroke-miterlimit:10;stroke-dasharray:none;stroke-opacity:1"
     d="m 99.314375,23.231223 5.639125,0"
     inkscape:connector-curvature="0" /><path
     id="path48"
     style="fill:#000000;fill-opacity:1;stroke:#000000;stroke-width:1.50374997;stroke-linecap:round;stroke-linejoin:round;stroke-miterlimit:10;stroke-dasharray:none;stroke-opacity:1"
     d="m 99.314375,45.787473 5.639125,0"
     inkscape:connector-curvature="0" /><path
     id="path50"
     style="fill:none;stroke:#231f20;stroke-width:0.625;stroke-linecap:round;stroke-linejoin:round;stroke-miterlimit:10;stroke-dasharray:none;stroke-opacity:1"
     d="m 99.314375,57.066223 5.639125,0"
     inkscape:connector-curvature="0" /><path
     id="path52"
     style="fill:none;stroke:#000000;stroke-width:1.50374997;stroke-linecap:round;stroke-linejoin:round;stroke-miterlimit:10;stroke-dasharray:none;stroke-opacity:1"
     d="m 121.8705,40.148723 -16.917,0 0,22.55625 16.917,0"
     inkscape:connector-curvature="0" /><path
     id="path54"
     style="fill:none;stroke:#000000;stroke-width:1.50374997;stroke-linecap:round;stroke-linejoin:round;stroke-miterlimit:10;stroke-dasharray:none;stroke-opacity:1"
     d="m 121.8705,40.148723 c 6.24125,0 11.27825,5.0375 11.27825,11.2775 0,6.24125 -5.037,11.27875 -11.27825,11.27875"
     inkscape:connector-curvature="0" /><path
     id="path56"
     style="fill:none;stroke:#000000;stroke-width:1.50374997;stroke-linecap:round;stroke-linejoin:round;stroke-miterlimit:10;stroke-dasharray:none;stroke-opacity:1"
     d="m 138.7875,51.426223 -5.63875,0"
     inkscape:connector-curvature="0" /><path
     id="path58"
     style="fill:none;stroke:#000000;stroke-width:1.50374997;stroke-linecap:round;stroke-linejoin:round;stroke-miterlimit:10;stroke-dasharray:none;stroke-opacity:1"
     d="m 155.705,28.871223 8.19625,0"
     inkscape:connector-curvature="0" /><path
     id="path60"
     style="fill:none;stroke:#000000;stroke-width:1.50374997;stroke-linecap:round;stroke-linejoin:round;stroke-miterlimit:10;stroke-dasharray:none;stroke-opacity:1"
     d="m 155.705,40.148723 8.045,0"
     inkscape:connector-curvature="0" /><path
     id="path62"
     style="fill:none;stroke:#000000;stroke-width:1.5;stroke-linecap:round;stroke-linejoin:round;stroke-miterlimit:10;stroke-dasharray:none;stroke-opacity:1"
     d="m 161.34375,45.787473 5.64,0"
     inkscape:connector-curvature="0" /><path
     id="path64"
     style="fill:none;stroke:#000000;stroke-width:1.5;stroke-linecap:round;stroke-linejoin:round;stroke-miterlimit:10;stroke-dasharray:none;stroke-opacity:1"
     d="m 161.34375,23.231223 5.64,0"
     inkscape:connector-curvature="0" /><path
     id="path66"
     style="fill:none;stroke:#000000;stroke-width:1.5;stroke-linecap:round;stroke-linejoin:round;stroke-miterlimit:10;stroke-dasharray:none;stroke-opacity:1"
     d="m 164.20125,34.509973 c 0,-6.24125 -1.1275,-11.27875 -2.48125,-11.27875"
     inkscape:connector-curvature="0" /><path
     id="path68"
     style="fill:none;stroke:#000000;stroke-width:1.5;stroke-linecap:round;stroke-linejoin:round;stroke-miterlimit:10;stroke-dasharray:none;stroke-opacity:1"
     d="m 164.20125,34.509973 c 0,6.24125 -1.2775,11.2775 -2.8575,11.2775"
     inkscape:connector-curvature="0" /><path
     id="path70"
     style="fill:none;stroke:#000000;stroke-width:1.5;stroke-linecap:round;stroke-linejoin:round;stroke-miterlimit:10;stroke-dasharray:none;stroke-opacity:1"
     d="m 166.98375,23.231223 c 12.48,0 22.55625,5.0375 22.55625,11.27875"
     inkscape:connector-curvature="0" /><path
     id="path72"
     style="fill:none;stroke:#000000;stroke-width:1.5;stroke-linecap:round;stroke-linejoin:round;stroke-miterlimit:10;stroke-dasharray:none;stroke-opacity:1"
     d="m 189.54,34.509973 c 0,6.24125 -10.07625,11.2775 -22.55625,11.2775"
     inkscape:connector-curvature="0" /><path
     id="path74"
     style="fill:none;stroke:#231f20;stroke-width:1.5;stroke-linecap:round;stroke-linejoin:round;stroke-miterlimit:10;stroke-dasharray:none;stroke-opacity:1"
     d="m 195.17875,34.509973 -5.63875,0"
     inkscape:connector-curvature="0" /><path
     id="path76"
     style="fill:none;stroke:#000000;stroke-width:1.50374997;stroke-linecap:round;stroke-linejoin:round;stroke-miterlimit:10;stroke-dasharray:none;stroke-opacity:1"
     d="m 138.7875,17.592473 8.4975,0 0,11.27875 8.42,0"
     inkscape:connector-curvature="0" /><path
     id="path78"
     style="fill:none;stroke:#000000;stroke-width:1.50374997;stroke-linecap:round;stroke-linejoin:round;stroke-miterlimit:10;stroke-dasharray:none;stroke-opacity:1"
     d="m 138.7875,51.426223 8.4975,0 0,-11.2775 8.42,0"
     inkscape:connector-curvature="0" /><path
     id="path80"
     style="fill:none;stroke:#231f20;stroke-width:0.625;stroke-linecap:round;stroke-linejoin:round;stroke-miterlimit:10;stroke-dasharray:none;stroke-opacity:1"
     d="m 88.035625,10.952473 11.27875,0"
     inkscape:connector-curvature="0" /><path
     id="path82"
     style="fill:none;stroke:#000000;stroke-width:1.50399995;stroke-linecap:round;stroke-linejoin:round;stroke-miterlimit:10;stroke-dasharray:none;stroke-opacity:1"
     d="m 88.035625,23.231223 11.27875,0"
     inkscape:connector-curvature="0" /><path
     id="path84"
     style="fill:none;stroke:#000000;stroke-width:1.50374997;stroke-linecap:round;stroke-linejoin:round;stroke-miterlimit:10;stroke-dasharray:none;stroke-opacity:1"
     d="m 99.314375,45.787473 -39.473625,0 0,-22.55625"
     inkscape:connector-curvature="0" /><g
     id="g4588"
     transform="translate(4.5800003,-8.4362766)"><path
       inkscape:connector-curvature="0"
       d="m 66.538625,13.74875 0,11.27875 11.27825,-5.63875 -11.27825,-5.64 z"
       style="fill:none;stroke:#231f20;stroke-width:0.625;stroke-linecap:round;stroke-linejoin:round;stroke-miterlimit:10;stroke-dasharray:none;stroke-opacity:1"
       id="path16" /><path
       inkscape:connector-curvature="0"
       d="m 63.756875,19.38875 -19.7745,0"
       style="fill:none;stroke:#231f20;stroke-width:0.625;stroke-linecap:round;stroke-linejoin:round;stroke-miterlimit:10;stroke-dasharray:none;stroke-opacity:1"
       id="path86" /></g><path
     id="path88"
     style="fill:none;stroke:#000000;stroke-width:0.72500002;stroke-linecap:round;stroke-linejoin:round;stroke-miterlimit:10;stroke-dasharray:none;stroke-opacity:1"
     d="m 99.314375,57.066223 -50.752,0"
     inkscape:connector-curvature="0" /><path
     id="path90"
     style="fill:none;stroke:#000000;stroke-width:1.50399995;stroke-linecap:round;stroke-linejoin:round;stroke-miterlimit:10;stroke-dasharray:none;stroke-opacity:1"
     d="m 68.336875,23.231223 -19.7745,0"
     inkscape:connector-curvature="0" /><g
     transform="matrix(1.25,0,0,-1.25,4.5800003,248.33872)"
     id="g92"><text
       id="text94"
       style="font-style:oblique;font-variant:normal;font-size:8px;font-family:Helvetica;-inkscape-font-specification:Helvetica-Oblique;writing-mode:lr-tb;fill:#000000;fill-opacity:1;fill-rule:nonzero;stroke:none"
       transform="matrix(1,0,0,-1,14.4359,187.502)"><tspan
         id="tspan96"
         y="0"
         x="0">A</tspan></text>
<text
       id="text98"
       style="font-variant:normal;font-weight:normal;font-size:8px;font-family:Helvetica;-inkscape-font-specification:Helvetica;writing-mode:lr-tb;fill:#000000;fill-opacity:1;fill-rule:nonzero;stroke:none"
       transform="matrix(1,0,0,-1,21.1621,187.502)"><tspan
         id="tspan100"
         y="0"
         x="0">=</tspan></text>
<text
       id="text102"
       style="font-variant:normal;font-weight:normal;font-size:8px;font-family:Helvetica;-inkscape-font-specification:Helvetica;writing-mode:lr-tb;fill:#000000;fill-opacity:1;fill-rule:nonzero;stroke:none"
       transform="matrix(1,0,0,-1,27.2242,187.502)"><tspan
         id="tspan104"
         y="0"
         x="0">0</tspan></text>
<text
       id="text106"
       style="font-style:oblique;font-variant:normal;font-size:8px;font-family:Helvetica;-inkscape-font-specification:Helvetica-Oblique;writing-mode:lr-tb;fill:#000000;fill-opacity:1;fill-rule:nonzero;stroke:none"
       transform="matrix(1,0,0,-1,14.8047,150.541)"><tspan
         id="tspan108"
         y="0"
         x="0">C</tspan></text>
<text
       id="text110"
       style="font-variant:normal;font-weight:normal;font-size:8px;font-family:Helvetica;-inkscape-font-specification:Helvetica;writing-mode:lr-tb;fill:#000000;fill-opacity:1;fill-rule:nonzero;stroke:none"
       transform="matrix(1,0,0,-1,21.9707,150.541)"><tspan
         id="tspan112"
         y="0"
         x="0">=</tspan></text>
<text
       id="text114"
       style="font-variant:normal;font-weight:normal;font-size:8px;font-family:Helvetica;-inkscape-font-specification:Helvetica;writing-mode:lr-tb;fill:#000000;fill-opacity:1;fill-rule:nonzero;stroke:none"
       transform="matrix(1,0,0,-1,28.0328,150.541)"><tspan
         id="tspan116"
         y="0"
         x="0">1</tspan></text>
<text
       id="text118"
       style="font-style:oblique;font-variant:normal;font-weight:bold;font-size:8px;font-family:Helvetica;-inkscape-font-specification:Helvetica-BoldOblique;writing-mode:lr-tb;fill:#000000;fill-opacity:1;fill-rule:nonzero;stroke:none"
       transform="matrix(1,0,0,-1,0,177.739)"><tspan
         id="tspan120"
         y="0"
         x="0 5.776">B </tspan></text>
<text
       id="text122"
       style="font-variant:normal;font-weight:bold;font-size:8px;font-family:Helvetica;-inkscape-font-specification:Helvetica-Bold;writing-mode:lr-tb;fill:#000000;fill-opacity:1;fill-rule:nonzero;stroke:none"
       transform="matrix(1,0,0,-1,8,177.739)"><tspan
         id="tspan124"
         y="0"
         x="0">=</tspan></text>
<text
       id="text126"
       style="font-variant:normal;font-weight:bold;font-size:8px;font-family:Helvetica;-inkscape-font-specification:Helvetica-Bold;writing-mode:lr-tb;fill:#000000;fill-opacity:1;fill-rule:nonzero;stroke:none"
       transform="matrix(1,0,0,-1,14.0621,177.739)"><tspan
         id="tspan128"
         y="0"
         x="0 4.4477558 13.3435">1 0</tspan></text>
</g><path
     id="path130"
     style="fill:none;stroke:#231f20;stroke-width:0.90224999;stroke-linecap:round;stroke-linejoin:round;stroke-miterlimit:10;stroke-dasharray:none;stroke-opacity:1"
     d="m 27.8535,23.231223 6.240125,0"
     inkscape:connector-curvature="0" /><path
     id="path132"
     style="fill:#231f20;fill-opacity:1;fill-rule:evenodd;stroke:none"
     d="m 38.229375,23.231223 -5.414,2.7075 c 0.827125,-1.73 0.827125,-3.685 0,-5.41375 l 5.414,2.70625"
     inkscape:connector-curvature="0" /><g
     transform="matrix(1.25,0,0,-1.25,4.5800003,248.33872)"
     id="g134"><text
       id="text136"
       style="font-style:oblique;font-variant:normal;font-weight:bold;font-size:8px;font-family:Helvetica;-inkscape-font-specification:Helvetica-BoldOblique;writing-mode:lr-tb;fill:#000000;fill-opacity:1;fill-rule:nonzero;stroke:none"
       transform="matrix(1,0,0,-1,153.612,168.717)"><tspan
         id="tspan138"
         y="0"
         x="0">Y</tspan></text>
<text
       id="text140"
       style="font-variant:normal;font-weight:bold;font-size:8px;font-family:Helvetica;-inkscape-font-specification:Helvetica-Bold;writing-mode:lr-tb;fill:#000000;fill-opacity:1;fill-rule:nonzero;stroke:none"
       transform="matrix(1,0,0,-1,160.338,168.717)"><tspan
         id="tspan142"
         y="0"
         x="0">=</tspan></text>
<text
       id="text144"
       style="font-variant:normal;font-weight:bold;font-size:8px;font-family:Helvetica;-inkscape-font-specification:Helvetica-Bold;writing-mode:lr-tb;fill:#000000;fill-opacity:1;fill-rule:nonzero;stroke:none"
       transform="matrix(1,0,0,-1,166.4,168.717)"><tspan
         id="tspan146"
         y="0"
         x="0">1</tspan></text>
</g><g
     transform="matrix(1.25,0,0,-1.25,4.5800003,248.33872)"
     id="g148"
     style="fill:#000000;fill-opacity:1;stroke-width:0.7216;stroke-miterlimit:10;stroke-dasharray:none"><text
       id="text150"
       style="font-variant:normal;font-weight:bold;font-size:8px;font-family:Helvetica;-inkscape-font-specification:Helvetica-Bold;writing-mode:lr-tb;fill:#000000;fill-opacity:1;fill-rule:nonzero;stroke:none;stroke-width:0.7216;stroke-miterlimit:10;stroke-dasharray:none"
       transform="matrix(1,0,0,-1,180.17,168.717)"><tspan
         id="tspan152"
         y="0"
         x="0"
         style="fill:#000000;fill-opacity:1;stroke-width:0.7216;stroke-miterlimit:10;stroke-dasharray:none">0</tspan></text>
</g><g
     transform="matrix(1.25,0,0,-1.25,4.5800003,248.33872)"
     id="g154"
     style="fill:#000000;fill-opacity:1;stroke-width:0.7216;stroke-miterlimit:10;stroke-dasharray:none"><text
       id="text156"
       style="font-variant:normal;font-weight:bold;font-size:8px;font-family:Helvetica;-inkscape-font-specification:Helvetica-Bold;writing-mode:lr-tb;fill:#000000;fill-opacity:1;fill-rule:nonzero;stroke:none;stroke-width:0.7216;stroke-miterlimit:10;stroke-dasharray:none"
       transform="matrix(1,0,0,-1,193.583,168.717)"><tspan
         id="tspan158"
         y="0"
         x="0"
         style="fill:#000000;fill-opacity:1;stroke-width:0.7216;stroke-miterlimit:10;stroke-dasharray:none">1</tspan></text>
</g><path
     id="path160"
     style="fill:#000000;fill-opacity:0.99215686;stroke:#000000;stroke-width:0.90224999;stroke-linecap:round;stroke-linejoin:round;stroke-miterlimit:10;stroke-dasharray:none;stroke-opacity:1"
     d="m 218.665,34.509973 6.24,0"
     inkscape:connector-curvature="0" /><path
     id="path162"
     style="fill:#000000;fill-opacity:1;fill-rule:evenodd;stroke:none;stroke-width:0.90200001;stroke-miterlimit:10;stroke-dasharray:none"
     d="m 228.965,34.509973 -5.41375,2.70625 c 0.9025,-1.72875 0.9025,-3.68375 0,-5.4125 l 5.41375,2.70625"
     inkscape:connector-curvature="0" /><path
     id="path164"
     style="fill:#000000;fill-opacity:1;stroke:#000000;stroke-width:0.90200001;stroke-linecap:round;stroke-linejoin:round;stroke-miterlimit:10;stroke-dasharray:none;stroke-opacity:1"
     d="m 236.0325,34.509973 6.24,0"
     inkscape:connector-curvature="0" /><path
     id="path166"
     style="fill:#000000;fill-opacity:1;fill-rule:evenodd;stroke:none;stroke-width:0.90200001;stroke-miterlimit:10;stroke-dasharray:none"
     d="m 246.40875,34.509973 -5.41375,2.70625 c 0.82625,-1.72875 0.82625,-3.68375 0,-5.4125 l 5.41375,2.70625"
     inkscape:connector-curvature="0" /><text
     style="font-style:normal;font-variant:normal;font-weight:normal;font-stretch:normal;font-size:10px;line-height:100%;font-family:Helvetica;-inkscape-font-specification:'Helvetica, Normal';text-align:start;writing-mode:lr-tb;text-anchor:start;fill:#000000;fill-opacity:1;fill-rule:nonzero;stroke:none"
     id="text178"
     x="4.0416965"
     y="77.483345"
     sodipodi:linespacing="100%"><tspan
       sodipodi:role="line"
       id="tspan4677"
       x="4.0416965"
       y="77.483345">Caminho</tspan><tspan
       sodipodi:role="line"
       id="tspan4679"
       x="4.0416965"
       y="87.483345">Curto</tspan></text>
<g
     transform="matrix(1.25,0,0,-1.25,22.58,258.33872)"
     id="g182"
     style="fill:#000000;fill-opacity:1"><text
       id="text184"
       style="font-style:normal;font-variant:normal;font-weight:normal;font-stretch:normal;font-size:8px;line-height:125%;font-family:Helvetica;-inkscape-font-specification:'Helvetica, Normal';text-align:start;writing-mode:lr-tb;text-anchor:start;fill:#000000;fill-opacity:1;fill-rule:nonzero;stroke:none"
       transform="scale(1,-1)"
       sodipodi:linespacing="125%"
       x="117.194"
       y="-142.55179"><tspan
         sodipodi:role="line"
         id="tspan4672"
         x="117.194"
         y="-142.55179">Caminho Crítico</tspan></text>
</g><g
     transform="matrix(1.25,0,0,-1.25,4.5800003,248.33872)"
     id="g188"><text
       id="text190"
       style="font-style:oblique;font-variant:normal;font-size:8px;font-family:Helvetica;-inkscape-font-specification:Helvetica-Oblique;writing-mode:lr-tb;fill:#000000;fill-opacity:1;fill-rule:nonzero;stroke:none"
       transform="matrix(1,0,0,-1,31.2766,101.048)"><tspan
         id="tspan192"
         y="0"
         x="0">B</tspan><tspan
         id="tspan194"
         y="81.203102"
         x="0">Y</tspan></text>
</g><path
     id="path196"
     style="fill:none;stroke:#231f20;stroke-width:0.625;stroke-linecap:round;stroke-linejoin:round;stroke-miterlimit:10;stroke-dasharray:none;stroke-opacity:1"
     d="m 69.7655,243.15611 161.05325,0"
     inkscape:connector-curvature="0" /><path
     id="path198"
     style="fill:#231f20;fill-opacity:1;fill-rule:evenodd;stroke:none"
     d="m 229.91625,239.69761 10.375,3.4585 -10.375,3.45897 0,-6.91747"
     inkscape:connector-curvature="0" /><g
     transform="matrix(1.25,0,0,-1.25,4.5800003,248.33872)"
     id="g200"><text
       id="text202"
       style="font-variant:normal;font-weight:normal;font-size:8px;font-family:Helvetica;-inkscape-font-specification:Helvetica;writing-mode:lr-tb;fill:#000000;fill-opacity:1;fill-rule:nonzero;stroke:none"
       transform="matrix(1,0,0,-1,26.7652,1.8)"><tspan
         id="tspan204"
         y="0"
         x="0">Tempo</tspan></text>
</g><path
     id="path206"
     style="fill:none;stroke:#231f20;stroke-width:0.625;stroke-linecap:round;stroke-linejoin:round;stroke-miterlimit:10;stroke-dasharray:none;stroke-opacity:1"
     d="m 240.29125,209.32259 -2.78125,0"
     inkscape:connector-curvature="0" /><path
     id="path208"
     style="fill:none;stroke:#000000;stroke-width:0.625;stroke-linecap:round;stroke-linejoin:round;stroke-miterlimit:10;stroke-dasharray:none;stroke-opacity:1"
     d="m 195.17875,130.37484 45.1125,0"
     inkscape:connector-curvature="0" /><path
     id="path210"
     style="fill:none;stroke:#000000;stroke-width:1;stroke-linecap:round;stroke-linejoin:round;stroke-miterlimit:10;stroke-dasharray:none;stroke-opacity:1"
     d="m 237.51,209.32259 -64.8875,0"
     inkscape:connector-curvature="0" /><path
     id="path212"
     style="fill:none;stroke:#000000;stroke-width:1;stroke-linecap:round;stroke-linejoin:round;stroke-miterlimit:10;stroke-dasharray:none;stroke-opacity:1"
     d="m 37.284125,209.32259 95.864625,0 11.27875,22.55613 16.91625,0 11.27875,-22.55613"
     inkscape:connector-curvature="0" /><g
     transform="matrix(1.25,0,0,-1.25,4.5800003,248.33872)"
     id="g214"
     style="fill:#000000;fill-opacity:1"><text
       id="text216"
       style="font-variant:normal;font-weight:bold;font-size:8px;font-family:Helvetica;-inkscape-font-specification:Helvetica-Bold;writing-mode:lr-tb;fill:#000000;fill-opacity:1;fill-rule:nonzero;stroke:none"
       transform="matrix(1,0,0,-1,104.78,149.53)"><tspan
         id="tspan218"
         y="0"
         x="0 4.4482441 13.344137"
         style="fill:#000000;fill-opacity:1">1 0</tspan></text>
</g><path
     id="path220"
     style="fill:#000000;fill-opacity:1;stroke:#000000;stroke-width:0.90224999;stroke-linecap:round;stroke-linejoin:round;stroke-miterlimit:10;stroke-dasharray:none;stroke-opacity:1"
     d="m 141.645,58.494973 6.24125,0"
     inkscape:connector-curvature="0" /><path
     id="path222"
     style="fill:#000000;fill-opacity:1;fill-rule:evenodd;stroke:none"
     d="m 151.94625,58.494973 -5.41375,2.70625 c 0.9025,-1.72875 0.9025,-3.75875 0,-5.41375 l 5.41375,2.7075"
     inkscape:connector-curvature="0" /><g
     transform="matrix(1.25,0,0,-1.25,4.5800003,248.33872)"
     id="g224"
     style="fill:#000000;fill-opacity:0.86666667"><text
       id="text226"
       style="font-variant:normal;font-weight:bold;font-size:8px;font-family:Helvetica;-inkscape-font-specification:Helvetica-Bold;writing-mode:lr-tb;fill:#000000;fill-opacity:0.86666667;fill-rule:nonzero;stroke:none"
       transform="matrix(1,0,0,-1,104.72,186.762)"><tspan
         id="tspan228"
         y="0"
         x="0 4.4482441 13.343358"
         style="fill:#000000;fill-opacity:0.86666667">0 1</tspan></text>
</g><path
     id="path230"
     style="fill:#000000;fill-opacity:1;stroke:#000000;stroke-width:0.90224999;stroke-linecap:round;stroke-linejoin:round;stroke-miterlimit:10;stroke-dasharray:none;stroke-opacity:1"
     d="m 141.645,11.953723 6.24125,0"
     inkscape:connector-curvature="0" /><path
     id="path232"
     style="fill:#000000;fill-opacity:1;fill-rule:evenodd;stroke:none"
     d="m 151.94625,11.953723 -5.41375,2.70625 c 0.9025,-1.72875 0.9025,-3.68375 0,-5.4124996 l 5.41375,2.7062496"
     inkscape:connector-curvature="0" /><path
     id="path234"
     style="fill:none;stroke:#000000;stroke-width:1;stroke-linecap:butt;stroke-linejoin:round;stroke-miterlimit:10;stroke-dasharray:3.8496, 1.9248;stroke-dashoffset:0;stroke-opacity:1"
     d="m 172.6225,217.74247 c 0,-10.90125 -8.7975,-19.69863 -19.69875,-19.69863 -10.9025,0 -19.775,8.79738 -19.775,19.69863 0,10.90387 8.8725,19.77642 19.775,19.77642 10.90125,0 19.69875,-8.87255 19.69875,-19.77642 z"
     inkscape:connector-curvature="0" /><path
     id="path236"
     style="fill:none;stroke:#000000;stroke-width:1.00000006;stroke-linecap:round;stroke-linejoin:round;stroke-miterlimit:10;stroke-dasharray:none;stroke-opacity:1"
     d="m 177.735,222.25372 23.0825,-1.27725"
     inkscape:connector-curvature="0" /><path
     id="path238"
     style="fill:#000000;fill-opacity:1;fill-rule:evenodd;stroke:none"
     d="m 172.5475,222.55497 6.6925,-3.83488 c -0.97875,2.25638 -0.82875,4.8125 0.375,6.9175 l -7.0675,-3.08262"
     inkscape:connector-curvature="0" /><g
     transform="matrix(1.25,0,0,-1.25,4.5800003,248.33872)"
     id="g240"><text
       id="text242"
       style="font-variant:normal;font-weight:normal;font-size:8px;font-family:Helvetica;-inkscape-font-specification:Helvetica;writing-mode:lr-tb;fill:#000000;fill-opacity:1;fill-rule:nonzero;stroke:none"
       transform="matrix(1,0,0,-1,160.178,19.8449)"><tspan
         id="tspan244"
         y="0"
         x="0 4.4482441 6.2237558 8 10.223634 14.223268">glitch</tspan></text>
</g><g
     transform="matrix(1.25,0,0,-1.25,4.5800003,248.33872)"
     id="g246"
     style="fill:#000000;fill-opacity:1"><text
       id="text248"
       style="font-variant:normal;font-weight:bold;font-size:6.01502991px;font-family:Helvetica;-inkscape-font-specification:Helvetica-Bold;writing-mode:lr-tb;fill:#000000;fill-opacity:1;fill-rule:nonzero;stroke:none"
       transform="matrix(1,0,0,-1,104.479,177.198)"><tspan
         id="tspan250"
         y="0"
         x="0 3.6748629"
         style="fill:#000000;fill-opacity:1">n1</tspan></text>
</g><g
     transform="matrix(1.25,0,0,-1.25,4.5800003,248.33872)"
     id="g252"
     style="fill:#000000;fill-opacity:1"><text
       id="text254"
       style="font-variant:normal;font-weight:bold;font-size:6.01502991px;font-family:Helvetica;-inkscape-font-specification:Helvetica-Bold;writing-mode:lr-tb;fill:#000000;fill-opacity:1;fill-rule:nonzero;stroke:none"
       transform="matrix(1,0,0,-1,105.381,160.236)"><tspan
         id="tspan256"
         y="0"
         x="0 3.6748629"
         style="fill:#000000;fill-opacity:1">n2</tspan></text>
<text
       id="text258"
       style="font-variant:normal;font-weight:normal;font-size:8px;font-family:Helvetica;-inkscape-font-specification:Helvetica;writing-mode:lr-tb;fill:#000000;fill-opacity:1;fill-rule:nonzero;stroke:none"
       transform="matrix(1,0,0,-1,31.2767,73.9801)"><tspan
         id="tspan260"
         y="0"
         x="0 4.4482441"
         style="fill:#000000;fill-opacity:1">n2</tspan></text>
</g><g
     transform="matrix(1.25,0,0,-1.25,4.5800003,248.33872)"
     id="g262"
     style="fill:#000000;fill-opacity:1"><text
       id="text264"
       style="font-variant:normal;font-weight:normal;font-size:8px;font-family:Helvetica;-inkscape-font-specification:Helvetica;writing-mode:lr-tb;fill:#000000;fill-opacity:1;fill-rule:nonzero;stroke:none"
       transform="matrix(1,0,0,-1,31.2766,45.7699)"><tspan
         id="tspan266"
         y="0"
         x="0 4.4482441"
         style="fill:#000000;fill-opacity:1">n1</tspan></text>
</g><path
     id="path268"
     style="fill:none;stroke:#000000;stroke-width:1;stroke-linecap:round;stroke-linejoin:round;stroke-miterlimit:10;stroke-dasharray:none;stroke-dashoffset:0;stroke-opacity:1"
     d="m 65.780625,118.26997 c 10.376,-5.865 43.730395,7.37938 51.323645,19.63426 12.85738,20.6025 4.21112,45.55039 11.38248,46.75436"
     inkscape:connector-curvature="0"
     sodipodi:nodetypes="ccc" /><path
     id="path270"
     style="fill:#000000;fill-opacity:1;fill-rule:evenodd;stroke:none"
     d="m 133.52375,186.08872 -7.59212,1.50487 c 1.65324,-1.80462 2.32999,-4.28762 1.87887,-6.69237 l 5.71325,5.1875"
     inkscape:connector-curvature="0" /><path
     id="path272"
     style="fill:#000000;fill-opacity:1;fill-rule:evenodd;stroke:none"
     d="m 166.735,220.62384 -7.59375,1.50488 c 1.65375,-1.80513 2.33,-4.2875 1.87875,-6.69238 l 5.715,5.1875"
     inkscape:connector-curvature="0" /><path
     id="path274"
     style="fill:none;stroke:#000000;stroke-width:1;stroke-linecap:round;stroke-linejoin:round;stroke-miterlimit:10;stroke-dasharray:none;stroke-opacity:1"
     d="m 37.284125,107.81747 22.556625,0 11.277875,22.55737 169.172625,0"
     inkscape:connector-curvature="0" /><path
     id="path276"
     style="fill:none;stroke:#000000;stroke-width:1;stroke-linecap:round;stroke-linejoin:round;stroke-miterlimit:10;stroke-dasharray:none;stroke-opacity:1"
     d="m 37.284125,141.65272 56.390625,0 11.27875,22.55712 135.33775,0"
     inkscape:connector-curvature="0" /><path
     id="path278"
     style="fill:none;stroke:#000000;stroke-width:1;stroke-linecap:round;stroke-linejoin:round;stroke-miterlimit:10;stroke-dasharray:none;stroke-opacity:1"
     d="m 37.284125,198.04384 90.225625,0 11.27775,-22.55525 101.50375,0"
     inkscape:connector-curvature="0" /><path
     id="path280"
     style="fill:none;stroke:#000000;stroke-width:1;stroke-linecap:round;stroke-linejoin:round;stroke-miterlimit:10;stroke-dasharray:4, 4;stroke-dashoffset:0;stroke-opacity:1"
     d="m 64.878375,119.09622 c 4.662125,-2.33 10.67625,4.21 14.06,10.15025 5.338375,9.47362 4.060125,17.36962 16.165125,23.00825"
     inkscape:connector-curvature="0" /><path
     id="path282"
     style="fill:#000000;fill-opacity:1;fill-rule:evenodd;stroke:none"
     d="m 99.990627,154.13509 -7.744127,0.751 c 1.80425,-1.65475 2.707,-4.061 2.4815,-6.46725 l 5.262627,5.71625"
     inkscape:connector-curvature="0" /><path
     id="path284"
     style="fill:none;stroke:#000000;stroke-width:1;stroke-linecap:round;stroke-linejoin:round;stroke-miterlimit:10;stroke-dasharray:4, 4;stroke-dashoffset:0;stroke-opacity:1"
     d="m 99.615127,153.45884 c -10.076459,8.07481 -10.429924,20.76905 -9.678054,32.04792 1.3535,19.09913 17.572677,22.16208 43.512927,32.38708"
     inkscape:connector-curvature="0"
     sodipodi:nodetypes="ccc" /><path
     id="path286"
     style="fill:#000000;fill-opacity:1;fill-rule:evenodd;stroke:none"
     d="m 138.33625,219.62247 -7.67,0.9775 c 1.73125,-1.65388 2.63375,-4.06013 2.33125,-6.46488 l 5.33875,5.48738"
     inkscape:connector-curvature="0" /><path
     id="path288"
     style="fill:none;stroke:#000000;stroke-width:1;stroke-linecap:round;stroke-linejoin:round;stroke-miterlimit:10;stroke-dasharray:none;stroke-opacity:1"
     d="m 133.825,185.41247 c 8.7225,-6.46638 14.21125,0.22512 15.865,7.5185 2.78125,11.95512 -4.43625,25.48875 12.7825,26.39012"
     inkscape:connector-curvature="0"
     sodipodi:nodetypes="ccc" /><path
     inkscape:connector-curvature="0"
     d="M 221.9147,82.373586 C 228.87351,135.72632 205.51585,171.8889 173.45781,201.44884"
     style="fill:none;stroke:#000000;stroke-width:1;stroke-linecap:round;stroke-linejoin:round;stroke-miterlimit:10;stroke-dasharray:1, 2;stroke-dashoffset:0;stroke-opacity:1;marker-end:url(#Arrow1Mend)"
     id="path4309"
     sodipodi:nodetypes="cc" /><path
     style="opacity:0.95;fill:none;fill-rule:evenodd;stroke:#000000;stroke-width:1;stroke-linecap:butt;stroke-linejoin:miter;stroke-miterlimit:4;stroke-dasharray:2, 1;stroke-dashoffset:0;stroke-opacity:1;marker-end:url(#marker4625)"
     d="M 11.527688,88.252393 C 2.9881055,126.53963 -26.361472,271.05386 123.55917,226.91667"
     id="path4617"
     inkscape:connector-curvature="0"
     sodipodi:nodetypes="cc" /><path
     sodipodi:nodetypes="cc"
     inkscape:connector-curvature="0"
     id="path7232"
     d="M 219.08076,72.330606 C 209.09374,46.351718 158.32213,78.255488 144.97207,29.775994"
     style="opacity:0.95;fill:none;fill-rule:evenodd;stroke:#000000;stroke-width:1;stroke-linecap:butt;stroke-linejoin:miter;stroke-miterlimit:4;stroke-dasharray:2, 1;stroke-dashoffset:0;stroke-opacity:1;marker-end:url(#marker7234)" /><path
     style="opacity:0.95;fill:none;fill-rule:evenodd;stroke:#000000;stroke-width:1;stroke-linecap:butt;stroke-linejoin:miter;stroke-miterlimit:4;stroke-dasharray:2, 1;stroke-dashoffset:0;stroke-opacity:1;marker-end:url(#marker8386)"
     d="M 10.339265,68.567274 C 4.9840378,29.271983 19.057526,33.96397 58.683595,36.144709"
     id="path8384"
     inkscape:connector-curvature="0"
     sodipodi:nodetypes="cc" /></svg>