<?xml version="1.0" encoding="UTF-8" standalone="no"?>
<!-- Created with Inkscape (http://www.inkscape.org/) -->

<svg
   xmlns:dc="http://purl.org/dc/elements/1.1/"
   xmlns:cc="http://creativecommons.org/ns#"
   xmlns:rdf="http://www.w3.org/1999/02/22-rdf-syntax-ns#"
   xmlns:svg="http://www.w3.org/2000/svg"
   xmlns="http://www.w3.org/2000/svg"
   xmlns:sodipodi="http://sodipodi.sourceforge.net/DTD/sodipodi-0.dtd"
   xmlns:inkscape="http://www.inkscape.org/namespaces/inkscape"
   id="svg2"
   version="1.1"
   inkscape:version="0.91 r13725"
   xml:space="preserve"
   width="185.97894"
   height="206.73399"
   viewBox="0 0 185.97894 206.73399"
   sodipodi:docname="glitch-1.svg"><metadata
     id="metadata8"><rdf:RDF><cc:Work
         rdf:about=""><dc:format>image/svg+xml</dc:format><dc:type
           rdf:resource="http://purl.org/dc/dcmitype/StillImage" /><dc:title></dc:title></cc:Work></rdf:RDF></metadata><defs
     id="defs6" /><sodipodi:namedview
     pagecolor="#ffffff"
     bordercolor="#666666"
     borderopacity="1"
     objecttolerance="10"
     gridtolerance="10"
     guidetolerance="10"
     inkscape:pageopacity="0"
     inkscape:pageshadow="2"
     inkscape:window-width="1855"
     inkscape:window-height="1056"
     id="namedview4"
     showgrid="false"
     fit-margin-top="10"
     fit-margin-left="10"
     fit-margin-bottom="10"
     fit-margin-right="10"
     inkscape:zoom="4.5849609"
     inkscape:cx="31.525408"
     inkscape:cy="102.33146"
     inkscape:window-x="1985"
     inkscape:window-y="24"
     inkscape:window-maximized="1"
     inkscape:current-layer="g10" /><g
     id="g10"
     inkscape:groupmode="layer"
     inkscape:label="ink_ext_XXXXXX"
     transform="matrix(1.25,0,0,-1.25,10.123945,198.80253)"><g
       id="g12"
       transform="scale(0.1,0.1)"><path
         d="m 255.641,1507.92 0,-90.22 90.222,45.11 -90.222,45.11"
         style="fill:#ffffff;fill-opacity:1;fill-rule:evenodd;stroke:none"
         id="path14"
         inkscape:connector-curvature="0" /><path
         d="m 255.641,1507.92 0,-90.22 90.222,45.11 -90.222,45.11 z"
         style="fill:none;stroke:#231f20;stroke-width:5;stroke-linecap:round;stroke-linejoin:round;stroke-miterlimit:10;stroke-dasharray:none;stroke-opacity:1"
         id="path16"
         inkscape:connector-curvature="0" /><path
         d="m 368.723,1462.81 c 0,6.01 -4.817,10.83 -11.426,10.83 -6.02,0 -11.434,-4.82 -11.434,-10.83 0,-6.62 5.414,-11.43 11.434,-11.43 6.609,0 11.426,4.81 11.426,11.43"
         style="fill:#ffffff;fill-opacity:1;fill-rule:evenodd;stroke:none"
         id="path18"
         inkscape:connector-curvature="0" /><path
         d="m 368.723,1462.81 22.254,0"
         style="fill:none;stroke:#231f20;stroke-width:5;stroke-linecap:round;stroke-linejoin:round;stroke-miterlimit:10;stroke-dasharray:none;stroke-opacity:1"
         id="path20"
         inkscape:connector-curvature="0" /><path
         d="m 233.379,1462.81 22.262,0"
         style="fill:none;stroke:#231f20;stroke-width:5;stroke-linecap:round;stroke-linejoin:round;stroke-miterlimit:10;stroke-dasharray:none;stroke-opacity:1"
         id="path22"
         inkscape:connector-curvature="0" /><path
         d="m 368.723,1462.81 c 0,6.01 -4.817,10.83 -11.426,10.83 -6.02,0 -11.434,-4.82 -11.434,-10.83 0,-6.62 5.414,-11.43 11.434,-11.43 6.609,0 11.426,4.81 11.426,11.43 z"
         style="fill:none;stroke:#231f20;stroke-width:5;stroke-linecap:round;stroke-linejoin:round;stroke-miterlimit:10;stroke-dasharray:none;stroke-opacity:1"
         id="path24"
         inkscape:connector-curvature="0" /><path
         d="m 255.641,1417.7 0,-90.23 90.222,45.11 -90.222,45.12"
         style="fill:#ffffff;fill-opacity:1;fill-rule:evenodd;stroke:none"
         id="path26"
         inkscape:connector-curvature="0" /><path
         d="m 255.641,1417.7 0,-90.23 90.222,45.11 -90.222,45.12 z"
         style="fill:none;stroke:#231f20;stroke-width:5;stroke-linecap:round;stroke-linejoin:round;stroke-miterlimit:10;stroke-dasharray:none;stroke-opacity:1"
         id="path28"
         inkscape:connector-curvature="0" /><path
         d="m 368.723,1372.58 c 0,6.02 -4.817,10.83 -11.426,10.83 -6.02,0 -11.434,-4.81 -11.434,-10.83 0,-6.61 5.414,-11.43 11.434,-11.43 6.609,0 11.426,4.82 11.426,11.43"
         style="fill:#ffffff;fill-opacity:1;fill-rule:evenodd;stroke:none"
         id="path30"
         inkscape:connector-curvature="0" /><path
         d="m 233.379,1372.58 -158.1954,0"
         style="fill:none;stroke:#231f20;stroke-width:5;stroke-linecap:round;stroke-linejoin:round;stroke-miterlimit:10;stroke-dasharray:none;stroke-opacity:1"
         id="path32"
         inkscape:connector-curvature="0" /><path
         d="m 233.379,1462.81 -158.1954,0"
         style="fill:none;stroke:#231f20;stroke-width:5;stroke-linecap:round;stroke-linejoin:round;stroke-miterlimit:10;stroke-dasharray:none;stroke-opacity:1"
         id="path34"
         inkscape:connector-curvature="0" /><path
         d="m 481.199,1101.91 -406.0154,0"
         style="fill:none;stroke:#231f20;stroke-width:5;stroke-linecap:round;stroke-linejoin:round;stroke-miterlimit:10;stroke-dasharray:none;stroke-opacity:1"
         id="path36"
         inkscape:connector-curvature="0" /><path
         d="m 481.199,1192.13 -315.785,0 0,180.45"
         style="fill:none;stroke:#231f20;stroke-width:5;stroke-linecap:round;stroke-linejoin:round;stroke-miterlimit:10;stroke-dasharray:none;stroke-opacity:1"
         id="path38"
         inkscape:connector-curvature="0" /><path
         d="m 390.977,1372.58 90.222,0"
         style="fill:none;stroke:#231f20;stroke-width:5;stroke-linecap:round;stroke-linejoin:round;stroke-miterlimit:10;stroke-dasharray:none;stroke-opacity:1"
         id="path40"
         inkscape:connector-curvature="0" /><path
         d="m 390.977,1462.81 90.222,0"
         style="fill:none;stroke:#231f20;stroke-width:5;stroke-linecap:round;stroke-linejoin:round;stroke-miterlimit:10;stroke-dasharray:none;stroke-opacity:1"
         id="path42"
         inkscape:connector-curvature="0" /><path
         d="m 796.988,1147.02 67.977,0 0,90.23 67.363,0"
         style="fill:none;stroke:#231f20;stroke-width:5;stroke-linecap:round;stroke-linejoin:round;stroke-miterlimit:10;stroke-dasharray:none;stroke-opacity:1"
         id="path44"
         inkscape:connector-curvature="0" /><path
         d="m 796.988,1417.7 67.977,0 0,-90.23 67.363,0"
         style="fill:none;stroke:#231f20;stroke-width:5;stroke-linecap:round;stroke-linejoin:round;stroke-miterlimit:10;stroke-dasharray:none;stroke-opacity:1"
         id="path46"
         inkscape:connector-curvature="0" /><path
         d="m 977.445,1192.13 45.105,0"
         style="fill:none;stroke:#231f20;stroke-width:5;stroke-linecap:round;stroke-linejoin:round;stroke-miterlimit:10;stroke-dasharray:none;stroke-opacity:1"
         id="path48"
         inkscape:connector-curvature="0" /><path
         d="m 977.445,1372.58 45.105,0"
         style="fill:none;stroke:#231f20;stroke-width:5;stroke-linecap:round;stroke-linejoin:round;stroke-miterlimit:10;stroke-dasharray:none;stroke-opacity:1"
         id="path50"
         inkscape:connector-curvature="0" /><path
         d="m 1000.31,1282.36 c 0,49.32 -9.037,90.22 -19.865,90.22"
         style="fill:none;stroke:#231f20;stroke-width:5;stroke-linecap:round;stroke-linejoin:round;stroke-miterlimit:10;stroke-dasharray:none;stroke-opacity:1"
         id="path52"
         inkscape:connector-curvature="0" /><path
         d="m 1000.31,1282.36 c 0,-49.93 -10.236,-90.23 -22.865,-90.23"
         style="fill:none;stroke:#231f20;stroke-width:5;stroke-linecap:round;stroke-linejoin:round;stroke-miterlimit:10;stroke-dasharray:none;stroke-opacity:1"
         id="path54"
         inkscape:connector-curvature="0" /><path
         d="m 1022.55,1372.58 c 99.86,0 180.45,-40.9 180.45,-90.22"
         style="fill:none;stroke:#231f20;stroke-width:5;stroke-linecap:round;stroke-linejoin:round;stroke-miterlimit:10;stroke-dasharray:none;stroke-opacity:1"
         id="path56"
         inkscape:connector-curvature="0" /><path
         d="m 1203,1282.36 c 0,-49.93 -80.59,-90.23 -180.45,-90.23"
         style="fill:none;stroke:#231f20;stroke-width:5;stroke-linecap:round;stroke-linejoin:round;stroke-miterlimit:10;stroke-dasharray:none;stroke-opacity:1"
         id="path58"
         inkscape:connector-curvature="0" /><path
         d="m 1248.12,1282.36 -45.12,0"
         style="fill:none;stroke:#231f20;stroke-width:5;stroke-linecap:round;stroke-linejoin:round;stroke-miterlimit:10;stroke-dasharray:none;stroke-opacity:1"
         id="path60"
         inkscape:connector-curvature="0" /><path
         d="m 932.328,1237.25 64.367,0"
         style="fill:none;stroke:#231f20;stroke-width:5;stroke-linecap:round;stroke-linejoin:round;stroke-miterlimit:10;stroke-dasharray:none;stroke-opacity:1"
         id="path62"
         inkscape:connector-curvature="0" /><path
         d="m 932.328,1327.47 65.567,0"
         style="fill:none;stroke:#231f20;stroke-width:5;stroke-linecap:round;stroke-linejoin:round;stroke-miterlimit:10;stroke-dasharray:none;stroke-opacity:1"
         id="path64"
         inkscape:connector-curvature="0" /><path
         d="m 661.656,1237.25 -135.343,0 0,-180.46 135.343,0"
         style="fill:none;stroke:#231f20;stroke-width:5;stroke-linecap:round;stroke-linejoin:round;stroke-miterlimit:10;stroke-dasharray:none;stroke-opacity:1"
         id="path66"
         inkscape:connector-curvature="0" /><path
         d="m 661.656,1237.25 c 49.93,0 90.223,-40.91 90.223,-90.23 0,-49.93 -40.293,-90.23 -90.223,-90.23"
         style="fill:none;stroke:#231f20;stroke-width:5;stroke-linecap:round;stroke-linejoin:round;stroke-miterlimit:10;stroke-dasharray:none;stroke-opacity:1"
         id="path68"
         inkscape:connector-curvature="0" /><path
         d="m 796.988,1147.02 -45.109,0"
         style="fill:none;stroke:#231f20;stroke-width:5;stroke-linecap:round;stroke-linejoin:round;stroke-miterlimit:10;stroke-dasharray:none;stroke-opacity:1"
         id="path70"
         inkscape:connector-curvature="0" /><path
         d="m 481.199,1101.91 45.114,0"
         style="fill:none;stroke:#231f20;stroke-width:5;stroke-linecap:round;stroke-linejoin:round;stroke-miterlimit:10;stroke-dasharray:none;stroke-opacity:1"
         id="path72"
         inkscape:connector-curvature="0" /><path
         d="m 481.199,1192.13 45.114,0"
         style="fill:none;stroke:#231f20;stroke-width:5;stroke-linecap:round;stroke-linejoin:round;stroke-miterlimit:10;stroke-dasharray:none;stroke-opacity:1"
         id="path74"
         inkscape:connector-curvature="0" /><path
         d="m 661.656,1507.92 -135.343,0 0,-180.45 135.343,0"
         style="fill:none;stroke:#231f20;stroke-width:5;stroke-linecap:round;stroke-linejoin:round;stroke-miterlimit:10;stroke-dasharray:none;stroke-opacity:1"
         id="path76"
         inkscape:connector-curvature="0" /><path
         d="m 661.656,1507.92 c 49.93,0 90.223,-40.9 90.223,-90.22 0,-49.93 -40.293,-90.23 -90.223,-90.23"
         style="fill:none;stroke:#231f20;stroke-width:5;stroke-linecap:round;stroke-linejoin:round;stroke-miterlimit:10;stroke-dasharray:none;stroke-opacity:1"
         id="path78"
         inkscape:connector-curvature="0" /><path
         d="m 796.988,1417.7 -45.109,0"
         style="fill:none;stroke:#231f20;stroke-width:5;stroke-linecap:round;stroke-linejoin:round;stroke-miterlimit:10;stroke-dasharray:none;stroke-opacity:1"
         id="path80"
         inkscape:connector-curvature="0" /><path
         d="m 481.199,1372.58 45.114,0"
         style="fill:none;stroke:#231f20;stroke-width:5;stroke-linecap:round;stroke-linejoin:round;stroke-miterlimit:10;stroke-dasharray:none;stroke-opacity:1"
         id="path82"
         inkscape:connector-curvature="0" /><path
         d="m 481.199,1462.81 45.114,0"
         style="fill:none;stroke:#231f20;stroke-width:5;stroke-linecap:round;stroke-linejoin:round;stroke-miterlimit:10;stroke-dasharray:none;stroke-opacity:1"
         id="path84"
         inkscape:connector-curvature="0" /><path
         d="m 368.723,1372.58 22.254,0"
         style="fill:none;stroke:#231f20;stroke-width:5;stroke-linecap:round;stroke-linejoin:round;stroke-miterlimit:10;stroke-dasharray:none;stroke-opacity:1"
         id="path86"
         inkscape:connector-curvature="0" /><path
         d="m 233.379,1372.58 22.262,0"
         style="fill:none;stroke:#231f20;stroke-width:5;stroke-linecap:round;stroke-linejoin:round;stroke-miterlimit:10;stroke-dasharray:none;stroke-opacity:1"
         id="path88"
         inkscape:connector-curvature="0" /><path
         d="m 368.723,1372.58 c 0,6.02 -4.817,10.83 -11.426,10.83 -6.02,0 -11.434,-4.81 -11.434,-10.83 0,-6.61 5.414,-11.43 11.434,-11.43 6.609,0 11.426,4.82 11.426,11.43 z"
         style="fill:none;stroke:#231f20;stroke-width:5;stroke-linecap:round;stroke-linejoin:round;stroke-miterlimit:10;stroke-dasharray:none;stroke-opacity:1"
         id="path90"
         inkscape:connector-curvature="0" /><g
         id="g92"
         transform="scale(10,10)"><text
           transform="matrix(1,0,0,-1,0.164844,143.875)"
           style="font-style:oblique;font-variant:normal;font-size:8px;font-family:Helvetica;-inkscape-font-specification:Helvetica-Oblique;writing-mode:lr-tb;fill:#231f20;fill-opacity:1;fill-rule:nonzero;stroke:none"
           id="text94"><tspan
             x="0 5.336"
             y="0"
             sodipodi:role="line"
             id="tspan96">A </tspan><tspan
             x="-0.16484401 5.1711559"
             y="9.0226603"
             sodipodi:role="line"
             id="tspan98">B </tspan><tspan
             x="-0.16484401 5.611156"
             y="36.09066"
             sodipodi:role="line"
             id="tspan100">C </tspan><tspan
             x="126.39116 131.72716"
             y="18.045361"
             sodipodi:role="line"
             id="tspan102">Y </tspan></text>
</g><path
         d="m 481.199,695.895 0,-541.356"
         style="fill:none;stroke:#231f20;stroke-width:5;stroke-linecap:round;stroke-linejoin:round;stroke-miterlimit:10;stroke-dasharray:none;stroke-opacity:1"
         id="path104"
         inkscape:connector-curvature="0" /><path
         d="m 751.879,695.895 0,-541.356"
         style="fill:none;stroke:#231f20;stroke-width:5;stroke-linecap:round;stroke-linejoin:round;stroke-miterlimit:10;stroke-dasharray:none;stroke-opacity:1"
         id="path106"
         inkscape:connector-curvature="0" /><path
         d="m 1022.55,695.895 0,-541.356"
         style="fill:none;stroke:#231f20;stroke-width:5;stroke-linecap:round;stroke-linejoin:round;stroke-miterlimit:10;stroke-dasharray:none;stroke-opacity:1"
         id="path108"
         inkscape:connector-curvature="0" /><path
         d="m 210.527,154.539 1082.71,0 0,541.355 -1082.71,0 0,-541.355 z"
         style="fill:none;stroke:#231f20;stroke-width:5;stroke-linecap:round;stroke-linejoin:round;stroke-miterlimit:10;stroke-dasharray:none;stroke-opacity:1"
         id="path110"
         inkscape:connector-curvature="0" /><g
         id="g112"
         transform="scale(10,10)"><text
           transform="matrix(1,0,0,-1,30.1352,71.6938)"
           style="font-variant:normal;font-weight:normal;font-size:8px;font-family:Helvetica;-inkscape-font-specification:Helvetica;writing-mode:lr-tb;fill:#231f20;fill-opacity:1;fill-rule:nonzero;stroke:none"
           id="text114"><tspan
             x="0 4.448 27.063999 31.511999 35.959999"
             y="0"
             sodipodi:role="line"
             id="tspan116">0001 </tspan><tspan
             x="-15.8191 -11.3711"
             y="45.111698"
             sodipodi:role="line"
             id="tspan118">1 </tspan></text>
<text
           transform="matrix(1,0,0,-1,0.360938,85.2281)"
           style="font-style:oblique;font-variant:normal;font-size:8px;font-family:Helvetica;-inkscape-font-specification:Helvetica-Oblique;writing-mode:lr-tb;fill:#231f20;fill-opacity:1;fill-rule:nonzero;stroke:none"
           id="text120"><tspan
             x="0 5.336"
             y="0"
             sodipodi:role="line"
             id="tspan122">Y </tspan></text>
<text
           transform="matrix(1,0,0,-1,84.2699,71.6938)"
           style="font-variant:normal;font-weight:normal;font-size:8px;font-family:Helvetica;-inkscape-font-specification:Helvetica;writing-mode:lr-tb;fill:#231f20;fill-opacity:1;fill-rule:nonzero;stroke:none"
           id="text124"><tspan
             x="0 4.448 25.920641 30.368641 34.816639"
             y="0"
             sodipodi:role="line"
             id="tspan126">1110 </tspan></text>
</g><path
         d="M 210.527,695.895 75.1836,831.23"
         style="fill:none;stroke:#231f20;stroke-width:5;stroke-linecap:round;stroke-linejoin:round;stroke-miterlimit:10;stroke-dasharray:none;stroke-opacity:1"
         id="path128"
         inkscape:connector-curvature="0" /><g
         id="g130"
         transform="scale(10,10)"><text
           transform="matrix(1,0,0,-1,15.6992,80.7172)"
           style="font-style:oblique;font-variant:normal;font-size:8px;font-family:Helvetica;-inkscape-font-specification:Helvetica-Oblique;writing-mode:lr-tb;fill:#231f20;fill-opacity:1;fill-rule:nonzero;stroke:none"
           id="text132"><tspan
             x="0 5.351953 10.687953"
             y="0"
             sodipodi:role="line"
             id="tspan134">AB </tspan></text>
<text
           transform="matrix(1,0,0,-1,32.3609,53.6488)"
           style="font-variant:normal;font-weight:normal;font-size:8px;font-family:Helvetica;-inkscape-font-specification:Helvetica;writing-mode:lr-tb;fill:#231f20;fill-opacity:1;fill-rule:nonzero;stroke:none"
           id="text136"><tspan
             x="0 4.448"
             y="0"
             sodipodi:role="line"
             id="tspan138">1 </tspan><tspan
             x="0 4.448"
             y="27.066799"
             sodipodi:role="line"
             id="tspan140">1 </tspan><tspan
             x="27.0676 31.5156"
             y="0"
             sodipodi:role="line"
             id="tspan142">0 </tspan><tspan
             x="27.0676 31.5156"
             y="27.066799"
             sodipodi:role="line"
             id="tspan144">1 </tspan><tspan
             x="54.135601 58.583599"
             y="0"
             sodipodi:role="line"
             id="tspan146">0 </tspan><tspan
             x="54.135601 58.583599"
             y="27.066799"
             sodipodi:role="line"
             id="tspan148">1 </tspan></text>
</g><path
         d="m 210.527,425.219 1082.713,0"
         style="fill:none;stroke:#231f20;stroke-width:5;stroke-linecap:round;stroke-linejoin:round;stroke-miterlimit:10;stroke-dasharray:none;stroke-opacity:1"
         id="path150"
         inkscape:connector-curvature="0" /><g
         id="g152"
         transform="scale(10,10)"><text
           transform="matrix(1,0,0,-1,113.564,53.6488)"
           style="font-variant:normal;font-weight:normal;font-size:8px;font-family:Helvetica;-inkscape-font-specification:Helvetica;writing-mode:lr-tb;fill:#231f20;fill-opacity:1;fill-rule:nonzero;stroke:none"
           id="text154"><tspan
             x="0 4.448"
             y="0"
             sodipodi:role="line"
             id="tspan156">0 </tspan><tspan
             x="0 4.448"
             y="27.066799"
             sodipodi:role="line"
             id="tspan158">0 </tspan></text>
<text
           transform="matrix(1,0,0,-1,4.63203,67.1832)"
           style="font-style:oblique;font-variant:normal;font-size:8px;font-family:Helvetica;-inkscape-font-specification:Helvetica-Oblique;writing-mode:lr-tb;fill:#231f20;fill-opacity:1;fill-rule:nonzero;stroke:none"
           id="text160"><tspan
             x="0 5.776"
             y="0"
             sodipodi:role="line"
             id="tspan162">C </tspan></text>
<text
           transform="matrix(1,0,0,-1,14.316,53.6488)"
           style="font-variant:normal;font-weight:normal;font-size:8px;font-family:Helvetica;-inkscape-font-specification:Helvetica;writing-mode:lr-tb;fill:#231f20;fill-opacity:1;fill-rule:nonzero;stroke:none"
           id="text164"><tspan
             x="0 4.448"
             y="0"
             sodipodi:role="line"
             id="tspan166">0 </tspan></text>
</g><path
         d="m 368.723,673.031 -45.114,0 c -49.925,0 -90.23,-40.293 -90.23,-90.222 l 0,-315.789 c 0,-49.93 40.305,-90.231 90.23,-90.231 l 45.114,0 c 49.922,0 90.222,40.301 90.222,90.231 l 0,315.789 c 0,49.929 -40.3,90.222 -90.222,90.222 z"
         style="fill:none;stroke:#1673c3;stroke-width:5;stroke-linecap:round;stroke-linejoin:round;stroke-miterlimit:10;stroke-dasharray:none;stroke-opacity:1"
         id="path168"
         inkscape:connector-curvature="0" /><path
         d="m 504.059,312.129 0,-45.109 c 0,-49.93 40.3,-90.231 90.222,-90.231 l 315.793,0 c 49.922,0 90.236,40.301 90.236,90.231 l 0,45.109 c 0,49.93 -40.314,90.23 -90.236,90.23 l -315.793,0 c -49.922,0 -90.222,-40.3 -90.222,-90.23 z"
         style="fill:none;stroke:#1673c3;stroke-width:5;stroke-linecap:round;stroke-linejoin:round;stroke-miterlimit:10;stroke-dasharray:none;stroke-opacity:1"
         id="path170"
         inkscape:connector-curvature="0" /><g
         id="g172"
         transform="scale(10,10)"><text
           transform="matrix(1,0,0,-1,52.1504,1.79883)"
           style="font-style:oblique;font-variant:normal;font-size:8px;font-family:Helvetica;-inkscape-font-specification:Helvetica-Oblique;writing-mode:lr-tb;fill:#231f20;fill-opacity:1;fill-rule:nonzero;stroke:none"
           id="text174"><tspan
             x="0"
             y="0"
             id="tspan176">Y</tspan></text>
<text
           transform="matrix(1,0,0,-1,58.8766,1.79883)"
           style="font-variant:normal;font-weight:normal;font-size:8px;font-family:Helvetica;-inkscape-font-specification:Helvetica;writing-mode:lr-tb;fill:#231f20;fill-opacity:1;fill-rule:nonzero;stroke:none"
           id="text178"><tspan
             x="0"
             y="0"
             id="tspan180">=</tspan></text>
<text
           transform="matrix(1,0,0,-1,64.9387,1.79883)"
           style="font-style:oblique;font-variant:normal;font-size:8px;font-family:Helvetica;-inkscape-font-specification:Helvetica-Oblique;writing-mode:lr-tb;fill:#231f20;fill-opacity:1;fill-rule:nonzero;stroke:none"
           id="text182"><tspan
             x="0 5.336"
             y="0"
             sodipodi:role="line"
             id="tspan184">AB</tspan></text>
<text
           transform="matrix(1,0,0,-1,77.0004,1.79883)"
           style="font-variant:normal;font-weight:normal;font-size:8px;font-family:Helvetica;-inkscape-font-specification:Helvetica;writing-mode:lr-tb;fill:#231f20;fill-opacity:1;fill-rule:nonzero;stroke:none"
           id="text186"><tspan
             x="0"
             y="0"
             id="tspan188">+</tspan></text>
<text
           transform="matrix(1,0,0,-1,83.0621,1.79883)"
           style="font-style:oblique;font-variant:normal;font-size:8px;font-family:Helvetica;-inkscape-font-specification:Helvetica-Oblique;writing-mode:lr-tb;fill:#231f20;fill-opacity:1;fill-rule:nonzero;stroke:none"
           id="text190"><tspan
             x="0 5.336 11.11139"
             y="0"
             sodipodi:role="line"
             id="tspan192">BC </tspan></text>
</g><path
         d="m 659.41,97.6719 45.106,0"
         style="fill:none;stroke:#231f20;stroke-width:5;stroke-linecap:round;stroke-linejoin:round;stroke-miterlimit:10;stroke-dasharray:none;stroke-opacity:1"
         id="path194"
         inkscape:connector-curvature="0" /><path
         d="m 724.254,97.6719 45.105,0"
         style="fill:none;stroke:#231f20;stroke-width:5;stroke-linecap:round;stroke-linejoin:round;stroke-miterlimit:10;stroke-dasharray:none;stroke-opacity:1"
         id="path196"
         inkscape:connector-curvature="0" /></g></g></svg>