<?xml version="1.0" encoding="UTF-8" standalone="no"?>
<svg
   xmlns:dc="http://purl.org/dc/elements/1.1/"
   xmlns:cc="http://creativecommons.org/ns#"
   xmlns:rdf="http://www.w3.org/1999/02/22-rdf-syntax-ns#"
   xmlns:svg="http://www.w3.org/2000/svg"
   xmlns="http://www.w3.org/2000/svg"
   xmlns:sodipodi="http://sodipodi.sourceforge.net/DTD/sodipodi-0.dtd"
   xmlns:inkscape="http://www.inkscape.org/namespaces/inkscape"
   viewBox="0 0 743.78302 1074.3401"
   height="1074.3401"
   width="743.78302"
   xml:space="preserve"
   version="1.1"
   id="svg16523"
   inkscape:version="0.91 r13725"
   sodipodi:docname="memory_map-Generic.svg"><sodipodi:namedview
     pagecolor="#ffffff"
     bordercolor="#666666"
     borderopacity="1"
     objecttolerance="10"
     gridtolerance="10"
     guidetolerance="10"
     inkscape:pageopacity="0"
     inkscape:pageshadow="2"
     inkscape:window-width="1920"
     inkscape:window-height="1031"
     id="namedview268"
     showgrid="false"
     fit-margin-left="10"
     fit-margin-bottom="10"
     fit-margin-right="10"
     fit-margin-top="10"
     inkscape:showpageshadow="false"
     inkscape:zoom="0.81502162"
     inkscape:cx="421.595"
     inkscape:cy="710.63407"
     inkscape:window-x="1920"
     inkscape:window-y="30"
     inkscape:window-maximized="1"
     inkscape:current-layer="svg16523" /><metadata
     id="metadata16529"><rdf:RDF><cc:Work
         rdf:about=""><dc:format>image/svg+xml</dc:format><dc:type
           rdf:resource="http://purl.org/dc/dcmitype/StillImage" /><dc:title></dc:title></cc:Work></rdf:RDF></metadata><defs
     id="defs16527" /><path
     id="path16539"
     style="fill:#ffffff;fill-opacity:1;fill-rule:nonzero;stroke:none"
     d="m 108.8063,1062.3501 460.6225,0 0,-992.109977 -460.6225,0 0,992.109977 z"
     inkscape:connector-curvature="0" /><path
     id="path16541"
     style="fill:none;stroke:#000000;stroke-width:3.54325008;stroke-linecap:butt;stroke-linejoin:miter;stroke-miterlimit:10;stroke-dasharray:none;stroke-opacity:1"
     d="m 108.8063,1062.3501 460.6225,0 0,-992.109977 -460.6225,0 0,992.109977 z"
     inkscape:connector-curvature="0" /><path
     id="path16543"
     style="fill:none;fill-opacity:1;fill-rule:nonzero;stroke:none"
     d="m 108.8063,141.10512 460.6225,0 0,-70.864747 -460.6225,0 0,70.864747 z"
     inkscape:connector-curvature="0" /><path
     id="path16545"
     style="fill:none;stroke:#000000;stroke-width:3.54325008;stroke-linecap:butt;stroke-linejoin:miter;stroke-miterlimit:10;stroke-dasharray:none;stroke-opacity:1"
     d="m 108.8063,141.10512 460.6225,0 0,-70.864747 -460.6225,0 0,70.864747 z"
     inkscape:connector-curvature="0" /><path
     id="path16547"
     style="fill:#000000;fill-opacity:1;fill-rule:nonzero;stroke:none"
     d="m 257.8613,113.55637 4.1065,0 0,-16.133247 -4.1065,0 0,16.133247 z"
     inkscape:connector-curvature="0" /><path
     id="path16549"
     style="fill:#000000;fill-opacity:1;fill-rule:nonzero;stroke:none"
     d="m 278.29,106.03012 0,7.52625 -3.8125,0 0,-5.76125 c 0,-1.06625 -0.025,-1.80125 -0.075,-2.205 -0.05,-0.40625 -0.1375,-0.705 -0.25,-0.8975 -0.1625,-0.2575 -0.3875,-0.4575 -0.6625,-0.60125 -0.275,-0.1425 -0.5875,-0.215 -0.9375,-0.215 -0.8625,0 -1.5375,0.32 -2.0375,0.95875 -0.4875,0.635 -0.725,1.515 -0.725,2.63875 l 0,6.0825 -3.8125,0 0,-12.32 3.8125,0 0,1.76 c 0.6,-0.7025 1.2375,-1.22 1.9,-1.55375 0.675,-0.33375 1.4125,-0.5 2.225,-0.5 1.4375,0 2.525,0.43375 3.2625,1.3025 0.75,0.8675 1.1125,2.13 1.1125,3.785"
     inkscape:connector-curvature="0" /><path
     id="path16551"
     style="fill:#000000;fill-opacity:1;fill-rule:nonzero;stroke:none"
     d="m 286.4775,98.010123 0,3.226247 4.1125,0 0,2.9325 -4.1125,0 0,5.0425 c 0,0.5525 0.125,0.9275 0.35,1.1225 0.2375,0.1925 0.7,0.28875 1.3875,0.28875 l 2.075,0 0,2.93375 -3.4625,0 c -1.5125,0 -2.5875,-0.32875 -3.2125,-0.985 -0.6375,-0.66125 -0.95,-1.78 -0.95,-3.36 l 0,-5.0425 -2.05,0 0,-2.9325 2.05,0 0,-3.226247 3.8125,0"
     inkscape:connector-curvature="0" /><path
     id="path16553"
     style="fill:#000000;fill-opacity:1;fill-rule:nonzero;stroke:none"
     d="m 305.2025,107.19512 0,1.08125 -9.3875,0 c 0.1,0.9775 0.4375,1.71125 1.0125,2.2 0.5875,0.48875 1.4,0.73375 2.45,0.73375 0.85,0 1.7125,-0.12125 2.6,-0.3625 0.8875,-0.245 1.8,-0.6125 2.7375,-1.105 l 0,2.93375 c -0.9375,0.3875 -1.8625,0.68125 -2.8,0.88 -0.925,0.195 -1.85,0.29375 -2.7875,0.29375 -2.225,0 -3.95,-0.56625 -5.1875,-1.69625 -1.225,-1.13 -1.8375,-2.71625 -1.8375,-4.7575 0,-2.00375 0.6,-3.58125 1.8125,-4.73 1.2125,-1.14875 2.875,-1.72375 5,-1.72375 1.9375,0 3.475,0.56875 4.6375,1.705 1.1625,1.13375 1.75,2.65 1.75,4.5475 m -3.8125,-1.265 c 0,-0.7025 -0.2375,-1.27 -0.7125,-1.7 -0.475,-0.43125 -1.0875,-0.6475 -1.85,-0.6475 -0.825,0 -1.4875,0.2025 -2.0125,0.605 -0.5125,0.40375 -0.8375,0.98375 -0.9625,1.7425 l 5.5375,0"
     inkscape:connector-curvature="0" /><path
     id="path16555"
     style="fill:#000000;fill-opacity:1;fill-rule:nonzero;stroke:none"
     d="m 317.365,104.75637 c -0.35,-0.19875 -0.6875,-0.345 -1.0375,-0.44 -0.3375,-0.0975 -0.6875,-0.1475 -1.0375,-0.1475 -1.025,0 -1.8125,0.33125 -2.375,0.99125 -0.55,0.65625 -0.825,1.5975 -0.825,2.8225 l 0,5.57375 -3.8125,0 0,-12.32 3.8125,0 0,2.05375 c 0.5125,-0.81625 1.1,-1.41125 1.7625,-1.78375 0.6625,-0.375 1.4625,-0.56375 2.4,-0.56375 0.125,0 0.275,0.006 0.425,0.0187 0.15,0.009 0.3875,0.0325 0.6875,0.0687 l 0,3.72625"
     inkscape:connector-curvature="0" /><path
     id="path16557"
     style="fill:#000000;fill-opacity:1;fill-rule:nonzero;stroke:none"
     d="m 331.7525,106.03012 0,7.52625 -3.825,0 0,-5.76125 c 0,-1.06625 -0.025,-1.80125 -0.075,-2.205 -0.05,-0.40625 -0.125,-0.705 -0.25,-0.8975 -0.1625,-0.2575 -0.375,-0.4575 -0.6625,-0.60125 -0.275,-0.1425 -0.5875,-0.215 -0.9375,-0.215 -0.8625,0 -1.5375,0.32 -2.025,0.95875 -0.4875,0.635 -0.7375,1.515 -0.7375,2.63875 l 0,6.0825 -3.8125,0 0,-12.32 3.8125,0 0,1.76 c 0.6,-0.7025 1.2375,-1.22 1.9125,-1.55375 0.6625,-0.33375 1.4125,-0.5 2.2125,-0.5 1.4375,0 2.525,0.43375 3.2625,1.3025 0.75,0.8675 1.125,2.13 1.125,3.785"
     inkscape:connector-curvature="0" /><path
     id="path16559"
     style="fill:#000000;fill-opacity:1;fill-rule:nonzero;stroke:none"
     d="m 341.04,107.98262 c -0.85,0 -1.5,0.14 -1.925,0.4175 -0.4375,0.275 -0.65,0.6825 -0.65,1.22375 0,0.495 0.175,0.8825 0.525,1.16375 0.3375,0.28125 0.825,0.4225 1.4375,0.4225 0.775,0 1.425,-0.265 1.95,-0.79375 0.525,-0.52875 0.7875,-1.19 0.7875,-1.98375 l 0,-0.45 -2.125,0 m 5.9375,-1.49 0,7.06375 -3.8125,0 0,-1.76 c -0.5375,0.715 -1.125,1.23625 -1.7875,1.5625 -0.6625,0.3275 -1.4625,0.49125 -2.4125,0.49125 -1.275,0 -2.3125,-0.37375 -3.1125,-1.11875 -0.8,-0.745 -1.2,-1.7125 -1.2,-2.90125 0,-1.445 0.4875,-2.505 1.475,-3.18125 0.975,-0.675 2.525,-1.0125 4.625,-1.0125 l 2.4125,0 0,-0.33 c 0,-0.59625 -0.25,-1.03125 -0.7375,-1.30625 -0.4875,-0.2775 -1.2375,-0.4175 -2.275,-0.4175 -0.825,0 -1.6,0.0737 -2.325,0.22125 -0.7125,0.14625 -1.3875,0.365 -2,0.65875 l 0,-2.9325 c 0.8125,-0.1925 1.6375,-0.33875 2.4625,-0.43625 0.8125,-0.1 1.6375,-0.15125 2.4625,-0.15125 2.2,0 3.775,0.43625 4.75,1.3075 0.9875,0.87 1.475,2.285 1.475,4.2425"
     inkscape:connector-curvature="0" /><path
     id="path16561"
     style="fill:#000000;fill-opacity:1;fill-rule:nonzero;stroke:none"
     d="m 350.84,113.55637 3.813,0 0,-17.013122 -3.813,0 0,17.013122 z"
     inkscape:connector-curvature="0" /><path
     id="path16563"
     style="fill:#000000;fill-opacity:1;fill-rule:nonzero;stroke:none"
     d="m 372.74,104.46262 c 0.925,0 1.575,-0.16 1.975,-0.48125 0.4,-0.32375 0.5875,-0.85375 0.5875,-1.59 0,-0.7275 -0.1875,-1.24875 -0.5875,-1.5625 -0.4,-0.315 -1.05,-0.4725 -1.975,-0.4725 l -1.8375,0 0,4.10625 1.8375,0 m -1.8375,2.93375 0,6.16 -4.1,0 0,-16.133747 6.4,0 c 2.15,0 3.7125,0.35375 4.7125,1.05875 1,0.70625 1.5,1.822497 1.5,3.351247 0,1.05375 -0.25,1.92 -0.7625,2.59875 -0.5125,0.6775 -1.275,1.1775 -2.3,1.49875 0.5625,0.13125 1.0625,0.42875 1.5125,0.89375 0.4375,0.46375 0.8875,1.1675 1.35,2.1075 l 2.25,4.625 -4.4,0 -1.95,-4.0475 c -0.4125,-0.8125 -0.8375,-1.36625 -1.2625,-1.66375 -0.425,-0.29875 -1,-0.44875 -1.7125,-0.44875 l -1.2375,0"
     inkscape:connector-curvature="0" /><path
     id="path16565"
     style="fill:#000000;fill-opacity:1;fill-rule:nonzero;stroke:none"
     d="m 393.965,110.62262 -6.55,0 -1.025,2.93375 -4.2125,0 6.0125,-16.133747 4.9875,0 6.0125,16.133747 -4.2,0 -1.025,-2.93375 m -5.5,-2.93375 4.45,0 -2.225,-6.4575 -2.225,6.4575"
     inkscape:connector-curvature="0" /><path
     id="path16567"
     style="fill:#000000;fill-opacity:1;fill-rule:nonzero;stroke:none"
     d="m 401.7525,97.422623 5.2375,0 3.85,8.552497 3.875,-8.552497 5.225,0 0,16.133747 -3.8125,0 0,-11.84375 -3.8875,8.6175 -2.775,0 -3.9,-8.6175 0,11.84375 -3.8125,0 0,-16.133747"
     inkscape:connector-curvature="0" /><g
     id="g4953"
     transform="translate(0,46.468498)"><path
       inkscape:connector-curvature="0"
       d="m 615.4275,82.421625 c 0,-1.9775 -0.2125,-3.37 -0.6125,-4.18 -0.4,-0.81 -1.075,-1.215 -2.025,-1.215 -0.95,0 -1.6375,0.405 -2.0375,1.215 -0.4125,0.81 -0.6125,2.2025 -0.6125,4.18 0,1.9975 0.2,3.40875 0.6125,4.23 0.4,0.81875 1.0875,1.22875 2.0375,1.22875 0.9375,0 1.6125,-0.41 2.025,-1.22875 0.4,-0.82125 0.6125,-2.2325 0.6125,-4.23 m 4.1,0.03625 c 0,2.67125 -0.5875,4.73125 -1.7625,6.1825 -1.1625,1.44875 -2.825,2.17375 -4.975,2.17375 -2.1625,0 -3.825,-0.725 -5,-2.17375 -1.175,-1.45125 -1.75,-3.51125 -1.75,-6.1825 0,-2.67625 0.575,-4.73875 1.75,-6.1875 1.175,-1.45125 2.8375,-2.17625 5,-2.17625 2.15,0 3.8125,0.725 4.975,2.17625 1.175,1.44875 1.7625,3.51125 1.7625,6.1875"
       style="fill:#000000;fill-opacity:1;fill-rule:nonzero;stroke:none"
       id="path16569" /><path
       inkscape:connector-curvature="0"
       d="m 625.5775,84.217875 -4.375,-6.0175 4.1,0 2.475,3.6525 2.5125,-3.6525 4.1125,0 -4.375,5.995 4.6625,6.325 -4.15,0 -2.7625,-3.89625 -2.725,3.89625 -4.15,0 4.675,-6.3025"
       style="fill:#000000;fill-opacity:1;fill-rule:nonzero;stroke:none"
       id="path16571" /><path
       inkscape:connector-curvature="0"
       d="m 637.265,74.386625 11.45,0 0,3.2275 -7.3375,0 0,2.9325 7.0375,0 0,3.2275 -7.0375,0 0,6.74625 -4.1125,0 0,-16.13375"
       style="fill:#000000;fill-opacity:1;fill-rule:nonzero;stroke:none"
       id="path16573" /><path
       inkscape:connector-curvature="0"
       d="m 652.7525,74.386625 11.45,0 0,3.2275 -7.3375,0 0,2.9325 7.0375,0 0,3.2275 -7.0375,0 0,6.74625 -4.1125,0 0,-16.13375"
       style="fill:#000000;fill-opacity:1;fill-rule:nonzero;stroke:none"
       id="path16575" /><path
       inkscape:connector-curvature="0"
       d="m 674.1275,83.480375 c -0.7625,0 -1.3375,0.19125 -1.75,0.5725 -0.4125,0.37875 -0.6125,0.9225 -0.6125,1.6325 0,0.70875 0.2,1.2525 0.6125,1.63125 0.4125,0.375 0.9875,0.56375 1.75,0.56375 0.75,0 1.325,-0.18875 1.725,-0.56375 0.4,-0.37875 0.6,-0.9225 0.6,-1.63125 0,-0.715 -0.2,-1.26125 -0.6,-1.63625 -0.4,-0.38 -0.975,-0.56875 -1.725,-0.56875 m -3.0125,-1.545 c -1.05,-0.29625 -1.8375,-0.75 -2.375,-1.36125 -0.525,-0.61375 -0.7875,-1.37875 -0.7875,-2.29625 0,-1.3625 0.525,-2.4 1.5625,-3.11125 1.05,-0.715 2.5875,-1.0725 4.6,-1.0725 2.0125,0 3.55,0.355 4.5875,1.0675 1.05,0.70875 1.5625,1.7475 1.5625,3.11625 0,0.9175 -0.2625,1.6825 -0.7875,2.29625 -0.5375,0.61125 -1.325,1.065 -2.3625,1.36125 1.1375,0.3025 2,0.79375 2.575,1.47125 0.5875,0.67875 0.875,1.535 0.875,2.57125 0,1.5925 -0.5375,2.79625 -1.625,3.61125 -1.075,0.81625 -2.6875,1.225 -4.8125,1.225 -2.1375,0 -3.75,-0.40875 -4.8375,-1.225 -1.0875,-0.815 -1.6375,-2.01875 -1.6375,-3.61125 0,-1.03625 0.3,-1.8925 0.875,-2.57125 0.5875,-0.6775 1.4375,-1.16875 2.5875,-1.47125 m 0.9375,-3.1525 c 0,0.565 0.1875,1 0.5375,1.30625 0.3625,0.305 0.875,0.4575 1.5375,0.4575 0.65,0 1.15,-0.1525 1.5,-0.4575 0.3625,-0.30625 0.5375,-0.74125 0.5375,-1.30625 0,-0.56625 -0.175,-1 -0.5375,-1.3025 -0.35,-0.30125 -0.85,-0.45375 -1.5,-0.45375 -0.6625,0 -1.175,0.15375 -1.5375,0.45875 -0.35,0.305 -0.5375,0.7375 -0.5375,1.2975"
       style="fill:#000000;fill-opacity:1;fill-rule:nonzero;stroke:none"
       id="path16577" /><path
       inkscape:connector-curvature="0"
       d="m 692.5025,82.421625 c 0,-1.9775 -0.2,-3.37 -0.6,-4.18 -0.4125,-0.81 -1.0875,-1.215 -2.0375,-1.215 -0.95,0 -1.625,0.405 -2.0375,1.215 -0.4,0.81 -0.6,2.2025 -0.6,4.18 0,1.9975 0.2,3.40875 0.6,4.23 0.4125,0.81875 1.0875,1.22875 2.0375,1.22875 0.95,0 1.625,-0.41 2.025,-1.22875 0.4125,-0.82125 0.6125,-2.2325 0.6125,-4.23 m 4.1125,0.03625 c 0,2.67125 -0.5875,4.73125 -1.7625,6.1825 -1.175,1.44875 -2.8375,2.17375 -4.9875,2.17375 -2.15,0 -3.825,-0.725 -4.9875,-2.17375 -1.175,-1.45125 -1.7625,-3.51125 -1.7625,-6.1825 0,-2.67625 0.5875,-4.73875 1.7625,-6.1875 1.1625,-1.45125 2.8375,-2.17625 4.9875,-2.17625 2.15,0 3.8125,0.725 4.9875,2.17625 1.175,1.44875 1.7625,3.51125 1.7625,6.1875"
       style="fill:#000000;fill-opacity:1;fill-rule:nonzero;stroke:none"
       id="path16579" /><path
       inkscape:connector-curvature="0"
       d="m 708.2525,82.421625 c 0,-1.9775 -0.2,-3.37 -0.6,-4.18 -0.4,-0.81 -1.075,-1.215 -2.0375,-1.215 -0.95,0 -1.625,0.405 -2.025,1.215 -0.4125,0.81 -0.6125,2.2025 -0.6125,4.18 0,1.9975 0.2,3.40875 0.6125,4.23 0.4,0.81875 1.075,1.22875 2.025,1.22875 0.95,0 1.625,-0.41 2.0375,-1.22875 0.4,-0.82125 0.6,-2.2325 0.6,-4.23 m 4.1125,0.03625 c 0,2.67125 -0.5875,4.73125 -1.7625,6.1825 -1.175,1.44875 -2.825,2.17375 -4.9875,2.17375 -2.15,0 -3.8125,-0.725 -4.9875,-2.17375 -1.175,-1.45125 -1.7625,-3.51125 -1.7625,-6.1825 0,-2.67625 0.5875,-4.73875 1.7625,-6.1875 1.175,-1.45125 2.8375,-2.17625 4.9875,-2.17625 2.1625,0 3.8125,0.725 4.9875,2.17625 1.175,1.44875 1.7625,3.51125 1.7625,6.1875"
       style="fill:#000000;fill-opacity:1;fill-rule:nonzero;stroke:none"
       id="path16581" /><path
       inkscape:connector-curvature="0"
       d="m 724.015,82.421625 c 0,-1.9775 -0.2125,-3.37 -0.6125,-4.18 -0.4,-0.81 -1.075,-1.215 -2.025,-1.215 -0.95,0 -1.6375,0.405 -2.0375,1.215 -0.4125,0.81 -0.6125,2.2025 -0.6125,4.18 0,1.9975 0.2,3.40875 0.6125,4.23 0.4,0.81875 1.0875,1.22875 2.0375,1.22875 0.9375,0 1.6125,-0.41 2.025,-1.22875 0.4,-0.82125 0.6125,-2.2325 0.6125,-4.23 m 4.1,0.03625 c 0,2.67125 -0.5875,4.73125 -1.7625,6.1825 -1.1625,1.44875 -2.825,2.17375 -4.975,2.17375 -2.1625,0 -3.825,-0.725 -5,-2.17375 -1.175,-1.45125 -1.75,-3.51125 -1.75,-6.1825 0,-2.67625 0.575,-4.73875 1.75,-6.1875 1.175,-1.45125 2.8375,-2.17625 5,-2.17625 2.15,0 3.8125,0.725 4.975,2.17625 1.175,1.44875 1.7625,3.51125 1.7625,6.1875"
       style="fill:#000000;fill-opacity:1;fill-rule:nonzero;stroke:none"
       id="path16583" /></g><g
     id="g4967"
     transform="translate(0,36.468498)"><path
       inkscape:connector-curvature="0"
       d="m 615.4275,46.989125 c 0,-1.9775 -0.2125,-3.37 -0.6125,-4.18 -0.4,-0.81 -1.075,-1.215 -2.025,-1.215 -0.95,0 -1.6375,0.405 -2.0375,1.215 -0.4125,0.81 -0.6125,2.2025 -0.6125,4.18 0,1.99875 0.2,3.40875 0.6125,4.23 0.4,0.81875 1.0875,1.22875 2.0375,1.22875 0.9375,0 1.6125,-0.41 2.025,-1.22875 0.4,-0.82125 0.6125,-2.23125 0.6125,-4.23 m 4.1,0.03625 c 0,2.67125 -0.5875,4.73125 -1.7625,6.18375 -1.1625,1.4475 -2.825,2.1725 -4.975,2.1725 -2.1625,0 -3.825,-0.725 -5,-2.1725 -1.175,-1.4525 -1.75,-3.5125 -1.75,-6.18375 0,-2.67625 0.575,-4.73875 1.75,-6.1875 1.175,-1.45125 2.8375,-2.17625 5,-2.17625 2.15,0 3.8125,0.725 4.975,2.17625 1.175,1.44875 1.7625,3.51125 1.7625,6.1875"
       style="fill:#000000;fill-opacity:1;fill-rule:nonzero;stroke:none"
       id="path16585" /><path
       inkscape:connector-curvature="0"
       d="m 625.5775,48.785375 -4.375,-6.0175 4.1,0 2.475,3.6525 2.5125,-3.6525 4.1125,0 -4.375,5.995 4.6625,6.325 -4.15,0 -2.7625,-3.89625 -2.725,3.89625 -4.15,0 4.675,-6.3025"
       style="fill:#000000;fill-opacity:1;fill-rule:nonzero;stroke:none"
       id="path16587" /><path
       inkscape:connector-curvature="0"
       d="m 637.265,38.954125 11.45,0 0,3.2275 -7.3375,0 0,2.9325 7.0375,0 0,3.2275 -7.0375,0 0,6.74625 -4.1125,0 0,-16.13375"
       style="fill:#000000;fill-opacity:1;fill-rule:nonzero;stroke:none"
       id="path16589" /><path
       inkscape:connector-curvature="0"
       d="m 652.7525,38.954125 11.45,0 0,3.2275 -7.3375,0 0,2.9325 7.0375,0 0,3.2275 -7.0375,0 0,6.74625 -4.1125,0 0,-16.13375"
       style="fill:#000000;fill-opacity:1;fill-rule:nonzero;stroke:none"
       id="path16591" /><path
       inkscape:connector-curvature="0"
       d="m 668.24,38.954125 11.45,0 0,3.2275 -7.3375,0 0,2.9325 7.0375,0 0,3.2275 -7.0375,0 0,6.74625 -4.1125,0 0,-16.13375"
       style="fill:#000000;fill-opacity:1;fill-rule:nonzero;stroke:none"
       id="path16593" /><path
       inkscape:connector-curvature="0"
       d="m 683.7275,38.954125 11.45,0 0,3.2275 -7.3375,0 0,2.9325 7.0375,0 0,3.2275 -7.0375,0 0,6.74625 -4.1125,0 0,-16.13375"
       style="fill:#000000;fill-opacity:1;fill-rule:nonzero;stroke:none"
       id="path16595" /><path
       inkscape:connector-curvature="0"
       d="m 699.215,38.954125 11.45,0 0,3.2275 -7.3375,0 0,2.9325 7.0375,0 0,3.2275 -7.0375,0 0,6.74625 -4.1125,0 0,-16.13375"
       style="fill:#000000;fill-opacity:1;fill-rule:nonzero;stroke:none"
       id="path16597" /><path
       id="path4992"
       style="fill:#000000;fill-opacity:1;fill-rule:nonzero;stroke:none"
       d="m 713.8591,38.954125 11.45,0 0,3.2275 -7.3375,0 0,2.9325 7.0375,0 0,3.2275 -7.0375,0 0,6.74625 -4.1125,0 0,-16.13375"
       inkscape:connector-curvature="0" /></g><path
     id="path16613"
     style="fill:none;fill-opacity:1;fill-rule:nonzero;stroke:none"
     d="m 108.8063,1062.3501 460.6225,0 0,-141.72997 -460.6225,0 0,141.72997 z"
     inkscape:connector-curvature="0" /><path
     id="path16615"
     style="fill:none;stroke:#000000;stroke-width:3.54325008;stroke-linecap:butt;stroke-linejoin:miter;stroke-miterlimit:10;stroke-dasharray:none;stroke-opacity:1"
     d="m 108.8063,1062.3501 460.6225,0 0,-141.72997 -460.6225,0 0,141.72997 z"
     inkscape:connector-curvature="0" /><g
     id="g5038"
     transform="translate(0,44.468498)"><path
       inkscape:connector-curvature="0"
       d="m 615.4275,1003.6667 c 0,-1.977 -0.2125,-3.3701 -0.6125,-4.18007 -0.4,-0.80962 -1.075,-1.21438 -2.025,-1.21438 -0.95,0 -1.6375,0.40476 -2.0375,1.21438 -0.4125,0.80997 -0.6125,2.20307 -0.6125,4.18007 0,1.9981 0.2,3.4083 0.6125,4.2306 0.4,0.8188 1.0875,1.228 2.0375,1.228 0.9375,0 1.6125,-0.4092 2.025,-1.228 0.4,-0.8223 0.6125,-2.2325 0.6125,-4.2306 m 4.1,0.037 c 0,2.6705 -0.5875,4.7315 -1.7625,6.1832 -1.1625,1.4483 -2.825,2.1724 -4.975,2.1724 -2.1625,0 -3.825,-0.7241 -5,-2.1724 -1.175,-1.4517 -1.75,-3.5127 -1.75,-6.1832 0,-2.6767 0.575,-4.7392 1.75,-6.18745 1.175,-1.45113 2.8375,-2.17675 5,-2.17675 2.15,0 3.8125,0.72562 4.975,2.17675 1.175,1.44825 1.7625,3.51075 1.7625,6.18745"
       style="fill:#000000;fill-opacity:1;fill-rule:nonzero;stroke:none"
       id="path16617" /><path
       inkscape:connector-curvature="0"
       d="m 625.5775,1005.4632 -4.375,-6.01757 4.1,0 2.475,3.65287 2.5125,-3.65287 4.1125,0 -4.375,5.99507 4.6625,6.3248 -4.15,0 -2.7625,-3.8961 -2.725,3.8961 -4.15,0 4.675,-6.3023"
       style="fill:#000000;fill-opacity:1;fill-rule:nonzero;stroke:none"
       id="path16619" /><path
       inkscape:connector-curvature="0"
       d="m 645.7775,1003.6667 c 0,-1.977 -0.2,-3.3701 -0.6,-4.18007 -0.4125,-0.80962 -1.0875,-1.21438 -2.0375,-1.21438 -0.95,0 -1.625,0.40476 -2.0375,1.21438 -0.4,0.80997 -0.6,2.20307 -0.6,4.18007 0,1.9981 0.2,3.4083 0.6,4.2306 0.4125,0.8188 1.0875,1.228 2.0375,1.228 0.95,0 1.625,-0.4092 2.025,-1.228 0.4125,-0.8223 0.6125,-2.2325 0.6125,-4.2306 m 4.1,0.037 c 0,2.6705 -0.575,4.7315 -1.75,6.1832 -1.175,1.4483 -2.8375,2.1724 -4.9875,2.1724 -2.15,0 -3.825,-0.7241 -5,-2.1724 -1.1625,-1.4517 -1.75,-3.5127 -1.75,-6.1832 0,-2.6767 0.5875,-4.7392 1.75,-6.18745 1.175,-1.45113 2.85,-2.17675 5,-2.17675 2.15,0 3.8125,0.72562 4.9875,2.17675 1.175,1.44825 1.75,3.51075 1.75,6.18745"
       style="fill:#000000;fill-opacity:1;fill-rule:nonzero;stroke:none"
       id="path16621" /><path
       inkscape:connector-curvature="0"
       d="m 661.5275,1003.6667 c 0,-1.977 -0.2,-3.3701 -0.6,-4.18007 -0.4125,-0.80962 -1.0875,-1.21438 -2.0375,-1.21438 -0.95,0 -1.625,0.40476 -2.025,1.21438 -0.4125,0.80997 -0.6125,2.20307 -0.6125,4.18007 0,1.9981 0.2,3.4083 0.6125,4.2306 0.4,0.8188 1.075,1.228 2.025,1.228 0.95,0 1.625,-0.4092 2.025,-1.228 0.4125,-0.8223 0.6125,-2.2325 0.6125,-4.2306 m 4.1125,0.037 c 0,2.6705 -0.5875,4.7315 -1.7625,6.1832 -1.175,1.4483 -2.8375,2.1724 -4.9875,2.1724 -2.15,0 -3.8125,-0.7241 -4.9875,-2.1724 -1.175,-1.4517 -1.7625,-3.5127 -1.7625,-6.1832 0,-2.6767 0.5875,-4.7392 1.7625,-6.18745 1.175,-1.45113 2.8375,-2.17675 4.9875,-2.17675 2.15,0 3.8125,0.72562 4.9875,2.17675 1.175,1.44825 1.7625,3.51075 1.7625,6.18745"
       style="fill:#000000;fill-opacity:1;fill-rule:nonzero;stroke:none"
       id="path16623" /><path
       inkscape:connector-curvature="0"
       d="m 677.2775,1003.6667 c 0,-1.977 -0.2,-3.3701 -0.6,-4.18007 -0.4,-0.80962 -1.075,-1.21438 -2.025,-1.21438 -0.95,0 -1.6375,0.40476 -2.0375,1.21438 -0.4125,0.80997 -0.6125,2.20307 -0.6125,4.18007 0,1.9981 0.2,3.4083 0.6125,4.2306 0.4,0.8188 1.0875,1.228 2.0375,1.228 0.9375,0 1.6125,-0.4092 2.025,-1.228 0.4,-0.8223 0.6,-2.2325 0.6,-4.2306 m 4.1125,0.037 c 0,2.6705 -0.5875,4.7315 -1.7625,6.1832 -1.175,1.4483 -2.825,2.1724 -4.975,2.1724 -2.1625,0 -3.825,-0.7241 -5,-2.1724 -1.175,-1.4517 -1.7625,-3.5127 -1.7625,-6.1832 0,-2.6767 0.5875,-4.7392 1.7625,-6.18745 1.175,-1.45113 2.8375,-2.17675 5,-2.17675 2.15,0 3.8,0.72562 4.975,2.17675 1.175,1.44825 1.7625,3.51075 1.7625,6.18745"
       style="fill:#000000;fill-opacity:1;fill-rule:nonzero;stroke:none"
       id="path16625" /><path
       inkscape:connector-curvature="0"
       d="m 693.04,1003.6667 c 0,-1.977 -0.2125,-3.3701 -0.6125,-4.18007 -0.4,-0.80962 -1.075,-1.21438 -2.025,-1.21438 -0.95,0 -1.6375,0.40476 -2.0375,1.21438 -0.4125,0.80997 -0.6125,2.20307 -0.6125,4.18007 0,1.9981 0.2,3.4083 0.6125,4.2306 0.4,0.8188 1.0875,1.228 2.0375,1.228 0.9375,0 1.6125,-0.4092 2.025,-1.228 0.4,-0.8223 0.6125,-2.2325 0.6125,-4.2306 m 4.1,0.037 c 0,2.6705 -0.5875,4.7315 -1.7625,6.1832 -1.1625,1.4483 -2.825,2.1724 -4.975,2.1724 -2.1625,0 -3.825,-0.7241 -5,-2.1724 -1.175,-1.4517 -1.75,-3.5127 -1.75,-6.1832 0,-2.6767 0.575,-4.7392 1.75,-6.18745 1.175,-1.45113 2.8375,-2.17675 5,-2.17675 2.15,0 3.8125,0.72562 4.975,2.17675 1.175,1.44825 1.7625,3.51075 1.7625,6.18745"
       style="fill:#000000;fill-opacity:1;fill-rule:nonzero;stroke:none"
       id="path16627" /><path
       inkscape:connector-curvature="0"
       d="m 708.79,1003.6667 c 0,-1.977 -0.2,-3.3701 -0.6125,-4.18007 -0.4,-0.80962 -1.075,-1.21438 -2.025,-1.21438 -0.95,0 -1.625,0.40476 -2.0375,1.21438 -0.4,0.80997 -0.6125,2.20307 -0.6125,4.18007 0,1.9981 0.2125,3.4083 0.6125,4.2306 0.4125,0.8188 1.0875,1.228 2.0375,1.228 0.95,0 1.625,-0.4092 2.025,-1.228 0.4125,-0.8223 0.6125,-2.2325 0.6125,-4.2306 m 4.1,0.037 c 0,2.6705 -0.5875,4.7315 -1.75,6.1832 -1.175,1.4483 -2.8375,2.1724 -4.9875,2.1724 -2.1625,0 -3.825,-0.7241 -5,-2.1724 -1.1625,-1.4517 -1.75,-3.5127 -1.75,-6.1832 0,-2.6767 0.5875,-4.7392 1.75,-6.18745 1.175,-1.45113 2.8375,-2.17675 5,-2.17675 2.15,0 3.8125,0.72562 4.9875,2.17675 1.1625,1.44825 1.75,3.51075 1.75,6.18745"
       style="fill:#000000;fill-opacity:1;fill-rule:nonzero;stroke:none"
       id="path16629" /><path
       inkscape:connector-curvature="0"
       d="m 724.54,1003.6667 c 0,-1.977 -0.2,-3.3701 -0.6,-4.18007 -0.4125,-0.80962 -1.0875,-1.21438 -2.0375,-1.21438 -0.95,0 -1.625,0.40476 -2.0375,1.21438 -0.4,0.80997 -0.6,2.20307 -0.6,4.18007 0,1.9981 0.2,3.4083 0.6,4.2306 0.4125,0.8188 1.0875,1.228 2.0375,1.228 0.95,0 1.625,-0.4092 2.025,-1.228 0.4125,-0.8223 0.6125,-2.2325 0.6125,-4.2306 m 4.1125,0.037 c 0,2.6705 -0.5875,4.7315 -1.7625,6.1832 -1.175,1.4483 -2.8375,2.1724 -4.9875,2.1724 -2.15,0 -3.825,-0.7241 -4.9875,-2.1724 -1.175,-1.4517 -1.7625,-3.5127 -1.7625,-6.1832 0,-2.6767 0.5875,-4.7392 1.7625,-6.18745 1.1625,-1.45113 2.8375,-2.17675 4.9875,-2.17675 2.15,0 3.8125,0.72562 4.9875,2.17675 1.175,1.44825 1.7625,3.51075 1.7625,6.18745"
       style="fill:#000000;fill-opacity:1;fill-rule:nonzero;stroke:none"
       id="path16631" /></g><path
     id="path16633"
     style="fill:#000000;fill-opacity:1;fill-rule:nonzero;stroke:none"
     d="m 246.9213,983.23588 11.1462,0 0,3.22663 -7.04,0 0,2.933 6.7463,0 0,3.22662 -6.7463,0 0,3.52 7.3338,0 0,3.22663 -11.44,0 0,-16.13288"
     inkscape:connector-curvature="0" /><path
     id="path16635"
     style="fill:#000000;fill-opacity:1;fill-rule:nonzero;stroke:none"
     d="m 265.315,993.06701 -4.375,-6.01813 4.1,0 2.4875,3.65287 2.5125,-3.65287 4.1,0 -4.375,5.99513 4.675,6.32475 -4.1625,0 -2.75,-3.8955 -2.7375,3.8955 -4.1375,0 4.6625,-6.30175"
     inkscape:connector-curvature="0" /><path
     id="path16637"
     style="fill:#000000;fill-opacity:1;fill-rule:nonzero;stroke:none"
     d="m 281.115,983.82225 0,3.22663 4.1125,0 0,2.93362 -4.1125,0 0,5.04151 c 0,0.55324 0.1125,0.92724 0.35,1.12299 0.2375,0.19238 0.7,0.28863 1.3875,0.28863 l 2.075,0 0,2.93313 -3.4625,0 c -1.5125,0 -2.5875,-0.32813 -3.2125,-0.98538 -0.6375,-0.65975 -0.95,-1.77988 -0.95,-3.35937 l 0,-5.04151 -2.05,0 0,-2.93362 2.05,0 0,-3.22663 3.8125,0"
     inkscape:connector-curvature="0" /><path
     id="path16639"
     style="fill:#000000;fill-opacity:1;fill-rule:nonzero;stroke:none"
     d="m 299.8275,993.00738 0,1.0815 -9.375,0 c 0.087,0.97813 0.4375,1.711 1.0125,2.20025 0.5875,0.48875 1.4,0.73337 2.45,0.73337 0.85,0 1.7125,-0.12112 2.6,-0.36225 0.8875,-0.24462 1.8,-0.61287 2.7375,-1.10449 l 0,2.93312 c -0.9375,0.38812 -1.8625,0.68162 -2.8,0.87988 -0.925,0.19574 -1.85,0.29337 -2.7875,0.29337 -2.225,0 -3.95,-0.56488 -5.1875,-1.69575 -1.225,-1.13038 -1.8375,-2.71637 -1.8375,-4.75738 0,-2.00437 0.6,-3.581 1.8125,-4.73 1.2125,-1.14887 2.875,-1.72312 5,-1.72312 1.9375,0 3.475,0.56837 4.6375,1.70462 1.1625,1.13376 1.7375,2.64938 1.7375,4.54688 m -3.8125,-1.26513 c 0,-0.70262 -0.225,-1.2695 -0.7,-1.70025 -0.475,-0.43112 -1.0875,-0.64649 -1.85,-0.64649 -0.825,0 -1.4875,0.20174 -2.0125,0.605 -0.5125,0.40337 -0.8375,0.98387 -0.9625,1.74174 l 5.525,0"
     inkscape:connector-curvature="0" /><path
     id="path16641"
     style="fill:#000000;fill-opacity:1;fill-rule:nonzero;stroke:none"
     d="m 312.0025,990.56888 c -0.35,-0.19825 -0.6875,-0.34525 -1.0375,-0.43988 -0.35,-0.0977 -0.6875,-0.1465 -1.0375,-0.1465 -1.025,0 -1.825,0.33001 -2.375,0.98975 -0.55,0.65726 -0.825,1.59813 -0.825,2.82325 l 0,5.57326 -3.8125,0 0,-12.31988 3.8125,0 0,2.05375 c 0.5125,-0.816 1.1,-1.41025 1.7625,-1.78325 0.6625,-0.376 1.4625,-0.5635 2.3875,-0.5635 0.1375,0 0.275,0.006 0.4375,0.0181 0.15,0.009 0.3875,0.0323 0.675,0.0689 l 0.013,3.726"
     inkscape:connector-curvature="0" /><path
     id="path16643"
     style="fill:#000000;fill-opacity:1;fill-rule:nonzero;stroke:none"
     d="m 326.3775,991.84325 0,7.52551 -3.8125,0 0,-5.76076 c 0,-1.0665 -0.025,-1.80137 -0.075,-2.20462 -0.05,-0.40675 -0.1375,-0.70613 -0.25,-0.8985 -0.1625,-0.25675 -0.3875,-0.457 -0.6625,-0.6005 -0.275,-0.14363 -0.5875,-0.21538 -0.9375,-0.21538 -0.8625,0 -1.5375,0.31938 -2.025,0.958 -0.5,0.63526 -0.7375,1.51563 -0.7375,2.64013 l 0,6.08163 -3.8125,0 0,-12.31988 3.8125,0 0,1.76025 c 0.6,-0.70262 1.2375,-1.22075 1.9,-1.55375 0.675,-0.333 1.4125,-0.4995 2.225,-0.4995 1.4375,0 2.525,0.43362 3.2625,1.30125 0.75,0.86825 1.1125,2.12988 1.1125,3.78613"
     inkscape:connector-curvature="0" /><path
     id="path16645"
     style="fill:#000000;fill-opacity:1;fill-rule:nonzero;stroke:none"
     d="m 335.6775,993.7955 c -0.85,0 -1.5,0.13913 -1.925,0.41738 -0.4375,0.275 -0.65,0.68263 -0.65,1.22375 0,0.495 0.175,0.88275 0.5125,1.164 0.35,0.28125 0.8375,0.42187 1.45,0.42187 0.775,0 1.4125,-0.26462 1.9375,-0.793 0.525,-0.52874 0.7875,-1.19037 0.7875,-1.98487 l 0,-0.44913 -2.1125,0 m 5.9375,-1.48924 0,7.0625 -3.825,0 0,-1.75988 c -0.525,0.71488 -1.1125,1.23588 -1.775,1.563 -0.6625,0.32675 -1.475,0.49025 -2.4125,0.49025 -1.2875,0 -2.325,-0.3725 -3.1125,-1.11812 -0.8,-0.74563 -1.2,-1.71288 -1.2,-2.90138 0,-1.44538 0.4875,-2.50537 1.475,-3.18062 0.975,-0.67538 2.5125,-1.01326 4.625,-1.01326 l 2.4,0 0,-0.32962 c 0,-0.59613 -0.2375,-1.03125 -0.725,-1.30662 -0.4875,-0.27776 -1.2375,-0.417 -2.275,-0.417 -0.825,0 -1.6125,0.0733 -2.325,0.22024 -0.7125,0.14651 -1.3875,0.36675 -2,0.66013 l 0,-2.9335 c 0.8125,-0.19237 1.6375,-0.3375 2.45,-0.43562 0.825,-0.1005 1.65,-0.15088 2.475,-0.15088 2.1875,0 3.775,0.43512 4.75,1.30612 0.975,0.87063 1.475,2.28575 1.475,4.24426"
     inkscape:connector-curvature="0" /><path
     id="path16647"
     style="fill:#000000;fill-opacity:1;fill-rule:nonzero;stroke:none"
     d="m 345.4775,999.36876 3.8135,0 0,-17.01275 -3.8135,0 0,17.01275 z"
     inkscape:connector-curvature="0" /><path
     id="path16649"
     style="fill:#000000;fill-opacity:1;fill-rule:nonzero;stroke:none"
     d="m 372.5775,983.72175 0,3.32713 c -0.8875,-0.38775 -1.75,-0.67975 -2.6,-0.875 -0.8375,-0.19875 -1.6375,-0.29837 -2.3875,-0.29837 -1,0 -1.7375,0.13775 -2.2125,0.41262 -0.475,0.272 -0.7125,0.69537 -0.7125,1.2695 0,0.43125 0.1625,0.76713 0.475,1.00837 0.325,0.24163 0.9125,0.44775 1.7625,0.61913 l 1.7875,0.35738 c 1.8375,0.36324 3.1375,0.91512 3.9125,1.65437 0.7625,0.73975 1.15,1.7905 1.15,3.15325 0,1.7935 -0.5375,3.1275 -1.6125,4.0015 -1.0875,0.8735 -2.7375,1.3105 -4.9625,1.3105 -1.05,0 -2.1,-0.0947 -3.1625,-0.28413 -1.05,-0.18949 -2.1125,-0.46875 -3.1625,-0.83837 l 0,-3.57087 c 1.05,0.58399 2.075,1.024 3.0625,1.32037 0.9875,0.293 1.9375,0.43987 2.85,0.43987 0.9375,0 1.65,-0.15575 2.1375,-0.46774 0.5,-0.31438 0.75,-0.76213 0.75,-1.34275 0,-0.52251 -0.1625,-0.92438 -0.5,-1.20563 -0.325,-0.28413 -0.9875,-0.5375 -1.975,-0.76063 l -1.625,-0.35749 c -1.625,-0.34226 -2.825,-0.88913 -3.575,-1.64063 -0.75,-0.75188 -1.125,-1.76463 -1.125,-3.039 0,-1.59775 0.525,-2.82625 1.5625,-3.68462 1.0375,-0.85888 2.5375,-1.28813 4.5,-1.28813 0.8875,0 1.8,0.066 2.75,0.19737 0.9375,0.12788 1.9125,0.32226 2.9125,0.582"
     inkscape:connector-curvature="0" /><path
     id="path16651"
     style="fill:#000000;fill-opacity:1;fill-rule:nonzero;stroke:none"
     d="m 383.665,990.27588 c 0.9125,0 1.575,-0.16063 1.9625,-0.48137 0.4,-0.32376 0.6,-0.85401 0.6,-1.59038 0,-0.7275 -0.2,-1.248 -0.6,-1.563 -0.3875,-0.31488 -1.05,-0.47212 -1.9625,-0.47212 l -1.8375,0 0,4.10687 1.8375,0 m -1.8375,2.93312 0,6.15976 -4.1125,0 0,-16.13288 6.4125,0 c 2.1375,0 3.7125,0.353 4.7125,1.05863 1,0.706 1.5,1.82275 1.5,3.35062 0,1.05413 -0.2625,1.92037 -0.775,2.59863 -0.5,0.67812 -1.275,1.17762 -2.2875,1.4985 0.5625,0.13137 1.0625,0.42912 1.5,0.894 0.45,0.46437 0.9,1.16699 1.35,2.10787 l 2.2625,4.62463 -4.4,0 -1.95,-4.04688 c -0.425,-0.8125 -0.8375,-1.36725 -1.275,-1.66363 -0.425,-0.29937 -0.9875,-0.44925 -1.7,-0.44925 l -1.2375,0"
     inkscape:connector-curvature="0" /><path
     id="path16653"
     style="fill:#000000;fill-opacity:1;fill-rule:nonzero;stroke:none"
     d="m 404.89,996.43563 -6.55,0 -1.0375,2.93313 -4.2,0 6.0125,-16.13288 4.9875,0 6.0125,16.13288 -4.2125,0 -1.0125,-2.93313 m -5.5,-2.93313 4.4375,0 -2.2125,-6.45799 -2.225,6.45799"
     inkscape:connector-curvature="0" /><path
     id="path16655"
     style="fill:#000000;fill-opacity:1;fill-rule:nonzero;stroke:none"
     d="m 412.6775,983.23588 5.225,0 3.8625,8.55225 3.875,-8.55225 5.225,0 0,16.13288 -3.8125,0 0,-11.84288 -3.9,8.61625 -2.7625,0 -3.9,-8.61625 0,11.84288 -3.8125,0 0,-16.13288"
     inkscape:connector-curvature="0" /><path
     id="path16657"
     style="fill:#000000;fill-opacity:1;fill-rule:nonzero;stroke:none"
     d="m 615.4275,907.70428 c 0,-1.97625 -0.2125,-3.37 -0.6125,-4.18 -0.4,-0.81 -1.075,-1.21375 -2.025,-1.21375 -0.95,0 -1.6375,0.40375 -2.0375,1.21375 -0.4125,0.81 -0.6125,2.20375 -0.6125,4.18 0,1.99875 0.2,3.40875 0.6125,4.23125 0.4,0.81875 1.0875,1.2275 2.0375,1.2275 0.9375,0 1.6125,-0.40875 2.025,-1.2275 0.4,-0.8225 0.6125,-2.2325 0.6125,-4.23125 m 4.1,0.0362 c 0,2.67125 -0.5875,4.7325 -1.7625,6.18375 -1.1625,1.44875 -2.825,2.1725 -4.975,2.1725 -2.1625,0 -3.825,-0.72375 -5,-2.1725 -1.175,-1.45125 -1.75,-3.5125 -1.75,-6.18375 0,-2.67625 0.575,-4.73875 1.75,-6.1875 1.175,-1.45 2.8375,-2.17625 5,-2.17625 2.15,0 3.8125,0.72625 4.975,2.17625 1.175,1.44875 1.7625,3.51125 1.7625,6.1875"
     inkscape:connector-curvature="0" /><path
     id="path16659"
     style="fill:#000000;fill-opacity:1;fill-rule:nonzero;stroke:none"
     d="m 625.5775,909.50053 -4.375,-6.0175 4.1,0 2.475,3.6525 2.5125,-3.6525 4.1125,0 -4.375,5.995 4.6625,6.325 -4.15,0 -2.7625,-3.89625 -2.725,3.89625 -4.15,0 4.675,-6.3025"
     inkscape:connector-curvature="0" /><path
     id="path16661"
     style="fill:#000000;fill-opacity:1;fill-rule:nonzero;stroke:none"
     d="m 645.7775,907.70428 c 0,-1.97625 -0.2,-3.37 -0.6,-4.18 -0.4125,-0.81 -1.0875,-1.21375 -2.0375,-1.21375 -0.95,0 -1.625,0.40375 -2.0375,1.21375 -0.4,0.81 -0.6,2.20375 -0.6,4.18 0,1.99875 0.2,3.40875 0.6,4.23125 0.4125,0.81875 1.0875,1.2275 2.0375,1.2275 0.95,0 1.625,-0.40875 2.025,-1.2275 0.4125,-0.8225 0.6125,-2.2325 0.6125,-4.23125 m 4.1,0.0362 c 0,2.67125 -0.575,4.7325 -1.75,6.18375 -1.175,1.44875 -2.8375,2.1725 -4.9875,2.1725 -2.15,0 -3.825,-0.72375 -5,-2.1725 -1.1625,-1.45125 -1.75,-3.5125 -1.75,-6.18375 0,-2.67625 0.5875,-4.73875 1.75,-6.1875 1.175,-1.45 2.85,-2.17625 5,-2.17625 2.15,0 3.8125,0.72625 4.9875,2.17625 1.175,1.44875 1.75,3.51125 1.75,6.1875"
     inkscape:connector-curvature="0" /><path
     id="path16663"
     style="fill:#000000;fill-opacity:1;fill-rule:nonzero;stroke:none"
     d="m 662.7525,912.87053 -6.55,0 -1.025,2.9325 -4.2125,0 6.0125,-16.13375 4.9875,0 6.0125,16.13375 -4.2,0 -1.025,-2.9325 m -5.5,-2.93375 4.45,0 -2.225,-6.45875 -2.225,6.45875"
     inkscape:connector-curvature="0" /><path
     id="path16665"
     style="fill:#000000;fill-opacity:1;fill-rule:nonzero;stroke:none"
     d="m 679.0525,907.70428 c 0,-1.97625 -0.2,-3.37 -0.6,-4.18 -0.4125,-0.81 -1.0875,-1.21375 -2.0375,-1.21375 -0.95,0 -1.625,0.40375 -2.0375,1.21375 -0.4,0.81 -0.6,2.20375 -0.6,4.18 0,1.99875 0.2,3.40875 0.6,4.23125 0.4125,0.81875 1.0875,1.2275 2.0375,1.2275 0.95,0 1.625,-0.40875 2.025,-1.2275 0.4125,-0.8225 0.6125,-2.2325 0.6125,-4.23125 m 4.1,0.0362 c 0,2.67125 -0.575,4.7325 -1.75,6.18375 -1.175,1.44875 -2.8375,2.1725 -4.9875,2.1725 -2.15,0 -3.825,-0.72375 -5,-2.1725 -1.1625,-1.45125 -1.75,-3.5125 -1.75,-6.18375 0,-2.67625 0.5875,-4.73875 1.75,-6.1875 1.175,-1.45 2.85,-2.17625 5,-2.17625 2.15,0 3.8125,0.72625 4.9875,2.17625 1.175,1.44875 1.75,3.51125 1.75,6.1875"
     inkscape:connector-curvature="0" /><path
     id="path16667"
     style="fill:#000000;fill-opacity:1;fill-rule:nonzero;stroke:none"
     d="m 694.8025,907.70428 c 0,-1.97625 -0.2,-3.37 -0.6,-4.18 -0.4125,-0.81 -1.0875,-1.21375 -2.0375,-1.21375 -0.95,0 -1.625,0.40375 -2.025,1.21375 -0.4125,0.81 -0.6125,2.20375 -0.6125,4.18 0,1.99875 0.2,3.40875 0.6125,4.23125 0.4,0.81875 1.075,1.2275 2.025,1.2275 0.95,0 1.625,-0.40875 2.025,-1.2275 0.4125,-0.8225 0.6125,-2.2325 0.6125,-4.23125 m 4.1125,0.0362 c 0,2.67125 -0.5875,4.7325 -1.7625,6.18375 -1.175,1.44875 -2.8375,2.1725 -4.9875,2.1725 -2.15,0 -3.8125,-0.72375 -4.9875,-2.1725 -1.175,-1.45125 -1.7625,-3.5125 -1.7625,-6.18375 0,-2.67625 0.5875,-4.73875 1.7625,-6.1875 1.175,-1.45 2.8375,-2.17625 4.9875,-2.17625 2.15,0 3.8125,0.72625 4.9875,2.17625 1.175,1.44875 1.7625,3.51125 1.7625,6.1875"
     inkscape:connector-curvature="0" /><path
     id="path16669"
     style="fill:#000000;fill-opacity:1;fill-rule:nonzero;stroke:none"
     d="m 710.5525,907.70428 c 0,-1.97625 -0.2,-3.37 -0.6,-4.18 -0.4,-0.81 -1.075,-1.21375 -2.025,-1.21375 -0.95,0 -1.6375,0.40375 -2.0375,1.21375 -0.4125,0.81 -0.6125,2.20375 -0.6125,4.18 0,1.99875 0.2,3.40875 0.6125,4.23125 0.4,0.81875 1.0875,1.2275 2.0375,1.2275 0.9375,0 1.6125,-0.40875 2.025,-1.2275 0.4,-0.8225 0.6,-2.2325 0.6,-4.23125 m 4.1125,0.0362 c 0,2.67125 -0.5875,4.7325 -1.7625,6.18375 -1.175,1.44875 -2.825,2.1725 -4.975,2.1725 -2.1625,0 -3.825,-0.72375 -5,-2.1725 -1.175,-1.45125 -1.7625,-3.5125 -1.7625,-6.18375 0,-2.67625 0.5875,-4.73875 1.7625,-6.1875 1.175,-1.45 2.8375,-2.17625 5,-2.17625 2.15,0 3.8,0.72625 4.975,2.17625 1.175,1.44875 1.7625,3.51125 1.7625,6.1875"
     inkscape:connector-curvature="0" /><path
     id="path16671"
     style="fill:#000000;fill-opacity:1;fill-rule:nonzero;stroke:none"
     d="m 726.315,907.70428 c 0,-1.97625 -0.2125,-3.37 -0.6125,-4.18 -0.4,-0.81 -1.075,-1.21375 -2.025,-1.21375 -0.95,0 -1.6375,0.40375 -2.0375,1.21375 -0.4125,0.81 -0.6125,2.20375 -0.6125,4.18 0,1.99875 0.2,3.40875 0.6125,4.23125 0.4,0.81875 1.0875,1.2275 2.0375,1.2275 0.9375,0 1.6125,-0.40875 2.025,-1.2275 0.4,-0.8225 0.6125,-2.2325 0.6125,-4.23125 m 4.1,0.0362 c 0,2.67125 -0.5875,4.7325 -1.7625,6.18375 -1.1625,1.44875 -2.825,2.1725 -4.975,2.1725 -2.1625,0 -3.825,-0.72375 -5,-2.1725 -1.175,-1.45125 -1.75,-3.5125 -1.75,-6.18375 0,-2.67625 0.575,-4.73875 1.75,-6.1875 1.175,-1.45 2.8375,-2.17625 5,-2.17625 2.15,0 3.8125,0.72625 4.975,2.17625 1.175,1.44875 1.7625,3.51125 1.7625,6.1875"
     inkscape:connector-curvature="0" /><path
     id="path16673"
     style="fill:none;fill-opacity:1;fill-rule:nonzero;stroke:none"
     d="m 108.8063,814.32263 460.6225,0 0,-70.86525 -460.6225,0 0,70.86525 z"
     inkscape:connector-curvature="0" /><path
     id="path16675"
     style="fill:none;stroke:#000000;stroke-width:3.54325008;stroke-linecap:butt;stroke-linejoin:miter;stroke-miterlimit:10;stroke-dasharray:none;stroke-opacity:1"
     d="m 108.8063,814.32263 460.6225,0 0,-70.86525 -460.6225,0 0,70.86525 z"
     inkscape:connector-curvature="0" /><path
     id="path16677"
     style="fill:#000000;fill-opacity:1;fill-rule:nonzero;stroke:none"
     d="m 257.8613,786.77388 4.1065,0 0,-16.13325 -4.1065,0 0,16.13325 z"
     inkscape:connector-curvature="0" /><path
     id="path16679"
     style="fill:#000000;fill-opacity:1;fill-rule:nonzero;stroke:none"
     d="m 278.29,779.24763 0,7.52625 -3.8125,0 0,-5.76125 c 0,-1.06625 -0.025,-1.80125 -0.075,-2.205 -0.05,-0.40625 -0.1375,-0.705 -0.25,-0.8975 -0.1625,-0.2575 -0.3875,-0.4575 -0.6625,-0.60125 -0.275,-0.14375 -0.5875,-0.215 -0.9375,-0.215 -0.8625,0 -1.5375,0.31875 -2.0375,0.9575 -0.4875,0.63625 -0.725,1.51625 -0.725,2.64 l 0,6.0825 -3.8125,0 0,-12.32 3.8125,0 0,1.76 c 0.6,-0.7025 1.2375,-1.22125 1.9,-1.55375 0.675,-0.3325 1.4125,-0.5 2.225,-0.5 1.4375,0 2.525,0.43375 3.2625,1.3025 0.75,0.8675 1.1125,2.12875 1.1125,3.785"
     inkscape:connector-curvature="0" /><path
     id="path16681"
     style="fill:#000000;fill-opacity:1;fill-rule:nonzero;stroke:none"
     d="m 286.4775,771.22763 0,3.22625 4.1125,0 0,2.93375 -4.1125,0 0,5.04125 c 0,0.5525 0.125,0.9275 0.35,1.1225 0.2375,0.1925 0.7,0.28875 1.3875,0.28875 l 2.075,0 0,2.93375 -3.4625,0 c -1.5125,0 -2.5875,-0.32875 -3.2125,-0.985 -0.6375,-0.66 -0.95,-1.78 -0.95,-3.36 l 0,-5.04125 -2.05,0 0,-2.93375 2.05,0 0,-3.22625 3.8125,0"
     inkscape:connector-curvature="0" /><path
     id="path16683"
     style="fill:#000000;fill-opacity:1;fill-rule:nonzero;stroke:none"
     d="m 305.2025,780.41263 0,1.08125 -9.3875,0 c 0.1,0.9775 0.4375,1.71125 1.0125,2.2 0.5875,0.48875 1.4,0.73375 2.45,0.73375 0.85,0 1.7125,-0.12125 2.6,-0.3625 0.8875,-0.24375 1.8,-0.6125 2.7375,-1.105 l 0,2.93375 c -0.9375,0.3875 -1.8625,0.68125 -2.8,0.88 -0.925,0.195 -1.85,0.2925 -2.7875,0.2925 -2.225,0 -3.95,-0.565 -5.1875,-1.695 -1.225,-1.13 -1.8375,-2.71625 -1.8375,-4.7575 0,-2.005 0.6,-3.58125 1.8125,-4.73 1.2125,-1.14875 2.875,-1.72375 5,-1.72375 1.9375,0 3.475,0.56875 4.6375,1.70625 1.1625,1.1325 1.75,2.64875 1.75,4.54625 m -3.8125,-1.265 c 0,-0.70375 -0.2375,-1.27 -0.7125,-1.70125 -0.475,-0.43 -1.0875,-0.645 -1.85,-0.645 -0.825,0 -1.4875,0.20125 -2.0125,0.605 -0.5125,0.4025 -0.8375,0.98375 -0.9625,1.74125 l 5.5375,0"
     inkscape:connector-curvature="0" /><path
     id="path16685"
     style="fill:#000000;fill-opacity:1;fill-rule:nonzero;stroke:none"
     d="m 317.365,777.97388 c -0.35,-0.19875 -0.6875,-0.345 -1.0375,-0.44 -0.3375,-0.0975 -0.6875,-0.14625 -1.0375,-0.14625 -1.025,0 -1.8125,0.33 -2.375,0.99 -0.55,0.65625 -0.825,1.5975 -0.825,2.8225 l 0,5.57375 -3.8125,0 0,-12.32 3.8125,0 0,2.05375 c 0.5125,-0.81625 1.1,-1.41 1.7625,-1.78375 0.6625,-0.375 1.4625,-0.56375 2.4,-0.56375 0.125,0 0.275,0.006 0.425,0.0187 0.15,0.009 0.3875,0.0325 0.6875,0.0688 l 0,3.72625"
     inkscape:connector-curvature="0" /><path
     id="path16687"
     style="fill:#000000;fill-opacity:1;fill-rule:nonzero;stroke:none"
     d="m 331.7525,779.24763 0,7.52625 -3.825,0 0,-5.76125 c 0,-1.06625 -0.025,-1.80125 -0.075,-2.205 -0.05,-0.40625 -0.125,-0.705 -0.25,-0.8975 -0.1625,-0.2575 -0.375,-0.4575 -0.6625,-0.60125 -0.275,-0.14375 -0.5875,-0.215 -0.9375,-0.215 -0.8625,0 -1.5375,0.31875 -2.025,0.9575 -0.4875,0.63625 -0.7375,1.51625 -0.7375,2.64 l 0,6.0825 -3.8125,0 0,-12.32 3.8125,0 0,1.76 c 0.6,-0.7025 1.2375,-1.22125 1.9125,-1.55375 0.6625,-0.3325 1.4125,-0.5 2.2125,-0.5 1.4375,0 2.525,0.43375 3.2625,1.3025 0.75,0.8675 1.125,2.12875 1.125,3.785"
     inkscape:connector-curvature="0" /><path
     id="path16689"
     style="fill:#000000;fill-opacity:1;fill-rule:nonzero;stroke:none"
     d="m 341.04,781.20013 c -0.85,0 -1.5,0.13875 -1.925,0.4175 -0.4375,0.275 -0.65,0.6825 -0.65,1.22375 0,0.495 0.175,0.88375 0.525,1.16375 0.3375,0.28125 0.825,0.4225 1.4375,0.4225 0.775,0 1.425,-0.265 1.95,-0.79375 0.525,-0.52875 0.7875,-1.19 0.7875,-1.98375 l 0,-0.45 -2.125,0 m 5.9375,-1.48875 0,7.0625 -3.8125,0 0,-1.76 c -0.5375,0.715 -1.125,1.23625 -1.7875,1.5625 -0.6625,0.3275 -1.4625,0.49 -2.4125,0.49 -1.275,0 -2.3125,-0.3725 -3.1125,-1.1175 -0.8,-0.74625 -1.2,-1.7125 -1.2,-2.90125 0,-1.445 0.4875,-2.505 1.475,-3.18125 0.975,-0.675 2.525,-1.0125 4.625,-1.0125 l 2.4125,0 0,-0.33 c 0,-0.595 -0.25,-1.03125 -0.7375,-1.30625 -0.4875,-0.27875 -1.2375,-0.41625 -2.275,-0.41625 -0.825,0 -1.6,0.0725 -2.325,0.21875 -0.7125,0.1475 -1.3875,0.3675 -2,0.66 l 0,-2.9325 c 0.8125,-0.1925 1.6375,-0.3375 2.4625,-0.435 0.8125,-0.10125 1.6375,-0.1525 2.4625,-0.1525 2.2,0 3.775,0.43625 4.75,1.30625 0.9875,0.87125 1.475,2.28625 1.475,4.245"
     inkscape:connector-curvature="0" /><path
     id="path16691"
     style="fill:#000000;fill-opacity:1;fill-rule:nonzero;stroke:none"
     d="m 350.84,786.77388 3.813,0 0,-17.01313 -3.813,0 0,17.01313 z"
     inkscape:connector-curvature="0" /><path
     id="path16693"
     style="fill:#000000;fill-opacity:1;fill-rule:nonzero;stroke:none"
     d="m 372.74,777.68013 c 0.925,0 1.575,-0.16 1.975,-0.48125 0.4,-0.32375 0.5875,-0.85375 0.5875,-1.59 0,-0.7275 -0.1875,-1.2475 -0.5875,-1.5625 -0.4,-0.315 -1.05,-0.4725 -1.975,-0.4725 l -1.8375,0 0,4.10625 1.8375,0 m -1.8375,2.93375 0,6.16 -4.1,0 0,-16.13375 6.4,0 c 2.15,0 3.7125,0.35375 4.7125,1.05875 1,0.70625 1.5,1.82375 1.5,3.35125 0,1.05375 -0.25,1.92 -0.7625,2.59875 -0.5125,0.6775 -1.275,1.1775 -2.3,1.49875 0.5625,0.13125 1.0625,0.42875 1.5125,0.89375 0.4375,0.46375 0.8875,1.16625 1.35,2.1075 l 2.25,4.625 -4.4,0 -1.95,-4.0475 c -0.4125,-0.8125 -0.8375,-1.3675 -1.2625,-1.66375 -0.425,-0.29875 -1,-0.44875 -1.7125,-0.44875 l -1.2375,0"
     inkscape:connector-curvature="0" /><path
     id="path16695"
     style="fill:#000000;fill-opacity:1;fill-rule:nonzero;stroke:none"
     d="m 393.965,783.84013 -6.55,0 -1.025,2.93375 -4.2125,0 6.0125,-16.13375 4.9875,0 6.0125,16.13375 -4.2,0 -1.025,-2.93375 m -5.5,-2.9325 4.45,0 -2.225,-6.45875 -2.225,6.45875"
     inkscape:connector-curvature="0" /><path
     id="path16697"
     style="fill:#000000;fill-opacity:1;fill-rule:nonzero;stroke:none"
     d="m 401.7525,770.64013 5.2375,0 3.85,8.5525 3.875,-8.5525 5.225,0 0,16.13375 -3.8125,0 0,-11.84375 -3.8875,8.6175 -2.775,0 -3.9,-8.6175 0,11.84375 -3.8125,0 0,-16.13375"
     inkscape:connector-curvature="0" /><g
     id="g4933"
     transform="translate(0,44.468498)"><path
       inkscape:connector-curvature="0"
       d="m 615.4275,684.77413 c 0,-1.9775 -0.2125,-3.37 -0.6125,-4.18 -0.4,-0.81 -1.075,-1.215 -2.025,-1.215 -0.95,0 -1.6375,0.405 -2.0375,1.215 -0.4125,0.81 -0.6125,2.2025 -0.6125,4.18 0,1.99875 0.2,3.40875 0.6125,4.23 0.4,0.82 1.0875,1.22875 2.0375,1.22875 0.9375,0 1.6125,-0.40875 2.025,-1.22875 0.4,-0.82125 0.6125,-2.23125 0.6125,-4.23 m 4.1,0.0362 c 0,2.67125 -0.5875,4.7325 -1.7625,6.1825 -1.1625,1.44875 -2.825,2.17375 -4.975,2.17375 -2.1625,0 -3.825,-0.725 -5,-2.17375 -1.175,-1.45 -1.75,-3.51125 -1.75,-6.1825 0,-2.67625 0.575,-4.73875 1.75,-6.1875 1.175,-1.45125 2.8375,-2.17625 5,-2.17625 2.15,0 3.8125,0.725 4.975,2.17625 1.175,1.44875 1.7625,3.51125 1.7625,6.1875"
       style="fill:#000000;fill-opacity:1;fill-rule:nonzero;stroke:none"
       id="path16699" /><path
       inkscape:connector-curvature="0"
       d="m 625.5775,686.57038 -4.375,-6.0175 4.1,0 2.475,3.6525 2.5125,-3.6525 4.1125,0 -4.375,5.995 4.6625,6.325 -4.15,0 -2.7625,-3.89625 -2.725,3.89625 -4.15,0 4.675,-6.3025"
       style="fill:#000000;fill-opacity:1;fill-rule:nonzero;stroke:none"
       id="path16701" /><path
       inkscape:connector-curvature="0"
       d="m 637.8525,689.93913 3.8125,0 0,-10.26625 -3.8125,0.88 0,-2.93375 3.8125,-0.88 4.1125,0 0,13.2 3.8125,0 0,2.93375 -11.7375,0 0,-2.93375"
       style="fill:#000000;fill-opacity:1;fill-rule:nonzero;stroke:none"
       id="path16703" /><path
       inkscape:connector-curvature="0"
       d="m 661.5275,684.77413 c 0,-1.9775 -0.2,-3.37 -0.6,-4.18 -0.4125,-0.81 -1.0875,-1.215 -2.0375,-1.215 -0.95,0 -1.625,0.405 -2.025,1.215 -0.4125,0.81 -0.6125,2.2025 -0.6125,4.18 0,1.99875 0.2,3.40875 0.6125,4.23 0.4,0.82 1.075,1.22875 2.025,1.22875 0.95,0 1.625,-0.40875 2.025,-1.22875 0.4125,-0.82125 0.6125,-2.23125 0.6125,-4.23 m 4.1125,0.0362 c 0,2.67125 -0.5875,4.7325 -1.7625,6.1825 -1.175,1.44875 -2.8375,2.17375 -4.9875,2.17375 -2.15,0 -3.8125,-0.725 -4.9875,-2.17375 -1.175,-1.45 -1.7625,-3.51125 -1.7625,-6.1825 0,-2.67625 0.5875,-4.73875 1.7625,-6.1875 1.175,-1.45125 2.8375,-2.17625 4.9875,-2.17625 2.15,0 3.8125,0.725 4.9875,2.17625 1.175,1.44875 1.7625,3.51125 1.7625,6.1875"
       style="fill:#000000;fill-opacity:1;fill-rule:nonzero;stroke:none"
       id="path16705" /><path
       inkscape:connector-curvature="0"
       d="m 677.2775,684.77413 c 0,-1.9775 -0.2,-3.37 -0.6,-4.18 -0.4,-0.81 -1.075,-1.215 -2.025,-1.215 -0.95,0 -1.6375,0.405 -2.0375,1.215 -0.4125,0.81 -0.6125,2.2025 -0.6125,4.18 0,1.99875 0.2,3.40875 0.6125,4.23 0.4,0.82 1.0875,1.22875 2.0375,1.22875 0.9375,0 1.6125,-0.40875 2.025,-1.22875 0.4,-0.82125 0.6,-2.23125 0.6,-4.23 m 4.1125,0.0362 c 0,2.67125 -0.5875,4.7325 -1.7625,6.1825 -1.175,1.44875 -2.825,2.17375 -4.975,2.17375 -2.1625,0 -3.825,-0.725 -5,-2.17375 -1.175,-1.45 -1.7625,-3.51125 -1.7625,-6.1825 0,-2.67625 0.5875,-4.73875 1.7625,-6.1875 1.175,-1.45125 2.8375,-2.17625 5,-2.17625 2.15,0 3.8,0.725 4.975,2.17625 1.175,1.44875 1.7625,3.51125 1.7625,6.1875"
       style="fill:#000000;fill-opacity:1;fill-rule:nonzero;stroke:none"
       id="path16707" /><path
       inkscape:connector-curvature="0"
       d="m 693.04,684.77413 c 0,-1.9775 -0.2125,-3.37 -0.6125,-4.18 -0.4,-0.81 -1.075,-1.215 -2.025,-1.215 -0.95,0 -1.6375,0.405 -2.0375,1.215 -0.4125,0.81 -0.6125,2.2025 -0.6125,4.18 0,1.99875 0.2,3.40875 0.6125,4.23 0.4,0.82 1.0875,1.22875 2.0375,1.22875 0.9375,0 1.6125,-0.40875 2.025,-1.22875 0.4,-0.82125 0.6125,-2.23125 0.6125,-4.23 m 4.1,0.0362 c 0,2.67125 -0.5875,4.7325 -1.7625,6.1825 -1.1625,1.44875 -2.825,2.17375 -4.975,2.17375 -2.1625,0 -3.825,-0.725 -5,-2.17375 -1.175,-1.45 -1.75,-3.51125 -1.75,-6.1825 0,-2.67625 0.575,-4.73875 1.75,-6.1875 1.175,-1.45125 2.8375,-2.17625 5,-2.17625 2.15,0 3.8125,0.725 4.975,2.17625 1.175,1.44875 1.7625,3.51125 1.7625,6.1875"
       style="fill:#000000;fill-opacity:1;fill-rule:nonzero;stroke:none"
       id="path16709" /><path
       inkscape:connector-curvature="0"
       d="m 708.79,684.77413 c 0,-1.9775 -0.2,-3.37 -0.6125,-4.18 -0.4,-0.81 -1.075,-1.215 -2.025,-1.215 -0.95,0 -1.625,0.405 -2.0375,1.215 -0.4,0.81 -0.6125,2.2025 -0.6125,4.18 0,1.99875 0.2125,3.40875 0.6125,4.23 0.4125,0.82 1.0875,1.22875 2.0375,1.22875 0.95,0 1.625,-0.40875 2.025,-1.22875 0.4125,-0.82125 0.6125,-2.23125 0.6125,-4.23 m 4.1,0.0362 c 0,2.67125 -0.5875,4.7325 -1.75,6.1825 -1.175,1.44875 -2.8375,2.17375 -4.9875,2.17375 -2.1625,0 -3.825,-0.725 -5,-2.17375 -1.1625,-1.45 -1.75,-3.51125 -1.75,-6.1825 0,-2.67625 0.5875,-4.73875 1.75,-6.1875 1.175,-1.45125 2.8375,-2.17625 5,-2.17625 2.15,0 3.8125,0.725 4.9875,2.17625 1.1625,1.44875 1.75,3.51125 1.75,6.1875"
       style="fill:#000000;fill-opacity:1;fill-rule:nonzero;stroke:none"
       id="path16711" /><path
       inkscape:connector-curvature="0"
       d="m 724.54,684.77413 c 0,-1.9775 -0.2,-3.37 -0.6,-4.18 -0.4125,-0.81 -1.0875,-1.215 -2.0375,-1.215 -0.95,0 -1.625,0.405 -2.0375,1.215 -0.4,0.81 -0.6,2.2025 -0.6,4.18 0,1.99875 0.2,3.40875 0.6,4.23 0.4125,0.82 1.0875,1.22875 2.0375,1.22875 0.95,0 1.625,-0.40875 2.025,-1.22875 0.4125,-0.82125 0.6125,-2.23125 0.6125,-4.23 m 4.1125,0.0362 c 0,2.67125 -0.5875,4.7325 -1.7625,6.1825 -1.175,1.44875 -2.8375,2.17375 -4.9875,2.17375 -2.15,0 -3.825,-0.725 -4.9875,-2.17375 -1.175,-1.45 -1.7625,-3.51125 -1.7625,-6.1825 0,-2.67625 0.5875,-4.73875 1.7625,-6.1875 1.1625,-1.45125 2.8375,-2.17625 4.9875,-2.17625 2.15,0 3.8125,0.725 4.9875,2.17625 1.175,1.44875 1.7625,3.51125 1.7625,6.1875"
       style="fill:#000000;fill-opacity:1;fill-rule:nonzero;stroke:none"
       id="path16713" /></g><g
     id="g4923"
     transform="translate(0,45.183698)"><path
       inkscape:connector-curvature="0"
       d="m 615.4275,755.63913 c 0,-1.97625 -0.2125,-3.37 -0.6125,-4.18 -0.4,-0.81 -1.075,-1.215 -2.025,-1.215 -0.95,0 -1.6375,0.405 -2.0375,1.215 -0.4125,0.81 -0.6125,2.20375 -0.6125,4.18 0,1.99875 0.2,3.40875 0.6125,4.23 0.4,0.81875 1.0875,1.22875 2.0375,1.22875 0.9375,0 1.6125,-0.41 2.025,-1.22875 0.4,-0.82125 0.6125,-2.23125 0.6125,-4.23 m 4.1,0.0362 c 0,2.67125 -0.5875,4.7325 -1.7625,6.18375 -1.1625,1.4475 -2.825,2.1725 -4.975,2.1725 -2.1625,0 -3.825,-0.725 -5,-2.1725 -1.175,-1.45125 -1.75,-3.5125 -1.75,-6.18375 0,-2.67625 0.575,-4.73875 1.75,-6.18625 1.175,-1.4525 2.8375,-2.1775 5,-2.1775 2.15,0 3.8125,0.725 4.975,2.1775 1.175,1.4475 1.7625,3.51 1.7625,6.18625"
       style="fill:#000000;fill-opacity:1;fill-rule:nonzero;stroke:none"
       id="path16715" /><path
       inkscape:connector-curvature="0"
       d="m 625.5775,757.43538 -4.375,-6.0175 4.1,0 2.475,3.6525 2.5125,-3.6525 4.1125,0 -4.375,5.995 4.6625,6.325 -4.15,0 -2.7625,-3.89625 -2.725,3.89625 -4.15,0 4.675,-6.3025"
       style="fill:#000000;fill-opacity:1;fill-rule:nonzero;stroke:none"
       id="path16717" /><path
       inkscape:connector-curvature="0"
       d="m 645.7775,755.63913 c 0,-1.97625 -0.2,-3.37 -0.6,-4.18 -0.4125,-0.81 -1.0875,-1.215 -2.0375,-1.215 -0.95,0 -1.625,0.405 -2.0375,1.215 -0.4,0.81 -0.6,2.20375 -0.6,4.18 0,1.99875 0.2,3.40875 0.6,4.23 0.4125,0.81875 1.0875,1.22875 2.0375,1.22875 0.95,0 1.625,-0.41 2.025,-1.22875 0.4125,-0.82125 0.6125,-2.23125 0.6125,-4.23 m 4.1,0.0362 c 0,2.67125 -0.575,4.7325 -1.75,6.18375 -1.175,1.4475 -2.8375,2.1725 -4.9875,2.1725 -2.15,0 -3.825,-0.725 -5,-2.1725 -1.1625,-1.45125 -1.75,-3.5125 -1.75,-6.18375 0,-2.67625 0.5875,-4.73875 1.75,-6.18625 1.175,-1.4525 2.85,-2.1775 5,-2.1775 2.15,0 3.8125,0.725 4.9875,2.1775 1.175,1.4475 1.75,3.51 1.75,6.18625"
       style="fill:#000000;fill-opacity:1;fill-rule:nonzero;stroke:none"
       id="path16719" /><path
       inkscape:connector-curvature="0"
       d="m 653.0275,747.60538 11.4375,0 0,3.22625 -7.3375,0 0,2.9325 7.0375,0 0,3.2275 -7.0375,0 0,6.74625 -4.1,0 0,-16.1325"
       style="fill:#000000;fill-opacity:1;fill-rule:nonzero;stroke:none"
       id="path16721" /><path
       inkscape:connector-curvature="0"
       d="m 674.39,756.69788 c -0.7625,0 -1.3375,0.19125 -1.75,0.5725 -0.4125,0.37875 -0.6125,0.92375 -0.6125,1.6325 0,0.70875 0.2,1.2525 0.6125,1.63125 0.4125,0.37625 0.9875,0.56375 1.75,0.56375 0.75,0 1.3375,-0.1875 1.7375,-0.56375 0.4,-0.37875 0.6,-0.9225 0.6,-1.63125 0,-0.715 -0.2,-1.26125 -0.6,-1.63625 -0.4,-0.37875 -0.9875,-0.56875 -1.7375,-0.56875 m -3.0125,-1.545 c -1.05,-0.29625 -1.8375,-0.75 -2.3625,-1.36 -0.5375,-0.615 -0.8,-1.38 -0.8,-2.2975 0,-1.3625 0.525,-2.4 1.575,-3.11125 1.0375,-0.715 2.575,-1.0725 4.6,-1.0725 2,0 3.5375,0.35625 4.575,1.0675 1.05,0.70875 1.575,1.7475 1.575,3.11625 0,0.9175 -0.275,1.6825 -0.8,2.2975 -0.5375,0.61 -1.325,1.06375 -2.3625,1.36 1.1375,0.3025 2,0.79375 2.5875,1.4725 0.575,0.6775 0.8625,1.535 0.8625,2.57 0,1.5925 -0.5375,2.79625 -1.625,3.6125 -1.075,0.815 -2.675,1.22375 -4.8125,1.22375 -2.125,0 -3.75,-0.40875 -4.8375,-1.22375 -1.0875,-0.81625 -1.625,-2.02 -1.625,-3.6125 0,-1.035 0.2875,-1.8925 0.8625,-2.57 0.5875,-0.67875 1.45,-1.17 2.5875,-1.4725 m 0.95,-3.1525 c 0,0.565 0.175,1 0.5375,1.30625 0.35,0.305 0.8625,0.4575 1.525,0.4575 0.65,0 1.15,-0.1525 1.5125,-0.4575 0.35,-0.30625 0.525,-0.74125 0.525,-1.30625 0,-0.565 -0.175,-1 -0.525,-1.30125 -0.3625,-0.30375 -0.8625,-0.455 -1.5125,-0.455 -0.6625,0 -1.175,0.15375 -1.525,0.45875 -0.3625,0.30625 -0.5375,0.7375 -0.5375,1.2975"
       style="fill:#000000;fill-opacity:1;fill-rule:nonzero;stroke:none"
       id="path16723" /><path
       inkscape:connector-curvature="0"
       d="m 692.765,755.63913 c 0,-1.97625 -0.2,-3.37 -0.6,-4.18 -0.4,-0.81 -1.075,-1.215 -2.025,-1.215 -0.9625,0 -1.6375,0.405 -2.0375,1.215 -0.4125,0.81 -0.6125,2.20375 -0.6125,4.18 0,1.99875 0.2,3.40875 0.6125,4.23 0.4,0.81875 1.075,1.22875 2.0375,1.22875 0.9375,0 1.6125,-0.41 2.025,-1.22875 0.4,-0.82125 0.6,-2.23125 0.6,-4.23 m 4.1125,0.0362 c 0,2.67125 -0.5875,4.7325 -1.7625,6.18375 -1.175,1.4475 -2.825,2.1725 -4.975,2.1725 -2.1625,0 -3.825,-0.725 -5,-2.1725 -1.175,-1.45125 -1.7625,-3.5125 -1.7625,-6.18375 0,-2.67625 0.5875,-4.73875 1.7625,-6.18625 1.175,-1.4525 2.8375,-2.1775 5,-2.1775 2.15,0 3.8,0.725 4.975,2.1775 1.175,1.4475 1.7625,3.51 1.7625,6.18625"
       style="fill:#000000;fill-opacity:1;fill-rule:nonzero;stroke:none"
       id="path16725" /><path
       inkscape:connector-curvature="0"
       d="m 708.5275,755.63913 c 0,-1.97625 -0.2125,-3.37 -0.6125,-4.18 -0.4,-0.81 -1.075,-1.215 -2.025,-1.215 -0.95,0 -1.6375,0.405 -2.0375,1.215 -0.4125,0.81 -0.6125,2.20375 -0.6125,4.18 0,1.99875 0.2,3.40875 0.6125,4.23 0.4,0.81875 1.0875,1.22875 2.0375,1.22875 0.9375,0 1.6125,-0.41 2.025,-1.22875 0.4,-0.82125 0.6125,-2.23125 0.6125,-4.23 m 4.1,0.0362 c 0,2.67125 -0.5875,4.7325 -1.7625,6.18375 -1.1625,1.4475 -2.825,2.1725 -4.975,2.1725 -2.1625,0 -3.825,-0.725 -5,-2.1725 -1.175,-1.45125 -1.75,-3.5125 -1.75,-6.18375 0,-2.67625 0.575,-4.73875 1.75,-6.18625 1.175,-1.4525 2.8375,-2.1775 5,-2.1775 2.15,0 3.8125,0.725 4.975,2.1775 1.175,1.4475 1.7625,3.51 1.7625,6.18625"
       style="fill:#000000;fill-opacity:1;fill-rule:nonzero;stroke:none"
       id="path16727" /><path
       inkscape:connector-curvature="0"
       d="m 724.2775,755.63913 c 0,-1.97625 -0.2,-3.37 -0.6125,-4.18 -0.4,-0.81 -1.075,-1.215 -2.025,-1.215 -0.95,0 -1.625,0.405 -2.0375,1.215 -0.4,0.81 -0.6125,2.20375 -0.6125,4.18 0,1.99875 0.2125,3.40875 0.6125,4.23 0.4125,0.81875 1.0875,1.22875 2.0375,1.22875 0.9375,0 1.6125,-0.41 2.025,-1.22875 0.4125,-0.82125 0.6125,-2.23125 0.6125,-4.23 m 4.1,0.0362 c 0,2.67125 -0.5875,4.7325 -1.7625,6.18375 -1.1625,1.4475 -2.825,2.1725 -4.975,2.1725 -2.1625,0 -3.825,-0.725 -5,-2.1725 -1.1625,-1.45125 -1.75,-3.5125 -1.75,-6.18375 0,-2.67625 0.5875,-4.73875 1.75,-6.18625 1.175,-1.4525 2.8375,-2.1775 5,-2.1775 2.15,0 3.8125,0.725 4.975,2.1775 1.175,1.4475 1.7625,3.51 1.7625,6.18625"
       style="fill:#000000;fill-opacity:1;fill-rule:nonzero;stroke:none"
       id="path16729" /></g><path
     id="path16731"
     style="fill:none;fill-opacity:1;fill-rule:nonzero;stroke:none"
     d="m 108.8063,743.45763 460.6225,0 0,-318.8925 -460.6225,0 0,318.8925 z"
     inkscape:connector-curvature="0" /><path
     id="path16733"
     style="fill:none;stroke:#000000;stroke-width:3.54325008;stroke-linecap:butt;stroke-linejoin:miter;stroke-miterlimit:10;stroke-dasharray:none;stroke-opacity:1"
     d="m 108.8063,743.45763 460.6225,0 0,-318.8925 -460.6225,0 0,318.8925 z"
     inkscape:connector-curvature="0" /><path
     id="path16735"
     style="fill:#000000;fill-opacity:1;fill-rule:nonzero;stroke:none"
     d="m 246.9213,575.76138 11.1462,0 0,3.2275 -7.04,0 0,2.9325 6.7463,0 0,3.2275 -6.7463,0 0,3.52 7.3338,0 0,3.22625 -11.44,0 0,-16.13375"
     inkscape:connector-curvature="0" /><path
     id="path16737"
     style="fill:#000000;fill-opacity:1;fill-rule:nonzero;stroke:none"
     d="m 265.315,585.59388 -4.375,-6.01875 4.1,0 2.4875,3.6525 2.5125,-3.6525 4.1,0 -4.375,5.995 4.675,6.325 -4.1625,0 -2.75,-3.895 -2.7375,3.895 -4.1375,0 4.6625,-6.30125"
     inkscape:connector-curvature="0" /><path
     id="path16739"
     style="fill:#000000;fill-opacity:1;fill-rule:nonzero;stroke:none"
     d="m 281.115,576.34888 0,3.22625 4.1125,0 0,2.93375 -4.1125,0 0,5.04125 c 0,0.5525 0.1125,0.9275 0.35,1.1225 0.2375,0.19375 0.7,0.28875 1.3875,0.28875 l 2.075,0 0,2.93375 -3.4625,0 c -1.5125,0 -2.5875,-0.32875 -3.2125,-0.985 -0.6375,-0.66 -0.95,-1.78 -0.95,-3.36 l 0,-5.04125 -2.05,0 0,-2.93375 2.05,0 0,-3.22625 3.8125,0"
     inkscape:connector-curvature="0" /><path
     id="path16741"
     style="fill:#000000;fill-opacity:1;fill-rule:nonzero;stroke:none"
     d="m 299.8275,585.53388 0,1.08125 -9.375,0 c 0.087,0.9775 0.4375,1.71125 1.0125,2.2 0.5875,0.48875 1.4,0.73375 2.45,0.73375 0.85,0 1.7125,-0.12125 2.6,-0.3625 0.8875,-0.245 1.8,-0.6125 2.7375,-1.105 l 0,2.93375 c -0.9375,0.38875 -1.8625,0.68125 -2.8,0.88 -0.925,0.19625 -1.85,0.29375 -2.7875,0.29375 -2.225,0 -3.95,-0.56625 -5.1875,-1.69625 -1.225,-1.13125 -1.8375,-2.71625 -1.8375,-4.7575 0,-2.005 0.6,-3.58125 1.8125,-4.73 1.2125,-1.14875 2.875,-1.72375 5,-1.72375 1.9375,0 3.475,0.56875 4.6375,1.705 1.1625,1.13375 1.7375,2.65 1.7375,4.5475 m -3.8125,-1.265 c 0,-0.7025 -0.225,-1.27 -0.7,-1.70125 -0.475,-0.43 -1.0875,-0.64625 -1.85,-0.64625 -0.825,0 -1.4875,0.2025 -2.0125,0.605 -0.5125,0.40375 -0.8375,0.985 -0.9625,1.7425 l 5.525,0"
     inkscape:connector-curvature="0" /><path
     id="path16743"
     style="fill:#000000;fill-opacity:1;fill-rule:nonzero;stroke:none"
     d="m 312.0025,583.09513 c -0.35,-0.19875 -0.6875,-0.345 -1.0375,-0.44 -0.35,-0.0975 -0.6875,-0.14625 -1.0375,-0.14625 -1.025,0 -1.825,0.33 -2.375,0.99 -0.55,0.65625 -0.825,1.5975 -0.825,2.8225 l 0,5.57375 -3.8125,0 0,-12.32 3.8125,0 0,2.05375 c 0.5125,-0.81625 1.1,-1.41 1.7625,-1.78375 0.6625,-0.375 1.4625,-0.56375 2.3875,-0.56375 0.1375,0 0.275,0.006 0.4375,0.0188 0.15,0.01 0.3875,0.0325 0.675,0.0687 l 0.013,3.72625"
     inkscape:connector-curvature="0" /><path
     id="path16745"
     style="fill:#000000;fill-opacity:1;fill-rule:nonzero;stroke:none"
     d="m 326.3775,584.36888 0,7.52625 -3.8125,0 0,-5.76125 c 0,-1.06625 -0.025,-1.80125 -0.075,-2.205 -0.05,-0.40625 -0.1375,-0.705 -0.25,-0.8975 -0.1625,-0.2575 -0.3875,-0.4575 -0.6625,-0.60125 -0.275,-0.1425 -0.5875,-0.215 -0.9375,-0.215 -0.8625,0 -1.5375,0.32 -2.025,0.9575 -0.5,0.63625 -0.7375,1.51625 -0.7375,2.64 l 0,6.0825 -3.8125,0 0,-12.32 3.8125,0 0,1.76 c 0.6,-0.7025 1.2375,-1.22125 1.9,-1.55375 0.675,-0.3325 1.4125,-0.5 2.225,-0.5 1.4375,0 2.525,0.435 3.2625,1.3025 0.75,0.8675 1.1125,2.13 1.1125,3.785"
     inkscape:connector-curvature="0" /><path
     id="path16747"
     style="fill:#000000;fill-opacity:1;fill-rule:nonzero;stroke:none"
     d="m 335.6775,586.32138 c -0.85,0 -1.5,0.14 -1.925,0.4175 -0.4375,0.275 -0.65,0.6825 -0.65,1.22375 0,0.495 0.175,0.8825 0.5125,1.16375 0.35,0.28125 0.8375,0.4225 1.45,0.4225 0.775,0 1.4125,-0.265 1.9375,-0.79375 0.525,-0.5275 0.7875,-1.19 0.7875,-1.98375 l 0,-0.45 -2.1125,0 m 5.9375,-1.48875 0,7.0625 -3.825,0 0,-1.76 c -0.525,0.715 -1.1125,1.23625 -1.775,1.5625 -0.6625,0.3275 -1.475,0.49125 -2.4125,0.49125 -1.2875,0 -2.325,-0.37375 -3.1125,-1.11875 -0.8,-0.745 -1.2,-1.7125 -1.2,-2.90125 0,-1.445 0.4875,-2.50625 1.475,-3.18 0.975,-0.67625 2.5125,-1.01375 4.625,-1.01375 l 2.4,0 0,-0.33 c 0,-0.59625 -0.2375,-1.03125 -0.725,-1.30625 -0.4875,-0.2775 -1.2375,-0.4175 -2.275,-0.4175 -0.825,0 -1.6125,0.0738 -2.325,0.22 -0.7125,0.1475 -1.3875,0.3675 -2,0.66 l 0,-2.9325 c 0.8125,-0.1925 1.6375,-0.3375 2.45,-0.43625 0.825,-0.1 1.65,-0.15125 2.475,-0.15125 2.1875,0 3.775,0.43625 4.75,1.30625 0.975,0.87125 1.475,2.28625 1.475,4.245"
     inkscape:connector-curvature="0" /><path
     id="path16749"
     style="fill:#000000;fill-opacity:1;fill-rule:nonzero;stroke:none"
     d="m 345.4775,591.89513 3.8135,0 0,-17.01313 -3.8135,0 0,17.01313 z"
     inkscape:connector-curvature="0" /><path
     id="path16751"
     style="fill:#000000;fill-opacity:1;fill-rule:nonzero;stroke:none"
     d="m 372.5775,576.24763 0,3.3275 c -0.8875,-0.3875 -1.75,-0.68 -2.6,-0.875 -0.8375,-0.19875 -1.6375,-0.29875 -2.3875,-0.29875 -1,0 -1.7375,0.13875 -2.2125,0.4125 -0.475,0.2725 -0.7125,0.695 -0.7125,1.27 0,0.43125 0.1625,0.7675 0.475,1.00875 0.325,0.24125 0.9125,0.4475 1.7625,0.61875 l 1.7875,0.3575 c 1.8375,0.36375 3.1375,0.915 3.9125,1.65375 0.7625,0.74 1.15,1.79125 1.15,3.15375 0,1.79375 -0.5375,3.1275 -1.6125,4.00125 -1.0875,0.87375 -2.7375,1.31125 -4.9625,1.31125 -1.05,0 -2.1,-0.095 -3.1625,-0.285 -1.05,-0.18875 -2.1125,-0.46875 -3.1625,-0.83875 l 0,-3.57 c 1.05,0.58375 2.075,1.02375 3.0625,1.32 0.9875,0.29375 1.9375,0.44 2.85,0.44 0.9375,0 1.65,-0.15625 2.1375,-0.4675 0.5,-0.315 0.75,-0.7625 0.75,-1.3425 0,-0.5225 -0.1625,-0.925 -0.5,-1.20625 -0.325,-0.28375 -0.9875,-0.5375 -1.975,-0.76 l -1.625,-0.3575 c -1.625,-0.3425 -2.825,-0.89 -3.575,-1.64125 -0.75,-0.75125 -1.125,-1.76375 -1.125,-3.03875 0,-1.5975 0.525,-2.82625 1.5625,-3.685 1.0375,-0.85875 2.5375,-1.2875 4.5,-1.2875 0.8875,0 1.8,0.065 2.75,0.19625 0.9375,0.12875 1.9125,0.3225 2.9125,0.5825"
     inkscape:connector-curvature="0" /><path
     id="path16753"
     style="fill:#000000;fill-opacity:1;fill-rule:nonzero;stroke:none"
     d="m 383.665,582.80138 c 0.9125,0 1.575,-0.16 1.9625,-0.48 0.4,-0.325 0.6,-0.855 0.6,-1.59125 0,-0.7275 -0.2,-1.24875 -0.6,-1.5625 -0.3875,-0.315 -1.05,-0.4725 -1.9625,-0.4725 l -1.8375,0 0,4.10625 1.8375,0 m -1.8375,2.93375 0,6.16 -4.1125,0 0,-16.13375 6.4125,0 c 2.1375,0 3.7125,0.35375 4.7125,1.06 1,0.705 1.5,1.82125 1.5,3.35 0,1.05375 -0.2625,1.92 -0.775,2.59875 -0.5,0.67875 -1.275,1.1775 -2.2875,1.49875 0.5625,0.13125 1.0625,0.42875 1.5,0.89375 0.45,0.46375 0.9,1.1675 1.35,2.1075 l 2.2625,4.625 -4.4,0 -1.95,-4.0475 c -0.425,-0.8125 -0.8375,-1.3675 -1.275,-1.66375 -0.425,-0.29875 -0.9875,-0.44875 -1.7,-0.44875 l -1.2375,0"
     inkscape:connector-curvature="0" /><path
     id="path16755"
     style="fill:#000000;fill-opacity:1;fill-rule:nonzero;stroke:none"
     d="m 404.89,588.96138 -6.55,0 -1.0375,2.93375 -4.2,0 6.0125,-16.13375 4.9875,0 6.0125,16.13375 -4.2125,0 -1.0125,-2.93375 m -5.5,-2.9325 4.4375,0 -2.2125,-6.4575 -2.225,6.4575"
     inkscape:connector-curvature="0" /><path
     id="path16757"
     style="fill:#000000;fill-opacity:1;fill-rule:nonzero;stroke:none"
     d="m 412.6775,575.76138 5.225,0 3.8625,8.5525 3.875,-8.5525 5.225,0 0,16.13375 -3.8125,0 0,-11.84375 -3.9,8.6175 -2.7625,0 -3.9,-8.6175 0,11.84375 -3.8125,0 0,-16.13375"
     inkscape:connector-curvature="0" /><g
     id="g4943"
     transform="translate(0,44.468498)"><path
       inkscape:connector-curvature="0"
       d="m 615.4275,365.88163 c 0,-1.9775 -0.2125,-3.37 -0.6125,-4.18 -0.4,-0.81 -1.075,-1.215 -2.025,-1.215 -0.95,0 -1.6375,0.405 -2.0375,1.215 -0.4125,0.81 -0.6125,2.2025 -0.6125,4.18 0,1.99875 0.2,3.40875 0.6125,4.23 0.4,0.81875 1.0875,1.22875 2.0375,1.22875 0.9375,0 1.6125,-0.41 2.025,-1.22875 0.4,-0.82125 0.6125,-2.23125 0.6125,-4.23 m 4.1,0.0362 c 0,2.67125 -0.5875,4.73125 -1.7625,6.18375 -1.1625,1.4475 -2.825,2.1725 -4.975,2.1725 -2.1625,0 -3.825,-0.725 -5,-2.1725 -1.175,-1.4525 -1.75,-3.5125 -1.75,-6.18375 0,-2.67625 0.575,-4.73875 1.75,-6.1875 1.175,-1.45125 2.8375,-2.17625 5,-2.17625 2.15,0 3.8125,0.725 4.975,2.17625 1.175,1.44875 1.7625,3.51125 1.7625,6.1875"
       style="fill:#000000;fill-opacity:1;fill-rule:nonzero;stroke:none"
       id="path16759" /><path
       inkscape:connector-curvature="0"
       d="m 625.5775,367.67913 -4.375,-6.01875 4.1,0 2.475,3.6525 2.5125,-3.6525 4.1125,0 -4.375,5.995 4.6625,6.325 -4.15,0 -2.7625,-3.89625 -2.725,3.89625 -4.15,0 4.675,-6.30125"
       style="fill:#000000;fill-opacity:1;fill-rule:nonzero;stroke:none"
       id="path16761" /><path
       inkscape:connector-curvature="0"
       d="m 641.7025,370.75413 7.0125,0 0,3.22625 -11.7375,0 0,-3.22625 6.025,-5.15625 c 0.55,-0.455 0.95,-0.9 1.2125,-1.33375 0.2625,-0.4375 0.3875,-0.89125 0.3875,-1.36125 0,-0.7275 -0.2625,-1.31125 -0.7875,-1.75125 -0.525,-0.4425 -1.225,-0.665 -2.0875,-0.665 -0.675,0 -1.4,0.12375 -2.2,0.37125 -0.7875,0.245 -1.6375,0.61 -2.55,1.09625 l 0,-3.52 c 0.95,-0.2875 1.8875,-0.50625 2.8125,-0.655 0.925,-0.15 1.8375,-0.225 2.725,-0.225 1.9625,0 3.4875,0.42 4.5625,1.26 1.0875,0.8375 1.6375,2.005 1.6375,3.50125 0,0.8675 -0.225,1.67625 -0.675,2.425 -0.45,0.74875 -1.3875,1.7525 -2.8125,3.01125 l -3.525,3.0025"
       style="fill:#000000;fill-opacity:1;fill-rule:nonzero;stroke:none"
       id="path16763" /><path
       inkscape:connector-curvature="0"
       d="m 661.5275,365.88163 c 0,-1.9775 -0.2,-3.37 -0.6,-4.18 -0.4125,-0.81 -1.0875,-1.215 -2.0375,-1.215 -0.95,0 -1.625,0.405 -2.025,1.215 -0.4125,0.81 -0.6125,2.2025 -0.6125,4.18 0,1.99875 0.2,3.40875 0.6125,4.23 0.4,0.81875 1.075,1.22875 2.025,1.22875 0.95,0 1.625,-0.41 2.025,-1.22875 0.4125,-0.82125 0.6125,-2.23125 0.6125,-4.23 m 4.1125,0.0362 c 0,2.67125 -0.5875,4.73125 -1.7625,6.18375 -1.175,1.4475 -2.8375,2.1725 -4.9875,2.1725 -2.15,0 -3.8125,-0.725 -4.9875,-2.1725 -1.175,-1.4525 -1.7625,-3.5125 -1.7625,-6.18375 0,-2.67625 0.5875,-4.73875 1.7625,-6.1875 1.175,-1.45125 2.8375,-2.17625 4.9875,-2.17625 2.15,0 3.8125,0.725 4.9875,2.17625 1.175,1.44875 1.7625,3.51125 1.7625,6.1875"
       style="fill:#000000;fill-opacity:1;fill-rule:nonzero;stroke:none"
       id="path16765" /><path
       inkscape:connector-curvature="0"
       d="m 677.2775,365.88163 c 0,-1.9775 -0.2,-3.37 -0.6,-4.18 -0.4,-0.81 -1.075,-1.215 -2.025,-1.215 -0.95,0 -1.6375,0.405 -2.0375,1.215 -0.4125,0.81 -0.6125,2.2025 -0.6125,4.18 0,1.99875 0.2,3.40875 0.6125,4.23 0.4,0.81875 1.0875,1.22875 2.0375,1.22875 0.9375,0 1.6125,-0.41 2.025,-1.22875 0.4,-0.82125 0.6,-2.23125 0.6,-4.23 m 4.1125,0.0362 c 0,2.67125 -0.5875,4.73125 -1.7625,6.18375 -1.175,1.4475 -2.825,2.1725 -4.975,2.1725 -2.1625,0 -3.825,-0.725 -5,-2.1725 -1.175,-1.4525 -1.7625,-3.5125 -1.7625,-6.18375 0,-2.67625 0.5875,-4.73875 1.7625,-6.1875 1.175,-1.45125 2.8375,-2.17625 5,-2.17625 2.15,0 3.8,0.725 4.975,2.17625 1.175,1.44875 1.7625,3.51125 1.7625,6.1875"
       style="fill:#000000;fill-opacity:1;fill-rule:nonzero;stroke:none"
       id="path16767" /><path
       inkscape:connector-curvature="0"
       d="m 693.04,365.88163 c 0,-1.9775 -0.2125,-3.37 -0.6125,-4.18 -0.4,-0.81 -1.075,-1.215 -2.025,-1.215 -0.95,0 -1.6375,0.405 -2.0375,1.215 -0.4125,0.81 -0.6125,2.2025 -0.6125,4.18 0,1.99875 0.2,3.40875 0.6125,4.23 0.4,0.81875 1.0875,1.22875 2.0375,1.22875 0.9375,0 1.6125,-0.41 2.025,-1.22875 0.4,-0.82125 0.6125,-2.23125 0.6125,-4.23 m 4.1,0.0362 c 0,2.67125 -0.5875,4.73125 -1.7625,6.18375 -1.1625,1.4475 -2.825,2.1725 -4.975,2.1725 -2.1625,0 -3.825,-0.725 -5,-2.1725 -1.175,-1.4525 -1.75,-3.5125 -1.75,-6.18375 0,-2.67625 0.575,-4.73875 1.75,-6.1875 1.175,-1.45125 2.8375,-2.17625 5,-2.17625 2.15,0 3.8125,0.725 4.975,2.17625 1.175,1.44875 1.7625,3.51125 1.7625,6.1875"
       style="fill:#000000;fill-opacity:1;fill-rule:nonzero;stroke:none"
       id="path16769" /><path
       inkscape:connector-curvature="0"
       d="m 708.79,365.88163 c 0,-1.9775 -0.2,-3.37 -0.6125,-4.18 -0.4,-0.81 -1.075,-1.215 -2.025,-1.215 -0.95,0 -1.625,0.405 -2.0375,1.215 -0.4,0.81 -0.6125,2.2025 -0.6125,4.18 0,1.99875 0.2125,3.40875 0.6125,4.23 0.4125,0.81875 1.0875,1.22875 2.0375,1.22875 0.95,0 1.625,-0.41 2.025,-1.22875 0.4125,-0.82125 0.6125,-2.23125 0.6125,-4.23 m 4.1,0.0362 c 0,2.67125 -0.5875,4.73125 -1.75,6.18375 -1.175,1.4475 -2.8375,2.1725 -4.9875,2.1725 -2.1625,0 -3.825,-0.725 -5,-2.1725 -1.1625,-1.4525 -1.75,-3.5125 -1.75,-6.18375 0,-2.67625 0.5875,-4.73875 1.75,-6.1875 1.175,-1.45125 2.8375,-2.17625 5,-2.17625 2.15,0 3.8125,0.725 4.9875,2.17625 1.1625,1.44875 1.75,3.51125 1.75,6.1875"
       style="fill:#000000;fill-opacity:1;fill-rule:nonzero;stroke:none"
       id="path16771" /><path
       inkscape:connector-curvature="0"
       d="m 724.54,365.88163 c 0,-1.9775 -0.2,-3.37 -0.6,-4.18 -0.4125,-0.81 -1.0875,-1.215 -2.0375,-1.215 -0.95,0 -1.625,0.405 -2.0375,1.215 -0.4,0.81 -0.6,2.2025 -0.6,4.18 0,1.99875 0.2,3.40875 0.6,4.23 0.4125,0.81875 1.0875,1.22875 2.0375,1.22875 0.95,0 1.625,-0.41 2.025,-1.22875 0.4125,-0.82125 0.6125,-2.23125 0.6125,-4.23 m 4.1125,0.0362 c 0,2.67125 -0.5875,4.73125 -1.7625,6.18375 -1.175,1.4475 -2.8375,2.1725 -4.9875,2.1725 -2.15,0 -3.825,-0.725 -4.9875,-2.1725 -1.175,-1.4525 -1.7625,-3.5125 -1.7625,-6.18375 0,-2.67625 0.5875,-4.73875 1.7625,-6.1875 1.1625,-1.45125 2.8375,-2.17625 4.9875,-2.17625 2.15,0 3.8125,0.725 4.9875,2.17625 1.175,1.44875 1.7625,3.51125 1.7625,6.1875"
       style="fill:#000000;fill-opacity:1;fill-rule:nonzero;stroke:none"
       id="path16773" /></g><path
     id="path16775"
     style="fill:none;fill-opacity:1;fill-rule:nonzero;stroke:none"
     d="m 108.8063,920.62013 460.6225,0 0,-106.29738 -460.6225,0 0,106.29738 z"
     inkscape:connector-curvature="0" /><path
     id="path16777"
     style="fill:none;stroke:#000000;stroke-width:3.54325008;stroke-linecap:butt;stroke-linejoin:miter;stroke-miterlimit:10;stroke-dasharray:none;stroke-opacity:1"
     d="m 108.8063,920.62013 460.6225,0 0,-106.29738 -460.6225,0 0,106.29738 z"
     inkscape:connector-curvature="0" /><g
     id="g5006"
     transform="translate(0,58.468498)"><path
       inkscape:connector-curvature="0"
       d="m 296.04,809.40663 c 0.475,0.15625 0.9375,0.49125 1.3875,1.00375 0.45,0.51375 0.9,1.2175 1.3625,2.1125 l 2.1125,4.36375 -2.25,0 -2.1,-4.0925 c -0.5375,-1.07 -1.05,-1.77875 -1.5375,-2.12625 -0.5,-0.3525 -1.175,-0.5275 -2.025,-0.5275 l -2.35,0 0,6.74625 -2.35,0 0,-16.13375 5.0625,0 c 1.85,0 3.225,0.39 4.125,1.16875 0.9125,0.78 1.375,1.955 1.375,3.525 0,1.02375 -0.25,1.875 -0.725,2.55375 -0.475,0.675 -1.175,1.14375 -2.0875,1.40625 m -5.4,-6.89375 0,5.8675 2.7125,0 c 1.0375,0 1.825,-0.24875 2.35,-0.7475 0.5375,-0.4975 0.8,-1.23 0.8,-2.195 0,-0.96875 -0.2625,-1.6975 -0.8,-2.18625 -0.525,-0.4925 -1.3125,-0.73875 -2.35,-0.73875 l -2.7125,0"
       style="fill:#000000;fill-opacity:1;fill-rule:nonzero;stroke:none"
       id="path16779" /><path
       inkscape:connector-curvature="0"
       d="m 313.6275,810.10288 0,0.9175 -9.3875,0 c 0.088,1.4325 0.5125,2.525 1.2625,3.27625 0.7375,0.74875 1.7875,1.12375 3.125,1.12375 0.775,0 1.525,-0.0987 2.25,-0.29375 0.725,-0.19625 1.45,-0.48875 2.1625,-0.88 l 0,1.76 c -0.725,0.38125 -1.4625,0.67375 -2.2125,0.875 -0.7625,0.19875 -1.525,0.29875 -2.3,0.29875 -1.95,0 -3.5,-0.57 -4.6375,-1.71 -1.1375,-1.1425 -1.7,-2.6875 -1.7,-4.63375 0,-2.01375 0.5375,-3.61 1.6375,-4.79 1.0875,-1.1825 2.5625,-1.77375 4.4125,-1.77375 1.6625,0 2.975,0.5225 3.9375,1.56875 0.9625,1.045 1.45,2.465 1.45,4.26125 m -2.05,-0.54875 c -0.025,-1.07 -0.3375,-1.925 -0.9375,-2.5625 -0.6125,-0.63875 -1.4125,-0.95875 -2.425,-0.95875 -1.1375,0 -2.0375,0.30875 -2.725,0.92625 -0.6875,0.6175 -1.075,1.48625 -1.175,2.6075 l 7.2625,-0.0125"
       style="fill:#000000;fill-opacity:1;fill-rule:nonzero;stroke:none"
       id="path16781" /><path
       inkscape:connector-curvature="0"
       d="m 324.6775,805.15413 0,1.75875 c -0.55,-0.2925 -1.125,-0.5125 -1.7125,-0.66 -0.6,-0.14625 -1.2125,-0.22 -1.85,-0.22 -0.9625,0 -1.6875,0.1525 -2.1625,0.45375 -0.4875,0.30375 -0.725,0.75625 -0.725,1.36125 0,0.4625 0.1625,0.82375 0.5,1.0875 0.3375,0.2625 1.025,0.5125 2.05,0.75125 l 0.65,0.15125 c 1.3875,0.305 2.375,0.7375 2.95,1.29625 0.5875,0.56 0.8875,1.34 0.8875,2.3425 0,1.14 -0.4375,2.0425 -1.3125,2.70875 -0.875,0.6625 -2.075,0.995 -3.6125,0.995 -0.6375,0 -1.3,-0.0738 -1.9875,-0.22 -0.6875,-0.1475 -1.4125,-0.3675 -2.1875,-0.66 l 0,-2.05375 c 0.725,0.39125 1.425,0.68375 2.125,0.88 0.7,0.195 1.3875,0.29375 2.075,0.29375 0.9125,0 1.6125,-0.16125 2.1125,-0.48125 0.4875,-0.32375 0.7375,-0.77875 0.7375,-1.36125 0,-0.545 -0.175,-0.96 -0.525,-1.2475 -0.35,-0.29 -1.1125,-0.56875 -2.3,-0.83875 l -0.6625,-0.16 c -1.2625,-0.2625 -2.1625,-0.66625 -2.725,-1.21 -0.55,-0.54375 -0.8375,-1.28875 -0.8375,-2.23625 0,-1.1525 0.4125,-2.04125 1.2125,-2.6675 0.8125,-0.63 1.95,-0.945 3.4375,-0.945 0.7375,0 1.425,0.0738 2.075,0.22 0.6375,0.1475 1.2375,0.3675 1.7875,0.66125"
       style="fill:#000000;fill-opacity:1;fill-rule:nonzero;stroke:none"
       id="path16783" /><path
       inkscape:connector-curvature="0"
       d="m 339.3775,810.10288 0,0.9175 -9.3875,0 c 0.088,1.4325 0.5125,2.525 1.2625,3.27625 0.75,0.74875 1.7875,1.12375 3.125,1.12375 0.775,0 1.525,-0.0987 2.25,-0.29375 0.725,-0.19625 1.45,-0.48875 2.1625,-0.88 l 0,1.76 c -0.7125,0.38125 -1.4625,0.67375 -2.2125,0.875 -0.7625,0.19875 -1.525,0.29875 -2.3,0.29875 -1.95,0 -3.4875,-0.57 -4.6375,-1.71 -1.125,-1.1425 -1.7,-2.6875 -1.7,-4.63375 0,-2.01375 0.55,-3.61 1.6375,-4.79 1.0875,-1.1825 2.5625,-1.77375 4.4125,-1.77375 1.6625,0 2.975,0.5225 3.9375,1.56875 0.975,1.045 1.45,2.465 1.45,4.26125 m -2.05,-0.54875 c -0.013,-1.07 -0.325,-1.925 -0.9375,-2.5625 -0.6125,-0.63875 -1.4125,-0.95875 -2.4125,-0.95875 -1.1375,0 -2.05,0.30875 -2.7375,0.92625 -0.6875,0.6175 -1.075,1.48625 -1.175,2.6075 l 7.2625,-0.0125"
       style="fill:#000000;fill-opacity:1;fill-rule:nonzero;stroke:none"
       id="path16785" /><path
       inkscape:connector-curvature="0"
       d="m 349.84,806.32663 c -0.2125,-0.10125 -0.45,-0.17375 -0.7125,-0.22 -0.2625,-0.0488 -0.5375,-0.0738 -0.85,-0.0738 -1.1,0 -1.95,0.36875 -2.5375,1.105 -0.5875,0.73375 -0.8875,1.7875 -0.8875,3.1625 l 0,6.58625 -2.05,0 0,-12.32 2.05,0 0,1.76 c 0.4125,-0.69375 0.95,-1.20875 1.6,-1.545 0.6625,-0.33875 1.4625,-0.50875 2.4,-0.50875 0.125,0 0.275,0 0.4375,0 0.1625,0 0.35,0 0.5375,0 l 0.013,2.05375"
       style="fill:#000000;fill-opacity:1;fill-rule:nonzero;stroke:none"
       id="path16787" /><path
       inkscape:connector-curvature="0"
       d="m 350.6275,804.56663 2.1,0 3.7625,10.34 3.775,-10.34 2.1,0 -4.525,12.32 -2.6875,0 -4.525,-12.32"
       style="fill:#000000;fill-opacity:1;fill-rule:nonzero;stroke:none"
       id="path16789" /><path
       inkscape:connector-curvature="0"
       d="m 376.1025,810.10288 0,0.9175 -9.3875,0 c 0.087,1.4325 0.5125,2.525 1.2625,3.27625 0.75,0.74875 1.7875,1.12375 3.125,1.12375 0.775,0 1.525,-0.0987 2.25,-0.29375 0.7375,-0.19625 1.45,-0.48875 2.1625,-0.88 l 0,1.76 c -0.7125,0.38125 -1.45,0.67375 -2.2125,0.875 -0.75,0.19875 -1.525,0.29875 -2.3,0.29875 -1.95,0 -3.4875,-0.57 -4.625,-1.71 -1.1375,-1.1425 -1.7125,-2.6875 -1.7125,-4.63375 0,-2.01375 0.55,-3.61 1.6375,-4.79 1.0875,-1.1825 2.5625,-1.77375 4.4125,-1.77375 1.6625,0 2.975,0.5225 3.9375,1.56875 0.975,1.045 1.45,2.465 1.45,4.26125 m -2.05,-0.54875 c -0.013,-1.07 -0.325,-1.925 -0.9375,-2.5625 -0.6125,-0.63875 -1.4125,-0.95875 -2.4125,-0.95875 -1.1375,0 -2.05,0.30875 -2.7375,0.92625 -0.675,0.6175 -1.075,1.48625 -1.175,2.6075 l 7.2625,-0.0125"
       style="fill:#000000;fill-opacity:1;fill-rule:nonzero;stroke:none"
       id="path16791" /><path
       inkscape:connector-curvature="0"
       d="m 387.4525,806.32663 0,-6.45375 2.05,0 0,17.01375 -2.05,0 0,-1.76 c -0.4125,0.69375 -0.95,1.21 -1.575,1.54875 -0.6375,0.33625 -1.4,0.505 -2.3,0.505 -1.45,0 -2.6375,-0.59375 -3.5625,-1.77875 -0.9125,-1.185 -1.3625,-2.74375 -1.3625,-4.675 0,-1.93125 0.45,-3.49 1.3625,-4.675 0.925,-1.185 2.1125,-1.77875 3.5625,-1.77875 0.9,0 1.6625,0.17 2.3,0.50875 0.625,0.33625 1.1625,0.85125 1.575,1.545 m -6.75,4.4 c 0,1.46375 0.3,2.6125 0.9,3.44625 0.6,0.83125 1.425,1.2475 2.475,1.2475 1.0375,0 1.8625,-0.41625 2.475,-1.2475 0.6,-0.83375 0.9,-1.9825 0.9,-3.44625 0,-1.46375 -0.3,-2.61125 -0.9,-3.4425 -0.6125,-0.83375 -1.4375,-1.25125 -2.475,-1.25125 -1.05,0 -1.875,0.4175 -2.475,1.25125 -0.6,0.83125 -0.9,1.97875 -0.9,3.4425"
       style="fill:#000000;fill-opacity:1;fill-rule:nonzero;stroke:none"
       id="path16793" /></g><path
     id="path16795"
     style="fill:none;stroke:#000000;stroke-width:10.62975025;stroke-linecap:butt;stroke-linejoin:miter;stroke-miterlimit:10;stroke-dasharray:none;stroke-opacity:1"
     d="m 91.09,938.33638 0,106.29752"
     inkscape:connector-curvature="0" /><path
     id="path16797"
     style="fill:#000000;fill-opacity:1;fill-rule:nonzero;stroke:none"
     d="m 16.7412,991.44875 c -0.6837,0 -1.1975,0.22026 -1.5399,0.66013 -0.3388,0.44 -0.5088,1.10012 -0.5088,1.98 0,0.87988 0.17,1.54012 0.5088,1.98 0.3424,0.44 0.8562,0.66012 1.5399,0.66012 0.6913,0 1.2051,-0.22012 1.545,-0.66012 0.3425,-0.43988 0.5138,-1.10012 0.5138,-1.98 0,-0.87988 -0.1713,-1.54 -0.5138,-1.98 -0.34,-0.43987 -0.8537,-0.66013 -1.545,-0.66013 m 4.9913,-7.6265 0,2.93363 c -0.6688,-0.29975 -1.2988,-0.521 -1.8887,-0.6645 -0.5888,-0.14413 -1.165,-0.21587 -1.7275,-0.21587 -1.21,0 -2.1525,0.31937 -2.8275,0.95799 -0.675,0.63875 -1.07,1.58601 -1.1825,2.84188 0.47,-0.38825 0.9812,-0.67825 1.53,-0.87113 0.5512,-0.19237 1.1512,-0.28862 1.8012,-0.28862 1.6388,0 2.9588,0.49225 3.96,1.47612 1.0063,0.9805 1.5088,2.26563 1.5088,3.8545 0,1.75976 -0.5688,3.16988 -1.705,4.23 -1.1363,1.05763 -2.6613,1.58588 -4.5738,1.58588 -2.1087,0 -3.7413,-0.707 -4.895,-2.122 C 10.5763,996.12263 10,994.11338 10,991.51326 c 0,-2.66751 0.6688,-4.76225 2.0075,-6.28376 1.3375,-1.52487 3.1725,-2.28712 5.5038,-2.28712 0.74,0 1.4575,0.0733 2.1537,0.22025 0.6975,0.1465 1.3863,0.36625 2.0675,0.65962"
     inkscape:connector-curvature="0" /><path
     id="path16799"
     style="fill:#000000;fill-opacity:1;fill-rule:nonzero;stroke:none"
     d="m 32.4988,986.6915 -4.4875,6.811 4.4875,0 0,-6.811 m -0.545,-3.45562 4.6512,0 0,10.26662 2.3475,0 0,2.93313 -2.3475,0 0,2.93313 -4.1063,0 0,-2.93313 -7.04,0 0,-3.566 6.495,-9.63375"
     inkscape:connector-curvature="0" /><path
     id="path16801"
     style="fill:#000000;fill-opacity:1;fill-rule:nonzero;stroke:none"
     d="m 50.5988,991.27013 c 0,-1.97662 -0.2025,-3.37012 -0.605,-4.17975 -0.4038,-0.80963 -1.08,-1.21487 -2.0313,-1.21487 -0.95,0 -1.6287,0.40524 -2.035,1.21487 -0.4062,0.80963 -0.61,2.20313 -0.61,4.17975 0,1.9985 0.2038,3.40862 0.61,4.23038 0.4063,0.81887 1.085,1.22849 2.035,1.22849 0.9438,0 1.62,-0.40962 2.0263,-1.22849 0.4062,-0.82176 0.6099,-2.23188 0.6099,-4.23038 m 4.1063,0.037 c 0,2.6705 -0.5863,4.7315 -1.76,6.18262 -1.17,1.44826 -2.8312,2.17238 -4.9825,2.17238 -2.1563,0 -3.8225,-0.72412 -4.9963,-2.17238 -1.17,-1.45112 -1.755,-3.51212 -1.755,-6.18262 0,-2.67675 0.585,-4.73925 1.755,-6.1875 1.1738,-1.45163 2.84,-2.17725 4.9963,-2.17725 2.1512,0 3.8125,0.72562 4.9825,2.17725 1.1737,1.44825 1.76,3.51075 1.76,6.1875"
     inkscape:connector-curvature="0" /><path
     id="path16803"
     style="fill:#000000;fill-opacity:1;fill-rule:nonzero;stroke:none"
     d="m 57.8438,983.23588 4.1075,0 0,5.88913 6.0125,-5.88913 4.84,0 -7.7863,7.64013 8.6662,8.49275 -5.2574,0 -6.475,-6.35213 0,6.35213 -4.1075,0 0,-16.13288"
     inkscape:connector-curvature="0" /><path
     id="path16805"
     style="fill:none;stroke:#000000;stroke-width:10.62975025;stroke-linecap:butt;stroke-linejoin:miter;stroke-miterlimit:10;stroke-dasharray:none;stroke-opacity:1"
     d="m 91.09,761.17388 0,35.4325"
     inkscape:connector-curvature="0" /><path
     id="path16807"
     style="fill:#000000;fill-opacity:1;fill-rule:nonzero;stroke:none"
     d="m 34.8188,777.84138 c 1.07,0.2875 1.8812,0.78625 2.4337,1.49875 0.5563,0.71125 0.835,1.6175 0.835,2.7175 0,1.635 -0.6212,2.87875 -1.8612,3.73125 -1.2413,0.8525 -3.0513,1.2775 -5.4313,1.2775 -0.84,0 -1.6825,-0.0725 -2.525,-0.21875 -0.8437,-0.1475 -1.6787,-0.3675 -2.5025,-0.66 l 0,-3.2275 c 0.8,0.38875 1.5925,0.6825 2.3775,0.88 0.7888,0.19625 1.565,0.29375 2.3288,0.29375 1.1312,0 1.9975,-0.1875 2.5987,-0.56375 0.605,-0.37875 0.9075,-0.92125 0.9075,-1.6275 0,-0.72375 -0.3012,-1.2725 -0.9025,-1.645 -0.6012,-0.37625 -1.4912,-0.56375 -2.6675,-0.56375 l -1.71,0 0,-2.9325 1.8013,0 c 1.0725,0 1.8712,-0.1475 2.3975,-0.44125 0.5262,-0.2925 0.7887,-0.73875 0.7887,-1.3375 0,-0.55625 -0.2625,-0.98625 -0.7887,-1.28875 -0.5263,-0.3025 -1.27,-0.4525 -2.2325,-0.4525 -0.7088,0 -1.425,0.0738 -2.1488,0.22375 -0.725,0.14625 -1.4462,0.365 -2.1637,0.655 l 0,-2.9325 c 0.8462,-0.29375 1.685,-0.51375 2.5162,-0.66 0.8338,-0.1475 1.6525,-0.22 2.4563,-0.22 2.1637,0 3.7812,0.33375 4.8537,1.00375 1.0763,0.66625 1.6138,1.67 1.6138,3.01125 0,0.91375 -0.2513,1.66125 -0.7513,2.245 -0.5012,0.58375 -1.2425,0.995 -2.2237,1.23375"
     inkscape:connector-curvature="0" /><path
     id="path16809"
     style="fill:#000000;fill-opacity:1;fill-rule:nonzero;stroke:none"
     d="m 46.5388,783.54763 7.0075,0 0,3.22625 -11.7338,0 0,-3.22625 6.0325,-5.15625 c 0.5438,-0.45625 0.945,-0.9 1.205,-1.33375 0.26,-0.4375 0.39,-0.89125 0.39,-1.36125 0,-0.7275 -0.2637,-1.31125 -0.7887,-1.75125 -0.5225,-0.44375 -1.2188,-0.66375 -2.09,-0.66375 -0.6688,0 -1.4013,0.1225 -2.195,0.37 -0.795,0.245 -1.6463,0.61 -2.5538,1.09625 l 0,-3.52 c 0.9513,-0.2875 1.8888,-0.50625 2.815,-0.65625 0.9288,-0.14875 1.8375,-0.22375 2.7263,-0.22375 1.9587,0 3.4812,0.42 4.565,1.26 1.085,0.8375 1.6275,2.005 1.6275,3.50125 0,0.86875 -0.2225,1.67625 -0.6688,2.425 -0.4462,0.74875 -1.3837,1.7525 -2.81,3.01125 l -3.5287,3.0025"
     inkscape:connector-curvature="0" /><path
     id="path16811"
     style="fill:#000000;fill-opacity:1;fill-rule:nonzero;stroke:none"
     d="m 57.8588,770.64013 4.1062,0 0,5.89 6.0138,-5.89 4.84,0 -7.7875,7.64125 8.6675,8.4925 -5.2563,0 -6.4775,-6.3525 0,6.3525 -4.1062,0 0,-16.13375"
     inkscape:connector-curvature="0" /><path
     id="path16813"
     style="fill:none;stroke:#000000;stroke-width:10.62975025;stroke-linecap:butt;stroke-linejoin:miter;stroke-miterlimit:10;stroke-dasharray:none;stroke-opacity:1"
     d="m 91.09,87.956373 0,35.432497"
     inkscape:connector-curvature="0" /><path
     id="path16815"
     style="fill:#000000;fill-opacity:1;fill-rule:nonzero;stroke:none"
     d="m 34.8188,104.62387 c 1.07,0.28625 1.8812,0.78625 2.4337,1.49875 0.5563,0.71125 0.835,1.6175 0.835,2.7175 0,1.635 -0.6212,2.87875 -1.8612,3.73125 -1.2413,0.8525 -3.0513,1.27875 -5.4313,1.27875 -0.84,0 -1.6825,-0.0738 -2.525,-0.22125 -0.8437,-0.14625 -1.6787,-0.36625 -2.5025,-0.65875 l 0,-3.2275 c 0.8,0.38875 1.5925,0.68125 2.3775,0.88 0.7888,0.19625 1.565,0.29375 2.3288,0.29375 1.1312,0 1.9975,-0.1875 2.5987,-0.56375 0.605,-0.37875 0.9075,-0.92125 0.9075,-1.6275 0,-0.72375 -0.3012,-1.2725 -0.9025,-1.645 -0.6012,-0.37625 -1.4912,-0.56375 -2.6675,-0.56375 l -1.71,0 0,-2.93375 1.8013,0 c 1.0725,0 1.8712,-0.14625 2.3975,-0.44 0.5262,-0.2925 0.7887,-0.73875 0.7887,-1.3375 0,-0.55625 -0.2625,-0.98625 -0.7887,-1.28875 -0.5263,-0.3025 -1.27,-0.45375 -2.2325,-0.45375 -0.7088,0 -1.425,0.075 -2.1488,0.225 -0.725,0.14625 -1.4462,0.365 -2.1637,0.655 l 0,-2.932497 c 0.8462,-0.29375 1.685,-0.51375 2.5162,-0.66 0.8338,-0.1475 1.6525,-0.22 2.4563,-0.22 2.1637,0 3.7812,0.33375 4.8537,1.00375 1.0763,0.66625 1.6138,1.67 1.6138,3.011247 0,0.9125 -0.2513,1.6625 -0.7513,2.245 -0.5012,0.58375 -1.2425,0.995 -2.2237,1.23375"
     inkscape:connector-curvature="0" /><path
     id="path16817"
     style="fill:#000000;fill-opacity:1;fill-rule:nonzero;stroke:none"
     d="m 46.5388,110.33012 7.0075,0 0,3.22625 -11.7338,0 0,-3.22625 6.0325,-5.15625 c 0.5438,-0.455 0.945,-0.9 1.205,-1.33375 0.26,-0.4375 0.39,-0.89125 0.39,-1.36125 0,-0.7275 -0.2637,-1.31125 -0.7887,-1.75125 -0.5225,-0.4425 -1.2188,-0.665 -2.09,-0.665 -0.6688,0 -1.4013,0.125 -2.195,0.37125 -0.795,0.245 -1.6463,0.61 -2.5538,1.09625 l 0,-3.519997 c 0.9513,-0.2875 1.8888,-0.50625 2.815,-0.655 0.9288,-0.15 1.8375,-0.225 2.7263,-0.225 1.9587,0 3.4812,0.42 4.565,1.26 1.085,0.8375 1.6275,2.004997 1.6275,3.501247 0,0.86875 -0.2225,1.67625 -0.6688,2.425 -0.4462,0.74875 -1.3837,1.7525 -2.81,3.01125 l -3.5287,3.0025"
     inkscape:connector-curvature="0" /><path
     id="path16819"
     style="fill:#000000;fill-opacity:1;fill-rule:nonzero;stroke:none"
     d="m 57.8588,97.422623 4.1062,0 0,5.889997 6.0138,-5.889997 4.84,0 -7.7875,7.641247 8.6675,8.4925 -5.2563,0 -6.4775,-6.3525 0,6.3525 -4.1062,0 0,-16.133747"
     inkscape:connector-curvature="0" /><path
     id="path16821"
     style="fill:none;stroke:#000000;stroke-width:10.62975025;stroke-linecap:butt;stroke-linejoin:miter;stroke-miterlimit:10;stroke-dasharray:none;stroke-opacity:1"
     d="m 91.09,442.28138 0,283.46"
     inkscape:connector-curvature="0" /><path
     id="path16823"
     style="fill:#000000;fill-opacity:1;fill-rule:nonzero;stroke:none"
     d="m 37.6588,588.96138 3.8125,0 0,-10.26625 -3.8125,0.88 0,-2.9325 3.8125,-0.88125 4.1075,0 0,13.2 3.8125,0 0,2.93375 -11.7325,0 0,-2.93375"
     inkscape:connector-curvature="0" /><path
     id="path16825"
     style="fill:#000000;fill-opacity:1;fill-rule:nonzero;stroke:none"
     d="m 52.825,575.76138 5.2288,0 3.855,8.5525 3.8725,-8.5525 5.23,0 0,16.13375 -3.8138,0 0,-11.84375 -3.895,8.6175 -2.7687,0 -3.8963,-8.6175 0,11.84375 -3.8125,0 0,-16.13375"
     inkscape:connector-curvature="0" /><path
     id="path16827"
     style="fill:none;fill-opacity:1;fill-rule:nonzero;stroke:none"
     d="m 108.8063,424.56513 460.6225,0 0,-283.46001 -460.6225,0 0,283.46001 z"
     inkscape:connector-curvature="0" /><path
     id="path16829"
     style="fill:none;stroke:#000000;stroke-width:3.54325008;stroke-linecap:butt;stroke-linejoin:miter;stroke-miterlimit:10;stroke-dasharray:none;stroke-opacity:1"
     d="m 108.8063,424.56513 460.6225,0 0,-283.46001 -460.6225,0 0,283.46001 z"
     inkscape:connector-curvature="0" /><path
     style="fill:none;fill-rule:evenodd;stroke:#000000;stroke-width:3;stroke-linecap:butt;stroke-linejoin:miter;stroke-miterlimit:4;stroke-dasharray:18, 3;stroke-dashoffset:0;stroke-opacity:1"
     d="m 575.6186,920.87327 158.1637,-0.0767"
     id="path4919"
     inkscape:connector-curvature="0"
     sodipodi:nodetypes="cc" /><path
     sodipodi:nodetypes="cc"
     inkscape:connector-curvature="0"
     id="path4921"
     d="m 575.6186,814.69447 158.1637,-0.0767"
     style="fill:none;fill-rule:evenodd;stroke:#000000;stroke-width:3;stroke-linecap:butt;stroke-linejoin:miter;stroke-miterlimit:4;stroke-dasharray:18, 3;stroke-dashoffset:0;stroke-opacity:1" /><path
     style="fill:none;fill-rule:evenodd;stroke:#000000;stroke-width:3;stroke-linecap:butt;stroke-linejoin:miter;stroke-miterlimit:4;stroke-dasharray:18, 3;stroke-dashoffset:0;stroke-opacity:1"
     d="m 575.6186,424.69447 158.1637,-0.0767"
     id="path4963"
     inkscape:connector-curvature="0"
     sodipodi:nodetypes="cc" /><path
     sodipodi:nodetypes="cc"
     inkscape:connector-curvature="0"
     id="path4965"
     d="m 575.6186,140.69447 158.1637,-0.0767"
     style="fill:none;fill-rule:evenodd;stroke:#000000;stroke-width:3;stroke-linecap:butt;stroke-linejoin:miter;stroke-miterlimit:4;stroke-dasharray:18, 3;stroke-dashoffset:0;stroke-opacity:1" /><path
     style="fill:none;fill-rule:evenodd;stroke:#000000;stroke-width:3;stroke-linecap:butt;stroke-linejoin:miter;stroke-miterlimit:4;stroke-dasharray:18, 3;stroke-dashoffset:0;stroke-opacity:1"
     d="m 575.6186,70.045668 158.1637,-0.0767"
     id="path4994"
     inkscape:connector-curvature="0"
     sodipodi:nodetypes="cc" /><g
     id="g5016"
     transform="translate(0,-535.5315)"><path
       id="path5018"
       style="fill:#000000;fill-opacity:1;fill-rule:nonzero;stroke:none"
       d="m 296.04,809.40663 c 0.475,0.15625 0.9375,0.49125 1.3875,1.00375 0.45,0.51375 0.9,1.2175 1.3625,2.1125 l 2.1125,4.36375 -2.25,0 -2.1,-4.0925 c -0.5375,-1.07 -1.05,-1.77875 -1.5375,-2.12625 -0.5,-0.3525 -1.175,-0.5275 -2.025,-0.5275 l -2.35,0 0,6.74625 -2.35,0 0,-16.13375 5.0625,0 c 1.85,0 3.225,0.39 4.125,1.16875 0.9125,0.78 1.375,1.955 1.375,3.525 0,1.02375 -0.25,1.875 -0.725,2.55375 -0.475,0.675 -1.175,1.14375 -2.0875,1.40625 m -5.4,-6.89375 0,5.8675 2.7125,0 c 1.0375,0 1.825,-0.24875 2.35,-0.7475 0.5375,-0.4975 0.8,-1.23 0.8,-2.195 0,-0.96875 -0.2625,-1.6975 -0.8,-2.18625 -0.525,-0.4925 -1.3125,-0.73875 -2.35,-0.73875 l -2.7125,0"
       inkscape:connector-curvature="0" /><path
       id="path5020"
       style="fill:#000000;fill-opacity:1;fill-rule:nonzero;stroke:none"
       d="m 313.6275,810.10288 0,0.9175 -9.3875,0 c 0.088,1.4325 0.5125,2.525 1.2625,3.27625 0.7375,0.74875 1.7875,1.12375 3.125,1.12375 0.775,0 1.525,-0.0987 2.25,-0.29375 0.725,-0.19625 1.45,-0.48875 2.1625,-0.88 l 0,1.76 c -0.725,0.38125 -1.4625,0.67375 -2.2125,0.875 -0.7625,0.19875 -1.525,0.29875 -2.3,0.29875 -1.95,0 -3.5,-0.57 -4.6375,-1.71 -1.1375,-1.1425 -1.7,-2.6875 -1.7,-4.63375 0,-2.01375 0.5375,-3.61 1.6375,-4.79 1.0875,-1.1825 2.5625,-1.77375 4.4125,-1.77375 1.6625,0 2.975,0.5225 3.9375,1.56875 0.9625,1.045 1.45,2.465 1.45,4.26125 m -2.05,-0.54875 c -0.025,-1.07 -0.3375,-1.925 -0.9375,-2.5625 -0.6125,-0.63875 -1.4125,-0.95875 -2.425,-0.95875 -1.1375,0 -2.0375,0.30875 -2.725,0.92625 -0.6875,0.6175 -1.075,1.48625 -1.175,2.6075 l 7.2625,-0.0125"
       inkscape:connector-curvature="0" /><path
       id="path5022"
       style="fill:#000000;fill-opacity:1;fill-rule:nonzero;stroke:none"
       d="m 324.6775,805.15413 0,1.75875 c -0.55,-0.2925 -1.125,-0.5125 -1.7125,-0.66 -0.6,-0.14625 -1.2125,-0.22 -1.85,-0.22 -0.9625,0 -1.6875,0.1525 -2.1625,0.45375 -0.4875,0.30375 -0.725,0.75625 -0.725,1.36125 0,0.4625 0.1625,0.82375 0.5,1.0875 0.3375,0.2625 1.025,0.5125 2.05,0.75125 l 0.65,0.15125 c 1.3875,0.305 2.375,0.7375 2.95,1.29625 0.5875,0.56 0.8875,1.34 0.8875,2.3425 0,1.14 -0.4375,2.0425 -1.3125,2.70875 -0.875,0.6625 -2.075,0.995 -3.6125,0.995 -0.6375,0 -1.3,-0.0738 -1.9875,-0.22 -0.6875,-0.1475 -1.4125,-0.3675 -2.1875,-0.66 l 0,-2.05375 c 0.725,0.39125 1.425,0.68375 2.125,0.88 0.7,0.195 1.3875,0.29375 2.075,0.29375 0.9125,0 1.6125,-0.16125 2.1125,-0.48125 0.4875,-0.32375 0.7375,-0.77875 0.7375,-1.36125 0,-0.545 -0.175,-0.96 -0.525,-1.2475 -0.35,-0.29 -1.1125,-0.56875 -2.3,-0.83875 l -0.6625,-0.16 c -1.2625,-0.2625 -2.1625,-0.66625 -2.725,-1.21 -0.55,-0.54375 -0.8375,-1.28875 -0.8375,-2.23625 0,-1.1525 0.4125,-2.04125 1.2125,-2.6675 0.8125,-0.63 1.95,-0.945 3.4375,-0.945 0.7375,0 1.425,0.0738 2.075,0.22 0.6375,0.1475 1.2375,0.3675 1.7875,0.66125"
       inkscape:connector-curvature="0" /><path
       id="path5024"
       style="fill:#000000;fill-opacity:1;fill-rule:nonzero;stroke:none"
       d="m 339.3775,810.10288 0,0.9175 -9.3875,0 c 0.088,1.4325 0.5125,2.525 1.2625,3.27625 0.75,0.74875 1.7875,1.12375 3.125,1.12375 0.775,0 1.525,-0.0987 2.25,-0.29375 0.725,-0.19625 1.45,-0.48875 2.1625,-0.88 l 0,1.76 c -0.7125,0.38125 -1.4625,0.67375 -2.2125,0.875 -0.7625,0.19875 -1.525,0.29875 -2.3,0.29875 -1.95,0 -3.4875,-0.57 -4.6375,-1.71 -1.125,-1.1425 -1.7,-2.6875 -1.7,-4.63375 0,-2.01375 0.55,-3.61 1.6375,-4.79 1.0875,-1.1825 2.5625,-1.77375 4.4125,-1.77375 1.6625,0 2.975,0.5225 3.9375,1.56875 0.975,1.045 1.45,2.465 1.45,4.26125 m -2.05,-0.54875 c -0.013,-1.07 -0.325,-1.925 -0.9375,-2.5625 -0.6125,-0.63875 -1.4125,-0.95875 -2.4125,-0.95875 -1.1375,0 -2.05,0.30875 -2.7375,0.92625 -0.6875,0.6175 -1.075,1.48625 -1.175,2.6075 l 7.2625,-0.0125"
       inkscape:connector-curvature="0" /><path
       id="path5026"
       style="fill:#000000;fill-opacity:1;fill-rule:nonzero;stroke:none"
       d="m 349.84,806.32663 c -0.2125,-0.10125 -0.45,-0.17375 -0.7125,-0.22 -0.2625,-0.0488 -0.5375,-0.0738 -0.85,-0.0738 -1.1,0 -1.95,0.36875 -2.5375,1.105 -0.5875,0.73375 -0.8875,1.7875 -0.8875,3.1625 l 0,6.58625 -2.05,0 0,-12.32 2.05,0 0,1.76 c 0.4125,-0.69375 0.95,-1.20875 1.6,-1.545 0.6625,-0.33875 1.4625,-0.50875 2.4,-0.50875 0.125,0 0.275,0 0.4375,0 0.1625,0 0.35,0 0.5375,0 l 0.013,2.05375"
       inkscape:connector-curvature="0" /><path
       id="path5028"
       style="fill:#000000;fill-opacity:1;fill-rule:nonzero;stroke:none"
       d="m 350.6275,804.56663 2.1,0 3.7625,10.34 3.775,-10.34 2.1,0 -4.525,12.32 -2.6875,0 -4.525,-12.32"
       inkscape:connector-curvature="0" /><path
       id="path5030"
       style="fill:#000000;fill-opacity:1;fill-rule:nonzero;stroke:none"
       d="m 376.1025,810.10288 0,0.9175 -9.3875,0 c 0.087,1.4325 0.5125,2.525 1.2625,3.27625 0.75,0.74875 1.7875,1.12375 3.125,1.12375 0.775,0 1.525,-0.0987 2.25,-0.29375 0.7375,-0.19625 1.45,-0.48875 2.1625,-0.88 l 0,1.76 c -0.7125,0.38125 -1.45,0.67375 -2.2125,0.875 -0.75,0.19875 -1.525,0.29875 -2.3,0.29875 -1.95,0 -3.4875,-0.57 -4.625,-1.71 -1.1375,-1.1425 -1.7125,-2.6875 -1.7125,-4.63375 0,-2.01375 0.55,-3.61 1.6375,-4.79 1.0875,-1.1825 2.5625,-1.77375 4.4125,-1.77375 1.6625,0 2.975,0.5225 3.9375,1.56875 0.975,1.045 1.45,2.465 1.45,4.26125 m -2.05,-0.54875 c -0.013,-1.07 -0.325,-1.925 -0.9375,-2.5625 -0.6125,-0.63875 -1.4125,-0.95875 -2.4125,-0.95875 -1.1375,0 -2.05,0.30875 -2.7375,0.92625 -0.675,0.6175 -1.075,1.48625 -1.175,2.6075 l 7.2625,-0.0125"
       inkscape:connector-curvature="0" /><path
       id="path5032"
       style="fill:#000000;fill-opacity:1;fill-rule:nonzero;stroke:none"
       d="m 387.4525,806.32663 0,-6.45375 2.05,0 0,17.01375 -2.05,0 0,-1.76 c -0.4125,0.69375 -0.95,1.21 -1.575,1.54875 -0.6375,0.33625 -1.4,0.505 -2.3,0.505 -1.45,0 -2.6375,-0.59375 -3.5625,-1.77875 -0.9125,-1.185 -1.3625,-2.74375 -1.3625,-4.675 0,-1.93125 0.45,-3.49 1.3625,-4.675 0.925,-1.185 2.1125,-1.77875 3.5625,-1.77875 0.9,0 1.6625,0.17 2.3,0.50875 0.625,0.33625 1.1625,0.85125 1.575,1.545 m -6.75,4.4 c 0,1.46375 0.3,2.6125 0.9,3.44625 0.6,0.83125 1.425,1.2475 2.475,1.2475 1.0375,0 1.8625,-0.41625 2.475,-1.2475 0.6,-0.83375 0.9,-1.9825 0.9,-3.44625 0,-1.46375 -0.3,-2.61125 -0.9,-3.4425 -0.6125,-0.83375 -1.4375,-1.25125 -2.475,-1.25125 -1.05,0 -1.875,0.4175 -2.475,1.25125 -0.6,0.83125 -0.9,1.97875 -0.9,3.4425"
       inkscape:connector-curvature="0" /></g><path
     sodipodi:nodetypes="cc"
     inkscape:connector-curvature="0"
     id="path5034"
     d="m 575.6186,1062.8401 158.1637,-0.077"
     style="fill:none;fill-rule:evenodd;stroke:#000000;stroke-width:3;stroke-linecap:butt;stroke-linejoin:miter;stroke-miterlimit:4;stroke-dasharray:18, 3;stroke-dashoffset:0;stroke-opacity:1" /><path
     style="fill:none;fill-rule:evenodd;stroke:#000000;stroke-width:3;stroke-linecap:butt;stroke-linejoin:miter;stroke-miterlimit:4;stroke-dasharray:18, 3;stroke-dashoffset:0;stroke-opacity:1"
     d="m 575.6186,743.5553 158.1637,-0.077"
     id="path5036"
     inkscape:connector-curvature="0"
     sodipodi:nodetypes="cc" /><text
     xml:space="preserve"
     style="font-style:normal;font-variant:normal;font-weight:bold;font-stretch:normal;font-size:27.5px;line-height:125%;font-family:Arial;-inkscape-font-specification:'Arial, Bold';text-align:center;letter-spacing:0px;word-spacing:0px;writing-mode:lr-tb;text-anchor:middle;fill:#000000;fill-opacity:1;stroke:none;stroke-width:1px;stroke-linecap:butt;stroke-linejoin:miter;stroke-opacity:1"
     x="371.89151"
     y="35.15625"
     id="text5048"
     sodipodi:linespacing="125%"><tspan
       sodipodi:role="line"
       id="tspan5050"
       x="371.89151"
       y="35.15625"
       style="font-size:35px">386 Memory Map</tspan></text>
</svg>