<?xml version="1.0" encoding="UTF-8" standalone="no"?>
<svg
   xmlns:dc="http://purl.org/dc/elements/1.1/"
   xmlns:cc="http://creativecommons.org/ns#"
   xmlns:rdf="http://www.w3.org/1999/02/22-rdf-syntax-ns#"
   xmlns:svg="http://www.w3.org/2000/svg"
   xmlns="http://www.w3.org/2000/svg"
   xmlns:sodipodi="http://sodipodi.sourceforge.net/DTD/sodipodi-0.dtd"
   xmlns:inkscape="http://www.inkscape.org/namespaces/inkscape"
   viewBox="0 0 258.16986 239.2603"
   height="239.2603"
   width="258.16986"
   xml:space="preserve"
   version="1.1"
   id="svg2"
   inkscape:version="0.91 r13725"
   sodipodi:docname="f03-38-TimingBeetwenRegisters-1a.svg"><sodipodi:namedview
     pagecolor="#ffffff"
     bordercolor="#666666"
     borderopacity="1"
     objecttolerance="10"
     gridtolerance="10"
     guidetolerance="10"
     inkscape:pageopacity="0"
     inkscape:pageshadow="2"
     inkscape:window-width="1855"
     inkscape:window-height="1056"
     id="namedview81"
     showgrid="false"
     fit-margin-top="5"
     fit-margin-right="5"
     fit-margin-bottom="5"
     fit-margin-left="5"
     inkscape:zoom="3.7072594"
     inkscape:cx="129.08493"
     inkscape:cy="119.63015"
     inkscape:window-x="1985"
     inkscape:window-y="24"
     inkscape:window-maximized="1"
     inkscape:current-layer="svg2"
     showguides="true"
     inkscape:guide-bbox="true" /><metadata
     id="metadata8"><rdf:RDF><cc:Work
         rdf:about=""><dc:format>image/svg+xml</dc:format><dc:type
           rdf:resource="http://purl.org/dc/dcmitype/StillImage" /><dc:title></dc:title></cc:Work></rdf:RDF></metadata><defs
     id="defs6"><marker
       inkscape:stockid="Arrow2Send"
       orient="auto"
       refY="0.0"
       refX="0.0"
       id="Arrow2Send"
       style="overflow:visible;"
       inkscape:isstock="true"><path
         id="path5494"
         style="fill-rule:evenodd;stroke-width:0.625;stroke-linejoin:round;stroke:#000000;stroke-opacity:1;fill:#000000;fill-opacity:1"
         d="M 8.7185878,4.0337352 L -2.2072895,0.016013256 L 8.7185884,-4.0017078 C 6.9730900,-1.6296469 6.9831476,1.6157441 8.7185878,4.0337352 z "
         transform="scale(0.3) rotate(180) translate(-2.3,0)" /></marker><marker
       inkscape:stockid="Arrow2Mend"
       orient="auto"
       refY="0.0"
       refX="0.0"
       id="Arrow2Mend"
       style="overflow:visible;"
       inkscape:isstock="true"><path
         id="path5488"
         style="fill-rule:evenodd;stroke-width:0.625;stroke-linejoin:round;stroke:#000000;stroke-opacity:1;fill:#000000;fill-opacity:1"
         d="M 8.7185878,4.0337352 L -2.2072895,0.016013256 L 8.7185884,-4.0017078 C 6.9730900,-1.6296469 6.9831476,1.6157441 8.7185878,4.0337352 z "
         transform="scale(0.6) rotate(180) translate(0,0)" /></marker><marker
       inkscape:stockid="Arrow1Mend"
       orient="auto"
       refY="0"
       refX="0"
       id="marker5411"
       style="overflow:visible"
       inkscape:isstock="true"><path
         inkscape:connector-curvature="0"
         id="path5413"
         d="M 0,0 5,-5 -12.5,0 5,5 0,0 Z"
         style="fill:#000000;fill-opacity:1;fill-rule:evenodd;stroke:#000000;stroke-width:1pt;stroke-opacity:1"
         transform="matrix(-0.4,0,0,-0.4,-4,0)" /></marker><marker
       inkscape:isstock="true"
       style="overflow:visible"
       id="marker4375"
       refX="0"
       refY="0"
       orient="auto"
       inkscape:stockid="Arrow1Mend"
       inkscape:collect="always"><path
         transform="matrix(-0.4,0,0,-0.4,-4,0)"
         style="fill:#000000;fill-opacity:1;fill-rule:evenodd;stroke:#000000;stroke-width:1pt;stroke-opacity:1"
         d="M 0,0 5,-5 -12.5,0 5,5 0,0 Z"
         id="path4377"
         inkscape:connector-curvature="0" /></marker><marker
       inkscape:stockid="Arrow1Mend"
       orient="auto"
       refY="0"
       refX="0"
       id="marker4583"
       style="overflow:visible"
       inkscape:isstock="true"
       inkscape:collect="always"><path
         inkscape:connector-curvature="0"
         id="path4585"
         d="M 0,0 5,-5 -12.5,0 5,5 0,0 Z"
         style="fill:#000000;fill-opacity:1;fill-rule:evenodd;stroke:#000000;stroke-width:1pt;stroke-opacity:1"
         transform="matrix(-0.4,0,0,-0.4,-4,0)" /></marker><marker
       inkscape:collect="always"
       inkscape:isstock="true"
       style="overflow:visible"
       id="Arrow1Mend"
       refX="0"
       refY="0"
       orient="auto"
       inkscape:stockid="Arrow1Mend"><path
         inkscape:connector-curvature="0"
         transform="matrix(-0.4,0,0,-0.4,-4,0)"
         style="fill:#000000;fill-opacity:1;fill-rule:evenodd;stroke:#000000;stroke-width:1pt;stroke-opacity:1"
         d="M 0,0 5,-5 -12.5,0 5,5 0,0 Z"
         id="path4246" /></marker><marker
       inkscape:isstock="true"
       style="overflow:visible"
       id="Arrow1Lend"
       refX="0"
       refY="0"
       orient="auto"
       inkscape:stockid="Arrow1Lend"><path
         inkscape:connector-curvature="0"
         transform="matrix(-0.8,0,0,-0.8,-10,0)"
         style="fill:#000000;fill-opacity:1;fill-rule:evenodd;stroke:#000000;stroke-width:1pt;stroke-opacity:1"
         d="M 0,0 5,-5 -12.5,0 5,5 0,0 Z"
         id="path4240" /></marker></defs><g
     id="g16"
     transform="matrix(1.25,0,0,-1.25,35.285759,75.735037)"><text
       y="-34.316479"
       x="54.081665"
       sodipodi:linespacing="125%"
       transform="scale(1,-1)"
       style="font-style:normal;font-variant:normal;font-weight:bold;font-stretch:normal;font-size:6px;line-height:125%;font-family:Helvetica;-inkscape-font-specification:'Helvetica, Bold';text-align:start;writing-mode:lr-tb;text-anchor:start;fill:#000000;fill-opacity:1;fill-rule:nonzero;stroke:none"
       id="text18"><tspan
         sodipodi:role="line"
         id="tspan6971"
         x="54.081665"
         y="-34.316479">Circuito Lógico </tspan></text>
</g><path
     inkscape:connector-curvature="0"
     d="m 81.386467,31.106616 -10.908625,0"
     style="fill:none;stroke:#000000;stroke-width:1;stroke-linecap:round;stroke-linejoin:round;stroke-miterlimit:10;stroke-dasharray:none;stroke-opacity:1"
     id="path24" /><path
     inkscape:connector-curvature="0"
     d="m 185.02197,31.106616 5.45375,0"
     style="fill:none;stroke:#000000;stroke-width:1;stroke-linecap:round;stroke-linejoin:round;stroke-miterlimit:10;stroke-dasharray:none;stroke-opacity:1"
     id="path26" /><path
     inkscape:connector-curvature="0"
     d="m 206.84072,31.106616 -5.45375,0"
     style="fill:none;stroke:#000000;stroke-width:1;stroke-linecap:round;stroke-linejoin:round;stroke-miterlimit:10;stroke-dasharray:none;stroke-opacity:1"
     id="path28" /><path
     inkscape:connector-curvature="0"
     d="m 190.47572,20.197491 0,21.818375 10.91125,0 0,-21.818375 -10.91125,0 0,0"
     style="fill:#ffffff;fill-opacity:1;fill-rule:evenodd;stroke:none"
     id="path30" /><path
     inkscape:connector-curvature="0"
     d="m 190.47572,42.015866 10.91125,0 0,-21.818375 -10.91125,0 0,21.818375 z"
     style="fill:none;stroke:#000000;stroke-width:1;stroke-linecap:round;stroke-linejoin:round;stroke-miterlimit:10;stroke-dasharray:none;stroke-opacity:1"
     id="path32" /><path
     inkscape:connector-curvature="0"
     d="m 190.47572,20.197491 5.45625,5.455 5.455,-5.455"
     style="fill:none;stroke:#000000;stroke-width:1;stroke-linecap:round;stroke-linejoin:round;stroke-miterlimit:10;stroke-dasharray:none;stroke-opacity:1"
     id="path34" /><path
     inkscape:connector-curvature="0"
     d="m 195.93197,14.742866 0,5.454625"
     style="fill:none;stroke:#000000;stroke-width:1;stroke-linecap:round;stroke-linejoin:round;stroke-miterlimit:10;stroke-dasharray:none;stroke-opacity:1"
     id="path36" /><path
     inkscape:connector-curvature="0"
     d="m 190.47572,31.106616 -21.81625,0"
     style="fill:none;stroke:#000000;stroke-width:1;stroke-linecap:round;stroke-linejoin:round;stroke-miterlimit:10;stroke-dasharray:none;stroke-opacity:1"
     id="path38" /><path
     inkscape:connector-curvature="0"
     d="m 212.29447,31.106616 -5.45375,0"
     style="fill:none;stroke:#000000;stroke-width:1;stroke-linecap:round;stroke-linejoin:round;stroke-miterlimit:10;stroke-dasharray:none;stroke-opacity:1"
     id="path40" /><g
     id="g48"
     transform="matrix(1.25,0,0,-1.25,48.346967,70.779991)"><text
       transform="matrix(1,0,-1e-8,-1,110.793,46.648)"
       style="font-style:oblique;font-variant:normal;font-size:7.99998999px;font-family:Helvetica;-inkscape-font-specification:Helvetica-Oblique;writing-mode:lr-tb;fill:#000000;fill-opacity:1;fill-rule:nonzero;stroke:none;"
       id="text50"><tspan
         x="0 5.8160195 10.183985 15.519978"
         y="0"
         id="tspan52"
         style="fill:#000000;fill-opacity:1;">CLK </tspan></text>
</g><path
     inkscape:connector-curvature="0"
     d="m 54.114055,31.106616 5.454099,0"
     style="fill:none;stroke:#000000;stroke-width:1;stroke-linecap:round;stroke-linejoin:round;stroke-miterlimit:10;stroke-dasharray:none;stroke-opacity:1"
     id="path54" /><path
     inkscape:connector-curvature="0"
     d="m 75.931967,31.106616 -5.454125,0"
     style="fill:none;stroke:#000000;stroke-width:1;stroke-linecap:round;stroke-linejoin:round;stroke-miterlimit:10;stroke-dasharray:none;stroke-opacity:1"
     id="path56" /><path
     inkscape:connector-curvature="0"
     d="m 59.568154,20.197491 0,21.818375 10.909688,0 0,-21.818375 -10.909688,0 0,0"
     style="fill:#ffffff;fill-opacity:1;fill-rule:evenodd;stroke:none;stroke-width:1;stroke-miterlimit:10;stroke-dasharray:none"
     id="path58" /><path
     inkscape:connector-curvature="0"
     d="m 59.568154,42.015866 10.909688,0 0,-21.818375 -10.909688,0 0,21.818375 z"
     style="fill:none;stroke:#000000;stroke-width:1;stroke-linecap:round;stroke-linejoin:round;stroke-miterlimit:10;stroke-dasharray:none;stroke-opacity:1"
     id="path60" /><path
     inkscape:connector-curvature="0"
     d="m 59.568154,20.197491 5.454563,5.455 5.455125,-5.455"
     style="fill:none;stroke:#000000;stroke-width:1;stroke-linecap:round;stroke-linejoin:round;stroke-miterlimit:10;stroke-dasharray:none;stroke-opacity:1"
     id="path62" /><path
     inkscape:connector-curvature="0"
     d="m 65.022717,14.742866 0,5.454625"
     style="fill:none;stroke:#000000;stroke-width:1;stroke-linecap:round;stroke-linejoin:round;stroke-miterlimit:10;stroke-dasharray:none;stroke-opacity:1"
     id="path64" /><path
     inkscape:connector-curvature="0"
     d="m 59.568154,31.106616 -10.908687,0"
     style="fill:none;stroke:#000000;stroke-width:1;stroke-linecap:round;stroke-linejoin:round;stroke-miterlimit:10;stroke-dasharray:none;stroke-opacity:1"
     id="path66" /><path
     inkscape:connector-curvature="0"
     d="m 92.296217,31.106616 -16.36425,0"
     style="fill:none;stroke:#000000;stroke-width:1;stroke-linecap:round;stroke-linejoin:round;stroke-miterlimit:10;stroke-dasharray:none;stroke-opacity:1"
     id="path68" /><text
     y="12.469991"
     x="55.929493"
     id="text74"
     style="font-style:oblique;font-variant:normal;font-size:9.9999876px;font-family:Helvetica;-inkscape-font-specification:Helvetica-Oblique;writing-mode:lr-tb;fill:#000000;fill-opacity:1;fill-rule:nonzero;stroke:none;"><tspan
       id="tspan76"
       y="12.469991"
       x="55.929493 63.199024 68.658989 75.328979"
       style="fill:#000000;fill-opacity:1;">CLK </tspan></text>
<path
     id="path6927"
     style="fill:none;stroke:#000000;stroke-width:1;stroke-linecap:round;stroke-linejoin:round;stroke-miterlimit:10;stroke-dasharray:none;stroke-opacity:1"
     d="m 92.2505,21.518784 0,18.636309 76.55097,0 0,-18.636309 -76.55097,0 z"
     inkscape:connector-curvature="0" /><path
     inkscape:connector-curvature="0"
     d="m 39.08948,99.912366 24.54625,0 5.45375,-10.90925 60,0 5.455,10.90925 60,0 5.45375,-10.90925 13.6375,0"
     style="fill:none;stroke:#231f20;stroke-width:0.9375;stroke-linecap:round;stroke-linejoin:round;stroke-miterlimit:10;stroke-dasharray:none;stroke-opacity:1"
     id="path88" /><path
     inkscape:connector-curvature="0"
     d="m 39.08948,110.82049 38.1825,0 5.455,10.90975 5.45375,-10.90975 5.455,10.90975"
     style="fill:none;stroke:#000000;stroke-width:1;stroke-linecap:round;stroke-linejoin:round;stroke-miterlimit:10;stroke-dasharray:none;stroke-opacity:1"
     id="path90" /><path
     inkscape:connector-curvature="0"
     d="m 39.08948,121.73024 38.1825,0 5.455,-10.90975 5.45375,10.90975 5.455,-10.90975 120,0"
     style="fill:none;stroke:#000000;stroke-width:1;stroke-linecap:round;stroke-linejoin:round;stroke-miterlimit:10;stroke-dasharray:none;stroke-opacity:1"
     id="path92" /><path
     inkscape:connector-curvature="0"
     d="m 93.63573,121.73024 120,0"
     style="fill:none;stroke:#000000;stroke-width:1;stroke-linecap:round;stroke-linejoin:round;stroke-miterlimit:10;stroke-dasharray:none;stroke-opacity:1"
     id="path94" /><path
     inkscape:connector-curvature="0"
     d="m 39.08948,132.63937 65.455,0 5.455,10.90962 5.455,-10.90962 5.45375,10.90962 5.45375,-10.90962 5.455,10.90962 5.455,-10.90962 5.45375,10.90962 5.45375,-10.90962 5.45625,10.90962 5.45375,-10.90962 5.455,10.90962 49.09125,0"
     style="fill:none;stroke:#000000;stroke-width:1;stroke-linecap:round;stroke-linejoin:round;stroke-miterlimit:10;stroke-dasharray:none;stroke-opacity:1"
     id="path96" /><path
     inkscape:connector-curvature="0"
     d="m 39.08948,143.54899 65.455,0 5.455,-10.90962 5.455,10.90962 5.45375,-10.90962 5.45375,10.90962 5.455,-10.90962 5.455,10.90962 5.45375,-10.90962 5.45375,10.90962 5.45625,-10.90962 5.45375,10.90962 5.455,-10.90962 49.09125,0"
     style="fill:none;stroke:#000000;stroke-width:1;stroke-linecap:round;stroke-linejoin:round;stroke-miterlimit:10;stroke-dasharray:none;stroke-opacity:1"
     id="path98" /><path
     inkscape:connector-curvature="0"
     d="m 82.72698,110.82049 5.45375,0"
     style="fill:none;stroke:#000000;stroke-width:1;stroke-linecap:round;stroke-linejoin:round;stroke-miterlimit:10;stroke-dasharray:none;stroke-opacity:1"
     id="path100" /><path
     inkscape:connector-curvature="0"
     d="m 82.72698,121.73024 5.45375,0"
     style="fill:none;stroke:#000000;stroke-width:1;stroke-linecap:round;stroke-linejoin:round;stroke-miterlimit:10;stroke-dasharray:none;stroke-opacity:1"
     id="path102" /><path
     inkscape:connector-curvature="0"
     d="m 109.94323,132.75312 49.14625,-0.11375"
     style="fill:none;stroke:#000000;stroke-width:1;stroke-linecap:round;stroke-linejoin:round;stroke-miterlimit:10;stroke-dasharray:none;stroke-opacity:1"
     id="path104" /><path
     inkscape:connector-curvature="0"
     d="m 109.99948,143.54899 49.09,0"
     style="fill:none;stroke:#000000;stroke-width:1;stroke-linecap:round;stroke-linejoin:round;stroke-miterlimit:10;stroke-dasharray:none;stroke-opacity:1"
     id="path106" /><g
     id="g108"
     transform="matrix(1.25,0,0,-1.25,-157.65302,164.77999)"><text
       transform="matrix(1,0,-1e-8,-1,149.25,53.7203)"
       style="font-style:oblique;font-variant:normal;font-size:7.99998999px;font-family:Helvetica;-inkscape-font-specification:Helvetica-Oblique;writing-mode:lr-tb;fill:#000000;fill-opacity:1;fill-rule:nonzero;stroke:none"
       id="text110"><tspan
         x="0 5.8148479 10.182813 15.518806"
         y="0"
         id="tspan112"
         style="fill:#000000;fill-opacity:1">CLK </tspan></text>
<text
       transform="matrix(1,0,0,-1,149.974,36.2641)"
       style="font-variant:normal;font-weight:normal;font-size:7.99998999px;font-family:Helvetica;-inkscape-font-specification:Helvetica;writing-mode:lr-tb;fill:#000000;fill-opacity:1;fill-rule:nonzero;stroke:none"
       id="text114"><tspan
         x="0 6.2239923 10.671987"
         y="0"
         id="tspan116"
         style="fill:#000000;fill-opacity:1">Q1 </tspan><tspan
         x="-0.72382802 5.0521646 9.5001593"
         y="17.4559"
         id="tspan118"
         style="fill:#000000;fill-opacity:1">D2 </tspan></text>
</g><path
     inkscape:connector-curvature="0"
     d="m 91.19323,116.84349 c 35.12448,-3.76332 32.02717,25.02266 69.96887,21.29278"
     style="fill:none;stroke:#000000;stroke-width:1;stroke-linecap:round;stroke-linejoin:round;stroke-miterlimit:10;stroke-dasharray:6, 6;stroke-dashoffset:0;stroke-opacity:1;marker-end:url(#marker4375)"
     id="path120"
     sodipodi:nodetypes="cc" /><path
     inkscape:connector-curvature="0"
     d="m 66.58948,94.230241 c 17.618762,0.303458 1.182044,11.915219 24.10383,21.776139"
     style="fill:none;stroke:#000000;stroke-width:1;stroke-linecap:round;stroke-linejoin:round;stroke-miterlimit:10;stroke-dasharray:6, 6;stroke-dashoffset:0;stroke-opacity:1;marker-end:url(#Arrow2Mend)"
     id="path124"
     sodipodi:nodetypes="cc" /><path
     inkscape:connector-curvature="0"
     d="m 71.41948,83.548991 120.795,0"
     style="fill:none;stroke:#000000;stroke-width:0.625;stroke-linecap:round;stroke-linejoin:round;stroke-miterlimit:10;stroke-dasharray:2.5, 1.25;stroke-dashoffset:0;stroke-opacity:1"
     id="path134" /><path
     inkscape:connector-curvature="0"
     d="m 66.36198,83.548991 6.70625,-3.295875 c -1.08125,2.102125 -1.08125,4.545875 0,6.648 l -6.70625,-3.352125 0,0"
     style="fill:#000000;fill-opacity:1;fill-rule:evenodd;stroke:none"
     id="path136" /><path
     inkscape:connector-curvature="0"
     d="m 197.27198,83.548991 -6.705,3.352125 c 1.08,-2.102125 1.08,-4.545875 0,-6.648 l 0,0 6.705,3.295875 0,0"
     style="fill:#000000;fill-opacity:1;fill-rule:evenodd;stroke:none"
     id="path138" /><g
     id="g140"
     transform="matrix(1.25,0,0,-1.25,-145.65302,164.77999)"><text
       transform="matrix(1,0,-1e-8,-1,222.702,68.9918)"
       style="font-style:oblique;font-variant:normal;font-size:7.99998999px;font-family:Helvetica;-inkscape-font-specification:Helvetica-Oblique;writing-mode:lr-tb;fill:#000000;fill-opacity:1;fill-rule:nonzero;stroke:none;"
       id="text142"><tspan
         x="0"
         y="0"
         id="tspan144"
         style="fill:#000000;fill-opacity:1;">T</tspan></text>
<text
       transform="matrix(1,0,0,-1,227.59,66.9918)"
       style="font-style:oblique;font-variant:normal;font-size:6px;font-family:Helvetica;-inkscape-font-specification:Helvetica-Oblique;writing-mode:lr-tb;fill:#000000;fill-opacity:1;fill-rule:nonzero;stroke:none;"
       id="text146"><tspan
         x="0"
         y="0"
         id="tspan148"
         style="fill:#000000;fill-opacity:1;">c</tspan></text>
</g><path
     inkscape:connector-curvature="0"
     d="m 66.36198,94.628116 c 11.111627,9.442294 -8.502934,20.536684 8.1825,22.556124"
     style="fill:none;stroke:#000000;stroke-width:1;stroke-linecap:round;stroke-linejoin:round;stroke-miterlimit:10;stroke-dasharray:none;stroke-opacity:1"
     id="path150"
     sodipodi:nodetypes="cc" /><path
     inkscape:connector-curvature="0"
     d="m 79.60198,117.12812 -6.6475,3.40925 c 1.0225,-2.15925 1.0225,-4.60313 -0.0575,-6.70513 l 6.705,3.29588 0,0"
     style="fill:#000000;fill-opacity:1;fill-rule:evenodd;stroke:none"
     id="path152" /><path
     inkscape:connector-curvature="0"
     d="m 79.77198,116.27612 c 2.806074,12.38263 -10.146325,20.39517 22.4425,22.04437"
     style="fill:none;stroke:#000000;stroke-width:1;stroke-linecap:round;stroke-linejoin:round;stroke-miterlimit:10;stroke-dasharray:none;stroke-opacity:1"
     id="path154"
     sodipodi:nodetypes="cc" /><path
     inkscape:connector-curvature="0"
     d="m 107.32948,138.09349 -6.5925,3.63675 c 0.9675,-2.15975 0.91,-4.60212 -0.2825,-6.70412 l 0,0 6.875,3.06737 0,0"
     style="fill:#000000;fill-opacity:1;fill-rule:evenodd;stroke:none"
     id="path156" /><path
     inkscape:connector-curvature="0"
     d="m 66.37573,77.524116 0,72.369124"
     style="fill:none;stroke:#000000;stroke-width:0.938;stroke-linecap:round;stroke-linejoin:round;stroke-miterlimit:10;stroke-dasharray:2.50133333, 1.87599999999999989;stroke-dashoffset:0;stroke-opacity:1"
     id="path158" /><path
     inkscape:connector-curvature="0"
     d="m 197.29948,77.524116 0,72.369124"
     style="fill:none;stroke:#000000;stroke-width:0.9375;stroke-linecap:round;stroke-linejoin:round;stroke-miterlimit:10;stroke-dasharray:2.5, 1.87500000000000000;stroke-dashoffset:0;stroke-opacity:1"
     id="path160" /><text
     sodipodi:linespacing="125%"
     id="text4202"
     y="188.11867"
     x="69.262482"
     style="font-style:normal;font-weight:normal;font-size:22.5px;line-height:125%;font-family:sans-serif;letter-spacing:0px;word-spacing:0px;fill:#000000;fill-opacity:1;stroke:none;stroke-width:1px;stroke-linecap:butt;stroke-linejoin:miter;stroke-opacity:1"
     xml:space="preserve"><tspan
       style="font-size:12.5px;text-align:center;text-anchor:middle"
       y="188.11867"
       x="69.262482"
       id="tspan4204"
       sodipodi:role="line">Início da</tspan><tspan
       style="font-size:12.5px;text-align:center;text-anchor:middle"
       id="tspan4206"
       y="203.74367"
       x="69.262482"
       sodipodi:role="line">contaminação</tspan></text>
<text
     sodipodi:linespacing="125%"
     id="text4202-3"
     y="188.5995"
     x="188.10794"
     style="font-style:normal;font-weight:normal;font-size:22.5px;line-height:125%;font-family:sans-serif;letter-spacing:0px;word-spacing:0px;fill:#000000;fill-opacity:1;stroke:none;stroke-width:1px;stroke-linecap:butt;stroke-linejoin:miter;stroke-opacity:1"
     xml:space="preserve"><tspan
       style="font-size:12.5px;text-align:center;text-anchor:middle"
       y="188.5995"
       x="188.10794"
       id="tspan4204-6"
       sodipodi:role="line">Fim da</tspan><tspan
       style="font-size:12.5px;text-align:center;text-anchor:middle"
       id="tspan4206-7"
       y="204.2245"
       x="188.10794"
       sodipodi:role="line">propagação</tspan></text>
<path
     inkscape:connector-curvature="0"
     id="path4231"
     d="m 186.86405,178.11867 -21.25,-30"
     style="fill:none;fill-rule:evenodd;stroke:#000000;stroke-width:1px;stroke-linecap:butt;stroke-linejoin:miter;stroke-opacity:1;marker-end:url(#Arrow1Mend)" /><path
     inkscape:connector-curvature="0"
     id="path4575"
     d="M 64.594301,178.71738 75.166632,125.00023"
     style="fill:none;fill-rule:evenodd;stroke:#000000;stroke-width:1px;stroke-linecap:butt;stroke-linejoin:miter;stroke-opacity:1;marker-end:url(#marker4583)"
     sodipodi:nodetypes="cc" /><g
     id="g3570"
     transform="translate(-89.857829,183.17935)"><g
       word-spacing="normal"
       letter-spacing="normal"
       font-size-adjust="none"
       font-stretch="normal"
       font-weight="normal"
       font-variant="normal"
       font-style="normal"
       stroke-miterlimit="10.433"
       xml:space="preserve"
       transform="matrix(0.33613689,0,0,-0.33613689,-58.823955,181.60963)"
       id="g3572"
       style="font-style:normal;font-variant:normal;font-weight:normal;font-stretch:normal;letter-spacing:normal;word-spacing:normal;text-anchor:start;fill:none;fill-opacity:1;fill-rule:evenodd;stroke:#000000;stroke-linecap:butt;stroke-linejoin:miter;stroke-miterlimit:10.43299961;stroke-dasharray:none;stroke-dashoffset:0;stroke-opacity:1"><path
         id="path3574"
         d="m 477.27,436.24 0.03,0.13 0.03,0.12 0.03,0.11 0.03,0.11 0.03,0.11 0.03,0.09 0.03,0.1 0.03,0.08 0.03,0.09 0.03,0.07 0.03,0.08 0.03,0.06 0.03,0.07 0.03,0.06 0.03,0.05 0.03,0.06 0.03,0.04 0.03,0.05 0.04,0.04 0.03,0.04 0.04,0.03 0.03,0.04 0.04,0.03 0.04,0.02 0.04,0.03 0.05,0.02 0.04,0.02 0.05,0.02 0.05,0.02 0.05,0.02 0.05,0.01 0.05,0.02 c 0.45,0.1 2.1,0.1 3.14,0.1 5.04,0 7.28,-0.2 7.28,-4.09 0,-0.74 -0.2,-2.68 -0.4,-3.98 -0.05,-0.2 -0.15,-0.8 -0.15,-0.95 0,-0.3 0.15,-0.64 0.6,-0.64 0.55,0 0.64,0.39 0.74,1.14 l 1.35,8.67 c 0.05,0.2 0.1,0.7 0.1,0.85 0,0.54 -0.5,0.54 -1.35,0.54 l -27.64,0 c -1.2,0 -1.25,-0.05 -1.6,-0.99 l -2.98,-8.77 c -0.05,-0.1 -0.3,-0.8 -0.3,-0.9 0,-0.29 0.25,-0.54 0.59,-0.54 0.5,0 0.55,0.25 0.85,1.04 2.69,7.72 3.98,8.62 11.36,8.62 l 1.94,0 c 1.4,0 1.4,-0.2 1.4,-0.6 0,-0.3 -0.16,-0.9 -0.2,-1.04 l -6.68,-26.61 c -0.45,-1.84 -0.6,-2.39 -5.93,-2.39 -1.79,0 -2.09,0 -2.09,-0.94 0,-0.6 0.55,-0.6 0.85,-0.6 1.34,0 2.74,0.1 4.08,0.1 l 8.37,0 c 1.44,0 2.94,-0.1 4.33,-0.1 0.5,0 1.1,0 1.1,1 0,0.54 -0.4,0.54 -1.69,0.54 -1.25,0 -1.89,0 -3.19,0.1 -1.45,0.15 -1.84,0.3 -1.84,1.1 0,0.05 0,0.3 0.19,1.05 z"
         inkscape:connector-curvature="0"
         style="fill:#000000;stroke-width:0" /><path
         id="path3576"
         d="m 500.27,412.36 -0.11,-0.03 -0.11,-0.02 -0.11,-0.03 -0.1,-0.04 -0.1,-0.04 -0.1,-0.04 -0.09,-0.04 -0.08,-0.05 -0.09,-0.05 -0.08,-0.06 -0.07,-0.05 -0.07,-0.06 -0.07,-0.07 -0.06,-0.06 -0.06,-0.07 -0.06,-0.06 -0.05,-0.07 -0.05,-0.07 -0.04,-0.08 -0.04,-0.07 -0.04,-0.07 -0.04,-0.08 -0.03,-0.07 -0.02,-0.08 -0.03,-0.08 -0.02,-0.07 -0.02,-0.08 -0.01,-0.07 -0.01,-0.08 -0.01,-0.07 0,-0.08 0,-0.07 c 0,-0.94 0.73,-1.29 1.36,-1.29 0.76,0 1.98,0.56 1.98,2.23 0,2.37 -2.72,3.04 -4.6,3.04 -5.23,0 -10.08,-4.81 -10.08,-9.66 0,-3 2.09,-6.07 6.45,-6.07 5.89,0 8.65,3.45 8.65,3.94 0,0.21 -0.31,0.59 -0.59,0.59 -0.21,0 -0.28,-0.07 -0.56,-0.34 -2.72,-3.21 -6.8,-3.21 -7.43,-3.21 -2.51,0 -3.63,1.71 -3.63,3.87 0,1.01 0.49,4.81 2.31,7.21 1.32,1.72 3.14,2.69 4.88,2.69 0.49,0 2.16,-0.07 3.03,-1.04 z"
         inkscape:connector-curvature="0"
         style="fill:#000000;stroke-width:0" /><path
         id="path3578"
         d="m 552.57,422.14 0.07,0.03 0.06,0.03 0.06,0.03 0.06,0.02 0.05,0.03 0.05,0.03 0.05,0.03 0.05,0.03 0.05,0.03 0.04,0.04 0.05,0.03 0.04,0.03 0.03,0.03 0.04,0.03 0.03,0.04 0.03,0.03 0.03,0.03 0.03,0.04 0.03,0.03 0.02,0.04 0.02,0.04 0.02,0.03 0.02,0.04 0.01,0.04 0.02,0.03 0.01,0.04 0.01,0.04 0.01,0.04 0,0.04 0.01,0.04 0,0.04 0,0.04 c 0,0.5 -0.2,0.8 -1,1.15 l -27.44,12.95 c -0.7,0.35 -0.9,0.35 -1,0.35 -0.6,0 -1,-0.45 -1,-1 0,-0.59 0.4,-0.84 0.95,-1.09 l 26.15,-12.3 -26.05,-12.31 c -1,-0.45 -1.05,-0.85 -1.05,-1.14 0,-0.55 0.45,-1 1,-1 0.15,0 0.25,0 0.9,0.35 z"
         inkscape:connector-curvature="0"
         style="fill:#000000;stroke-width:0" /><path
         id="path3580"
         d="m 551.83,399.18 0.16,0 0.16,0 0.15,0 0.08,0.01 0.08,0 0.07,0.01 0.08,0.01 0.07,0.01 0.07,0.01 0.07,0.01 0.07,0.02 0.06,0.02 0.07,0.02 0.06,0.03 0.05,0.02 0.06,0.03 0.05,0.04 0.05,0.04 0.05,0.04 0.04,0.05 0.04,0.05 0.01,0.02 0.02,0.03 0.02,0.03 0.01,0.03 0.02,0.03 0.01,0.03 0.01,0.04 0.01,0.03 0.01,0.04 0.01,0.04 0,0.04 0.01,0.04 0,0.04 0.01,0.04 0,0.05 0,0.04 c 0,1 -1.05,1 -1.79,1 l -26.85,0 c -0.75,0 -1.8,0 -1.8,-1 0,-0.99 0.9,-0.99 1.75,-0.99 z"
         inkscape:connector-curvature="0"
         style="fill:#000000;stroke-width:0" /><path
         id="path3582"
         d="m 581.26,425.93 4.69,0 c 0.99,0 1.49,0 1.49,0.99 0,0.55 -0.5,0.55 -1.4,0.55 l -4.38,0 c 1.79,7.07 2.04,8.07 2.04,8.37 0,0.84 -0.6,1.34 -1.44,1.34 -0.15,0 -1.54,-0.05 -1.99,-1.79 l -1.95,-7.92 -4.68,0 c -0.99,0 -1.49,0 -1.49,-0.95 0,-0.59 0.39,-0.59 1.39,-0.59 l 4.39,0 c -3.59,-14.15 -3.79,-15 -3.79,-15.89 0,-2.7 1.89,-4.59 4.58,-4.59 5.08,0 7.92,7.28 7.92,7.67 0,0.5 -0.4,0.5 -0.6,0.5 -0.45,0 -0.49,-0.15 -0.74,-0.69 -2.14,-5.19 -4.78,-6.38 -6.48,-6.38 -1.05,0 -1.54,0.65 -1.54,2.29 0,1.2 0.1,1.54 0.29,2.39 z"
         inkscape:connector-curvature="0"
         style="fill:#000000;stroke-width:0" /><path
         id="path3584"
         d="m 591.61,392.75 -0.02,-0.09 -0.02,-0.09 -0.02,-0.08 -0.02,-0.08 -0.02,-0.07 -0.02,-0.07 -0.03,-0.07 -0.02,-0.06 -0.02,-0.06 -0.03,-0.06 -0.03,-0.05 -0.03,-0.05 -0.03,-0.05 -0.03,-0.04 -0.04,-0.04 -0.04,-0.04 -0.04,-0.03 -0.05,-0.03 -0.05,-0.03 -0.05,-0.03 -0.06,-0.02 -0.07,-0.02 -0.07,-0.02 -0.07,-0.02 -0.08,-0.01 -0.05,-0.01 -0.04,-0.01 -0.04,0 -0.05,-0.01 -0.05,0 -0.05,0 -0.05,-0.01 -0.06,0 -0.05,0 -0.06,0 -0.06,-0.01 -0.06,0 -0.06,0 -0.06,0 c -0.46,0 -0.94,0 -0.94,-0.73 0,-0.38 0.31,-0.53 0.48,-0.53 l 6.66,0 c 0.32,0 0.7,0.11 0.7,0.77 0,0.49 -0.49,0.49 -0.91,0.49 -0.76,0 -1.7,0 -1.7,0.42 0,0.17 0.24,1.08 0.38,1.6 0.42,1.85 0.9,3.73 1.29,5.2 0.42,-0.7 1.5,-2.06 3.59,-2.06 l 0,0.98 c -2.48,0 -3.11,2.68 -3.11,3.03 0,0.14 0.08,0.38 0.11,0.52 l 1.75,7.01 c 2.02,2.69 3.76,3.21 4.88,3.21 1.36,0 2.54,-1.01 2.54,-3.38 0,-1.43 -0.76,-4.99 -1.81,-7.01 -0.87,-1.71 -2.58,-3.38 -4.36,-3.38 l 0,-0.98 c 4.26,0 8.96,4.71 8.96,9.9 0,4.08 -2.82,5.83 -5.23,5.83 -2.16,0 -4.01,-1.47 -4.95,-2.44 -0.59,1.99 -2.54,2.44 -3.59,2.44 -1.36,0 -2.2,-0.91 -2.75,-1.85 -0.7,-1.19 -1.26,-3.28 -1.26,-3.49 0,-0.45 0.49,-0.45 0.59,-0.45 0.49,0 0.52,0.11 0.77,1.05 0.52,2.02 1.18,3.76 2.54,3.76 0.91,0 1.16,-0.77 1.16,-1.71 0,-0.38 -0.08,-0.83 -0.11,-1.05 z"
         inkscape:connector-curvature="0"
         style="fill:#000000;stroke-width:0" /><path
         id="path3586"
         d="m 625.27,410.36 -0.11,-0.03 -0.11,-0.02 -0.11,-0.03 -0.1,-0.04 -0.1,-0.04 -0.1,-0.04 -0.09,-0.04 -0.08,-0.05 -0.09,-0.05 -0.08,-0.06 -0.07,-0.05 -0.07,-0.06 -0.07,-0.07 -0.06,-0.06 -0.06,-0.07 -0.06,-0.06 -0.05,-0.07 -0.05,-0.07 -0.04,-0.08 -0.04,-0.07 -0.04,-0.07 -0.04,-0.08 -0.03,-0.07 -0.02,-0.08 -0.03,-0.08 -0.02,-0.07 -0.02,-0.08 -0.01,-0.07 -0.01,-0.08 -0.01,-0.07 0,-0.08 0,-0.07 c 0,-0.94 0.73,-1.29 1.35,-1.29 0.77,0 1.99,0.56 1.99,2.23 0,2.37 -2.72,3.04 -4.6,3.04 -5.23,0 -10.08,-4.81 -10.08,-9.66 0,-3 2.09,-6.07 6.45,-6.07 5.89,0 8.65,3.45 8.65,3.94 0,0.21 -0.31,0.59 -0.59,0.59 -0.21,0 -0.28,-0.07 -0.56,-0.34 -2.72,-3.21 -6.8,-3.21 -7.43,-3.21 -2.51,0 -3.63,1.71 -3.63,3.87 0,1.01 0.49,4.81 2.3,7.21 1.33,1.72 3.15,2.69 4.89,2.69 0.49,0 2.16,-0.07 3.03,-1.04 z"
         inkscape:connector-curvature="0"
         style="fill:#000000;stroke-width:0" /><path
         id="path3588"
         d="m 645.75,411.37 0,0.01 0.01,0.01 0,0.03 0.01,0.03 0.01,0.03 0,0.03 0.01,0.04 0,0.03 0.01,0.03 0,0.04 0,0.03 0.01,0.04 0,0.03 0,0.04 0,0.03 0.01,0.04 0,0.03 c 0,0.21 -0.14,0.49 -0.46,0.49 -0.34,0 -1.81,-1.19 -2.51,-2.31 -0.35,0.7 -1.5,2.31 -3.73,2.31 l 0,-0.98 c 2.44,0 3.11,-2.69 3.11,-3.03 0,-0.18 -0.07,-0.39 -0.11,-0.53 l -1.64,-6.45 c -0.17,-0.59 -0.17,-0.66 -0.63,-1.22 -1.35,-1.6 -3,-2.54 -4.35,-2.54 -1.29,0 -2.55,0.91 -2.55,3.38 0,1.85 1.01,5.69 1.82,7.08 1.6,2.79 3.38,3.31 4.35,3.31 l 0,0.98 c -4.46,0 -8.99,-4.92 -8.99,-9.94 0,-3.38 2.27,-5.79 5.26,-5.79 1.99,0 3.63,1.26 4.39,1.92 -0.03,-0.11 -1.11,-4.5 -1.25,-5.09 -0.49,-1.92 -0.52,-1.95 -2.69,-1.99 -0.41,0 -0.9,0 -0.9,-0.77 0,-0.2 0.17,-0.49 0.52,-0.49 l 7.36,0 c 0.31,0 0.7,0.11 0.7,0.77 0,0.49 -0.49,0.49 -0.91,0.49 -0.77,0 -1.71,0 -1.71,0.42 0,0.11 0,0.17 0.17,0.77 z"
         inkscape:connector-curvature="0"
         style="fill:#000000;stroke-width:0" /><path
         id="path3590"
         d="m 659.38,423.15 -0.61,-0.44 -0.58,-0.46 -0.55,-0.48 -0.52,-0.49 -0.5,-0.5 -0.47,-0.51 -0.45,-0.52 -0.42,-0.54 -0.4,-0.54 -0.38,-0.55 -0.35,-0.56 -0.33,-0.56 -0.31,-0.57 -0.29,-0.57 -0.26,-0.58 -0.25,-0.58 -0.23,-0.58 -0.2,-0.58 -0.19,-0.59 -0.18,-0.58 -0.15,-0.58 -0.14,-0.58 -0.12,-0.57 -0.11,-0.58 -0.1,-0.56 -0.07,-0.56 -0.07,-0.55 -0.05,-0.55 -0.04,-0.54 -0.03,-0.52 -0.01,-0.52 -0.01,-0.51 c 0,-4.91 1.46,-12.55 8.37,-17.43 0.28,0 0.69,0 0.69,0.41 0,0.22 -0.1,0.29 -0.34,0.53 -4.64,4.18 -6.35,10.11 -6.35,16.46 0,9.41 3.59,14.01 6.45,16.6 0.14,0.13 0.24,0.24 0.24,0.41 0,0.42 -0.41,0.42 -0.69,0.42 z"
         inkscape:connector-curvature="0"
         style="fill:#000000;stroke-width:0" /><path
         id="path3592"
         d="m 683.71,408.86 0.39,0.09 0.38,0.11 0.38,0.11 0.38,0.12 0.37,0.13 0.37,0.14 0.36,0.15 0.35,0.15 0.34,0.16 0.34,0.17 0.33,0.18 0.32,0.18 0.31,0.19 0.3,0.2 0.29,0.2 0.27,0.21 0.27,0.22 0.25,0.22 0.24,0.23 0.22,0.23 0.21,0.24 0.2,0.25 0.17,0.25 0.17,0.25 0.14,0.26 0.13,0.27 0.11,0.27 0.09,0.27 0.07,0.28 0.06,0.28 0.03,0.29 0.01,0.29 c 0,3 -3.56,5.37 -8.61,5.37 l -10.71,0 c -0.66,0 -1.12,0 -1.12,-0.77 0,-0.49 0.42,-0.49 1.12,-0.49 0.03,0 0.7,0 1.33,-0.07 0.73,-0.07 0.8,-0.14 0.8,-0.49 0,-0.07 0,-0.24 -0.14,-0.77 l -4.64,-18.51 c -0.28,-1.18 -0.35,-1.47 -3.07,-1.47 -0.59,0 -1.04,0 -1.04,-0.73 0,-0.34 0.24,-0.52 0.55,-0.52 0.67,0 1.47,0.11 2.17,0.11 l 4.53,0 c 0.73,0 1.6,-0.11 2.34,-0.11 0.17,0 0.73,0 0.73,0.73 0,0.52 -0.35,0.52 -1.15,0.52 -0.56,0 -0.7,0 -1.33,0.07 -0.77,0.11 -0.77,0.18 -0.77,0.53 0,0.03 0,0.24 0.15,0.76 l 2.19,8.83 4.74,0 0.04,0.97 -4.5,0 2.23,8.97 c 0.25,0.97 0.32,1.08 1.08,1.18 l 2.24,0 c 3.24,0 7.25,0 7.25,-3.59 0,-1.43 -0.67,-3.63 -2.31,-4.88 -1.43,-1.12 -3.59,-1.68 -5.99,-1.68 l -0.04,-0.97 c 3,0 4.29,-1.5 4.29,-3.14 0,-0.46 -0.31,-1.64 -0.49,-2.44 -0.41,-1.61 -0.55,-2.13 -0.55,-2.72 0,-2.76 2.54,-3.84 5.12,-3.84 3.21,0 4.6,3.42 4.6,4.05 0,0.1 -0.07,0.49 -0.59,0.49 -0.45,0 -0.52,-0.25 -0.63,-0.6 -0.48,-1.53 -1.78,-2.96 -3.24,-2.96 -0.91,0 -1.57,0.38 -1.57,2.27 0,0.87 0.21,2.68 0.35,3.62 0.14,0.94 0.14,1.29 0.14,1.64 0,0.42 0,1.53 -0.98,2.58 -0.66,0.73 -1.6,1.19 -2.37,1.47 z"
         inkscape:connector-curvature="0"
         style="fill:#000000;stroke-width:0" /><path
         id="path3594"
         d="m 704.68,419.18 0,0.04 0,0.04 0,0.04 0,0.04 0,0.04 0,0.04 0,0.03 0,0.04 -0.01,0.03 0,0.03 0,0.04 0,0.03 -0.01,0.02 0,0.03 0,0.03 -0.01,0.03 0,0.02 0,0.02 -0.02,0.05 -0.01,0.04 -0.01,0.04 -0.02,0.03 -0.02,0.03 -0.02,0.03 -0.03,0.03 -0.02,0.02 -0.03,0.02 -0.04,0.02 -0.03,0.01 -0.04,0.01 -0.05,0.02 -0.05,0 -0.02,0.01 -0.03,0 -0.03,0.01 -0.02,0 -0.03,0 -0.03,0 -0.04,0 -0.03,0.01 -0.03,0 -0.04,0 -0.03,0 -0.04,0 -0.04,0 -0.04,0 -0.04,0 -0.04,0 -0.05,0 -0.04,0 c -2.24,-2.19 -5.41,-2.23 -6.84,-2.23 l 0,-1.25 c 0.84,0 3.14,0 5.05,0.97 l 0,-17.78 c 0,-1.15 0,-1.61 -3.48,-1.61 l -1.33,0 0,-1.25 12.45,0 0,1.25 -1.32,0 c -3.49,0 -3.49,0.46 -3.49,1.61 z"
         inkscape:connector-curvature="0"
         style="fill:#000000;stroke-width:0" /><path
         id="path3596"
         d="m 716.14,423.15 -0.03,0 -0.02,0 -0.03,0 -0.02,0 -0.03,0 -0.02,0 -0.03,0 -0.03,0 -0.03,-0.01 -0.02,0 -0.03,0 -0.03,-0.01 -0.03,-0.01 -0.02,0 -0.03,-0.01 -0.02,-0.01 -0.03,-0.01 -0.02,-0.01 -0.03,-0.02 -0.02,-0.01 -0.02,-0.02 -0.02,-0.01 -0.02,-0.02 -0.01,-0.01 0,-0.01 -0.01,-0.02 -0.01,-0.01 -0.01,-0.01 0,-0.01 -0.01,-0.02 0,-0.01 -0.01,-0.01 0,-0.02 -0.01,-0.01 0,-0.02 -0.01,-0.02 0,-0.01 0,-0.02 0,-0.02 0,-0.02 0,-0.02 c 0,-0.17 0.1,-0.28 0.31,-0.52 3,-2.75 6.35,-7.46 6.35,-16.46 0,-7.29 -2.27,-12.79 -6.04,-16.21 -0.59,-0.59 -0.62,-0.63 -0.62,-0.81 0,-0.17 0.1,-0.41 0.45,-0.41 0.42,0 3.73,2.3 6.03,6.66 1.54,2.89 2.55,6.66 2.55,10.74 0,4.91 -1.47,12.55 -8.37,17.43 z"
         inkscape:connector-curvature="0"
         style="fill:#000000;stroke-width:0" /><path
         id="path3598"
         d="m 762.38,417.46 13.89,0 c 0.7,0 1.64,0 1.64,0.99 0,1 -0.94,1 -1.64,1 l -13.89,0 0,13.95 c 0,0.69 0,1.64 -1,1.64 -1,0 -1,-0.95 -1,-1.64 l 0,-13.95 -13.95,0 c -0.7,0 -1.64,0 -1.64,-1 0,-0.99 0.94,-0.99 1.64,-0.99 l 13.95,0 0,-13.95 c 0,-0.7 0,-1.64 1,-1.64 1,0 1,0.94 1,1.64 z"
         inkscape:connector-curvature="0"
         style="fill:#000000;stroke-width:0" /><path
         id="path3600"
         d="m 802.26,425.93 4.69,0 c 0.99,0 1.49,0 1.49,0.99 0,0.55 -0.5,0.55 -1.4,0.55 l -4.38,0 c 1.79,7.07 2.04,8.07 2.04,8.37 0,0.84 -0.6,1.34 -1.44,1.34 -0.15,0 -1.54,-0.05 -1.99,-1.79 l -1.95,-7.92 -4.68,0 c -0.99,0 -1.49,0 -1.49,-0.95 0,-0.59 0.39,-0.59 1.39,-0.59 l 4.39,0 c -3.59,-14.15 -3.79,-15 -3.79,-15.89 0,-2.7 1.89,-4.59 4.58,-4.59 5.08,0 7.92,7.28 7.92,7.67 0,0.5 -0.4,0.5 -0.6,0.5 -0.45,0 -0.49,-0.15 -0.74,-0.69 -2.14,-5.19 -4.78,-6.38 -6.48,-6.38 -1.05,0 -1.54,0.65 -1.54,2.29 0,1.2 0.1,1.54 0.29,2.39 z"
         inkscape:connector-curvature="0"
         style="fill:#000000;stroke-width:0" /><path
         id="path3602"
         d="m 812.61,392.75 -0.02,-0.09 -0.02,-0.09 -0.02,-0.08 -0.02,-0.08 -0.02,-0.07 -0.02,-0.07 -0.03,-0.07 -0.02,-0.06 -0.02,-0.06 -0.03,-0.06 -0.03,-0.05 -0.03,-0.05 -0.03,-0.05 -0.03,-0.04 -0.04,-0.04 -0.04,-0.04 -0.04,-0.03 -0.05,-0.03 -0.05,-0.03 -0.05,-0.03 -0.06,-0.02 -0.07,-0.02 -0.07,-0.02 -0.07,-0.02 -0.08,-0.01 -0.05,-0.01 -0.04,-0.01 -0.04,0 -0.05,-0.01 -0.05,0 -0.05,0 -0.05,-0.01 -0.06,0 -0.05,0 -0.06,0 -0.06,-0.01 -0.06,0 -0.06,0 -0.06,0 c -0.46,0 -0.94,0 -0.94,-0.73 0,-0.38 0.31,-0.53 0.48,-0.53 l 6.66,0 c 0.32,0 0.7,0.11 0.7,0.77 0,0.49 -0.49,0.49 -0.91,0.49 -0.76,0 -1.7,0 -1.7,0.42 0,0.17 0.24,1.08 0.38,1.6 0.42,1.85 0.9,3.73 1.29,5.2 0.42,-0.7 1.5,-2.06 3.59,-2.06 l 0,0.98 c -2.48,0 -3.11,2.68 -3.11,3.03 0,0.14 0.08,0.38 0.11,0.52 l 1.75,7.01 c 2.02,2.69 3.76,3.21 4.88,3.21 1.36,0 2.54,-1.01 2.54,-3.38 0,-1.43 -0.76,-4.99 -1.81,-7.01 -0.87,-1.71 -2.58,-3.38 -4.36,-3.38 l 0,-0.98 c 4.26,0 8.96,4.71 8.96,9.9 0,4.08 -2.82,5.83 -5.23,5.83 -2.16,0 -4.01,-1.47 -4.95,-2.44 -0.59,1.99 -2.54,2.44 -3.59,2.44 -1.36,0 -2.2,-0.91 -2.75,-1.85 -0.7,-1.19 -1.26,-3.28 -1.26,-3.49 0,-0.45 0.49,-0.45 0.59,-0.45 0.49,0 0.52,0.11 0.77,1.05 0.52,2.02 1.18,3.76 2.54,3.76 0.91,0 1.16,-0.77 1.16,-1.71 0,-0.38 -0.08,-0.83 -0.11,-1.05 z"
         inkscape:connector-curvature="0"
         style="fill:#000000;stroke-width:0" /><path
         id="path3604"
         d="m 849.91,420.15 0,0.01 0,0 0.01,0 0,0.01 0,0.01 0,0 0,0.01 0.01,0 0,0.02 0.01,0.02 0,0.02 0.01,0.01 0,0.02 0.01,0.03 0,0.02 0.01,0.02 0.01,0.02 0,0.03 0.01,0.04 0.01,0.05 0.01,0.03 0.01,0.02 0,0.02 0.01,0.02 0,0.02 0,0.02 0.01,0.02 0,0.01 0,0.01 0,0.01 0.01,0 0,0.01 0,0.01 0,0 0,0.01 0,0 0,0 0,0.01 0,0 0,0 c 0,0.18 -0.14,0.49 -0.56,0.49 -0.7,0 -3.59,-0.28 -4.46,-0.35 -0.28,-0.03 -0.77,-0.07 -0.77,-0.8 0,-0.49 0.49,-0.49 0.91,-0.49 1.67,0 1.67,-0.24 1.67,-0.52 0,-0.25 -0.07,-0.46 -0.14,-0.77 l -1.98,-7.95 c -0.74,1.15 -1.92,2.06 -3.6,2.06 l 0,-0.98 c 2.44,0 3.11,-2.65 3.11,-3.03 0,-0.14 -0.07,-0.39 -0.11,-0.49 l -1.64,-6.52 c -0.24,-0.98 -1.01,-1.68 -1.78,-2.34 -0.31,-0.28 -1.7,-1.39 -3.2,-1.39 -1.29,0 -2.55,0.91 -2.55,3.38 0,1.85 1.01,5.69 1.82,7.08 1.6,2.79 3.38,3.31 4.35,3.31 l 0,0.98 c -4.46,0 -8.99,-4.92 -8.99,-9.94 0,-3.38 2.27,-5.79 5.26,-5.79 1.88,0 3.56,1.08 4.95,2.44 0.67,-2.09 2.69,-2.44 3.59,-2.44 1.26,0 2.13,0.77 2.76,1.85 0.77,1.36 1.22,3.35 1.22,3.48 0,0.46 -0.45,0.46 -0.56,0.46 -0.49,0 -0.52,-0.14 -0.76,-1.08 -0.42,-1.68 -1.09,-3.73 -2.55,-3.73 -0.91,0 -1.15,0.76 -1.15,1.71 0,0.66 0.07,0.97 0.17,1.43 z"
         inkscape:connector-curvature="0"
         style="fill:#000000;stroke-width:0" /><path
         id="path3606"
         d="m 863.38,423.15 -0.61,-0.44 -0.58,-0.46 -0.55,-0.48 -0.52,-0.49 -0.5,-0.5 -0.47,-0.51 -0.45,-0.52 -0.42,-0.54 -0.4,-0.54 -0.38,-0.55 -0.35,-0.56 -0.33,-0.56 -0.31,-0.57 -0.29,-0.57 -0.26,-0.58 -0.25,-0.58 -0.23,-0.58 -0.2,-0.58 -0.19,-0.59 -0.18,-0.58 -0.15,-0.58 -0.14,-0.58 -0.12,-0.57 -0.11,-0.58 -0.1,-0.56 -0.07,-0.56 -0.07,-0.55 -0.05,-0.55 -0.04,-0.54 -0.03,-0.52 -0.01,-0.52 -0.01,-0.51 c 0,-4.91 1.46,-12.55 8.37,-17.43 0.28,0 0.69,0 0.69,0.41 0,0.22 -0.1,0.29 -0.34,0.53 -4.64,4.18 -6.35,10.11 -6.35,16.46 0,9.41 3.59,14.01 6.45,16.6 0.14,0.13 0.24,0.24 0.24,0.41 0,0.42 -0.41,0.42 -0.69,0.42 z"
         inkscape:connector-curvature="0"
         style="fill:#000000;stroke-width:0" /><path
         id="path3608"
         d="m 896.4,421.06 -0.01,0.02 0,0.01 0,0.02 0,0.02 0,0.02 -0.01,0.02 0,0.01 -0.01,0.02 0,0.02 -0.01,0.02 -0.01,0.02 -0.01,0.02 -0.01,0.02 -0.01,0.02 -0.01,0.01 -0.01,0.02 -0.02,0.02 -0.01,0.01 -0.02,0.02 -0.01,0.01 -0.02,0.02 -0.02,0.01 -0.02,0.01 -0.02,0.02 -0.02,0.01 -0.03,0.01 -0.02,0 -0.03,0.01 -0.01,0 -0.02,0 -0.01,0.01 -0.02,0 -0.01,0 -0.02,0 -0.01,0 -0.02,0 c -0.24,0 -0.31,-0.07 -0.63,-0.42 l -2.54,-2.68 c -0.32,0.42 -2.27,3.1 -6.55,3.1 -8.48,0 -16.78,-7.49 -16.78,-15.37 0,-5.69 4.46,-9.84 10.71,-9.84 1.88,0 5.23,0.39 8.82,3.42 2.75,2.33 3.52,5.37 3.52,5.65 0,0.45 -0.42,0.45 -0.59,0.45 -0.46,0 -0.52,-0.17 -0.63,-0.55 -1.43,-4.78 -6.31,-7.71 -10.53,-7.71 -3.7,0 -7.81,1.99 -7.81,7.49 0,1.02 0.24,6.52 4.25,10.92 2.41,2.68 6.07,4.29 9.38,4.29 4.04,0 6.42,-2.93 6.42,-6.84 0,-0.97 -0.11,-1.22 -0.11,-1.43 0,-0.45 0.46,-0.45 0.63,-0.45 0.56,0 0.56,0.1 0.73,0.77 z"
         inkscape:connector-curvature="0"
         style="fill:#000000;stroke-width:0" /><path
         id="path3610"
         d="m 912.37,417.96 0.03,0.11 0.02,0.11 0.03,0.11 0.03,0.1 0.03,0.09 0.03,0.09 0.04,0.09 0.03,0.08 0.05,0.07 0.04,0.07 0.05,0.07 0.06,0.06 0.06,0.06 0.07,0.06 0.07,0.05 0.08,0.05 0.1,0.04 0.1,0.04 0.11,0.04 0.12,0.03 0.06,0.02 0.07,0.01 0.07,0.02 0.07,0.01 0.08,0.01 0.08,0.01 0.08,0.01 0.09,0.02 0.09,0 0.09,0.01 0.09,0.01 0.1,0.01 0.11,0.01 0.1,0 0.11,0.01 0.12,0 0.12,0.01 0.12,0 0.13,0 0.13,0 0.13,0.01 0.14,0 0.14,0 0.15,0 c 1.08,0 1.43,0 1.43,0.77 0,0.03 -0.03,0.49 -0.59,0.49 l -10.05,0 c -0.2,0 -0.73,0 -0.73,-0.77 0,-0.49 0.42,-0.49 1.12,-0.49 0.04,0 0.7,0 1.33,-0.07 0.73,-0.07 0.8,-0.14 0.8,-0.49 0,-0.07 0,-0.24 -0.14,-0.77 l -4.64,-18.51 c -0.31,-1.18 -0.38,-1.47 -3.07,-1.47 -0.59,0 -1.04,0 -1.04,-0.73 0,-0.52 0.41,-0.52 1.04,-0.52 l 17.54,0 c 0.87,0 0.91,0.04 1.19,0.7 0.35,0.94 2.96,7.7 2.96,7.98 0,0.11 -0.07,0.49 -0.59,0.49 -0.42,0 -0.49,-0.17 -0.7,-0.73 -1.32,-3.32 -2.86,-7.19 -9.24,-7.19 l -3.94,0 c -1.08,0 -1.12,0.04 -1.12,0.36 0,0.03 0,0.2 0.15,0.73 z"
         inkscape:connector-curvature="0"
         style="fill:#000000;stroke-width:0" /><path
         id="path3612"
         d="m 928.14,423.15 -0.03,0 -0.02,0 -0.03,0 -0.02,0 -0.03,0 -0.02,0 -0.03,0 -0.03,0 -0.03,-0.01 -0.02,0 -0.03,0 -0.03,-0.01 -0.03,-0.01 -0.02,0 -0.03,-0.01 -0.02,-0.01 -0.03,-0.01 -0.02,-0.01 -0.03,-0.02 -0.02,-0.01 -0.02,-0.02 -0.02,-0.01 -0.02,-0.02 -0.01,-0.01 0,-0.01 -0.01,-0.02 -0.01,-0.01 -0.01,-0.01 0,-0.01 -0.01,-0.02 0,-0.01 -0.01,-0.01 0,-0.02 -0.01,-0.01 0,-0.02 -0.01,-0.02 0,-0.01 0,-0.02 0,-0.02 0,-0.02 0,-0.02 c 0,-0.17 0.1,-0.28 0.31,-0.52 3,-2.75 6.35,-7.46 6.35,-16.46 0,-7.29 -2.27,-12.79 -6.04,-16.21 -0.59,-0.59 -0.62,-0.63 -0.62,-0.81 0,-0.17 0.1,-0.41 0.45,-0.41 0.42,0 3.73,2.3 6.03,6.66 1.54,2.89 2.55,6.66 2.55,10.74 0,4.91 -1.47,12.55 -8.37,17.43 z"
         inkscape:connector-curvature="0"
         style="fill:#000000;stroke-width:0" /><path
         id="path3614"
         d="m 974.38,417.46 13.89,0 c 0.7,0 1.64,0 1.64,0.99 0,1 -0.94,1 -1.64,1 l -13.89,0 0,13.95 c 0,0.69 0,1.64 -1,1.64 -1,0 -1,-0.95 -1,-1.64 l 0,-13.95 -13.95,0 c -0.7,0 -1.64,0 -1.64,-1 0,-0.99 0.94,-0.99 1.64,-0.99 l 13.95,0 0,-13.95 c 0,-0.7 0,-1.64 1,-1.64 1,0 1,0.94 1,1.64 z"
         inkscape:connector-curvature="0"
         style="fill:#000000;stroke-width:0" /><path
         id="path3616"
         d="m 1014.3,425.93 4.7,0 c 0.9,0 1.4,0 1.4,0.99 0,0.55 -0.5,0.55 -1.4,0.55 l -4.3,0 c 1.8,7.07 2,8.07 2,8.37 0,0.84 -0.6,1.34 -1.4,1.34 -0.2,0 -1.6,-0.05 -2,-1.79 l -2,-7.92 -4.7,0 c -1,0 -1.5,0 -1.5,-0.95 0,-0.59 0.4,-0.59 1.4,-0.59 l 4.4,0 c -3.6,-14.15 -3.8,-15 -3.8,-15.89 0,-2.7 1.9,-4.59 4.6,-4.59 5.1,0 7.9,7.28 7.9,7.67 0,0.5 -0.4,0.5 -0.6,0.5 -0.4,0 -0.5,-0.15 -0.7,-0.69 -2.1,-5.19 -4.8,-6.38 -6.5,-6.38 -1,0 -1.5,0.65 -1.5,2.29 0,1.2 0.1,1.54 0.3,2.39 z"
         inkscape:connector-curvature="0"
         style="fill:#000000;stroke-width:0" /><path
         id="path3618"
         d="m 1037,410.11 -0.1,-0.02 0,-0.03 -0.1,-0.02 -0.1,-0.03 -0.1,-0.03 0,-0.04 -0.1,-0.04 -0.1,-0.04 -0.1,-0.04 0,-0.04 -0.1,-0.05 0,-0.05 -0.1,-0.05 0,-0.05 -0.1,-0.05 0,-0.06 -0.1,-0.05 0,-0.06 -0.1,-0.06 0,-0.06 0,-0.06 -0.1,-0.06 0,-0.06 0,-0.07 -0.1,-0.06 0,-0.07 0,-0.06 0,-0.07 0,-0.06 0,-0.07 0,-0.06 0,-0.07 c 0,-0.8 0.7,-1.11 1.1,-1.11 0.4,0 1.7,0.21 1.7,1.98 0,2.27 -2.5,3.04 -4.6,3.04 -5.5,0 -6.5,-4.01 -6.5,-5.09 0,-1.29 0.8,-2.13 1.3,-2.55 0.9,-0.7 1.5,-0.84 3.9,-1.26 0.7,-0.13 3,-0.55 3,-2.3 0,-0.59 -0.4,-1.91 -1.9,-2.79 -1.4,-0.76 -3.1,-0.76 -3.5,-0.76 -1.4,0 -3.4,0.31 -4.2,1.46 1.2,0.14 2,1.01 2,1.99 0,0.87 -0.7,1.29 -1.4,1.29 -1,0 -2,-0.8 -2,-2.33 0,-2.1 2.2,-3.39 5.6,-3.39 6.4,0 7.6,4.39 7.6,5.76 0,3.2 -3.5,3.83 -4.8,4.07 -0.3,0.07 -1.2,0.22 -1.4,0.28 -1.3,0.25 -1.9,0.98 -1.9,1.75 0,0.8 0.6,1.74 1.4,2.23 0.9,0.59 2.1,0.66 2.7,0.66 0.7,0 2.6,-0.1 3.3,-1.29 z"
         inkscape:connector-curvature="0"
         style="fill:#000000;stroke-width:0" /><path
         id="path3620"
         d="m 1048.8,404.95 0.1,0 0.1,0 0.1,0 0.2,0 0.1,0.01 0.1,0 0.2,0 0.1,0.01 0.2,0.01 0.2,0.01 0.1,0.01 0.2,0.01 0.2,0.01 0.2,0.01 0.4,0.04 0.4,0.04 0.4,0.05 0.4,0.06 0.4,0.07 0.4,0.08 0.2,0.04 0.2,0.05 0.2,0.05 0.2,0.06 0.2,0.05 0.1,0.06 c 2.6,0.91 3.1,2.58 3.1,3.63 0,1.92 -1.9,3.07 -4.3,3.07 l 0,-0.98 c 1.5,0 2.8,-0.77 2.8,-2.09 0,-3.38 -5.9,-3.38 -7.4,-3.38 l -1.7,0 c 1.4,5.05 5.3,5.47 6.3,5.47 l 0,0.98 c -4.2,0 -9.9,-3.21 -9.9,-9.17 0,-3.53 2.2,-6.56 6.3,-6.56 5.9,0 8.7,3.45 8.7,3.94 0,0.21 -0.4,0.59 -0.6,0.59 -0.2,0 -0.3,-0.07 -0.6,-0.34 -2.7,-3.21 -6.8,-3.21 -7.4,-3.21 -2.1,0 -3.5,1.39 -3.5,4.22 0,0.49 0,1.18 0.4,3.1 z"
         inkscape:connector-curvature="0"
         style="fill:#000000;stroke-width:0" /><path
         id="path3622"
         d="m 1068.6,410.77 3.5,0 c 0.7,0 1.1,0 1.1,0.77 0,0.49 -0.4,0.49 -1,0.49 l -3.3,0 1.3,5.16 c 0,0.17 0.1,0.35 0.1,0.49 0,0.62 -0.5,1.11 -1.2,1.11 -0.9,0 -1.4,-0.59 -1.6,-1.5 -0.3,-0.87 0.2,0.81 -1.4,-5.26 l -3.5,0 c -0.7,0 -1.1,0 -1.1,-0.77 0,-0.49 0.4,-0.49 1,-0.49 l 3.3,0 -2,-8.23 c -0.2,-0.87 -0.6,-2.12 -0.6,-2.58 0,-2.05 1.8,-3.31 3.8,-3.31 3.8,0 6,4.88 6,5.33 0,0.46 -0.4,0.46 -0.5,0.46 -0.4,0 -0.5,-0.07 -0.7,-0.66 -1,-2.2 -2.8,-4.15 -4.7,-4.15 -0.8,0 -1.2,0.45 -1.2,1.71 0,0.34 0.1,1.08 0.2,1.43 z"
         inkscape:connector-curvature="0"
         style="fill:#000000;stroke-width:0" /><path
         id="path3624"
         d="m 1089.8,402.65 -0.1,-0.07 0,-0.07 0,-0.07 0,-0.08 0,-0.08 -0.1,-0.08 0,-0.08 0,-0.08 0,-0.17 -0.1,-0.17 0,-0.17 -0.1,-0.08 0,-0.08 0,-0.08 0,-0.07 0,-0.08 0,-0.07 -0.1,-0.06 0,-0.07 0,-0.06 0,-0.05 0,-0.05 0,-0.05 -0.1,-0.04 0,-0.03 0,-0.01 0,-0.02 0,-0.01 0,-0.01 0,-0.01 0,0 0,-0.01 0,0 c -0.7,-1.08 -2.1,-2.96 -4.2,-2.96 -2.4,0 -2.4,2.26 -2.4,2.89 0,2.06 0.9,4.53 1.9,7.08 0.3,0.7 0.5,1.22 0.5,1.78 0,1.81 -1.5,3 -3.3,3 -3.5,0 -5.1,-4.78 -5.1,-5.34 0,-0.45 0.5,-0.45 0.6,-0.45 0.5,0 0.6,0.17 0.7,0.56 0.8,2.86 2.3,4.25 3.7,4.25 0.6,0 0.9,-0.38 0.9,-1.22 0,-0.8 -0.3,-1.54 -0.7,-2.34 -1.9,-4.81 -1.9,-5.82 -1.9,-6.76 0,-0.59 0,-2.2 1.3,-3.31 1,-0.84 2.4,-1.12 3.6,-1.12 2.2,0 3.4,1.19 4.6,2.3 0.7,-2.23 3.1,-2.3 3.5,-2.3 1.2,0 2.1,0.7 2.7,1.85 0.8,1.36 1.3,3.38 1.3,3.48 0,0.46 -0.5,0.46 -0.6,0.46 -0.5,0 -0.5,-0.14 -0.8,-1.08 -0.4,-1.64 -1,-3.73 -2.5,-3.73 -0.9,0 -1.2,0.8 -1.2,1.71 0,0.59 0.3,1.84 0.6,2.75 0.2,0.94 0.6,2.37 0.7,3.14 l 0.8,3.1 c 0.2,0.87 0.6,2.41 0.6,2.58 0,0.7 -0.5,1.12 -1.1,1.12 -1.3,0 -1.6,-1.01 -1.8,-2.13 z"
         inkscape:connector-curvature="0"
         style="fill:#000000;stroke-width:0" /><path
         id="path3626"
         d="m 1100.6,392.75 0,-0.09 0,-0.09 -0.1,-0.08 0,-0.08 0,-0.07 0,-0.07 0,-0.07 -0.1,-0.06 0,-0.06 0,-0.06 0,-0.05 -0.1,-0.05 0,-0.05 0,-0.04 -0.1,-0.04 0,-0.04 -0.1,-0.03 0,-0.03 0,-0.03 -0.1,-0.03 -0.1,-0.02 0,-0.02 -0.1,-0.02 -0.1,-0.02 -0.1,-0.01 0,-0.01 0,-0.01 -0.1,0 0,-0.01 -0.1,0 0,0 -0.1,-0.01 0,0 -0.1,0 0,0 -0.1,-0.01 -0.1,0 0,0 -0.1,0 c -0.5,0 -0.9,0 -0.9,-0.73 0,-0.38 0.3,-0.53 0.4,-0.53 l 6.7,0 c 0.3,0 0.7,0.11 0.7,0.77 0,0.49 -0.5,0.49 -0.9,0.49 -0.8,0 -1.7,0 -1.7,0.42 0,0.17 0.2,1.08 0.4,1.6 0.4,1.85 0.9,3.73 1.3,5.2 0.4,-0.7 1.5,-2.06 3.6,-2.06 l 0,0.98 c -2.5,0 -3.1,2.68 -3.1,3.03 0,0.14 0,0.38 0.1,0.52 l 1.7,7.01 c 2,2.69 3.8,3.21 4.9,3.21 1.3,0 2.5,-1.01 2.5,-3.38 0,-1.43 -0.7,-4.99 -1.8,-7.01 -0.9,-1.71 -2.6,-3.38 -4.3,-3.38 l 0,-0.98 c 4.2,0 8.9,4.71 8.9,9.9 0,4.08 -2.8,5.83 -5.2,5.83 -2.2,0 -4,-1.47 -5,-2.44 -0.5,1.99 -2.5,2.44 -3.5,2.44 -1.4,0 -2.3,-0.91 -2.8,-1.85 -0.7,-1.19 -1.3,-3.28 -1.3,-3.49 0,-0.45 0.5,-0.45 0.6,-0.45 0.5,0 0.6,0.11 0.8,1.05 0.5,2.02 1.2,3.76 2.5,3.76 0.9,0 1.2,-0.77 1.2,-1.71 0,-0.38 -0.1,-0.83 -0.1,-1.05 z"
         inkscape:connector-curvature="0"
         style="fill:#000000;stroke-width:0" /><path
         id="path3628"
         d="m 1131.4,423.15 -0.6,-0.44 -0.6,-0.46 -0.6,-0.48 -0.5,-0.49 -0.5,-0.5 -0.5,-0.51 -0.4,-0.52 -0.4,-0.54 -0.4,-0.54 -0.4,-0.55 -0.4,-0.56 -0.3,-0.56 -0.3,-0.57 -0.3,-0.57 -0.2,-0.58 -0.3,-0.58 -0.2,-0.58 -0.2,-0.58 -0.2,-0.59 -0.2,-0.58 -0.1,-0.58 -0.2,-0.58 -0.1,-0.57 -0.1,-0.58 -0.1,-0.56 -0.1,-0.56 -0.1,-0.55 0,-0.55 0,-0.54 -0.1,-0.52 0,-0.52 0,-0.51 c 0,-4.91 1.5,-12.55 8.4,-17.43 0.3,0 0.7,0 0.7,0.41 0,0.22 -0.1,0.29 -0.4,0.53 -4.6,4.18 -6.3,10.11 -6.3,16.46 0,9.41 3.6,14.01 6.4,16.6 0.2,0.13 0.3,0.24 0.3,0.41 0,0.42 -0.4,0.42 -0.7,0.42 z"
         inkscape:connector-curvature="0"
         style="fill:#000000;stroke-width:0" /><path
         id="path3630"
         d="m 1154.7,408.86 0.4,0.09 0.4,0.11 0.4,0.11 0.3,0.12 0.4,0.13 0.4,0.14 0.3,0.15 0.4,0.15 0.3,0.16 0.4,0.17 0.3,0.18 0.3,0.18 0.3,0.19 0.3,0.2 0.3,0.2 0.3,0.21 0.3,0.22 0.2,0.22 0.2,0.23 0.3,0.23 0.2,0.24 0.2,0.25 0.2,0.25 0.1,0.25 0.2,0.26 0.1,0.27 0.1,0.27 0.1,0.27 0.1,0.28 0,0.28 0,0.29 0.1,0.29 c 0,3 -3.6,5.37 -8.7,5.37 l -10.7,0 c -0.6,0 -1.1,0 -1.1,-0.77 0,-0.49 0.4,-0.49 1.1,-0.49 0.1,0 0.7,0 1.4,-0.07 0.7,-0.07 0.8,-0.14 0.8,-0.49 0,-0.07 0,-0.24 -0.2,-0.77 l -4.6,-18.51 c -0.3,-1.18 -0.4,-1.47 -3.1,-1.47 -0.6,0 -1,0 -1,-0.73 0,-0.34 0.2,-0.52 0.5,-0.52 0.7,0 1.5,0.11 2.2,0.11 l 4.5,0 c 0.8,0 1.6,-0.11 2.4,-0.11 0.1,0 0.7,0 0.7,0.73 0,0.52 -0.4,0.52 -1.2,0.52 -0.5,0 -0.7,0 -1.3,0.07 -0.7,0.11 -0.7,0.18 -0.7,0.53 0,0.03 0,0.24 0.1,0.76 l 2.2,8.83 4.7,0 0.1,0.97 -4.5,0 2.2,8.97 c 0.2,0.97 0.3,1.08 1.1,1.18 l 2.2,0 c 3.3,0 7.3,0 7.3,-3.59 0,-1.43 -0.7,-3.63 -2.3,-4.88 -1.5,-1.12 -3.6,-1.68 -6,-1.68 l -0.1,-0.97 c 3,0 4.3,-1.5 4.3,-3.14 0,-0.46 -0.3,-1.64 -0.5,-2.44 -0.4,-1.61 -0.5,-2.13 -0.5,-2.72 0,-2.76 2.5,-3.84 5.1,-3.84 3.2,0 4.6,3.42 4.6,4.05 0,0.1 -0.1,0.49 -0.6,0.49 -0.4,0 -0.5,-0.25 -0.6,-0.6 -0.5,-1.53 -1.8,-2.96 -3.3,-2.96 -0.9,0 -1.5,0.38 -1.5,2.27 0,0.87 0.2,2.68 0.3,3.62 0.2,0.94 0.2,1.29 0.2,1.64 0,0.42 0,1.53 -1,2.58 -0.7,0.73 -1.6,1.19 -2.4,1.47 z"
         inkscape:connector-curvature="0"
         style="fill:#000000;stroke-width:0" /><path
         id="path3632"
         d="m 1181.6,403.35 -1.2,0 c -0.1,-0.77 -0.4,-2.83 -0.9,-3.18 -0.3,-0.21 -2.9,-0.21 -3.4,-0.21 l -6.4,0 c 3.6,3.25 4.8,4.22 6.9,5.86 2.6,2.06 5,4.22 5,7.54 0,4.21 -3.7,6.79 -8.2,6.79 -4.3,0 -7.2,-3.03 -7.2,-6.24 0,-1.78 1.5,-1.95 1.8,-1.95 0.9,0 1.9,0.59 1.9,1.85 0,0.62 -0.2,1.85 -2.1,1.85 1.1,2.47 3.5,3.24 5.1,3.24 3.5,0 5.3,-2.72 5.3,-5.54 0,-3.04 -2.1,-5.45 -3.3,-6.7 l -8.3,-8.3 c -0.4,-0.31 -0.4,-0.38 -0.4,-1.36 l 14.4,0 z"
         inkscape:connector-curvature="0"
         style="fill:#000000;stroke-width:0" /><path
         id="path3634"
         d="m 1187.1,423.15 0,0 0,0 0,0 -0.1,0 0,0 0,0 0,0 -0.1,0 0,-0.01 0,0 -0.1,0 0,-0.01 0,-0.01 0,0 -0.1,-0.01 0,-0.01 0,-0.01 0,-0.01 -0.1,-0.02 0,-0.01 0,-0.02 0,-0.01 0,-0.02 0,-0.01 -0.1,-0.01 0,-0.02 0,-0.01 0,-0.01 0,-0.01 0,-0.02 0,-0.01 0,-0.01 0,-0.02 0,-0.01 0,-0.02 0,-0.02 0,-0.01 0,-0.02 0,-0.02 0,-0.02 0,-0.02 c 0,-0.17 0.1,-0.28 0.3,-0.52 3,-2.75 6.3,-7.46 6.3,-16.46 0,-7.29 -2.2,-12.79 -6,-16.21 -0.6,-0.59 -0.6,-0.63 -0.6,-0.81 0,-0.17 0.1,-0.41 0.4,-0.41 0.4,0 3.8,2.3 6.1,6.66 1.5,2.89 2.5,6.66 2.5,10.74 0,4.91 -1.5,12.55 -8.4,17.43 z"
         inkscape:connector-curvature="0"
         style="fill:#000000;stroke-width:0" /></g></g><text
     style="font-style:normal;font-variant:normal;font-weight:normal;font-stretch:normal;font-size:10px;line-height:125%;font-family:Helvetica;-inkscape-font-specification:'Helvetica, Normal';text-align:start;writing-mode:lr-tb;text-anchor:start;fill:#000000;fill-opacity:1;fill-rule:nonzero;stroke:none"
     id="text6963"
     x="58.658981"
     y="52.104237"
     sodipodi:linespacing="125%"><tspan
       sodipodi:role="line"
       id="tspan6969"
       x="58.658981"
       y="52.104237">R1</tspan></text>
<text
     sodipodi:linespacing="125%"
     y="52.104237"
     x="189.46822"
     id="text6973"
     style="font-style:normal;font-variant:normal;font-weight:normal;font-stretch:normal;font-size:10px;line-height:125%;font-family:Helvetica;-inkscape-font-specification:'Helvetica, Normal';text-align:start;writing-mode:lr-tb;text-anchor:start;fill:#000000;fill-opacity:1;fill-rule:nonzero;stroke:none"><tspan
       sodipodi:role="line"
       id="tspan6977"
       x="189.46822"
       y="52.104237">R2</tspan></text>
<text
     style="font-style:normal;font-variant:normal;font-weight:normal;font-stretch:normal;font-size:10px;line-height:125%;font-family:Helvetica;-inkscape-font-specification:'Helvetica, Normal';text-align:start;writing-mode:lr-tb;text-anchor:start;fill:#000000;fill-opacity:1;fill-rule:nonzero;stroke:none"
     id="text6979"
     x="173.46822"
     y="26.104237"
     sodipodi:linespacing="125%"><tspan
       sodipodi:role="line"
       id="tspan6983"
       x="173.46822"
       y="26.104237">D2</tspan></text>
<text
     sodipodi:linespacing="125%"
     y="26.104237"
     x="75.468224"
     id="text6985"
     style="font-style:normal;font-variant:normal;font-weight:normal;font-stretch:normal;font-size:10px;line-height:125%;font-family:Helvetica;-inkscape-font-specification:'Helvetica, Normal';text-align:start;writing-mode:lr-tb;text-anchor:start;fill:#000000;fill-opacity:1;fill-rule:nonzero;stroke:none"><tspan
       sodipodi:role="line"
       id="tspan6989"
       x="75.468224"
       y="26.104237">Q1</tspan></text>
</svg>