<?xml version="1.0" encoding="UTF-8" standalone="no"?>
<!-- Generator: Adobe Illustrator 12.0.1, SVG Export Plug-In . SVG Version: 6.00 Build 51448)  -->

<svg
   xmlns:dc="http://purl.org/dc/elements/1.1/"
   xmlns:cc="http://creativecommons.org/ns#"
   xmlns:rdf="http://www.w3.org/1999/02/22-rdf-syntax-ns#"
   xmlns:svg="http://www.w3.org/2000/svg"
   xmlns="http://www.w3.org/2000/svg"
   xmlns:sodipodi="http://sodipodi.sourceforge.net/DTD/sodipodi-0.dtd"
   xmlns:inkscape="http://www.inkscape.org/namespaces/inkscape"
   version="1.1"
   id="Layer_1"
   width="253.23434"
   height="91.884514"
   viewBox="0 0 253.23434 91.884514"
   style="overflow:visible"
   xml:space="preserve"
   inkscape:version="0.91 r13725"
   sodipodi:docname="raceCondition-0.svg"><metadata
     id="metadata175"><rdf:RDF><cc:Work
         rdf:about=""><dc:format>image/svg+xml</dc:format><dc:type
           rdf:resource="http://purl.org/dc/dcmitype/StillImage" /><dc:title></dc:title></cc:Work></rdf:RDF></metadata><defs
     id="defs173" /><sodipodi:namedview
     pagecolor="#ffffff"
     bordercolor="#666666"
     borderopacity="1"
     objecttolerance="10"
     gridtolerance="10"
     guidetolerance="10"
     inkscape:pageopacity="0"
     inkscape:pageshadow="2"
     inkscape:window-width="1855"
     inkscape:window-height="1056"
     id="namedview171"
     showgrid="false"
     inkscape:zoom="2.4803456"
     inkscape:cx="124.45634"
     inkscape:cy="-74.741483"
     inkscape:window-x="1985"
     inkscape:window-y="24"
     inkscape:window-maximized="1"
     inkscape:current-layer="Layer_1"
     fit-margin-left="10"
     fit-margin-bottom="10"
     fit-margin-right="10"
     fit-margin-top="10"
     inkscape:showpageshadow="true" /><g
     id="g4535"
     transform="translate(-7.3500004,-7.874)"><path
       style="fill:#ffffff;stroke:#000000;stroke-width:2"
       d="m 133.35,85.89 12,0 c 17.673,0 32,-14.327 32,-32 0,-17.673 -14.327,-32 -32,-32 l -12,0 0,64 z"
       id="path7"
       inkscape:connector-curvature="0" /><g
       id="g9"><polygon
         style="fill:#ffffff;stroke:#000000;stroke-width:2"
         points="92.599,71.89 68.599,55.89 68.599,87.89 "
         id="polygon11" /><circle
         style="fill:#ffffff;stroke:#000000;stroke-width:2"
         cx="97.292999"
         cy="71.889999"
         r="4.6939998"
         id="circle13" /></g><g
       id="g15"><line
         style="fill:none;stroke:#000000;stroke-width:0.75"
         x1="133.35001"
         y1="35.889999"
         x2="17.35"
         y2="35.889999"
         id="line17" /><line
         style="fill:none;stroke:#000000;stroke-width:0.75"
         x1="101.987"
         y1="71.889999"
         x2="133.35001"
         y2="71.889999"
         id="line19" /><polyline
         style="fill:none;stroke:#000000;stroke-width:0.75"
         points="41.35,35.89 41.35,71.89 68.599,71.89   "
         id="polyline21" /><line
         style="fill:none;stroke:#000000;stroke-width:0.75"
         x1="177.35001"
         y1="53.889999"
         x2="245.35001"
         y2="53.889999"
         id="line23" /></g><g
       id="g25"><path
         d="m 22.558,31.546 c 0.465,-0.116 0.833,-0.331 1.103,-0.646 0.27,-0.315 0.809,-1.158 1.615,-2.531 l 6.134,-10.495 0.461,0 2.015,11.878 c 0.129,0.766 0.282,1.242 0.46,1.43 0.177,0.188 0.555,0.31 1.135,0.364 l 0,0.344 -5.192,0 0,-0.344 c 0.622,-0.062 1.025,-0.136 1.21,-0.225 0.294,-0.137 0.441,-0.402 0.441,-0.798 0,-0.102 -0.004,-0.211 -0.011,-0.326 -0.007,-0.116 -0.017,-0.215 -0.031,-0.297 l -0.443,-2.745 -4.471,0 -1.32,2.355 c -0.089,0.157 -0.167,0.324 -0.236,0.501 -0.116,0.313 -0.174,0.576 -0.174,0.787 0,0.267 0.091,0.454 0.271,0.562 0.182,0.109 0.504,0.171 0.969,0.185 l 0,0.344 -3.936,0 0,-0.343 z m 8.775,-5.141 -0.878,-5.444 -3.051,5.444 3.929,0 z"
         id="path27"
         inkscape:connector-curvature="0" /></g><g
       transform="translate(-4,0)"
       id="g29"><path
         d="m 189.51,49.545 c 0.465,-0.116 0.833,-0.331 1.103,-0.646 0.27,-0.315 0.809,-1.158 1.615,-2.531 l 6.134,-10.495 0.461,0 2.015,11.878 c 0.129,0.766 0.282,1.242 0.46,1.43 0.177,0.188 0.555,0.31 1.135,0.364 l 0,0.344 -5.192,0 0,-0.344 c 0.622,-0.062 1.025,-0.136 1.21,-0.225 0.294,-0.137 0.441,-0.402 0.441,-0.798 0,-0.102 -0.004,-0.211 -0.011,-0.326 -0.007,-0.116 -0.017,-0.215 -0.031,-0.297 l -0.443,-2.745 -4.471,0 -1.32,2.355 c -0.089,0.157 -0.167,0.324 -0.236,0.501 -0.116,0.313 -0.174,0.576 -0.174,0.787 0,0.267 0.091,0.454 0.271,0.562 0.182,0.109 0.504,0.171 0.969,0.185 l 0,0.344 -3.936,0 0,-0.343 z m 8.776,-5.141 -0.878,-5.443 -3.051,5.443 3.929,0 z"
         id="path31"
         inkscape:connector-curvature="0" /></g><g
       id="g53"><g
         id="g55"><path
           d="m 109.185,67.546 c 0.465,-0.116 0.833,-0.331 1.103,-0.646 0.27,-0.315 0.809,-1.158 1.615,-2.531 l 6.134,-10.495 0.461,0 2.015,11.878 c 0.129,0.766 0.282,1.242 0.46,1.43 0.177,0.188 0.555,0.31 1.135,0.364 l 0,0.344 -5.192,0 0,-0.344 c 0.622,-0.062 1.025,-0.136 1.21,-0.225 0.294,-0.137 0.441,-0.402 0.441,-0.798 0,-0.102 -0.004,-0.211 -0.011,-0.326 -0.007,-0.116 -0.017,-0.215 -0.031,-0.297 l -0.443,-2.745 -4.471,0 -1.32,2.355 c -0.089,0.157 -0.167,0.324 -0.236,0.501 -0.116,0.313 -0.174,0.576 -0.174,0.787 0,0.267 0.091,0.454 0.271,0.562 0.182,0.109 0.504,0.171 0.969,0.185 l 0,0.344 -3.936,0 0,-0.343 z m 8.776,-5.141 -0.878,-5.444 -3.051,5.444 3.929,0 z"
           id="path57"
           inkscape:connector-curvature="0" /></g><g
         id="g59"><path
           d="m 111.229,48.952 10.551,0 -0.195,0.969 -10.551,0 0.195,-0.969 z"
           id="path61"
           inkscape:connector-curvature="0" /></g></g><g
       transform="translate(10.80634,0)"
       id="g63"><g
         id="g65"><path
           d="m 226.855,49.545 c 0.465,-0.116 0.833,-0.331 1.103,-0.646 0.27,-0.315 0.809,-1.158 1.615,-2.531 l 6.134,-10.495 0.461,0 2.015,11.878 c 0.129,0.766 0.282,1.242 0.46,1.43 0.177,0.188 0.555,0.31 1.135,0.364 l 0,0.344 -5.192,0 0,-0.344 c 0.622,-0.062 1.025,-0.136 1.21,-0.225 0.294,-0.137 0.441,-0.402 0.441,-0.798 0,-0.102 -0.004,-0.211 -0.011,-0.326 -0.007,-0.116 -0.017,-0.215 -0.031,-0.297 l -0.443,-2.745 -4.471,0 -1.32,2.355 c -0.089,0.157 -0.167,0.324 -0.236,0.501 -0.116,0.313 -0.174,0.576 -0.174,0.787 0,0.267 0.091,0.454 0.271,0.562 0.182,0.109 0.504,0.171 0.969,0.185 l 0,0.344 -3.936,0 0,-0.343 z m 8.776,-5.141 -0.878,-5.444 -3.051,5.444 3.929,0 z"
           id="path67"
           inkscape:connector-curvature="0" /></g><g
         id="g69"><path
           d="m 228.9,30.951 10.551,0 -0.195,0.969 -10.551,0 0.195,-0.969 z"
           id="path71"
           inkscape:connector-curvature="0" /></g></g><text
       sodipodi:linespacing="125%"
       id="text4531"
       y="49.295372"
       x="203.97214"
       style="font-style:normal;font-weight:normal;font-size:30px;line-height:125%;font-family:sans-serif;letter-spacing:0px;word-spacing:0px;fill:#000000;fill-opacity:1;stroke:none;stroke-width:1px;stroke-linecap:butt;stroke-linejoin:miter;stroke-opacity:1"
       xml:space="preserve"><tspan
         style="font-size:15px"
         y="49.295372"
         x="203.97214"
         id="tspan4533"
         sodipodi:role="line">and</tspan></text>
</g></svg>