<?xml version="1.0" encoding="UTF-8" standalone="no"?>
<!-- Created with Inkscape (http://www.inkscape.org/) -->

<svg
   xmlns:dc="http://purl.org/dc/elements/1.1/"
   xmlns:cc="http://creativecommons.org/ns#"
   xmlns:rdf="http://www.w3.org/1999/02/22-rdf-syntax-ns#"
   xmlns:svg="http://www.w3.org/2000/svg"
   xmlns="http://www.w3.org/2000/svg"
   xmlns:sodipodi="http://sodipodi.sourceforge.net/DTD/sodipodi-0.dtd"
   xmlns:inkscape="http://www.inkscape.org/namespaces/inkscape"
   width="224.60883mm"
   height="222.45605mm"
   viewBox="0 0 795.85804 788.23011"
   id="svg7605"
   version="1.1"
   inkscape:version="0.91 r13725"
   sodipodi:docname="diagramaEstadosSequenciaSimples.svg">
  <defs
     id="defs7607" />
  <sodipodi:namedview
     id="base"
     pagecolor="#ffffff"
     bordercolor="#666666"
     borderopacity="1.0"
     inkscape:pageopacity="0.0"
     inkscape:pageshadow="2"
     inkscape:zoom="1.056798"
     inkscape:cx="397.92902"
     inkscape:cy="394.11506"
     inkscape:document-units="px"
     inkscape:current-layer="layer1"
     showgrid="false"
     fit-margin-top="10"
     fit-margin-left="10"
     fit-margin-right="10"
     fit-margin-bottom="10"
     inkscape:window-width="1920"
     inkscape:window-height="1031"
     inkscape:window-x="1920"
     inkscape:window-y="30"
     inkscape:window-maximized="1"
     inkscape:showpageshadow="false" />
  <metadata
     id="metadata7610">
    <rdf:RDF>
      <cc:Work
         rdf:about="">
        <dc:format>image/svg+xml</dc:format>
        <dc:type
           rdf:resource="http://purl.org/dc/dcmitype/StillImage" />
        <dc:title></dc:title>
      </cc:Work>
    </rdf:RDF>
  </metadata>
  <g
     inkscape:label="Calque 1"
     inkscape:groupmode="layer"
     id="layer1"
     transform="translate(707.15397,267.70585)">
    <flowRoot
       xml:space="preserve"
       id="flowRoot8751"
       style="font-style:normal;font-weight:normal;font-size:40px;line-height:125%;font-family:sans-serif;letter-spacing:0px;word-spacing:0px;fill:#000000;fill-opacity:1;stroke:none;stroke-width:1px;stroke-linecap:butt;stroke-linejoin:miter;stroke-opacity:1"><flowRegion
         id="flowRegion8753"><rect
           id="rect8755"
           width="122"
           height="78"
           x="-1030"
           y="171.36221" /></flowRegion><flowPara
         id="flowPara8757" /></flowRoot>    <path
       inkscape:connector-curvature="0"
       id="path7825"
       style="fill:none;stroke:#000000;stroke-width:5;stroke-linecap:round;stroke-linejoin:round;stroke-miterlimit:4;stroke-dasharray:none;stroke-opacity:1"
       d="m -204.56119,377.92744 c 0,-13.69875 -2.72375,-27.3975 -7.96625,-40.05375 -5.2425,-12.655 -13.0025,-24.26875 -22.6888,-33.955 -9.6862,-9.68625 -21.3,-17.44625 -33.955,-22.68875 -12.6562,-5.2425 -26.355,-7.96625 -40.0537,-7.96625 -13.6988,0 -27.3975,2.72375 -40.0538,7.96625 -12.655,5.2425 -24.2687,13.0025 -33.955,22.68875 -9.6862,9.68625 -17.4462,21.3 -22.6887,33.955 -5.2425,12.65625 -7.9663,26.355 -7.9663,40.05375 0,13.69875 2.7238,27.3975 7.9663,40.05375 5.2425,12.655 13.0025,24.26875 22.6887,33.955 9.6863,9.68625 21.3,17.44625 33.955,22.68875 12.6563,5.2425 26.355,7.96625 40.0538,7.96625 13.6987,0 27.3975,-2.72375 40.0537,-7.96625 12.655,-5.2425 24.2688,-13.0025 33.955,-22.68875 9.6863,-9.68625 17.4463,-21.3 22.6888,-33.955 5.2425,-12.65625 7.96625,-26.355 7.96625,-40.05375 z" />
    <text
       xml:space="preserve"
       style="font-style:normal;font-weight:normal;font-size:40px;line-height:125%;font-family:sans-serif;letter-spacing:0px;word-spacing:0px;fill:#000000;fill-opacity:1;stroke:none;stroke-width:1px;stroke-linecap:butt;stroke-linejoin:miter;stroke-opacity:1"
       x="-344.83203"
       y="401.77011"
       id="text8743-6"
       sodipodi:linespacing="125%"><tspan
         sodipodi:role="line"
         id="tspan8745-84"
         x="-344.83203"
         y="401.77011"
         style="font-style:normal;font-variant:normal;font-weight:bold;font-stretch:normal;font-size:80px;font-family:Arial;-inkscape-font-specification:'Arial Bold'">S</tspan></text>
    <text
       xml:space="preserve"
       style="font-style:normal;font-weight:normal;font-size:40px;line-height:125%;font-family:sans-serif;letter-spacing:0px;word-spacing:0px;fill:#000000;fill-opacity:1;stroke:none;stroke-width:1px;stroke-linecap:butt;stroke-linejoin:miter;stroke-opacity:1"
       x="-296.83203"
       y="414.77011"
       id="text8747-1"
       sodipodi:linespacing="125%"><tspan
         sodipodi:role="line"
         id="tspan8749-3"
         x="-296.83203"
         y="414.77011"
         style="font-style:normal;font-variant:normal;font-weight:bold;font-stretch:normal;font-family:sans-serif;-inkscape-font-specification:'sans-serif Bold'">0</tspan></text>
    <path
       inkscape:connector-curvature="0"
       id="path7827"
       style="fill:none;stroke:#000000;stroke-width:5;stroke-linecap:round;stroke-linejoin:round;stroke-miterlimit:4;stroke-dasharray:none;stroke-opacity:1"
       d="m -106.21994,-154.97006 c -11.86375,6.84875 -22.365,16.0575 -30.70375,26.92625 -8.34,10.8675 -14.5175,23.39375 -18.0625,36.626247 -3.545,13.23125 -4.45875,27.16875 -2.67125,40.75 1.78875,13.58125 6.2775,26.8075 13.1275,38.67125 6.84875,11.86375 16.05875,22.36375 26.92625,30.70375 10.8675,8.33875 23.395,14.51625 36.62625,18.06125 13.2325,3.54625 27.16875,4.46 40.75125,2.67125 13.58125,-1.7875 26.80625,-6.2775 38.67,-13.12625 11.86375,-6.85 22.365,-16.05875 30.70375,-26.92625 8.33875,-10.86875 14.51625,-23.395 18.0625,-36.6275 3.545,-13.23125 4.45875,-27.16875 2.67,-40.75 -1.7875,-13.58125 -6.2775,-26.807497 -13.12625,-38.671247 -6.85,-11.8625 -16.05875,-22.36375 -26.92625,-30.7025 -10.8675,-8.34 -23.395,-14.5175 -36.62625,-18.0625 -13.2325,-3.54625 -27.17,-4.45875 -40.75125,-2.67125 -13.58125,1.7875 -26.8075,6.2775 -38.67,13.1275 z" />
    <path
       inkscape:connector-curvature="0"
       id="path7829"
       style="fill:none;stroke:#000000;stroke-width:5;stroke-linecap:round;stroke-linejoin:round;stroke-miterlimit:4;stroke-dasharray:none;stroke-opacity:1"
       d="m -616.89374,26.313687 c 11.8638,6.84875 25.0888,11.33875 38.67,13.12625 13.5825,1.78875 27.5188,0.875 40.7513,-2.67125 13.2312,-3.545 25.7587,-9.7225 36.6262,-18.06125 10.8675,-8.34 20.0775,-18.84 26.9263,-30.70375 6.85,-11.86375 11.3387,-25.09 13.1275,-38.67125 1.7875,-13.58125 0.8737,-27.51875 -2.6713,-40.75 -3.545,-13.232497 -9.7225,-25.758747 -18.0625,-36.626247 -8.3387,-10.86875 -18.84,-20.0775 -30.7037,-26.92625 -11.8625,-6.85 -25.0888,-11.34 -38.67,-13.1275 -13.5813,-1.7875 -27.5188,-0.875 -40.7513,2.67125 -13.2312,3.545 -25.7587,9.7225 -36.6262,18.0625 -10.8675,8.33875 -20.0763,18.84 -26.9263,30.7025 -6.8487,11.86375 -11.3387,25.089997 -13.1262,38.671247 -1.7888,13.58125 -0.875,27.51875 2.67,40.75 3.5462,13.2325 9.7237,25.75875 18.0625,36.6275 8.3387,10.8675 18.84,20.07625 30.7037,26.92625 z" />
    <path
       inkscape:connector-curvature="0"
       id="path7835"
       style="fill:#000000;fill-opacity:1;stroke:#000000;stroke-width:5;stroke-linecap:round;stroke-linejoin:round;stroke-miterlimit:4;stroke-dasharray:none;stroke-opacity:1"
       d="m -128.93066,-172.62131 -9.1725,-23.18 -17.8087,20.31625 26.9812,2.86375 z" />
    <path
       inkscape:connector-curvature="0"
       id="path7837"
       style="fill:none;stroke:#000000;stroke-width:5;stroke-linecap:round;stroke-linejoin:round;stroke-miterlimit:4;stroke-dasharray:none;stroke-opacity:1"
       d="m -489.46066,-172.62131 c 24.5575,-17.31125 51.78875,-31.14125 80.38625,-40.78125 28.59755,-9.64 58.55875,-15.09125 88.67755,-16.17 30.1187,-1.08 60.3937,2.21375 89.6075,9.7825 29.2137,7.57 57.365,19.415 83.0987,34.925" />
    <path
       inkscape:connector-curvature="0"
       id="path7839"
       style="fill:#000000;fill-opacity:1;stroke:#000000;stroke-width:5;stroke-linecap:round;stroke-linejoin:round;stroke-miterlimit:4;stroke-dasharray:none;stroke-opacity:1"
       d="m -620.80994,54.831187 -15.4888,19.53375 26.5,5.265 -11.0112,-24.79875 z" />
    <text
       xml:space="preserve"
       style="font-style:normal;font-weight:normal;font-size:40px;line-height:125%;font-family:sans-serif;letter-spacing:0px;word-spacing:0px;fill:#000000;fill-opacity:1;stroke:none;stroke-width:1px;stroke-linecap:butt;stroke-linejoin:miter;stroke-opacity:1"
       x="-91.274422"
       y="-43.093636"
       id="text8743"
       sodipodi:linespacing="125%"><tspan
         sodipodi:role="line"
         id="tspan8745"
         x="-91.274422"
         y="-43.093636"
         style="font-style:normal;font-variant:normal;font-weight:bold;font-stretch:normal;font-size:80px;font-family:Arial;-inkscape-font-specification:'Arial Bold'">S</tspan></text>
    <text
       xml:space="preserve"
       style="font-style:normal;font-weight:normal;font-size:40px;line-height:125%;font-family:sans-serif;letter-spacing:0px;word-spacing:0px;fill:#000000;fill-opacity:1;stroke:none;stroke-width:1px;stroke-linecap:butt;stroke-linejoin:miter;stroke-opacity:1"
       x="-43.274422"
       y="-30.09363"
       id="text8747"
       sodipodi:linespacing="125%"><tspan
         sodipodi:role="line"
         id="tspan8749"
         x="-43.274422"
         y="-30.09363"
         style="font-style:normal;font-variant:normal;font-weight:bold;font-stretch:normal;font-family:sans-serif;-inkscape-font-specification:'sans-serif Bold'">2</tspan></text>
    <text
       xml:space="preserve"
       style="font-style:normal;font-weight:normal;font-size:40px;line-height:125%;font-family:sans-serif;letter-spacing:0px;word-spacing:0px;fill:#000000;fill-opacity:1;stroke:none;stroke-width:1px;stroke-linecap:butt;stroke-linejoin:miter;stroke-opacity:1"
       x="-603.83203"
       y="-44.229897"
       id="text8743-3"
       sodipodi:linespacing="125%"><tspan
         sodipodi:role="line"
         id="tspan8745-8"
         x="-603.83203"
         y="-44.229897"
         style="font-style:normal;font-variant:normal;font-weight:bold;font-stretch:normal;font-size:80px;font-family:Arial;-inkscape-font-specification:'Arial Bold'">S</tspan></text>
    <text
       xml:space="preserve"
       style="font-style:normal;font-weight:normal;font-size:40px;line-height:125%;font-family:sans-serif;letter-spacing:0px;word-spacing:0px;fill:#000000;fill-opacity:1;stroke:none;stroke-width:1px;stroke-linecap:butt;stroke-linejoin:miter;stroke-opacity:1"
       x="-555.83203"
       y="-31.229897"
       id="text8747-6"
       sodipodi:linespacing="125%"><tspan
         sodipodi:role="line"
         id="tspan8749-6"
         x="-555.83203"
         y="-31.229897"
         style="font-style:normal;font-variant:normal;font-weight:bold;font-stretch:normal;font-family:sans-serif;-inkscape-font-specification:'sans-serif Bold'">1</tspan></text>
    <path
       inkscape:connector-curvature="0"
       id="path7841"
       style="fill:none;stroke:#000000;stroke-width:5;stroke-linecap:round;stroke-linejoin:round;stroke-miterlimit:4;stroke-dasharray:none;stroke-opacity:1"
       d="m -440.54374,367.05994 c -27.2725,-12.61125 -52.865,-29.28 -75.5125,-49.22625 -22.6475,-19.945 -42.3487,-43.1675 -58.3425,-68.71125 -15.9937,-25.545 -28.28,-53.41 -36.3312,-82.495 -8.0513,-29.08375 -11.8688,-59.38625 -11.3038,-89.427503" />
    <path
       d="m -196.2662,344.72702 c 27.2725,-12.61125 52.865,-29.28 75.5125,-49.22625 22.647501,-19.945 42.348701,-43.1675 58.342501,-68.71125 15.9937,-25.545 28.28,-53.41 36.3312,-82.495 8.0513,-29.08375 11.8688,-59.386254 11.3038,-89.427504"
       style="fill:none;stroke:#000000;stroke-width:5;stroke-linecap:round;stroke-linejoin:round;stroke-miterlimit:4;stroke-dasharray:none;stroke-opacity:1"
       id="path4263"
       inkscape:connector-curvature="0" />
    <path
       inkscape:connector-curvature="0"
       id="path4265"
       style="fill:#000000;fill-opacity:1;stroke:#000000;stroke-width:5;stroke-linecap:round;stroke-linejoin:round;stroke-miterlimit:4;stroke-dasharray:none;stroke-opacity:1"
       d="m -173.30257,346.4543 -12.30916,-21.67843 -14.8087,22.59807 27.11786,-0.91964 z" />
  </g>
</svg>
