<?xml version="1.0" encoding="UTF-8" standalone="no"?>
<!-- Created with Inkscape (http://www.inkscape.org/) -->

<svg
   xmlns:dc="http://purl.org/dc/elements/1.1/"
   xmlns:cc="http://creativecommons.org/ns#"
   xmlns:rdf="http://www.w3.org/1999/02/22-rdf-syntax-ns#"
   xmlns:svg="http://www.w3.org/2000/svg"
   xmlns="http://www.w3.org/2000/svg"
   xmlns:sodipodi="http://sodipodi.sourceforge.net/DTD/sodipodi-0.dtd"
   xmlns:inkscape="http://www.inkscape.org/namespaces/inkscape"
   id="svg2"
   version="1.1"
   inkscape:version="0.91 r13725"
   xml:space="preserve"
   width="554.59375"
   height="573.96875"
   viewBox="0 0 554.59375 573.96875"
   sodipodi:docname="estadosMEF.svg"><metadata
     id="metadata8"><rdf:RDF><cc:Work
         rdf:about=""><dc:format>image/svg+xml</dc:format><dc:type
           rdf:resource="http://purl.org/dc/dcmitype/StillImage" /><dc:title></dc:title></cc:Work></rdf:RDF></metadata><defs
     id="defs6" /><sodipodi:namedview
     pagecolor="#ffffff"
     bordercolor="#666666"
     borderopacity="1"
     objecttolerance="10"
     gridtolerance="10"
     guidetolerance="10"
     inkscape:pageopacity="0"
     inkscape:pageshadow="2"
     inkscape:window-width="1855"
     inkscape:window-height="1056"
     id="namedview4"
     showgrid="false"
     inkscape:showpageshadow="false"
     inkscape:zoom="1.589677"
     inkscape:cx="277.29999"
     inkscape:cy="312.14986"
     inkscape:window-x="1985"
     inkscape:window-y="24"
     inkscape:window-maximized="1"
     inkscape:current-layer="g10"
     fit-margin-top="8"
     fit-margin-left="8"
     fit-margin-bottom="8"
     fit-margin-right="8" /><g
     id="g10"
     inkscape:groupmode="layer"
     inkscape:label="ink_ext_XXXXXX"
     transform="matrix(1.25,0,0,-1.25,8,565.96875)"><text
       transform="scale(1,-1)"
       style="font-variant:normal;font-weight:normal;font-size:8px;font-family:Helvetica;-inkscape-font-specification:Helvetica;writing-mode:lr-tb;fill:#000000;fill-opacity:1;fill-rule:nonzero;stroke:none"
       id="text16"
       x="361.556"
       y="-267.10001"><tspan
         x="361.556 366.892 372.668 380.22 382.99625 384.77222 386.99625"
         y="-267.10001"
         sodipodi:role="line"
         id="tspan18">PCWrite</tspan><tspan
         x="349.26419 354.60019 360.37619 365.71219 370.16019 374.60822 377.27219 381.27219 385.72021 387.94421 392.61621 394.84021 399.28821"
         y="-257.5"
         sodipodi:role="line"
         id="tspan20">PCSource = 10</tspan></text>
<path
       inkscape:connector-curvature="0"
       id="path22"
       style="fill:none;stroke:#231f20;stroke-width:1;stroke-linecap:butt;stroke-linejoin:miter;stroke-miterlimit:4;stroke-dasharray:none;stroke-opacity:1"
       d="m 292.5,228 c 19.882,0 36,16.118 36,36 0,19.882 -16.118,36 -36,36 -19.882,0 -36,-16.118 -36,-36 0,-19.882 16.118,-36 36,-36 z" /><text
       transform="scale(1,-1)"
       style="font-variant:normal;font-weight:normal;font-size:8px;font-family:Helvetica;-inkscape-font-specification:Helvetica;writing-mode:lr-tb;fill:#000000;fill-opacity:1;fill-rule:nonzero;stroke:none"
       id="text26"
       x="269.26801"
       y="-281.5"><tspan
         x="269.26801 274.604 279.052 284.828 290.164 292.828 296.828 302.164 304.388 309.06 311.284"
         y="-281.5"
         sodipodi:role="line"
         id="tspan28">ALUSrcA = 1</tspan><tspan
         x="267.04416 272.38016 276.82816 282.60416 287.94019 290.60416 294.60416 299.94019 302.16418 306.83618 309.06018 313.50818"
         y="-271.89999"
         sodipodi:role="line"
         id="tspan30">ALUSrcB = 00</tspan><tspan
         x="270.37619 275.71219 280.16019 285.93619 292.16019 296.60822 298.83221 303.50421 305.72821 310.17621"
         y="-262.29999"
         sodipodi:role="line"
         id="tspan32">ALUOp = 01</tspan><tspan
         x="267.99612 273.33212 279.10812 286.66013 289.43597 291.21198 293.43597 297.88397 303.65997 308.10797 312.55597"
         y="-252.7"
         sodipodi:role="line"
         id="tspan34">PCWriteCond</tspan><tspan
         x="265.2641 270.6001 276.3761 281.7121 286.1601 290.60809 293.27209 297.27209 301.72009 303.94409 308.61609 310.84009 315.28809"
         y="-243.10001"
         sodipodi:role="line"
         id="tspan36">PCSource = 01</tspan></text>
<path
       inkscape:connector-curvature="0"
       id="path38"
       style="fill:none;stroke:#231f20;stroke-width:1;stroke-linecap:butt;stroke-linejoin:miter;stroke-miterlimit:4;stroke-dasharray:none;stroke-opacity:1"
       d="m 209.556,227.912 c 19.882,0 36,16.118 36,36 0,19.882 -16.118,36 -36,36 -19.882,0 -36,-16.118 -36,-36 0,-19.882 16.118,-36 36,-36 z" /><text
       transform="scale(1,-1)"
       style="font-variant:normal;font-weight:normal;font-size:8px;font-family:Helvetica;-inkscape-font-specification:Helvetica;writing-mode:lr-tb;fill:#000000;fill-opacity:1;fill-rule:nonzero;stroke:none"
       id="text42"
       x="185.213"
       y="-270.255"><tspan
         x="185.213 190.549 194.99699 200.77299 206.10899 208.77299 212.77299 218.10899 220.33214 225.00415 227.22815"
         y="-270.255"
         sodipodi:role="line"
         id="tspan44">ALUSrcA = 1</tspan><tspan
         x="182.98917 188.32516 192.77316 198.54916 203.88518 206.54916 210.54916 215.88518 218.10918 222.78117 225.00517 229.45317"
         y="-260.655"
         sodipodi:role="line"
         id="tspan46">ALUSrcB = 00</tspan><tspan
         x="186.32002 191.65604 196.10403 201.88004 208.10403 212.55203 214.77603 219.44803 221.67203 226.12003"
         y="-251.05499"
         sodipodi:role="line"
         id="tspan48">ALUOp = 10</tspan></text>
<path
       inkscape:connector-curvature="0"
       id="path50"
       style="fill:none;stroke:#231f20;stroke-width:1;stroke-linecap:butt;stroke-linejoin:miter;stroke-miterlimit:4;stroke-dasharray:none;stroke-opacity:1"
       d="m 208.5,108 c 19.882,0 36,16.118 36,36 0,19.882 -16.118,36 -36,36 -19.882,0 -36,-16.118 -36,-36 0,-19.882 16.118,-36 36,-36 z" /><text
       transform="scale(1,-1)"
       style="font-variant:normal;font-weight:normal;font-size:8px;font-family:Helvetica;-inkscape-font-specification:Helvetica;writing-mode:lr-tb;fill:#000000;fill-opacity:1;fill-rule:nonzero;stroke:none"
       id="text54"
       x="189.38"
       y="-152.5"><tspan
         x="189.38 195.15601 199.604 204.052 209.828 213.828 216.052 218.276 222.948 225.172"
         y="-152.5"
         sodipodi:role="line"
         id="tspan56">RegDst = 1</tspan><tspan
         x="192.83195 198.60796 203.05595 207.50395 215.05595 217.71996 219.49596 221.71996"
         y="-142.89999"
         sodipodi:role="line"
         id="tspan58">RegWrite</tspan><tspan
         x="183.15578 189.81978 194.26778 200.93178 203.15578 207.60378 213.37978 217.82777 222.27577 224.49979 229.17178 231.39578"
         y="-133.3"
         sodipodi:role="line"
         id="tspan60">MemtoReg = 0</tspan></text>
<path
       inkscape:connector-curvature="0"
       id="path62"
       style="fill:none;stroke:#231f20;stroke-width:1;stroke-linecap:butt;stroke-linejoin:miter;stroke-miterlimit:4;stroke-dasharray:none;stroke-opacity:1"
       d="m 124.5,108 c 19.882,0 36,16.118 36,36 0,19.882 -16.118,36 -36,36 -19.882,0 -36,-16.118 -36,-36 0,-19.882 16.118,-36 36,-36 z" /><text
       transform="scale(1,-1)"
       style="font-variant:normal;font-weight:normal;font-size:8px;font-family:Helvetica;-inkscape-font-specification:Helvetica;writing-mode:lr-tb;fill:#000000;fill-opacity:1;fill-rule:nonzero;stroke:none"
       id="text66"
       x="106.28"
       y="-146"><tspan
         x="106.28 112.944 117.392 124.056 131.608 134.272 136.048 138.272"
         y="-146"
         sodipodi:role="line"
         id="tspan68">MemWrite</tspan><tspan
         x="110.16008 112.38408 116.83208 119.49608 125.27208 127.49608 132.16808 134.39207"
         y="-136.39999"
         sodipodi:role="line"
         id="tspan70">IorD = 1</tspan></text>
<path
       inkscape:connector-curvature="0"
       id="path72"
       style="fill:none;stroke:#231f20;stroke-width:1;stroke-linecap:butt;stroke-linejoin:miter;stroke-miterlimit:4;stroke-dasharray:none;stroke-opacity:1"
       d="m 40.5559,108.287 c 19.8816,0 36,16.118 36,36 0,19.882 -16.1184,36 -36,36 -19.8821,0 -36.00043,-16.118 -36.00043,-36 0,-19.882 16.11833,-36 36.00043,-36 z" /><text
       transform="scale(1,-1)"
       style="font-variant:normal;font-weight:normal;font-size:8px;font-family:Helvetica;-inkscape-font-specification:Helvetica;writing-mode:lr-tb;fill:#000000;fill-opacity:1;fill-rule:nonzero;stroke:none"
       id="text76"
       x="20.9965"
       y="-145.88"><tspan
         x="20.9965 27.6605 32.108501 38.772499 44.5485 48.996498 53.4445"
         y="-145.88"
         sodipodi:role="line"
         id="tspan78">MemRead</tspan><tspan
         x="25.104309 27.32831 31.77631 34.440311 40.216309 42.440308 47.112309 49.336308"
         y="-136.28"
         sodipodi:role="line"
         id="tspan80">IorD = 1</tspan></text>
<path
       inkscape:connector-curvature="0"
       id="path82"
       style="fill:none;stroke:#231f20;stroke-width:1;stroke-linecap:butt;stroke-linejoin:miter;stroke-miterlimit:4;stroke-dasharray:none;stroke-opacity:1"
       d="m 41.5559,230.912 c 19.8816,0 36,16.118 36,36 0,19.882 -16.1184,36 -36,36 -19.8821,0 -36.00043,-16.118 -36.00043,-36 0,-19.882 16.11833,-36 36.00043,-36 z" /><text
       transform="scale(1,-1)"
       style="font-variant:normal;font-weight:normal;font-size:8px;font-family:Helvetica;-inkscape-font-specification:Helvetica;writing-mode:lr-tb;fill:#000000;fill-opacity:1;fill-rule:nonzero;stroke:none"
       id="text86"
       x="17.2125"
       y="-273.58801"><tspan
         x="17.2125 22.5485 26.9965 32.772499 38.108501 40.772499 44.772499 50.108501 52.3325 57.004501 59.2285"
         y="-273.58801"
         sodipodi:role="line"
         id="tspan88">ALUSrcA = 1</tspan><tspan
         x="14.98867 20.324671 24.772671 30.54867 35.88467 38.548672 42.548672 47.88467 50.108673 54.78067 57.004673 61.452671"
         y="-263.98801"
         sodipodi:role="line"
         id="tspan90">ALUSrcB = 10</tspan><tspan
         x="18.320311 23.656309 28.104311 33.88031 40.104309 44.552311 46.77631 51.448311 53.67231 58.120312"
         y="-254.388"
         sodipodi:role="line"
         id="tspan92">ALUOp = 00</tspan><tspan
         x="21.06015 26.836149 31.284149 35.732151 41.508152 45.508152 47.732151 49.95615 54.948151 57.492092"
         y="-49.500004"
         sodipodi:role="line"
         id="tspan94">RegDst = 0</tspan><tspan
         x="24.832029 30.60803 35.05603 39.504032 47.05603 49.720032 51.496033 53.720032"
         y="-40.000004"
         sodipodi:role="line"
         id="tspan96">RegWrite</tspan><tspan
         x="15.15625 21.82025 26.26825 32.932251 35.15625 39.604252 45.380249 49.828251 54.276253 56.500252 61.172253 63.396252"
         y="-30.500002"
         sodipodi:role="line"
         id="tspan98">MemtoReg = 1</tspan></text>
<path
       inkscape:connector-curvature="0"
       id="path100"
       style="fill:none;stroke:#231f20;stroke-width:1;stroke-linecap:butt;stroke-linejoin:miter;stroke-miterlimit:4;stroke-dasharray:none;stroke-opacity:1"
       d="m 40.5,0.5 c 22.0906,0 40,17.909 40,40 0,22.0922 -17.9094,40 -40,40 -22.0914,0 -40,-17.9078 -40,-40 0,-22.091 17.9086,-40 40,-40 z" /><path
       inkscape:connector-curvature="0"
       id="path102"
       style="fill:none;stroke:#231f20;stroke-width:0.75;stroke-linecap:butt;stroke-linejoin:miter;stroke-miterlimit:4;stroke-dasharray:none;stroke-opacity:1"
       d="m 376.5,348 0,-44.747" /><path
       inkscape:connector-curvature="0"
       id="path104"
       style="fill:#000000;fill-opacity:1;fill-rule:nonzero;stroke:none"
       d="m 377.461,304.664 c 0.468,1.55 0.899,2.557 1.398,3.8 l -4.729,0 c 0.212,-0.444 0.931,-2.25 1.398,-3.8 0.502,-1.659 0.845,-3.164 0.967,-4.139 0.122,0.975 0.465,2.48 0.966,4.139" /><path
       inkscape:connector-curvature="0"
       id="path106"
       style="fill:none;stroke:#231f20;stroke-width:0.75;stroke-linecap:butt;stroke-linejoin:miter;stroke-miterlimit:4;stroke-dasharray:none;stroke-opacity:1"
       d="M 342.743,371.47 82.3145,276.906" /><path
       inkscape:connector-curvature="0"
       id="path108"
       style="fill:#000000;fill-opacity:1;fill-rule:nonzero;stroke:none"
       d="m 81.3816,275.421 c 1.6172,0.089 2.7114,0.028 4.0504,-0.017 l -1.6144,4.445 c -0.3457,-0.35 -1.7981,-1.643 -3.0949,-2.612 -1.3883,-1.037 -2.6852,-1.873 -3.5606,-2.321 0.959,0.218 2.4899,0.41 4.2195,0.505" /><path
       inkscape:connector-curvature="0"
       id="path110"
       style="fill:none;stroke:#231f20;stroke-width:0.75;stroke-linecap:butt;stroke-linejoin:miter;stroke-miterlimit:4;stroke-dasharray:none;stroke-opacity:1"
       d="M 350.048,359.542 230.689,299.656" /><path
       inkscape:connector-curvature="0"
       id="path112"
       style="fill:#000000;fill-opacity:1;fill-rule:nonzero;stroke:none"
       d="m 229.079,297.852 c 1.595,0.276 2.69,0.341 4.025,0.453 l -2.12,4.228 c -0.302,-0.389 -1.594,-1.841 -2.771,-2.953 -1.259,-1.192 -2.449,-2.172 -3.267,-2.718 0.927,0.327 2.425,0.695 4.133,0.99" /><path
       inkscape:connector-curvature="0"
       id="path114"
       style="fill:none;stroke:#231f20;stroke-width:0.75;stroke-linecap:butt;stroke-linejoin:miter;stroke-miterlimit:4;stroke-dasharray:none;stroke-opacity:1"
       d="m 361.729,351.115 -44.29,-52.459" /><path
       inkscape:connector-curvature="0"
       id="path116"
       style="fill:#000000;fill-opacity:1;fill-rule:nonzero;stroke:none"
       d="m 316.856,296.321 c 1.358,0.882 2.337,1.374 3.521,2.002 l -3.613,3.051 c -0.125,-0.477 -0.742,-2.32 -1.384,-3.806 -0.688,-1.591 -1.396,-2.962 -1.932,-3.786 0.723,0.667 1.955,1.595 3.408,2.539" /><path
       inkscape:connector-curvature="0"
       id="path118"
       style="fill:none;stroke:#231f20;stroke-width:1;stroke-linecap:butt;stroke-linejoin:miter;stroke-miterlimit:4;stroke-dasharray:none;stroke-opacity:1"
       d="m 376.5,228 c 19.882,0 36,16.118 36,36 0,19.882 -16.118,36 -36,36 -19.882,0 -36,-16.118 -36,-36 0,-19.882 16.118,-36 36,-36 z" /><path
       inkscape:connector-curvature="0"
       id="path120"
       style="fill:none;stroke:#231f20;stroke-width:0.75;stroke-linecap:butt;stroke-linejoin:miter;stroke-miterlimit:4;stroke-dasharray:none;stroke-opacity:1"
       d="m 208.5,228 0,-40.969" /><path
       inkscape:connector-curvature="0"
       id="path122"
       style="fill:#000000;fill-opacity:1;fill-rule:nonzero;stroke:none"
       d="m 209.461,184.705 c 0.468,1.551 0.899,2.559 1.398,3.801 l -4.729,0 c 0.212,-0.444 0.931,-2.25 1.399,-3.801 0.501,-1.658 0.844,-3.162 0.966,-4.139 0.122,0.977 0.465,2.481 0.966,4.139" /><path
       inkscape:connector-curvature="0"
       id="path124"
       style="fill:none;stroke:#231f20;stroke-width:0.75;stroke-linecap:butt;stroke-linejoin:miter;stroke-miterlimit:4;stroke-dasharray:none;stroke-opacity:1"
       d="m 40.5,230.781 0,-43.75" /><path
       inkscape:connector-curvature="0"
       id="path126"
       style="fill:#000000;fill-opacity:1;fill-rule:nonzero;stroke:none"
       d="m 41.4609,184.789 c 0.4684,1.55 0.8996,2.557 1.3985,3.801 l -4.7289,0 c 0.2113,-0.445 0.93,-2.251 1.3984,-3.801 0.5008,-1.659 0.8438,-3.164 0.966,-4.139 0.1223,0.975 0.4653,2.48 0.966,4.139" /><path
       inkscape:connector-curvature="0"
       id="path128"
       style="fill:none;stroke:#231f20;stroke-width:0.75;stroke-linecap:butt;stroke-linejoin:miter;stroke-miterlimit:4;stroke-dasharray:none;stroke-opacity:1"
       d="m 40.5,108 0,-21.6801" /><path
       inkscape:connector-curvature="0"
       id="path130"
       style="fill:#000000;fill-opacity:1;fill-rule:nonzero;stroke:none"
       d="m 41.4609,85.109 c 0.4684,1.55 0.8996,2.5582 1.3985,3.8012 l -4.7289,0 c 0.2113,-0.4454 0.93,-2.2512 1.3984,-3.8012 0.5008,-1.659 0.8438,-3.1629 0.966,-4.1379 0.1223,0.975 0.4653,2.4789 0.966,4.1379" /><path
       inkscape:connector-curvature="0"
       id="path132"
       style="fill:none;stroke:#231f20;stroke-width:1;stroke-linecap:butt;stroke-linejoin:miter;stroke-miterlimit:4;stroke-dasharray:none;stroke-opacity:1"
       d="m 376.5,348 c 19.882,0 36,16.118 36,36 0,19.882 -16.118,36 -36,36 -19.882,0 -36,-16.118 -36,-36 0,-19.882 16.118,-36 36,-36 z" /><text
       transform="scale(1,-1)"
       style="font-variant:normal;font-weight:normal;font-size:8px;font-family:Helvetica;-inkscape-font-specification:Helvetica;writing-mode:lr-tb;fill:#000000;fill-opacity:1;fill-rule:nonzero;stroke:none"
       id="text136"
       x="354.60101"
       y="-391.83401"><tspan
         x="354.60101 359.93701 364.38501 370.16101 375.49701 378.16101 382.16101 387.49701 389.72101 394.39301 396.617"
         y="-391.83401"
         sodipodi:role="line"
         id="tspan138">ALUSrcA = 0</tspan><tspan
         x="352.37677 357.71277 362.16077 367.93677 373.27277 375.93677 379.93677 385.27277 387.49677 392.16879 394.39279 398.84079"
         y="-382.23401"
         sodipodi:role="line"
         id="tspan140">ALUSrcB = 11</tspan><tspan
         x="355.7088 361.0448 365.4928 371.2688 377.4928 381.9408 384.16483 388.83682 391.06082 395.50882"
         y="-372.634"
         sodipodi:role="line"
         id="tspan142">ALUOp = 00</tspan><tspan
         x="190.0518 196.71581 201.1638 207.8278 213.60381 218.0518 222.4998"
         y="-411.14999"
         sodipodi:role="line"
         id="tspan144">MemRead</tspan><tspan
         x="185.26782 190.60382 195.05183 200.82784 206.16383 208.82784 212.82784 218.16383 220.38783 225.05983 227.28383"
         y="-401.6496"
         sodipodi:role="line"
         id="tspan146">ALUSrcA = 0</tspan><tspan
         x="194.16002 196.38402 200.83202 203.49602 209.27202 211.49602 216.16801 218.39201"
         y="-392.14999"
         sodipodi:role="line"
         id="tspan148">IorD = 0</tspan><tspan
         x="195.16783 197.39183 203.16783 210.71983 213.38383 215.15982 217.38383"
         y="-382.64999"
         sodipodi:role="line"
         id="tspan150">IRWrite</tspan><tspan
         x="183.04402 188.38004 192.82803 198.60403 203.94003 206.60403 210.60403 215.94003 218.16403 222.83603 225.06003 229.50803"
         y="-373.14999"
         sodipodi:role="line"
         id="tspan152">ALUSrcB = 01</tspan><tspan
         x="186.37605 191.71205 196.16006 201.93605 208.16006 212.60806 214.83206 219.50406 221.72806 226.17606"
         y="-363.64999"
         sodipodi:role="line"
         id="tspan154">ALUOp = 00</tspan><tspan
         x="193.612 198.948 204.724 212.276 214.94 216.716 218.94"
         y="-354.14999"
         sodipodi:role="line"
         id="tspan156">PCWrite</tspan><tspan
         x="181.26399 186.59999 192.37599 197.71199 202.16 206.608 209.272 213.272 217.72 219.944 224.616 226.84 231.28799"
         y="-344.64923"
         sodipodi:role="line"
         id="tspan158">PCSource = 00</tspan></text>
<path
       inkscape:connector-curvature="0"
       id="path160"
       style="fill:none;stroke:#231f20;stroke-width:1;stroke-linecap:butt;stroke-linejoin:miter;stroke-miterlimit:4;stroke-dasharray:none;stroke-opacity:1"
       d="m 207.438,334.586 c 24.802,0 44.91,20.107 44.91,44.91 0,24.802 -20.108,44.909 -44.91,44.909 -24.803,0 -44.911,-20.107 -44.911,-44.909 0,-24.803 20.108,-44.91 44.911,-44.91 z" /><path
       inkscape:connector-curvature="0"
       id="path162"
       style="fill:none;stroke:#231f20;stroke-width:0.75;stroke-linecap:butt;stroke-linejoin:miter;stroke-miterlimit:4;stroke-dasharray:none;stroke-opacity:1"
       d="m 252.313,384.002 85.072,0" /><path
       inkscape:connector-curvature="0"
       id="path164"
       style="fill:#000000;fill-opacity:1;fill-rule:nonzero;stroke:none"
       d="m 335.973,384.963 c -1.55,0.468 -2.558,0.9 -3.801,1.398 l 0,-4.729 c 0.445,0.212 2.251,0.931 3.801,1.399 1.659,0.501 3.163,0.844 4.138,0.966 -0.975,0.122 -2.479,0.465 -4.138,0.966" /><text
       transform="scale(1,-1)"
       style="font-variant:normal;font-weight:normal;font-size:8px;font-family:Helvetica;-inkscape-font-specification:Helvetica;writing-mode:lr-tb;fill:#000000;fill-opacity:1;fill-rule:nonzero;stroke:none"
       id="text168"
       x="216.789"
       y="-426.961"><tspan
         x="216.789 219.013 223.461 227.461 229.685 232.349 236.797 240.797 243.021 244.797 249.245 253.69299 255.91699 258.14099 262.58899 264.81299 268.81299"
         y="-426.961"
         sodipodi:role="line"
         id="tspan170">Instruction fetch</tspan><tspan
         x="342.70401 344.92801 349.37601 353.37601 355.60001 358.26401 362.71201 366.71201 368.936 370.71201 375.16 379.608 381.832 386.28 390.728 394.728 399.17599 403.62399 408.07199"
         y="-433.50006"
         sodipodi:role="line"
         id="tspan172">Instruction decode/</tspan><tspan
         x="353.38019 356.04419 360.49219 364.94019 366.71619 370.71619 372.94019 377.38818 380.05219 382.27618 384.50018 388.94818 391.17218 395.17218"
         y="-423.90005"
         sodipodi:role="line"
         id="tspan174">register fetch</tspan><tspan
         x="381.50009 385.50009 389.94809 396.61209"
         y="-311.85007"
         sodipodi:role="line"
         id="tspan176">Jump</tspan><tspan
         x="381.50009 385.50009 389.94809 396.61209 401.06009 402.83609 407.28409 409.50809 411.28409 415.73209"
         y="-302.25006"
         sodipodi:role="line"
         id="tspan178">completion</tspan><tspan
         x="279.82809 285.16409 287.82809 292.27609 296.72409 300.72409"
         y="-313.50006"
         sodipodi:role="line"
         id="tspan180">Branch</tspan><tspan
         x="273.16013 277.16013 281.60812 288.27213 292.72012 294.49612 298.94412 301.16812 302.94412 307.39212"
         y="-303.90005"
         sodipodi:role="line"
         id="tspan182">completion</tspan><tspan
         x="190.93593 196.27193 200.27193 204.71992 208.71992 213.16792 215.39194 217.16792 221.61594"
         y="-304.00006"
         sodipodi:role="line"
         id="tspan184">Execution</tspan><tspan
         x="10.715925 17.379927 21.827925 28.491926 32.939926 35.603928 39.603928 41.827927 46.275925 50.723938 55.171936 57.835938 62.283936 66.283936"
         y="-317.50006"
         sodipodi:role="line"
         id="tspan186">Memory address</tspan><tspan
         x="18.712019 22.712019 27.160017 33.82402 38.272018 42.720016 44.944016 49.392029 51.616028 53.392029 57.840027"
         y="-307.90005"
         sodipodi:role="line"
         id="tspan188">computation</tspan><tspan
         x="51.499924 58.163925 62.611923 69.275925 73.723923 76.387924"
         y="-191.10005"
         sodipodi:role="line"
         id="tspan190">Memory</tspan><tspan
         x="51.499924 55.947922 59.947922 63.947922 68.39592 72.39592"
         y="-181.50006"
         sodipodi:role="line"
         id="tspan192">access</tspan><tspan
         x="138.49992 145.16393 149.61192 156.27592 160.72392 163.38792"
         y="-191.10005"
         sodipodi:role="line"
         id="tspan194">Memory</tspan><tspan
         x="138.49992 142.94792 146.94792 150.94792 155.39592 159.39592"
         y="-181.50006"
         sodipodi:role="line"
         id="tspan196">access</tspan><tspan
         x="221.49992 227.27592 229.93993 232.16393 236.16393 240.61192 245.05992 247.28392 251.28392 255.73192 262.3959 266.84393 268.61993 273.06793 275.29193 277.06793 281.51593"
         y="-180.60005"
         sodipodi:role="line"
         id="tspan198">R-type completion</tspan><tspan
         x="48.788925 56.340927 59.004929 60.780914 63.004929 67.452927 70.116928 74.564926 79.012924 83.012924 87.012924 89.236923 93.236923 95.460922 99.90892"
         y="-83.460968"
         sodipodi:role="line"
         id="tspan200">Write-back step</tspan></text>
<path
       inkscape:connector-curvature="0"
       id="path202"
       style="fill:none;stroke:#231f20;stroke-width:0.75;stroke-linecap:butt;stroke-linejoin:miter;stroke-miterlimit:4;stroke-dasharray:none;stroke-opacity:1"
       d="M 65.1895,239.531 113.773,184.197" /><path
       inkscape:connector-curvature="0"
       id="path204"
       style="fill:#000000;fill-opacity:1;fill-rule:nonzero;stroke:none"
       d="m 115.368,183.715 c -0.667,1.475 -1.006,2.517 -1.448,3.782 l -3.561,-3.112 c 0.452,-0.196 2.182,-1.082 3.554,-1.942 1.469,-0.919 2.717,-1.826 3.451,-2.48 -0.55,0.815 -1.281,2.174 -1.996,3.752" /><path
       inkscape:connector-curvature="0"
       id="path206"
       style="fill:none;stroke:#231f20;stroke-width:0.75;stroke-linecap:butt;stroke-linejoin:miter;stroke-miterlimit:4;stroke-dasharray:none;stroke-opacity:1"
       d="m 80.5,40.5 350,0 0,405.5 -222,0 0,-14.877" /><path
       inkscape:connector-curvature="0"
       id="path208"
       style="fill:#000000;fill-opacity:1;fill-rule:nonzero;stroke:none"
       d="m 209.461,429.068 c 0.468,1.55 0.899,2.557 1.398,3.801 l -4.729,0 c 0.212,-0.445 0.931,-2.251 1.399,-3.801 0.501,-1.659 0.844,-3.163 0.966,-4.139 0.122,0.976 0.465,2.48 0.966,4.139" /><path
       inkscape:connector-curvature="0"
       id="path210"
       style="fill:none;stroke:#231f20;stroke-width:0.75;stroke-linecap:butt;stroke-linejoin:miter;stroke-miterlimit:4;stroke-dasharray:none;stroke-opacity:1"
       d="m 124.5,108 0,-63.7469" /><path
       inkscape:connector-curvature="0"
       id="path212"
       style="fill:#000000;fill-opacity:1;fill-rule:nonzero;stroke:none"
       d="m 125.461,45.0949 c 0.468,1.55 0.899,2.5571 1.398,3.8012 l -4.729,0 c 0.212,-0.4461 0.931,-2.2512 1.399,-3.8012 0.501,-1.659 0.844,-3.1629 0.966,-4.139 0.122,0.9761 0.465,2.48 0.966,4.139" /><path
       inkscape:connector-curvature="0"
       id="path214"
       style="fill:none;stroke:#231f20;stroke-width:0.75;stroke-linecap:butt;stroke-linejoin:miter;stroke-miterlimit:4;stroke-dasharray:none;stroke-opacity:1"
       d="m 208.5,108 0,-63.7469" /><path
       inkscape:connector-curvature="0"
       id="path216"
       style="fill:#000000;fill-opacity:1;fill-rule:nonzero;stroke:none"
       d="m 209.461,45.0949 c 0.468,1.55 0.899,2.5571 1.398,3.8012 l -4.729,0 c 0.212,-0.4461 0.931,-2.2512 1.399,-3.8012 0.501,-1.659 0.844,-3.1629 0.966,-4.139 0.122,0.9761 0.465,2.48 0.966,4.139" /><text
       transform="matrix(0.93948361,0.34259386,0.34259386,-0.93948361,0,0)"
       style="font-variant:normal;font-weight:normal;font-size:8.00014305px;font-family:Helvetica;-inkscape-font-specification:Helvetica;writing-mode:lr-tb;fill:#000000;fill-opacity:1;fill-rule:nonzero;stroke:none"
       id="text220"
       x="196.2271"
       y="-235.56956"><tspan
         x="196.2271 198.89114 205.11525 209.56334 211.78738 216.45946 218.6835 220.21153 224.65961 232.21175 233.73978 236.40382 238.62787 243.07594 245.74001 247.96404 250.62808 256.8522 261.30029 263.52432 268.19641 270.42044 271.94849 277.28458 284.83673 286.36475"
         y="-235.56956"
         sodipodi:role="line"
         id="tspan222">(Op = 'LW') or (Op = 'SW')</tspan></text>
<text
       transform="matrix(0.89612093,0.44380996,0.44380996,-0.89612093,0,0)"
       style="font-variant:normal;font-weight:normal;font-size:7.99941063px;font-family:Helvetica;-inkscape-font-specification:Helvetica;writing-mode:lr-tb;fill:#000000;fill-opacity:1;fill-rule:nonzero;stroke:none"
       id="text224"
       x="378.15567"
       y="-170.37292"><tspan
         x="378.15567 380.81946 387.043 391.49069 393.71451 398.38617 400.61002 406.38559 409.04938 411.27322 415.27292 419.72061 424.16827"
         y="-170.37292"
         sodipodi:role="line"
         id="tspan226">(Op = R-type)</tspan></text>
<text
       transform="matrix(0.64666995,0.76276994,0.76276994,-0.64666995,0,0)"
       style="font-variant:normal;font-weight:normal;font-size:8.00070095px;font-family:Helvetica;-inkscape-font-specification:Helvetica;writing-mode:lr-tb;fill:#000000;fill-opacity:1;fill-rule:nonzero;stroke:none"
       id="text228"
       x="445.02728"
       y="45.131874"><tspan
         x="445.02728 447.6915 453.91605 458.36444 460.58862 465.26105 467.48523 469.01337 474.34985 479.68631 485.91086 487.439"
         y="45.131874"
         sodipodi:role="line"
         id="tspan230">(Op = 'BEQ')</tspan></text>
<text
       transform="matrix(0,1,1,0,0,0)"
       style="font-variant:normal;font-weight:normal;font-size:8px;font-family:Helvetica;-inkscape-font-specification:Helvetica;writing-mode:lr-tb;fill:#000000;fill-opacity:1;fill-rule:nonzero;stroke:none"
       id="text232"
       x="309.49799"
       y="372.414"><tspan
         x="309.49799 312.16199 318.38599 322.83401 325.05801 329.73001 331.95401 333.48199 337.48199 339.01001"
         y="372.414"
         sodipodi:role="line"
         id="tspan234">(Op = 'J')</tspan></text>
<text
       transform="matrix(0.6589152,-0.75221723,-0.75221723,-0.6589152,0,0)"
       style="font-variant:normal;font-weight:normal;font-size:7.99981737px;font-family:Helvetica;-inkscape-font-specification:Helvetica;writing-mode:lr-tb;fill:#000000;fill-opacity:1;fill-rule:nonzero;stroke:none"
       id="text236"
       x="-120.41602"
       y="-210.70102"><tspan
         x="-120.41602 -117.75208 -111.52822 -107.08033 -104.85638 -100.18449 -97.960541 -96.432571 -91.096695 -83.544868 -82.016907"
         y="-210.70102"
         sodipodi:role="line"
         id="tspan238">(Op = 'SW')</tspan></text>
<text
       transform="matrix(0,1,1,0,0,0)"
       style="font-variant:normal;font-weight:normal;font-size:8px;font-family:Helvetica;-inkscape-font-specification:Helvetica;writing-mode:lr-tb;fill:#000000;fill-opacity:1;fill-rule:nonzero;stroke:none"
       id="text240"
       x="187.16499"
       y="36.164101"><tspan
         x="187.16499 189.82899 196.05299 200.50101 202.72501 207.397 209.621 211.149 215.597 223.149 224.677"
         y="36.164101"
         sodipodi:role="line"
         id="tspan242">(Op = 'LW')</tspan></text>
<text
       transform="scale(1,-1)"
       style="font-variant:normal;font-weight:normal;font-size:8px;font-family:Helvetica;-inkscape-font-specification:Helvetica;writing-mode:lr-tb;fill:#000000;fill-opacity:1;fill-rule:nonzero;stroke:none"
       id="text244"
       x="9.3410196"
       y="-74.710899"><tspan
         x="9.3410196"
         y="-74.710899"
         id="tspan246"
         style="fill:#000000;fill-opacity:1">4</tspan><tspan
         x="177.34102"
         y="-418.21091"
         id="tspan248"
         style="fill:#000000;fill-opacity:1">0</tspan><tspan
         x="342.34103"
         y="-410.46091"
         id="tspan250"
         style="fill:#000000;fill-opacity:1">1</tspan><tspan
         x="342.34103 258.34103 174.34102 6.3410201"
         y="-290.46091"
         sodipodi:role="line"
         id="tspan252">9862</tspan><tspan
         x="174.34102 90.341019 6.3410201"
         y="-170.46091"
         sodipodi:role="line"
         id="tspan254">753</tspan></text>
<path
       inkscape:connector-curvature="0"
       id="path256"
       style="fill:none;stroke:#231f20;stroke-width:0.75;stroke-linecap:butt;stroke-linejoin:miter;stroke-miterlimit:4;stroke-dasharray:none;stroke-opacity:1"
       d="m 123.51,384.002 32.429,0" /><path
       inkscape:connector-curvature="0"
       id="path258"
       style="fill:#000000;fill-opacity:1;fill-rule:nonzero;stroke:none"
       d="m 158.154,384.963 c -1.55,0.468 -2.558,0.9 -3.801,1.398 l 0,-4.729 c 0.445,0.212 2.251,0.931 3.801,1.399 1.659,0.501 3.163,0.844 4.138,0.966 -0.975,0.122 -2.479,0.465 -4.138,0.966" /><text
       transform="scale(1,-1)"
       style="font-variant:normal;font-weight:normal;font-size:8px;font-family:Helvetica;-inkscape-font-specification:Helvetica;writing-mode:lr-tb;fill:#000000;fill-opacity:1;fill-rule:nonzero;stroke:none"
       id="text262"
       x="102.614"
       y="-381.00201"><tspan
         x="102.614 107.95 110.174 114.622 117.286"
         y="-381.00201"
         sodipodi:role="line"
         id="tspan264">Start</tspan></text>
<path
       inkscape:connector-curvature="0"
       id="path266"
       style="fill:none;stroke:#231f20;stroke-width:0.75;stroke-linecap:butt;stroke-linejoin:miter;stroke-miterlimit:4;stroke-dasharray:none;stroke-opacity:1"
       d="m 376.5,228 0,-12 48.193,0" /><path
       inkscape:connector-curvature="0"
       id="path268"
       style="fill:#000000;fill-opacity:1;fill-rule:nonzero;stroke:none"
       d="m 425.907,216.961 c -1.55,0.469 -2.557,0.899 -3.801,1.398 l 0,-4.728 c 0.446,0.211 2.251,0.93 3.801,1.398 1.659,0.5 3.163,0.844 4.139,0.966 -0.976,0.122 -2.48,0.465 -4.139,0.966" /><path
       inkscape:connector-curvature="0"
       id="path270"
       style="fill:none;stroke:#231f20;stroke-width:0.75;stroke-linecap:butt;stroke-linejoin:miter;stroke-miterlimit:4;stroke-dasharray:none;stroke-opacity:1"
       d="m 292.5,228 0,-24 132.219,0" /><path
       inkscape:connector-curvature="0"
       id="path272"
       style="fill:#000000;fill-opacity:1;fill-rule:nonzero;stroke:none"
       d="m 425.933,204.961 c -1.55,0.469 -2.558,0.899 -3.801,1.398 l 0,-4.728 c 0.445,0.211 2.251,0.93 3.801,1.398 1.659,0.5 3.163,0.844 4.138,0.966 -0.975,0.122 -2.479,0.465 -4.138,0.966" /><path
       inkscape:connector-curvature="0"
       id="path274"
       style="fill:#000000;fill-opacity:1;fill-rule:nonzero;stroke:none"
       d="m 104.485,41.4988 c -1.55,0.4692 -2.558,0.8992 -3.801,1.3981 l 0,-4.7278 c 0.445,0.211 2.251,0.9297 3.801,1.3981 1.659,0.5 3.163,0.8437 4.139,0.9656 -0.976,0.1223 -2.48,0.4652 -4.139,0.966" /><g
       transform="matrix(0.79999995,0,0,-0.79999995,136.22227,418.86748)"
       id="layer1"
       inkscape:label="Camada 1"><text
         sodipodi:linespacing="125%"
         id="text4894"
         y="368.73376"
         x="192.30464"
         style="font-style:normal;font-weight:normal;font-size:10px;line-height:125%;font-family:sans-serif;text-align:start;letter-spacing:0px;word-spacing:0px;writing-mode:lr-tb;text-anchor:start;opacity:0.93999999;fill:#000000;fill-opacity:1;stroke:none;stroke-width:1px;stroke-linecap:butt;stroke-linejoin:miter;stroke-opacity:1"
         xml:space="preserve"><tspan
           style="font-size:7.5px"
           y="368.73376"
           x="192.30464"
           id="tspan4304"
           sodipodi:role="line">COD 4Ed, Copyright © 2009 </tspan><tspan
           id="tspan4308"
           style="font-size:7.5px"
           y="378.10876"
           x="192.30464"
           sodipodi:role="line">Elsevier, Inc. All rights reserved.</tspan><tspan
           y="387.48376"
           x="192.30464"
           id="tspan4306"
           sodipodi:role="line" /></text>
</g></g></svg>