<?xml version="1.0" encoding="UTF-8" standalone="no"?>
<svg
   xmlns:dc="http://purl.org/dc/elements/1.1/"
   xmlns:cc="http://creativecommons.org/ns#"
   xmlns:rdf="http://www.w3.org/1999/02/22-rdf-syntax-ns#"
   xmlns:svg="http://www.w3.org/2000/svg"
   xmlns="http://www.w3.org/2000/svg"
   xmlns:sodipodi="http://sodipodi.sourceforge.net/DTD/sodipodi-0.dtd"
   xmlns:inkscape="http://www.inkscape.org/namespaces/inkscape"
   viewBox="0 0 345.55051 330.49139"
   height="330.49139"
   width="345.55051"
   xml:space="preserve"
   version="1.1"
   id="svg2"
   inkscape:version="0.91 r13725"
   sodipodi:docname="maquinaEstadosROM-pcfs.svg"><sodipodi:namedview
     pagecolor="#ffffff"
     bordercolor="#666666"
     borderopacity="1"
     objecttolerance="10"
     gridtolerance="10"
     guidetolerance="10"
     inkscape:pageopacity="0"
     inkscape:pageshadow="2"
     inkscape:window-width="1920"
     inkscape:window-height="1031"
     id="namedview77"
     showgrid="false"
     inkscape:zoom="2.6828441"
     inkscape:cx="175.43304"
     inkscape:cy="165.2457"
     inkscape:window-x="1920"
     inkscape:window-y="30"
     inkscape:window-maximized="1"
     inkscape:current-layer="svg2"
     fit-margin-left="10"
     fit-margin-top="10"
     fit-margin-bottom="10"
     fit-margin-right="10"
     showguides="true"
     inkscape:guide-bbox="true" /><metadata
     id="metadata8"><rdf:RDF><cc:Work
         rdf:about=""><dc:format>image/svg+xml</dc:format><dc:type
           rdf:resource="http://purl.org/dc/dcmitype/StillImage" /><dc:title></dc:title></cc:Work></rdf:RDF></metadata><defs
     id="defs6"><clipPath
       id="clipPath52"
       clipPathUnits="userSpaceOnUse"><path
         id="path54"
         d="m 343.148,778.602 2734.03,0 0,2401 -2734.03,0 0,-2401 z"
         inkscape:connector-curvature="0" /></clipPath><clipPath
       id="clipPath102"
       clipPathUnits="userSpaceOnUse"><path
         id="path104"
         d="m 343.148,778.602 2734.03,0 0,2401 -2734.03,0 0,-2401 z"
         inkscape:connector-curvature="0" /></clipPath></defs><text
     y="57.401253"
     x="123.39965"
     style="font-variant:normal;font-weight:bold;font-size:10px;font-family:Helvetica;-inkscape-font-specification:Helvetica-Bold;text-align:center;writing-mode:lr-tb;text-anchor:middle;fill:#00adef;fill-opacity:1;fill-rule:nonzero;stroke:none"
     id="text60"><tspan
       style="text-align:center;text-anchor:middle"
       x="70.792"
       y="57.401253"
       id="tspan62" /></text>
<path
     id="path46"
     style="fill:none;fill-opacity:1;fill-rule:nonzero;stroke:#000000;stroke-opacity:1"
     d="m 10.5,200.53 190.03,0 0,-190.03 -190.03,0 0,190.03 z"
     inkscape:connector-curvature="0" /><g
     id="g48"
     transform="matrix(0.125,0,0,-0.125,-32.86225,407.48125)"
     style="fill:none;fill-opacity:1;fill-rule:nonzero;stroke:#000000;stroke-opacity:1"><g
       clip-path="url(#clipPath52)"
       id="g50"
       style="fill:none;fill-opacity:1;fill-rule:nonzero;stroke:#000000;stroke-opacity:1"><path
         id="path56"
         style="fill:none;fill-opacity:1;fill-rule:nonzero;stroke:#000000;stroke-width:7.5;stroke-linecap:butt;stroke-linejoin:miter;stroke-miterlimit:4;stroke-dasharray:none;stroke-opacity:1"
         d="m 346.898,1655.61 1520.24,0 0,1520.24 -1520.24,0 0,-1520.24 z"
         inkscape:connector-curvature="0" /></g></g><text
     id="text4352"
     y="61.533524"
     x="101.0803"
     style="font-style:normal;font-variant:normal;font-weight:normal;font-stretch:normal;font-size:20px;line-height:125%;font-family:Helvetica;-inkscape-font-specification:'Helvetica, Normal';text-align:center;writing-mode:lr-tb;text-anchor:middle;fill:#000000;fill-opacity:1;fill-rule:nonzero;stroke:none"
     sodipodi:linespacing="125%"><tspan
       sodipodi:role="line"
       id="tspan4215"
       x="101.0803"
       y="61.533524">Memória ROM</tspan></text>
<text
     id="text4352-3"
     y="178.82225"
     x="157.89819"
     style="font-variant:normal;font-weight:bold;font-size:10px;font-family:Helvetica;-inkscape-font-specification:Helvetica-Bold;text-align:center;writing-mode:lr-tb;text-anchor:middle;fill:#000000;fill-opacity:1;fill-rule:nonzero;stroke:none"><tspan
       id="tspan4354-6"
       style="text-align:center;text-anchor:middle;fill:#000000;fill-opacity:1"
       x="105.29052"
       y="178.82225">Entradas = Endereços</tspan></text>
<text
     id="text4352-3-5"
     y="108.88127"
     x="198.04546"
     style="font-variant:normal;font-weight:bold;font-size:10px;font-family:Helvetica;-inkscape-font-specification:Helvetica-Bold;text-align:center;writing-mode:lr-tb;text-anchor:middle;fill:#000000;fill-opacity:1;fill-rule:nonzero;stroke:none"><tspan
       id="tspan4354-6-3"
       style="text-align:center;text-anchor:middle;fill:#000000;fill-opacity:1"
       x="145.43776"
       y="108.88127">Saídas = Dados</tspan></text>
<text
     id="text4352-5"
     y="68.924408"
     x="291.9509"
     style="font-style:normal;font-variant:normal;font-weight:bold;font-stretch:normal;font-size:10px;line-height:125%;font-family:Helvetica;-inkscape-font-specification:'Helvetica, Bold';text-align:center;writing-mode:lr-tb;text-anchor:middle;fill:#000000;fill-opacity:1;fill-rule:nonzero;stroke:none"
     sodipodi:linespacing="125%"><tspan
       sodipodi:role="line"
       id="tspan4219"
       x="291.9509"
       y="68.924408">Sinais de Controle</tspan></text>
<text
     id="text4352-5-4-5"
     y="244.88824"
     x="323.02258"
     style="font-variant:normal;font-weight:bold;font-size:10px;font-family:Helvetica;-inkscape-font-specification:Helvetica-Bold;text-align:center;writing-mode:lr-tb;text-anchor:middle;fill:#000000;fill-opacity:1;fill-rule:nonzero;stroke:none"><tspan
       id="tspan4354-62-6-4"
       style="text-align:center;text-anchor:middle;fill:#000000;fill-opacity:1"
       x="270.41495"
       y="244.88824">Reg. de Estado</tspan></text>
<path
     id="path86"
     style="fill:none;stroke:#000000;stroke-width:0.9375;stroke-linecap:butt;stroke-linejoin:miter;stroke-miterlimit:4;stroke-dasharray:none;stroke-opacity:1"
     d="m 200.93423,186.9575 42.62294,0 0,45.50732 m 0,19.27145 0,17.22748 -56.64911,0 0,-64.24612"
     inkscape:connector-curvature="0"
     sodipodi:nodetypes="ccccccc" /><path
     id="path90"
     style="fill:none;stroke:#000000;stroke-width:0.9375;stroke-linecap:butt;stroke-linejoin:miter;stroke-miterlimit:4;stroke-dasharray:none;stroke-opacity:1"
     d="m 200.43737,173.3825 62.48395,0 0,59.25286 m 0,19.27146 0,30.63205 -89.10647,0 0,-77.10069"
     inkscape:connector-curvature="0"
     sodipodi:nodetypes="ccccccc" /><path
     id="path94"
     style="fill:none;stroke:#000000;stroke-width:0.9375;stroke-linecap:butt;stroke-linejoin:miter;stroke-miterlimit:4;stroke-dasharray:none;stroke-opacity:1"
     d="m 200.82301,159.81 80.44073,0 0,72.65482 m 0,19.35673 0,44.29208 -121.09098,0 0,-91.03572"
     inkscape:connector-curvature="0"
     sodipodi:nodetypes="ccccccc" /><g
     id="g98"
     transform="matrix(0.15554398,0,0,-0.125,-76.625356,407.48125)"
     style="stroke:#000000;stroke-width:0.89645481;stroke-opacity:1"><g
       clip-path="url(#clipPath102)"
       id="g100"
       style="stroke:#000000;stroke-width:0.89645481;stroke-opacity:1"><path
         id="path106"
         style="fill:none;stroke:#000000;stroke-width:6.72341108;stroke-linecap:butt;stroke-linejoin:miter;stroke-miterlimit:4;stroke-dasharray:none;stroke-opacity:1"
         d="m 1781.2501,2089.96 635.6699,0 0,-690.5107 m 0,-156.2182 0,-460.8791 -984.13,0 0,842.6391"
         inkscape:connector-curvature="0"
         sodipodi:nodetypes="ccccccc" /></g></g><path
     id="path110"
     style="fill:none;stroke:#000000;stroke-width:0.9375;stroke-linecap:butt;stroke-linejoin:miter;stroke-miterlimit:4;stroke-dasharray:none;stroke-opacity:1"
     d="m 200.53025,105.515 31.9525,0 m -31.9525,-13.57375 31.9525,0 m -31.9525,-13.57375 31.9525,0 m -31.9525,-13.5725 31.9525,0 m -31.9525,-13.57375 31.9525,0 m -31.9525,-13.57375 31.9525,0 m -31.9525,-13.57375 31.9525,0 m -36.95625,0 c -2.75125,0 -5,2.25 -5,5 l 0,71.44125 c 0,2.75 -2.25,5 -5,5 2.75,0 5,2.25 5,5 l 0,71.4425 c 0,2.75 2.24875,5 5,5 m -8.56875,8.56875 c 0,-2.75125 -2.25,-5 -5,-5 l -71.44125,0 c -2.75,0 -5,-2.25 -5,-5 0,2.75 -2.25,5 -5,5 l -71.44175,0 c -2.7495,0 -5,2.24875 -5,5"
     inkscape:connector-curvature="0" /><path
     id="path116"
     style="fill:#000000;fill-opacity:1;fill-rule:nonzero;stroke:#000000;stroke-opacity:1"
     d="m 186.1565,203.98 c -0.38875,1.29125 -0.74875,2.13125 -1.165,3.16625 l 3.94125,0 c -0.1775,-0.37 -0.775,-1.875 -1.16625,-3.16625 -0.4175,-1.3825 -0.7025,-2.63625 -0.805,-3.45 -0.10125,0.81375 -0.3875,2.0675 -0.805,3.45"
     inkscape:connector-curvature="0" /><path
     id="path120"
     style="fill:#000000;fill-opacity:1;fill-rule:nonzero;stroke:#000000;stroke-opacity:1"
     d="m 172.94302,203.97875 c -0.39,1.29125 -0.75,2.13125 -1.165,3.1675 l 3.94125,0 c -0.17625,-0.37 -0.77625,-1.87625 -1.16625,-3.1675 -0.4175,-1.3825 -0.7025,-2.63625 -0.805,-3.44875 -0.10125,0.8125 -0.3875,2.06625 -0.805,3.44875"
     inkscape:connector-curvature="0" /><path
     id="path124"
     style="fill:#000000;fill-opacity:1;fill-rule:nonzero;stroke:#000000;stroke-opacity:1"
     d="m 159.009,203.98 c -0.39,1.29125 -0.74875,2.13125 -1.165,3.16625 l 3.94125,0 c -0.17625,-0.37 -0.77625,-1.875 -1.16625,-3.16625 -0.4175,-1.3825 -0.7025,-2.63625 -0.805,-3.45 -0.10125,0.81375 -0.3875,2.0675 -0.805,3.45"
     inkscape:connector-curvature="0" /><path
     id="path128"
     style="fill:#000000;fill-opacity:1;fill-rule:nonzero;stroke:#000000;stroke-opacity:1"
     d="m 145.4365,203.98 c -0.39,1.29125 -0.75,2.13125 -1.165,3.1675 l 3.94,0 c -0.17625,-0.37125 -0.775,-1.87625 -1.165,-3.1675 -0.4175,-1.3825 -0.70375,-2.63625 -0.805,-3.44875 -0.1025,0.8125 -0.3875,2.06625 -0.805,3.44875"
     inkscape:connector-curvature="0" /><path
     id="path130"
     style="fill:none;stroke:#000000;stroke-width:0.93749994;stroke-linecap:butt;stroke-linejoin:miter;stroke-miterlimit:4;stroke-dasharray:none;stroke-opacity:1"
     d="m 91.94288,262.38516 0,-56.56017"
     inkscape:connector-curvature="0" /><path
     id="path132"
     style="fill:#000000;fill-opacity:1;fill-rule:nonzero;stroke:#000000;stroke-opacity:1"
     d="m 91.14313,203.98 c -0.39013,1.29125 -0.75051,2.13125 -1.1665,3.16625 l 3.94112,0 c -0.17625,-0.37 -0.775,-1.875 -1.165,-3.16625 -0.4175,-1.3825 -0.70337,-2.63625 -0.805,-3.45 -0.1025,0.81375 -0.38713,2.0675 -0.80463,3.45"
     inkscape:connector-curvature="0" /><path
     id="path134"
     style="fill:none;stroke:#000000;stroke-width:0.93749994;stroke-linecap:butt;stroke-linejoin:miter;stroke-miterlimit:4;stroke-dasharray:none;stroke-opacity:1"
     d="m 78.36875,262.38516 0,-56.56017"
     inkscape:connector-curvature="0" /><path
     id="path136"
     style="fill:#000000;fill-opacity:1;fill-rule:nonzero;stroke:#000000;stroke-opacity:1"
     d="m 77.56937,203.98 c -0.39012,1.29125 -0.7505,2.13125 -1.165,3.16625 l 3.93938,0 c -0.17625,-0.37 -0.77488,-1.875 -1.165,-3.16625 -0.4175,-1.3825 -0.70363,-2.63625 -0.80413,-3.45 -0.10312,0.81375 -0.38775,2.0675 -0.80525,3.45"
     inkscape:connector-curvature="0" /><path
     id="path138"
     style="fill:none;stroke:#000000;stroke-width:0.93749994;stroke-linecap:butt;stroke-linejoin:miter;stroke-miterlimit:4;stroke-dasharray:none;stroke-opacity:1"
     d="m 64.7955,262.38516 0,-56.56017"
     inkscape:connector-curvature="0" /><path
     id="path140"
     style="fill:#000000;fill-opacity:1;fill-rule:nonzero;stroke:#000000;stroke-opacity:1"
     d="m 63.995125,203.98 c -0.390125,1.29125 -0.7495,2.13125 -1.1645,3.16625 l 3.94,0 c -0.176875,-0.37 -0.7755,-1.875 -1.165625,-3.16625 -0.4175,-1.3825 -0.703625,-2.63625 -0.804625,-3.45 -0.102625,0.81375 -0.38775,2.0675 -0.80525,3.45"
     inkscape:connector-curvature="0" /><path
     id="path142"
     style="fill:none;stroke:#000000;stroke-width:0.93749994;stroke-linecap:butt;stroke-linejoin:miter;stroke-miterlimit:4;stroke-dasharray:none;stroke-opacity:1"
     d="m 51.22175,262.38516 0,-56.56017"
     inkscape:connector-curvature="0" /><path
     id="path144"
     style="fill:#000000;fill-opacity:1;fill-rule:nonzero;stroke:#000000;stroke-opacity:1"
     d="m 50.4215,203.98 c -0.39025,1.29125 -0.75,2.13125 -1.165125,3.16625 l 3.941375,0 c -0.177125,-0.37 -0.77625,-1.875 -1.1665,-3.16625 -0.416875,-1.3825 -0.7035,-2.63625 -0.804625,-3.45 -0.1025,0.81375 -0.38775,2.0675 -0.805125,3.45"
     inkscape:connector-curvature="0" /><path
     id="path146"
     style="fill:none;stroke:#000000;stroke-width:0.93749994;stroke-linecap:butt;stroke-linejoin:miter;stroke-miterlimit:4;stroke-dasharray:none;stroke-opacity:1"
     d="m 37.6495,262.38516 0,-56.56017"
     inkscape:connector-curvature="0" /><path
     id="path148"
     style="fill:#000000;fill-opacity:1;fill-rule:nonzero;stroke:#000000;stroke-opacity:1"
     d="m 36.84775,203.98 c -0.389625,1.29125 -0.75,2.13125 -1.165125,3.16625 l 3.942,0 c -0.176875,-0.37 -0.776375,-1.875 -1.1665,-3.16625 -0.4175,-1.3825 -0.70275,-2.63625 -0.80525,-3.45 -0.1025,0.81375 -0.387625,2.0675 -0.805125,3.45"
     inkscape:connector-curvature="0" /><path
     id="path150"
     style="fill:none;stroke:#000000;stroke-width:0.93749994;stroke-linecap:butt;stroke-linejoin:miter;stroke-miterlimit:4;stroke-dasharray:none;stroke-opacity:1"
     d="m 24.07475,262.38516 0,-56.56017"
     inkscape:connector-curvature="0" /><path
     id="path152"
     style="fill:#000000;fill-opacity:1;fill-rule:nonzero;stroke:#000000;stroke-opacity:1"
     d="m 23.2745,203.98 c -0.390125,1.29125 -0.749,2.13125 -1.1655,3.16625 l 3.941375,0 c -0.17575,-0.37 -0.776375,-1.875 -1.1665,-3.16625 -0.4175,-1.3825 -0.702625,-2.63625 -0.80475,-3.45 -0.101,0.81375 -0.387125,2.0675 -0.804625,3.45"
     inkscape:connector-curvature="0" /><text
     xml:space="preserve"
     style="font-style:normal;font-variant:normal;font-weight:bold;font-stretch:normal;font-size:10px;line-height:125%;font-family:Helvetica;-inkscape-font-specification:'Helvetica, Bold';text-align:center;letter-spacing:0px;word-spacing:0px;writing-mode:lr-tb;text-anchor:middle;fill:#000000;fill-opacity:1;stroke:none;stroke-width:1px;stroke-linecap:butt;stroke-linejoin:miter;stroke-opacity:1"
     x="58.672882"
     y="274.36945"
     id="text4524"
     sodipodi:linespacing="125%"><tspan
       sodipodi:role="line"
       id="tspan4213"
       x="58.672882"
       y="274.36945">Entradas da</tspan><tspan
       sodipodi:role="line"
       x="58.672882"
       y="286.86945"
       id="tspan4257">Máquina de Estados</tspan></text>
<text
     id="text4352-5-4-6-8"
     y="320.4014"
     x="225.24332"
     style="font-style:normal;font-variant:normal;font-weight:bold;font-stretch:normal;font-size:10px;line-height:125%;font-family:Helvetica;-inkscape-font-specification:'Helvetica, Bold';text-align:center;writing-mode:lr-tb;text-anchor:middle;fill:#000000;fill-opacity:1;fill-rule:nonzero;stroke:none"
     sodipodi:linespacing="125%"><tspan
       sodipodi:role="line"
       id="tspan4256"
       x="225.24332"
       y="320.4014">Estado Atual</tspan></text>
<text
     id="text4352-5-4-8"
     y="139.63184"
     x="301.08423"
     style="font-variant:normal;font-weight:bold;font-size:10px;font-family:Helvetica;-inkscape-font-specification:Helvetica-Bold;text-align:center;writing-mode:lr-tb;text-anchor:middle;fill:#000000;fill-opacity:1;fill-rule:nonzero;stroke:none"><tspan
       id="tspan4354-62-6-0"
       style="text-align:center;text-anchor:middle;fill:#000000;fill-opacity:1"
       x="248.47659"
       y="139.63184">Próximo Estado</tspan></text>
<path
     inkscape:connector-curvature="0"
     d="m 214.00097,252.02375 113.20468,0 0,-19.541 -113.20468,0 0,19.541 z"
     style="fill:none;stroke:#000000;stroke-width:0.99999994;stroke-linecap:butt;stroke-linejoin:miter;stroke-miterlimit:4;stroke-dasharray:none;stroke-opacity:1"
     id="path4229" /><path
     id="path88-0"
     style="fill:#000000;fill-opacity:1;fill-rule:nonzero;stroke:#000000;stroke-opacity:1"
     d="m 298.5251,228.61876 c -0.38875,-1.29 -0.74875,-2.13125 -1.165,-3.16625 l 3.94125,0 c -0.1775,0.37125 -0.775,1.87625 -1.16625,3.16625 -0.4175,1.38375 -0.7025,2.63625 -0.805,3.45 -0.10125,-0.81375 -0.3875,-2.06625 -0.805,-3.45"
     inkscape:connector-curvature="0" /><path
     id="path92-2"
     style="fill:#000000;fill-opacity:1;fill-rule:nonzero;stroke:#000000;stroke-opacity:1"
     d="m 280.35446,228.53349 c -0.39,-1.29 -0.75,-2.13125 -1.165,-3.16625 l 3.94125,0 c -0.17625,0.37125 -0.77625,1.87625 -1.16625,3.16625 -0.4175,1.38375 -0.7025,2.63625 -0.805,3.45 -0.10125,-0.81375 -0.3875,-2.06625 -0.805,-3.45"
     inkscape:connector-curvature="0" /><path
     id="path96-1"
     style="fill:#000000;fill-opacity:1;fill-rule:nonzero;stroke:#000000;stroke-opacity:1"
     d="m 262.01328,228.44822 c -0.39,-1.29 -0.74875,-2.13125 -1.165,-3.16625 l 3.94125,0 c -0.17625,0.37125 -0.77625,1.87625 -1.16625,3.16625 -0.4175,1.38375 -0.7025,2.63625 -0.805,3.45 -0.10125,-0.81375 -0.3875,-2.06625 -0.805,-3.45"
     inkscape:connector-curvature="0" /><path
     id="path108-5"
     style="fill:#000000;fill-opacity:1;fill-rule:nonzero;stroke:#000000;stroke-opacity:1"
     d="m 242.69659,228.36295 c -0.39,-1.29125 -0.75,-2.12875 -1.165,-3.16625 l 3.94,0 c -0.17625,0.37125 -0.775,1.875 -1.165,3.16625 -0.4175,1.38375 -0.70375,2.63625 -0.805,3.45 -0.1025,-0.81375 -0.3875,-2.06625 -0.805,-3.45"
     inkscape:connector-curvature="0" /><path
     id="path132-5"
     style="fill:none;fill-opacity:1;fill-rule:nonzero;stroke:#000000;stroke-width:1;stroke-miterlimit:4;stroke-dasharray:none;stroke-opacity:1"
     d="m 324.03659,243.04734 c 1.29125,0.39013 2.13125,0.75051 3.16625,1.1665 l 0,-3.94113 c -0.37,0.17625 -1.875,0.775 -3.16625,1.16501 -1.3825,0.4175 -2.63625,0.70337 -3.45,0.805 0.81375,0.1025 2.0675,0.38713 3.45,0.80462"
     inkscape:connector-curvature="0" /><path
     style="fill:none;fill-rule:evenodd;stroke:#000000;stroke-width:1px;stroke-linecap:butt;stroke-linejoin:miter;stroke-opacity:1"
     d="m 327.051,242.21592 7.82751,0 -0.0305,-31.83736"
     id="path4202"
     inkscape:connector-curvature="0"
     sodipodi:nodetypes="ccc" /><text
     sodipodi:linespacing="125%"
     style="font-style:normal;font-variant:normal;font-weight:bold;font-stretch:normal;font-size:10px;line-height:125%;font-family:Helvetica;-inkscape-font-specification:'Helvetica, Bold';text-align:center;writing-mode:lr-tb;text-anchor:middle;fill:#000000;fill-opacity:1;fill-rule:nonzero;stroke:none"
     x="334.49783"
     y="208.4014"
     id="text4206"><tspan
       y="208.4014"
       x="334.49783"
       id="tspan4208"
       sodipodi:role="line">clk</tspan></text>
</svg>