<?xml version="1.0" encoding="UTF-8" standalone="no"?>
<svg
   xmlns:figma="http://www.figma.com/figma/ns"
   xmlns:dc="http://purl.org/dc/elements/1.1/"
   xmlns:cc="http://creativecommons.org/ns#"
   xmlns:rdf="http://www.w3.org/1999/02/22-rdf-syntax-ns#"
   xmlns:svg="http://www.w3.org/2000/svg"
   xmlns="http://www.w3.org/2000/svg"
   xmlns:sodipodi="http://sodipodi.sourceforge.net/DTD/sodipodi-0.dtd"
   xmlns:inkscape="http://www.inkscape.org/namespaces/inkscape"
   width="673.81433"
   height="430.61496"
   viewBox="0 0 673.81431 430.61497"
   version="1.1"
   id="svg2"
   inkscape:version="0.91 r13725"
   sodipodi:docname="registerMemoryBigEndianMediaPCFS.svg">
  <metadata
     id="metadata687">
    <rdf:RDF>
      <cc:Work
         rdf:about="">
        <dc:format>image/svg+xml</dc:format>
        <dc:type
           rdf:resource="http://purl.org/dc/dcmitype/StillImage" />
        <dc:title>memory</dc:title>
      </cc:Work>
    </rdf:RDF>
  </metadata>
  <sodipodi:namedview
     pagecolor="#ffffff"
     bordercolor="#666666"
     borderopacity="1"
     objecttolerance="10"
     gridtolerance="10"
     guidetolerance="10"
     inkscape:pageopacity="0"
     inkscape:pageshadow="2"
     inkscape:window-width="1855"
     inkscape:window-height="1056"
     id="namedview685"
     showgrid="false"
     inkscape:zoom="1.6681153"
     inkscape:cx="336.90717"
     inkscape:cy="215.30748"
     inkscape:window-x="1985"
     inkscape:window-y="24"
     inkscape:window-maximized="1"
     inkscape:current-layer="svg2"
     fit-margin-top="10"
     fit-margin-right="10"
     fit-margin-bottom="10"
     fit-margin-left="10"
     showguides="true"
     inkscape:guide-bbox="true" />
  <title
     id="title4">memory</title>
  <desc
     id="desc6">Created using Figma</desc>
  <g
     id="g361"
     style="mix-blend-mode:normal"
     figma:type="instance"
     transform="matrix(0.67611423,0,0,0.67611423,-1206.4398,-60.254604)" />
  <defs
     id="defs629">
    <path
       id="path0_fill"
       d="M 0,2 C 0,0.895431 0.895431,0 2,0 l 28,0 c 1.1046,0 2,0.895431 2,2 l 0,28 c 0,1.1046 -0.8954,2 -2,2 L 2,32 C 0.895431,32 0,31.1046 0,30 L 0,2 Z"
       inkscape:connector-curvature="0" />
    <path
       id="path1_stroke_2x"
       d="m 2,2 28,0 0,-4 -28,0 0,4 z m 28,0 0,28 4,0 0,-28 -4,0 z m 0,28 -28,0 0,4 28,0 0,-4 z M 2,30 2,2 -2,2 -2,30 2,30 Z M 2,-2 c -2.209139,0 -4,1.790861 -4,4 l 4,0 0,-4 z m 28,4 4,0 c 0,-2.209139 -1.7909,-4 -4,-4 l 0,4 z m 0,28 0,4 c 2.2091,0 4,-1.7909 4,-4 l -4,0 z m -28,0 -4,0 c 0,2.2091 1.790861,4 4,4 l 0,-4 z"
       inkscape:connector-curvature="0" />
    <path
       id="path2_fill"
       d="m 14.176,12.296 c 0.3093,0.416 0.5547,0.96 0.736,1.632 0.192,0.672 0.288,1.424 0.288,2.256 0,0.8427 -0.096,1.5787 -0.288,2.208 -0.1813,0.6187 -0.4267,1.136 -0.736,1.552 -0.2987,0.416 -0.64,0.7253 -1.024,0.928 -0.384,0.2027 -0.7733,0.304 -1.168,0.304 -0.4053,0 -0.8,-0.1227 -1.184,-0.368 C 10.416,20.5627 10.0747,20.2213 9.776,19.784 9.47733,19.336 9.23733,18.8027 9.056,18.184 8.88533,17.5547 8.8,16.8613 8.8,16.104 c 0,-0.7573 0.08533,-1.4507 0.256,-2.08 0.18133,-0.6293 0.42133,-1.168 0.72,-1.616 0.2987,-0.4587 0.64,-0.8107 1.024,-1.056 0.384,-0.256 0.7787,-0.384 1.184,-0.384 0.832,0 1.5627,0.4427 2.192,1.328 z M 13.584,13.24 C 13.3707,12.8133 13.1253,12.4933 12.848,12.28 12.5707,12.056 12.288,11.944 12,11.944 c -0.2667,0 -0.5333,0.096 -0.8,0.288 -0.256,0.192 -0.4853,0.4587 -0.688,0.8 -0.2027,0.3413 -0.368,0.7573 -0.496,1.248 -0.11733,0.4907 -0.176,1.0293 -0.176,1.616 0,0.6613 0.07467,1.2907 0.224,1.888 l 3.52,-4.544 z m 0.368,1.072 -3.52,4.48 c 0.256,0.48 0.5227,0.8267 0.8,1.04 0.288,0.2133 0.5707,0.32 0.848,0.32 0.288,0 0.5547,-0.0853 0.8,-0.256 0.256,-0.1813 0.4747,-0.4373 0.656,-0.768 0.192,-0.3307 0.3413,-0.7307 0.448,-1.2 0.1173,-0.48 0.176,-1.0187 0.176,-1.616 0,-0.3733 -0.016,-0.7253 -0.048,-1.056 -0.032,-0.3307 -0.0853,-0.6453 -0.16,-0.944 z m 8.224,-2.016 c 0.3093,0.416 0.5547,0.96 0.736,1.632 0.192,0.672 0.288,1.424 0.288,2.256 0,0.8427 -0.096,1.5787 -0.288,2.208 -0.1813,0.6187 -0.4267,1.136 -0.736,1.552 -0.2987,0.416 -0.64,0.7253 -1.024,0.928 -0.384,0.2027 -0.7733,0.304 -1.168,0.304 -0.4053,0 -0.8,-0.1227 -1.184,-0.368 -0.384,-0.2453 -0.7253,-0.5867 -1.024,-1.024 -0.2987,-0.448 -0.5387,-0.9813 -0.72,-1.6 -0.1707,-0.6293 -0.256,-1.3227 -0.256,-2.08 0,-0.7573 0.0853,-1.4507 0.256,-2.08 0.1813,-0.6293 0.4213,-1.168 0.72,-1.616 0.2987,-0.4587 0.64,-0.8107 1.024,-1.056 0.384,-0.256 0.7787,-0.384 1.184,-0.384 0.832,0 1.5627,0.4427 2.192,1.328 z M 21.584,13.24 C 21.3707,12.8133 21.1253,12.4933 20.848,12.28 20.5707,12.056 20.288,11.944 20,11.944 c -0.2667,0 -0.5333,0.096 -0.8,0.288 -0.256,0.192 -0.4853,0.4587 -0.688,0.8 -0.2027,0.3413 -0.368,0.7573 -0.496,1.248 -0.1173,0.4907 -0.176,1.0293 -0.176,1.616 0,0.6613 0.0747,1.2907 0.224,1.888 l 3.52,-4.544 z m 0.368,1.072 -3.52,4.48 c 0.256,0.48 0.5227,0.8267 0.8,1.04 0.288,0.2133 0.5707,0.32 0.848,0.32 0.288,0 0.5547,-0.0853 0.8,-0.256 0.256,-0.1813 0.4747,-0.4373 0.656,-0.768 0.192,-0.3307 0.3413,-0.7307 0.448,-1.2 0.1173,-0.48 0.176,-1.0187 0.176,-1.616 0,-0.3733 -0.016,-0.7253 -0.048,-1.056 -0.032,-0.3307 -0.0853,-0.6453 -0.16,-0.944 z"
       inkscape:connector-curvature="0" />
    <path
       id="path3_fill"
       d="M 0,2 C 0,0.895431 0.895431,0 2,0 l 28,0 c 1.1046,0 2,0.895431 2,2 l 0,28 c 0,1.1046 -0.8954,2 -2,2 L 2,32 C 0.895431,32 0,31.1046 0,30 L 0,2 Z"
       inkscape:connector-curvature="0" />
    <path
       id="path4_stroke_2x"
       d="m 2,2 28,0 0,-4 -28,0 0,4 z m 28,0 0,28 4,0 0,-28 -4,0 z m 0,28 -28,0 0,4 28,0 0,-4 z M 2,30 2,2 -2,2 -2,30 2,30 Z M 2,-2 c -2.209139,0 -4,1.790861 -4,4 l 4,0 0,0 0,-4 z m 28,4 0,0 4,0 c 0,-2.209139 -1.7909,-4 -4,-4 l 0,4 z m 0,28 0,4 c 2.2091,0 4,-1.7909 4,-4 l -4,0 z m -28,0 0,0 -4,0 c 0,2.2091 1.790861,4 4,4 l 0,-4 z"
       inkscape:connector-curvature="0" />
    <path
       id="path5_fill"
       d="m 14.176,12.296 c 0.3093,0.416 0.5547,0.96 0.736,1.632 0.192,0.672 0.288,1.424 0.288,2.256 0,0.8427 -0.096,1.5787 -0.288,2.208 -0.1813,0.6187 -0.4267,1.136 -0.736,1.552 -0.2987,0.416 -0.64,0.7253 -1.024,0.928 -0.384,0.2027 -0.7733,0.304 -1.168,0.304 -0.4053,0 -0.8,-0.1227 -1.184,-0.368 C 10.416,20.5627 10.0747,20.2213 9.776,19.784 9.47733,19.336 9.23733,18.8027 9.056,18.184 8.88533,17.5547 8.8,16.8613 8.8,16.104 c 0,-0.7573 0.08533,-1.4507 0.256,-2.08 0.18133,-0.6293 0.42133,-1.168 0.72,-1.616 0.2987,-0.4587 0.64,-0.8107 1.024,-1.056 0.384,-0.256 0.7787,-0.384 1.184,-0.384 0.832,0 1.5627,0.4427 2.192,1.328 z M 13.584,13.24 C 13.3707,12.8133 13.1253,12.4933 12.848,12.28 12.5707,12.056 12.288,11.944 12,11.944 c -0.2667,0 -0.5333,0.096 -0.8,0.288 -0.256,0.192 -0.4853,0.4587 -0.688,0.8 -0.2027,0.3413 -0.368,0.7573 -0.496,1.248 -0.11733,0.4907 -0.176,1.0293 -0.176,1.616 0,0.6613 0.07467,1.2907 0.224,1.888 l 3.52,-4.544 z m 0.368,1.072 -3.52,4.48 c 0.256,0.48 0.5227,0.8267 0.8,1.04 0.288,0.2133 0.5707,0.32 0.848,0.32 0.288,0 0.5547,-0.0853 0.8,-0.256 0.256,-0.1813 0.4747,-0.4373 0.656,-0.768 0.192,-0.3307 0.3413,-0.7307 0.448,-1.2 0.1173,-0.48 0.176,-1.0187 0.176,-1.616 0,-0.3733 -0.016,-0.7253 -0.048,-1.056 -0.032,-0.3307 -0.0853,-0.6453 -0.16,-0.944 z m 8.224,-2.016 c 0.3093,0.416 0.5547,0.96 0.736,1.632 0.192,0.672 0.288,1.424 0.288,2.256 0,0.8427 -0.096,1.5787 -0.288,2.208 -0.1813,0.6187 -0.4267,1.136 -0.736,1.552 -0.2987,0.416 -0.64,0.7253 -1.024,0.928 -0.384,0.2027 -0.7733,0.304 -1.168,0.304 -0.4053,0 -0.8,-0.1227 -1.184,-0.368 -0.384,-0.2453 -0.7253,-0.5867 -1.024,-1.024 -0.2987,-0.448 -0.5387,-0.9813 -0.72,-1.6 -0.1707,-0.6293 -0.256,-1.3227 -0.256,-2.08 0,-0.7573 0.0853,-1.4507 0.256,-2.08 0.1813,-0.6293 0.4213,-1.168 0.72,-1.616 0.2987,-0.4587 0.64,-0.8107 1.024,-1.056 0.384,-0.256 0.7787,-0.384 1.184,-0.384 0.832,0 1.5627,0.4427 2.192,1.328 z M 21.584,13.24 C 21.3707,12.8133 21.1253,12.4933 20.848,12.28 20.5707,12.056 20.288,11.944 20,11.944 c -0.2667,0 -0.5333,0.096 -0.8,0.288 -0.256,0.192 -0.4853,0.4587 -0.688,0.8 -0.2027,0.3413 -0.368,0.7573 -0.496,1.248 -0.1173,0.4907 -0.176,1.0293 -0.176,1.616 0,0.6613 0.0747,1.2907 0.224,1.888 l 3.52,-4.544 z m 0.368,1.072 -3.52,4.48 c 0.256,0.48 0.5227,0.8267 0.8,1.04 0.288,0.2133 0.5707,0.32 0.848,0.32 0.288,0 0.5547,-0.0853 0.8,-0.256 0.256,-0.1813 0.4747,-0.4373 0.656,-0.768 0.192,-0.3307 0.3413,-0.7307 0.448,-1.2 0.1173,-0.48 0.176,-1.0187 0.176,-1.616 0,-0.3733 -0.016,-0.7253 -0.048,-1.056 -0.032,-0.3307 -0.0853,-0.6453 -0.16,-0.944 z"
       inkscape:connector-curvature="0" />
    <path
       id="path6_fill"
       d="m 18.176,12.296 c 0.3093,0.416 0.5547,0.96 0.736,1.632 0.192,0.672 0.288,1.424 0.288,2.256 0,0.8427 -0.096,1.5787 -0.288,2.208 -0.1813,0.6187 -0.4267,1.136 -0.736,1.552 -0.2987,0.416 -0.64,0.7253 -1.024,0.928 -0.384,0.2027 -0.7733,0.304 -1.168,0.304 -0.4053,0 -0.8,-0.1227 -1.184,-0.368 -0.384,-0.2453 -0.7253,-0.5867 -1.024,-1.024 -0.2987,-0.448 -0.5387,-0.9813 -0.72,-1.6 -0.1707,-0.6293 -0.256,-1.3227 -0.256,-2.08 0,-0.7573 0.0853,-1.4507 0.256,-2.08 0.1813,-0.6293 0.4213,-1.168 0.72,-1.616 0.2987,-0.4587 0.64,-0.8107 1.024,-1.056 0.384,-0.256 0.7787,-0.384 1.184,-0.384 0.832,0 1.5627,0.4427 2.192,1.328 z M 17.584,13.24 C 17.3707,12.8133 17.1253,12.4933 16.848,12.28 16.5707,12.056 16.288,11.944 16,11.944 c -0.2667,0 -0.5333,0.096 -0.8,0.288 -0.256,0.192 -0.4853,0.4587 -0.688,0.8 -0.2027,0.3413 -0.368,0.7573 -0.496,1.248 -0.1173,0.4907 -0.176,1.0293 -0.176,1.616 0,0.6613 0.0747,1.2907 0.224,1.888 l 3.52,-4.544 z m 0.368,1.072 -3.52,4.48 c 0.256,0.48 0.5227,0.8267 0.8,1.04 0.288,0.2133 0.5707,0.32 0.848,0.32 0.288,0 0.5547,-0.0853 0.8,-0.256 0.256,-0.1813 0.4747,-0.4373 0.656,-0.768 0.192,-0.3307 0.3413,-0.7307 0.448,-1.2 0.1173,-0.48 0.176,-1.0187 0.176,-1.616 0,-0.3733 -0.016,-0.7253 -0.048,-1.056 -0.032,-0.3307 -0.0853,-0.6453 -0.16,-0.944 z"
       inkscape:connector-curvature="0" />
    <path
       id="path7_fill"
       d="m 16.784,11.016 0,9.984 -1.104,0 0,-8.592 -2.016,0.592 -0.256,-0.624 2.608,-1.36 0.768,0 z"
       inkscape:connector-curvature="0" />
    <path
       id="path8_fill"
       d="m 13.248,12.584 c 0.288,-0.512 0.6773,-0.9067 1.168,-1.184 0.5013,-0.288 1.04,-0.432 1.616,-0.432 0.3947,0 0.768,0.0747 1.12,0.224 0.352,0.1387 0.6613,0.336 0.928,0.592 0.2667,0.256 0.4747,0.5547 0.624,0.896 0.1493,0.3413 0.224,0.704 0.224,1.088 0,0.3093 -0.048,0.6027 -0.144,0.88 -0.0853,0.2773 -0.2027,0.544 -0.352,0.8 -0.1493,0.2453 -0.3253,0.4853 -0.528,0.72 -0.192,0.224 -0.3947,0.432 -0.608,0.624 l -0.96,0.896 c -0.1387,0.128 -0.2933,0.2827 -0.464,0.464 -0.1707,0.1707 -0.3413,0.3573 -0.512,0.56 -0.16,0.2027 -0.32,0.416 -0.48,0.64 -0.16,0.224 -0.2987,0.448 -0.416,0.672 l 4.176,0 c 0.0533,0 0.1067,-0.0213 0.16,-0.064 0.064,-0.0533 0.1227,-0.08 0.176,-0.08 l 0.048,0 0,1.12 -5.856,0 0,-0.704 c 0.3947,-0.7787 0.8213,-1.4507 1.28,-2.016 0.4587,-0.5653 0.9013,-1.04 1.328,-1.424 l 0.768,-0.704 c 0.2667,-0.2453 0.48,-0.4693 0.64,-0.672 0.1707,-0.2133 0.304,-0.416 0.4,-0.608 0.096,-0.192 0.16,-0.3733 0.192,-0.544 0.032,-0.1813 0.048,-0.3627 0.048,-0.544 0,-0.2347 -0.048,-0.4587 -0.144,-0.672 -0.096,-0.224 -0.2347,-0.4213 -0.416,-0.592 -0.1707,-0.1813 -0.368,-0.32 -0.592,-0.416 -0.2133,-0.1067 -0.4373,-0.16 -0.672,-0.16 -0.2773,0 -0.528,0.0427 -0.752,0.128 -0.2133,0.0747 -0.4053,0.1707 -0.576,0.288 -0.16,0.1067 -0.288,0.224 -0.384,0.352 -0.096,0.1173 -0.1493,0.224 -0.16,0.32 -0.0213,0.096 -0.0427,0.16 -0.064,0.192 l -0.816,-0.64 z"
       inkscape:connector-curvature="0" />
    <path
       id="path9_fill"
       d="m 18.576,13.528 c 0,0.48 -0.1387,0.9173 -0.416,1.312 -0.2667,0.3947 -0.624,0.6773 -1.072,0.848 0.512,0.1813 0.9227,0.5067 1.232,0.976 0.32,0.4693 0.48,1.0027 0.48,1.6 0,0.3947 -0.0747,0.768 -0.224,1.12 -0.1387,0.352 -0.3467,0.6613 -0.624,0.928 -0.2667,0.2667 -0.5973,0.48 -0.992,0.64 -0.3947,0.1493 -0.8427,0.224 -1.344,0.224 -0.9813,0 -1.8187,-0.3787 -2.512,-1.136 l 0.848,-1.008 c 0.0427,0.0427 0.0747,0.1173 0.096,0.224 0.0213,0.096 0.0587,0.176 0.112,0.24 l 0.224,0.208 c 0.0853,0.0853 0.256,0.1813 0.512,0.288 0.2667,0.1067 0.5387,0.16 0.816,0.16 0.288,0 0.5547,-0.0533 0.8,-0.16 0.2453,-0.1067 0.4587,-0.2507 0.64,-0.432 0.1813,-0.192 0.32,-0.4107 0.416,-0.656 0.1067,-0.256 0.16,-0.5227 0.16,-0.8 0,-0.576 -0.2187,-1.0293 -0.656,-1.36 -0.4267,-0.3413 -0.992,-0.512 -1.696,-0.512 -0.0853,0 -0.1707,0.0053 -0.256,0.016 -0.0747,0 -0.1547,0.0053 -0.24,0.016 l 0,-0.896 c 0.4907,0 0.9013,-0.048 1.232,-0.144 0.3307,-0.1067 0.5973,-0.2453 0.8,-0.416 0.2133,-0.1707 0.3627,-0.368 0.448,-0.592 0.096,-0.2347 0.144,-0.4853 0.144,-0.752 0,-0.192 -0.0427,-0.3733 -0.128,-0.544 -0.0853,-0.1813 -0.2027,-0.336 -0.352,-0.464 -0.1493,-0.1387 -0.3307,-0.2507 -0.544,-0.336 -0.2133,-0.0853 -0.448,-0.128 -0.704,-0.128 -0.6827,0 -1.2533,0.256 -1.712,0.768 L 13.44,12.072 C 14.0907,11.3573 14.8853,11 15.824,11 c 0.384,0 0.7413,0.0693 1.072,0.208 0.3413,0.128 0.6347,0.3093 0.88,0.544 0.2453,0.2347 0.4373,0.5067 0.576,0.816 0.1493,0.2987 0.224,0.6187 0.224,0.96 z"
       inkscape:connector-curvature="0" />
    <path
       id="path10_fill"
       d="m 17.008,11.016 0.944,0 0,6.24 1.28,0 0,0.992 -1.28,0 0,2.752 -1.168,0 0,-2.768 -4.016,0 0,-0.816 4.24,-6.4 z m -0.208,1.776 -2.928,4.464 2.928,0 0,-4.464 z"
       inkscape:connector-curvature="0" />
    <path
       id="path11_fill"
       d="m 13.696,11.032 5.056,0 0,1.008 -4.112,0 -0.16,2.864 c 0.5227,-0.256 1.0667,-0.384 1.632,-0.384 0.4267,0 0.8213,0.08 1.184,0.24 0.3733,0.1493 0.6933,0.3733 0.96,0.672 0.2773,0.288 0.4907,0.64 0.64,1.056 0.1493,0.4053 0.224,0.864 0.224,1.376 0,0.512 -0.08,0.976 -0.24,1.392 -0.16,0.4053 -0.384,0.752 -0.672,1.04 -0.2773,0.288 -0.608,0.5067 -0.992,0.656 -0.3733,0.1493 -0.784,0.224 -1.232,0.224 -0.608,0 -1.1733,-0.1333 -1.696,-0.4 -0.512,-0.2667 -0.9333,-0.6453 -1.264,-1.136 l 0.992,-0.736 c 0.0533,0.032 0.08,0.096 0.08,0.192 0.0107,0.096 0.0213,0.1547 0.032,0.176 0.0427,0.0747 0.1173,0.1653 0.224,0.272 0.1067,0.1067 0.24,0.208 0.4,0.304 0.1707,0.096 0.3627,0.1813 0.576,0.256 0.224,0.064 0.464,0.096 0.72,0.096 0.256,0 0.5013,-0.0533 0.736,-0.16 0.2347,-0.1173 0.4373,-0.2773 0.608,-0.48 0.1813,-0.2027 0.3253,-0.448 0.432,-0.736 0.1067,-0.2987 0.16,-0.6347 0.16,-1.008 0,-0.3733 -0.0533,-0.704 -0.16,-0.992 -0.1067,-0.2987 -0.256,-0.5493 -0.448,-0.752 -0.1813,-0.2027 -0.3947,-0.3573 -0.64,-0.464 -0.2453,-0.1067 -0.512,-0.16 -0.8,-0.16 -0.3413,0 -0.6773,0.0853 -1.008,0.256 -0.3307,0.16 -0.6187,0.3893 -0.864,0.688 l -0.704,-0.288 0.336,-5.072 z"
       inkscape:connector-curvature="0" />
    <path
       id="path12_fill"
       d="m 16.592,10.92 c 0.832,0 1.5627,0.304 2.192,0.912 L 18,12.68 c -0.096,-0.0853 -0.16,-0.176 -0.192,-0.272 -0.032,-0.1067 -0.1067,-0.1813 -0.224,-0.224 -0.16,-0.1067 -0.3253,-0.176 -0.496,-0.208 -0.16,-0.0427 -0.3147,-0.064 -0.464,-0.064 -0.2133,0 -0.464,0.0533 -0.752,0.16 -0.2773,0.096 -0.5387,0.2827 -0.784,0.56 -0.2453,0.2773 -0.4587,0.672 -0.64,1.184 -0.1707,0.5013 -0.2613,1.152 -0.272,1.952 0.224,-0.3733 0.5227,-0.6667 0.896,-0.88 0.384,-0.2133 0.7893,-0.32 1.216,-0.32 0.3733,0 0.7253,0.08 1.056,0.24 0.3307,0.1493 0.6187,0.368 0.864,0.656 0.256,0.288 0.4533,0.6347 0.592,1.04 0.1493,0.3947 0.224,0.8373 0.224,1.328 0,0.4907 -0.0747,0.944 -0.224,1.36 -0.1493,0.4053 -0.352,0.7573 -0.608,1.056 -0.256,0.288 -0.56,0.512 -0.912,0.672 -0.3413,0.16 -0.7093,0.24 -1.104,0.24 -0.5013,0 -0.944,-0.1067 -1.328,-0.32 C 14.464,20.616 14.1387,20.3013 13.872,19.896 13.616,19.4907 13.4187,19 13.28,18.424 c -0.1387,-0.5867 -0.208,-1.2427 -0.208,-1.968 0,-0.896 0.08,-1.6853 0.24,-2.368 0.1707,-0.6933 0.4107,-1.2747 0.72,-1.744 0.3093,-0.4693 0.6773,-0.8213 1.104,-1.056 0.4373,-0.2453 0.9227,-0.368 1.456,-0.368 z m -2.352,5.968 c -0.0107,0.064 -0.016,0.128 -0.016,0.192 0,0.064 0,0.128 0,0.192 0,0.416 0.048,0.8 0.144,1.152 0.1067,0.352 0.2507,0.656 0.432,0.912 0.1813,0.256 0.3947,0.4587 0.64,0.608 0.2453,0.1493 0.5067,0.224 0.784,0.224 0.4587,0 0.8587,-0.1973 1.2,-0.592 0.3413,-0.3947 0.512,-0.9707 0.512,-1.728 0,-0.4053 -0.0533,-0.752 -0.16,-1.04 -0.1067,-0.288 -0.2453,-0.5227 -0.416,-0.704 -0.16,-0.192 -0.3467,-0.3307 -0.56,-0.416 -0.2027,-0.096 -0.4053,-0.144 -0.608,-0.144 -0.384,0 -0.752,0.1333 -1.104,0.4 -0.352,0.256 -0.6347,0.5707 -0.848,0.944 z"
       inkscape:connector-curvature="0" />
    <path
       id="path13_fill"
       d="m 18.912,11.656 c -0.672,1.536 -1.3013,3.0773 -1.888,4.624 -0.576,1.5467 -1.1093,3.12 -1.6,4.72 l -1.264,0 c 0.512,-1.5253 1.0453,-3.024 1.6,-4.496 0.5547,-1.472 1.1413,-2.944 1.76,-4.416 l -4.256,0 0,-1.056 5.648,0 0,0.624 z"
       inkscape:connector-curvature="0" />
    <path
       id="path14_fill"
       d="m 18.72,13.272 c 0,0.48 -0.144,0.9387 -0.432,1.376 -0.288,0.4267 -0.672,0.768 -1.152,1.024 0.576,0.2667 1.04,0.6507 1.392,1.152 0.352,0.4907 0.528,1.024 0.528,1.6 0,0.384 -0.08,0.7467 -0.24,1.088 -0.16,0.3307 -0.3787,0.6187 -0.656,0.864 -0.2667,0.2453 -0.5867,0.4373 -0.96,0.576 -0.3733,0.1387 -0.7733,0.208 -1.2,0.208 -0.4267,0 -0.8267,-0.0693 -1.2,-0.208 -0.3733,-0.1387 -0.6987,-0.3253 -0.976,-0.56 -0.2667,-0.2453 -0.48,-0.528 -0.64,-0.848 -0.1493,-0.3307 -0.224,-0.6827 -0.224,-1.056 0,-0.576 0.1813,-1.1147 0.544,-1.616 0.3627,-0.5013 0.848,-0.8907 1.456,-1.168 -0.4587,-0.2347 -0.8267,-0.56 -1.104,-0.976 -0.2773,-0.4267 -0.416,-0.88 -0.416,-1.36 0,-0.3413 0.0693,-0.6613 0.208,-0.96 0.1387,-0.2987 0.3307,-0.56 0.576,-0.784 0.2453,-0.224 0.528,-0.4 0.848,-0.528 0.32,-0.128 0.6667,-0.192 1.04,-0.192 0.3733,0 0.72,0.064 1.04,0.192 0.32,0.1173 0.592,0.288 0.816,0.512 0.2347,0.2133 0.416,0.464 0.544,0.752 0.1387,0.288 0.208,0.592 0.208,0.912 z m -2.928,2.88 c -0.48,0.2027 -0.88,0.5067 -1.2,0.912 -0.32,0.3947 -0.48,0.832 -0.48,1.312 0,0.2453 0.048,0.4747 0.144,0.688 0.1067,0.2133 0.2453,0.4 0.416,0.56 0.1813,0.16 0.384,0.288 0.608,0.384 0.2347,0.096 0.4853,0.144 0.752,0.144 0.2667,0 0.512,-0.0427 0.736,-0.128 0.2347,-0.096 0.4373,-0.2187 0.608,-0.368 0.1707,-0.16 0.304,-0.3413 0.4,-0.544 0.096,-0.2133 0.144,-0.4427 0.144,-0.688 0,-0.4907 -0.192,-0.9387 -0.576,-1.344 -0.384,-0.416 -0.9013,-0.7253 -1.552,-0.928 z m -1.008,-2.016 c 0.128,0.2133 0.2933,0.4 0.496,0.56 0.2133,0.1493 0.4533,0.2933 0.72,0.432 l 0.272,0.144 c 0.3947,-0.2133 0.72,-0.5013 0.976,-0.864 0.256,-0.3627 0.384,-0.7307 0.384,-1.104 0,-0.192 -0.0427,-0.3733 -0.128,-0.544 -0.0747,-0.1707 -0.1867,-0.3253 -0.336,-0.464 -0.1387,-0.1387 -0.304,-0.2453 -0.496,-0.32 -0.192,-0.0853 -0.4,-0.128 -0.624,-0.128 -0.224,0 -0.432,0.0427 -0.624,0.128 -0.1813,0.0747 -0.3413,0.176 -0.48,0.304 -0.1387,0.128 -0.2453,0.2773 -0.32,0.448 -0.0747,0.1707 -0.112,0.3467 -0.112,0.528 0,0.32 0.0907,0.6133 0.272,0.88 z"
       inkscape:connector-curvature="0" />
    <path
       id="path15_fill"
       d="m 15.472,21.16 c -0.8533,0 -1.5893,-0.304 -2.208,-0.912 L 14.048,19.4 c 0.0533,0.032 0.096,0.096 0.128,0.192 0.0427,0.096 0.0853,0.16 0.128,0.192 0.3093,0.2453 0.688,0.368 1.136,0.368 0.8,0 1.3973,-0.2987 1.792,-0.896 0.3947,-0.608 0.6133,-1.5893 0.656,-2.944 -0.2347,0.3307 -0.5333,0.592 -0.896,0.784 -0.3627,0.192 -0.752,0.288 -1.168,0.288 -0.3733,0 -0.7253,-0.0747 -1.056,-0.224 -0.3307,-0.16 -0.624,-0.3787 -0.88,-0.656 -0.2453,-0.2773 -0.4427,-0.608 -0.592,-0.992 -0.1387,-0.3947 -0.208,-0.8267 -0.208,-1.296 0,-0.4693 0.0747,-0.9013 0.224,-1.296 0.1493,-0.4053 0.352,-0.752 0.608,-1.04 0.2667,-0.2987 0.5707,-0.528 0.912,-0.688 0.352,-0.1707 0.7253,-0.256 1.12,-0.256 0.9707,0 1.7173,0.4213 2.24,1.264 0.5333,0.832 0.8,2.1707 0.8,4.016 0,0.8427 -0.096,1.5733 -0.288,2.192 -0.1813,0.6187 -0.432,1.1307 -0.752,1.536 -0.32,0.3947 -0.6933,0.6933 -1.12,0.896 -0.4267,0.2027 -0.88,0.3093 -1.36,0.32 z m 2.352,-5.968 c 0.0107,-0.0853 0.016,-0.1653 0.016,-0.24 0,-0.0853 0,-0.1707 0,-0.256 0,-0.416 -0.0533,-0.7947 -0.16,-1.136 -0.096,-0.3413 -0.2293,-0.6293 -0.4,-0.864 -0.1707,-0.2453 -0.368,-0.432 -0.592,-0.56 -0.224,-0.1387 -0.4533,-0.208 -0.688,-0.208 -0.544,0 -0.9867,0.2027 -1.328,0.608 -0.3307,0.4053 -0.496,0.96 -0.496,1.664 0,0.3413 0.048,0.6507 0.144,0.928 0.096,0.2667 0.2187,0.496 0.368,0.688 0.16,0.192 0.336,0.3413 0.528,0.448 0.2027,0.096 0.4107,0.144 0.624,0.144 0.4267,0 0.8053,-0.1067 1.136,-0.32 0.3413,-0.224 0.624,-0.5227 0.848,-0.896 z"
       inkscape:connector-curvature="0" />
    <path
       id="path16_fill"
       d="m 12.784,11.016 0,9.984 -1.104,0 0,-8.592 L 9.664,13 9.408,12.376 l 2.608,-1.36 0.768,0 z m 9.392,1.28 c 0.3093,0.416 0.5547,0.96 0.736,1.632 0.192,0.672 0.288,1.424 0.288,2.256 0,0.8427 -0.096,1.5787 -0.288,2.208 -0.1813,0.6187 -0.4267,1.136 -0.736,1.552 -0.2987,0.416 -0.64,0.7253 -1.024,0.928 -0.384,0.2027 -0.7733,0.304 -1.168,0.304 -0.4053,0 -0.8,-0.1227 -1.184,-0.368 -0.384,-0.2453 -0.7253,-0.5867 -1.024,-1.024 -0.2987,-0.448 -0.5387,-0.9813 -0.72,-1.6 -0.1707,-0.6293 -0.256,-1.3227 -0.256,-2.08 0,-0.7573 0.0853,-1.4507 0.256,-2.08 0.1813,-0.6293 0.4213,-1.168 0.72,-1.616 0.2987,-0.4587 0.64,-0.8107 1.024,-1.056 0.384,-0.256 0.7787,-0.384 1.184,-0.384 0.832,0 1.5627,0.4427 2.192,1.328 z M 21.584,13.24 C 21.3707,12.8133 21.1253,12.4933 20.848,12.28 20.5707,12.056 20.288,11.944 20,11.944 c -0.2667,0 -0.5333,0.096 -0.8,0.288 -0.256,0.192 -0.4853,0.4587 -0.688,0.8 -0.2027,0.3413 -0.368,0.7573 -0.496,1.248 -0.1173,0.4907 -0.176,1.0293 -0.176,1.616 0,0.6613 0.0747,1.2907 0.224,1.888 l 3.52,-4.544 z m 0.368,1.072 -3.52,4.48 c 0.256,0.48 0.5227,0.8267 0.8,1.04 0.288,0.2133 0.5707,0.32 0.848,0.32 0.288,0 0.5547,-0.0853 0.8,-0.256 0.256,-0.1813 0.4747,-0.4373 0.656,-0.768 0.192,-0.3307 0.3413,-0.7307 0.448,-1.2 0.1173,-0.48 0.176,-1.0187 0.176,-1.616 0,-0.3733 -0.016,-0.7253 -0.048,-1.056 -0.032,-0.3307 -0.0853,-0.6453 -0.16,-0.944 z"
       inkscape:connector-curvature="0" />
    <path
       id="path17_fill"
       d="m 12.784,11.016 0,9.984 -1.104,0 0,-8.592 L 9.664,13 9.408,12.376 l 2.608,-1.36 0.768,0 z m 8,0 0,9.984 -1.104,0 0,-8.592 -2.016,0.592 -0.256,-0.624 2.608,-1.36 0.768,0 z"
       inkscape:connector-curvature="0" />
    <path
       id="path18_fill"
       d="m 12.784,11.016 0,9.984 -1.104,0 0,-8.592 L 9.664,13 9.408,12.376 l 2.608,-1.36 0.768,0 z m 4.464,1.568 c 0.288,-0.512 0.6773,-0.9067 1.168,-1.184 0.5013,-0.288 1.04,-0.432 1.616,-0.432 0.3947,0 0.768,0.0747 1.12,0.224 0.352,0.1387 0.6613,0.336 0.928,0.592 0.2667,0.256 0.4747,0.5547 0.624,0.896 0.1493,0.3413 0.224,0.704 0.224,1.088 0,0.3093 -0.048,0.6027 -0.144,0.88 -0.0853,0.2773 -0.2027,0.544 -0.352,0.8 -0.1493,0.2453 -0.3253,0.4853 -0.528,0.72 -0.192,0.224 -0.3947,0.432 -0.608,0.624 l -0.96,0.896 c -0.1387,0.128 -0.2933,0.2827 -0.464,0.464 -0.1707,0.1707 -0.3413,0.3573 -0.512,0.56 -0.16,0.2027 -0.32,0.416 -0.48,0.64 -0.16,0.224 -0.2987,0.448 -0.416,0.672 l 4.176,0 c 0.0533,0 0.1067,-0.0213 0.16,-0.064 0.064,-0.0533 0.1227,-0.08 0.176,-0.08 l 0.048,0 0,1.12 -5.856,0 0,-0.704 c 0.3947,-0.7787 0.8213,-1.4507 1.28,-2.016 0.4587,-0.5653 0.9013,-1.04 1.328,-1.424 l 0.768,-0.704 c 0.2667,-0.2453 0.48,-0.4693 0.64,-0.672 0.1707,-0.2133 0.304,-0.416 0.4,-0.608 0.096,-0.192 0.16,-0.3733 0.192,-0.544 0.032,-0.1813 0.048,-0.3627 0.048,-0.544 0,-0.2347 -0.048,-0.4587 -0.144,-0.672 -0.096,-0.224 -0.2347,-0.4213 -0.416,-0.592 -0.1707,-0.1813 -0.368,-0.32 -0.592,-0.416 -0.2133,-0.1067 -0.4373,-0.16 -0.672,-0.16 -0.2773,0 -0.528,0.0427 -0.752,0.128 -0.2133,0.0747 -0.4053,0.1707 -0.576,0.288 -0.16,0.1067 -0.288,0.224 -0.384,0.352 -0.096,0.1173 -0.1493,0.224 -0.16,0.32 -0.0213,0.096 -0.0427,0.16 -0.064,0.192 l -0.816,-0.64 z"
       inkscape:connector-curvature="0" />
    <path
       id="path19_fill"
       d="m 12.784,11.016 0,9.984 -1.104,0 0,-8.592 L 9.664,13 9.408,12.376 l 2.608,-1.36 0.768,0 z m 9.792,2.512 c 0,0.48 -0.1387,0.9173 -0.416,1.312 -0.2667,0.3947 -0.624,0.6773 -1.072,0.848 0.512,0.1813 0.9227,0.5067 1.232,0.976 0.32,0.4693 0.48,1.0027 0.48,1.6 0,0.3947 -0.0747,0.768 -0.224,1.12 -0.1387,0.352 -0.3467,0.6613 -0.624,0.928 -0.2667,0.2667 -0.5973,0.48 -0.992,0.64 -0.3947,0.1493 -0.8427,0.224 -1.344,0.224 -0.9813,0 -1.8187,-0.3787 -2.512,-1.136 l 0.848,-1.008 c 0.0427,0.0427 0.0747,0.1173 0.096,0.224 0.0213,0.096 0.0587,0.176 0.112,0.24 l 0.224,0.208 c 0.0853,0.0853 0.256,0.1813 0.512,0.288 0.2667,0.1067 0.5387,0.16 0.816,0.16 0.288,0 0.5547,-0.0533 0.8,-0.16 0.2453,-0.1067 0.4587,-0.2507 0.64,-0.432 0.1813,-0.192 0.32,-0.4107 0.416,-0.656 0.1067,-0.256 0.16,-0.5227 0.16,-0.8 0,-0.576 -0.2187,-1.0293 -0.656,-1.36 -0.4267,-0.3413 -0.992,-0.512 -1.696,-0.512 -0.0853,0 -0.1707,0.0053 -0.256,0.016 -0.0747,0 -0.1547,0.0053 -0.24,0.016 l 0,-0.896 c 0.4907,0 0.9013,-0.048 1.232,-0.144 0.3307,-0.1067 0.5973,-0.2453 0.8,-0.416 0.2133,-0.1707 0.3627,-0.368 0.448,-0.592 0.096,-0.2347 0.144,-0.4853 0.144,-0.752 0,-0.192 -0.0427,-0.3733 -0.128,-0.544 -0.0853,-0.1813 -0.2027,-0.336 -0.352,-0.464 -0.1493,-0.1387 -0.3307,-0.2507 -0.544,-0.336 -0.2133,-0.0853 -0.448,-0.128 -0.704,-0.128 -0.6827,0 -1.2533,0.256 -1.712,0.768 L 17.44,12.072 C 18.0907,11.3573 18.8853,11 19.824,11 c 0.384,0 0.7413,0.0693 1.072,0.208 0.3413,0.128 0.6347,0.3093 0.88,0.544 0.2453,0.2347 0.4373,0.5067 0.576,0.816 0.1493,0.2987 0.224,0.6187 0.224,0.96 z"
       inkscape:connector-curvature="0" />
    <path
       id="path20_fill"
       d="m 12.784,11.016 0,9.984 -1.104,0 0,-8.592 L 9.664,13 9.408,12.376 l 2.608,-1.36 0.768,0 z m 8.224,0 0.944,0 0,6.24 1.28,0 0,0.992 -1.28,0 0,2.752 -1.168,0 0,-2.768 -4.016,0 0,-0.816 4.24,-6.4 z m -0.208,1.776 -2.928,4.464 2.928,0 0,-4.464 z"
       inkscape:connector-curvature="0" />
    <path
       id="path21_fill"
       d="m 12.784,11.016 0,9.984 -1.104,0 0,-8.592 L 9.664,13 9.408,12.376 l 2.608,-1.36 0.768,0 z m 4.912,0.016 5.056,0 0,1.008 -4.112,0 -0.16,2.864 c 0.5227,-0.256 1.0667,-0.384 1.632,-0.384 0.4267,0 0.8213,0.08 1.184,0.24 0.3733,0.1493 0.6933,0.3733 0.96,0.672 0.2773,0.288 0.4907,0.64 0.64,1.056 0.1493,0.4053 0.224,0.864 0.224,1.376 0,0.512 -0.08,0.976 -0.24,1.392 -0.16,0.4053 -0.384,0.752 -0.672,1.04 -0.2773,0.288 -0.608,0.5067 -0.992,0.656 -0.3733,0.1493 -0.784,0.224 -1.232,0.224 -0.608,0 -1.1733,-0.1333 -1.696,-0.4 -0.512,-0.2667 -0.9333,-0.6453 -1.264,-1.136 l 0.992,-0.736 c 0.0533,0.032 0.08,0.096 0.08,0.192 0.0107,0.096 0.0213,0.1547 0.032,0.176 0.0427,0.0747 0.1173,0.1653 0.224,0.272 0.1067,0.1067 0.24,0.208 0.4,0.304 0.1707,0.096 0.3627,0.1813 0.576,0.256 0.224,0.064 0.464,0.096 0.72,0.096 0.256,0 0.5013,-0.0533 0.736,-0.16 0.2347,-0.1173 0.4373,-0.2773 0.608,-0.48 0.1813,-0.2027 0.3253,-0.448 0.432,-0.736 0.1067,-0.2987 0.16,-0.6347 0.16,-1.008 0,-0.3733 -0.0533,-0.704 -0.16,-0.992 -0.1067,-0.2987 -0.256,-0.5493 -0.448,-0.752 -0.1813,-0.2027 -0.3947,-0.3573 -0.64,-0.464 -0.2453,-0.1067 -0.512,-0.16 -0.8,-0.16 -0.3413,0 -0.6773,0.0853 -1.008,0.256 -0.3307,0.16 -0.6187,0.3893 -0.864,0.688 l -0.704,-0.288 0.336,-5.072 z"
       inkscape:connector-curvature="0" />
    <path
       id="path22_fill"
       d="m 12.784,11.016 0,9.984 -1.104,0 0,-8.592 L 9.664,13 9.408,12.376 l 2.608,-1.36 0.768,0 z m 7.808,-0.096 c 0.832,0 1.5627,0.304 2.192,0.912 L 22,12.68 c -0.096,-0.0853 -0.16,-0.176 -0.192,-0.272 -0.032,-0.1067 -0.1067,-0.1813 -0.224,-0.224 -0.16,-0.1067 -0.3253,-0.176 -0.496,-0.208 -0.16,-0.0427 -0.3147,-0.064 -0.464,-0.064 -0.2133,0 -0.464,0.0533 -0.752,0.16 -0.2773,0.096 -0.5387,0.2827 -0.784,0.56 -0.2453,0.2773 -0.4587,0.672 -0.64,1.184 -0.1707,0.5013 -0.2613,1.152 -0.272,1.952 0.224,-0.3733 0.5227,-0.6667 0.896,-0.88 0.384,-0.2133 0.7893,-0.32 1.216,-0.32 0.3733,0 0.7253,0.08 1.056,0.24 0.3307,0.1493 0.6187,0.368 0.864,0.656 0.256,0.288 0.4533,0.6347 0.592,1.04 0.1493,0.3947 0.224,0.8373 0.224,1.328 0,0.4907 -0.0747,0.944 -0.224,1.36 -0.1493,0.4053 -0.352,0.7573 -0.608,1.056 -0.256,0.288 -0.56,0.512 -0.912,0.672 -0.3413,0.16 -0.7093,0.24 -1.104,0.24 -0.5013,0 -0.944,-0.1067 -1.328,-0.32 C 18.464,20.616 18.1387,20.3013 17.872,19.896 17.616,19.4907 17.4187,19 17.28,18.424 c -0.1387,-0.5867 -0.208,-1.2427 -0.208,-1.968 0,-0.896 0.08,-1.6853 0.24,-2.368 0.1707,-0.6933 0.4107,-1.2747 0.72,-1.744 0.3093,-0.4693 0.6773,-0.8213 1.104,-1.056 0.4373,-0.2453 0.9227,-0.368 1.456,-0.368 z m -2.352,5.968 c -0.0107,0.064 -0.016,0.128 -0.016,0.192 0,0.064 0,0.128 0,0.192 0,0.416 0.048,0.8 0.144,1.152 0.1067,0.352 0.2507,0.656 0.432,0.912 0.1813,0.256 0.3947,0.4587 0.64,0.608 0.2453,0.1493 0.5067,0.224 0.784,0.224 0.4587,0 0.8587,-0.1973 1.2,-0.592 0.3413,-0.3947 0.512,-0.9707 0.512,-1.728 0,-0.4053 -0.0533,-0.752 -0.16,-1.04 -0.1067,-0.288 -0.2453,-0.5227 -0.416,-0.704 -0.16,-0.192 -0.3467,-0.3307 -0.56,-0.416 -0.2027,-0.096 -0.4053,-0.144 -0.608,-0.144 -0.384,0 -0.752,0.1333 -1.104,0.4 -0.352,0.256 -0.6347,0.5707 -0.848,0.944 z"
       inkscape:connector-curvature="0" />
    <path
       id="path23_fill"
       d="m 36.676,12.296 c 0.3093,0.416 0.5547,0.96 0.736,1.632 0.192,0.672 0.288,1.424 0.288,2.256 0,0.8427 -0.096,1.5787 -0.288,2.208 -0.1813,0.6187 -0.4267,1.136 -0.736,1.552 -0.2987,0.416 -0.64,0.7253 -1.024,0.928 -0.384,0.2027 -0.7733,0.304 -1.168,0.304 -0.4053,0 -0.8,-0.1227 -1.184,-0.368 -0.384,-0.2453 -0.7253,-0.5867 -1.024,-1.024 -0.2987,-0.448 -0.5387,-0.9813 -0.72,-1.6 -0.1707,-0.6293 -0.256,-1.3227 -0.256,-2.08 0,-0.7573 0.0853,-1.4507 0.256,-2.08 0.1813,-0.6293 0.4213,-1.168 0.72,-1.616 0.2987,-0.4587 0.64,-0.8107 1.024,-1.056 0.384,-0.256 0.7787,-0.384 1.184,-0.384 0.832,0 1.5627,0.4427 2.192,1.328 z m -0.592,0.944 c -0.2133,-0.4267 -0.4587,-0.7467 -0.736,-0.96 -0.2773,-0.224 -0.56,-0.336 -0.848,-0.336 -0.2667,0 -0.5333,0.096 -0.8,0.288 -0.256,0.192 -0.4853,0.4587 -0.688,0.8 -0.2027,0.3413 -0.368,0.7573 -0.496,1.248 -0.1173,0.4907 -0.176,1.0293 -0.176,1.616 0,0.6613 0.0747,1.2907 0.224,1.888 l 3.52,-4.544 z m 0.368,1.072 -3.52,4.48 c 0.256,0.48 0.5227,0.8267 0.8,1.04 0.288,0.2133 0.5707,0.32 0.848,0.32 0.288,0 0.5547,-0.0853 0.8,-0.256 0.256,-0.1813 0.4747,-0.4373 0.656,-0.768 0.192,-0.3307 0.3413,-0.7307 0.448,-1.2 0.1173,-0.48 0.176,-1.0187 0.176,-1.616 0,-0.3733 -0.016,-0.7253 -0.048,-1.056 -0.032,-0.3307 -0.0853,-0.6453 -0.16,-0.944 z"
       inkscape:connector-curvature="0" />
    <path
       id="path24_stroke"
       d="M 0,0 69,0 69,-4 0,-4 0,0 Z"
       inkscape:connector-curvature="0" />
    <path
       id="path25_stroke"
       d="M 0,0 143,0 143,-4 0,-4 0,0 Z"
       inkscape:connector-curvature="0" />
    <path
       id="path26_fill"
       d="m 73.676,12.296 c 0.3093,0.416 0.5547,0.96 0.736,1.632 0.192,0.672 0.288,1.424 0.288,2.256 0,0.8427 -0.096,1.5787 -0.288,2.208 -0.1813,0.6187 -0.4267,1.136 -0.736,1.552 -0.2987,0.416 -0.64,0.7253 -1.024,0.928 -0.384,0.2027 -0.7733,0.304 -1.168,0.304 -0.4053,0 -0.8,-0.1227 -1.184,-0.368 -0.384,-0.2453 -0.7253,-0.5867 -1.024,-1.024 -0.2987,-0.448 -0.5387,-0.9813 -0.72,-1.6 -0.1707,-0.6293 -0.256,-1.3227 -0.256,-2.08 0,-0.7573 0.0853,-1.4507 0.256,-2.08 0.1813,-0.6293 0.4213,-1.168 0.72,-1.616 0.2987,-0.4587 0.64,-0.8107 1.024,-1.056 0.384,-0.256 0.7787,-0.384 1.184,-0.384 0.832,0 1.5627,0.4427 2.192,1.328 z m -0.592,0.944 c -0.2133,-0.4267 -0.4587,-0.7467 -0.736,-0.96 -0.2773,-0.224 -0.56,-0.336 -0.848,-0.336 -0.2667,0 -0.5333,0.096 -0.8,0.288 -0.256,0.192 -0.4853,0.4587 -0.688,0.8 -0.2027,0.3413 -0.368,0.7573 -0.496,1.248 -0.1173,0.4907 -0.176,1.0293 -0.176,1.616 0,0.6613 0.0747,1.2907 0.224,1.888 l 3.52,-4.544 z m 0.368,1.072 -3.52,4.48 c 0.256,0.48 0.5227,0.8267 0.8,1.04 0.288,0.2133 0.5707,0.32 0.848,0.32 0.288,0 0.5547,-0.0853 0.8,-0.256 0.256,-0.1813 0.4747,-0.4373 0.656,-0.768 0.192,-0.3307 0.3413,-0.7307 0.448,-1.2 0.1173,-0.48 0.176,-1.0187 0.176,-1.616 0,-0.3733 -0.016,-0.7253 -0.048,-1.056 -0.032,-0.3307 -0.0853,-0.6453 -0.16,-0.944 z"
       inkscape:connector-curvature="0" />
    <path
       id="path27_fill"
       d="m 68.748,12.584 c 0.288,-0.512 0.6773,-0.9067 1.168,-1.184 0.5013,-0.288 1.04,-0.432 1.616,-0.432 0.3947,0 0.768,0.0747 1.12,0.224 0.352,0.1387 0.6613,0.336 0.928,0.592 0.2667,0.256 0.4747,0.5547 0.624,0.896 0.1493,0.3413 0.224,0.704 0.224,1.088 0,0.3093 -0.048,0.6027 -0.144,0.88 -0.0853,0.2773 -0.2027,0.544 -0.352,0.8 -0.1493,0.2453 -0.3253,0.4853 -0.528,0.72 -0.192,0.224 -0.3947,0.432 -0.608,0.624 l -0.96,0.896 c -0.1387,0.128 -0.2933,0.2827 -0.464,0.464 -0.1707,0.1707 -0.3413,0.3573 -0.512,0.56 -0.16,0.2027 -0.32,0.416 -0.48,0.64 -0.16,0.224 -0.2987,0.448 -0.416,0.672 l 4.176,0 c 0.0533,0 0.1067,-0.0213 0.16,-0.064 0.064,-0.0533 0.1227,-0.08 0.176,-0.08 l 0.048,0 0,1.12 -5.856,0 0,-0.704 c 0.3947,-0.7787 0.8213,-1.4507 1.28,-2.016 0.4587,-0.5653 0.9013,-1.04 1.328,-1.424 l 0.768,-0.704 c 0.2667,-0.2453 0.48,-0.4693 0.64,-0.672 0.1707,-0.2133 0.304,-0.416 0.4,-0.608 0.096,-0.192 0.16,-0.3733 0.192,-0.544 0.032,-0.1813 0.048,-0.3627 0.048,-0.544 0,-0.2347 -0.048,-0.4587 -0.144,-0.672 -0.096,-0.224 -0.2347,-0.4213 -0.416,-0.592 -0.1707,-0.1813 -0.368,-0.32 -0.592,-0.416 -0.2133,-0.1067 -0.4373,-0.16 -0.672,-0.16 -0.2773,0 -0.528,0.0427 -0.752,0.128 -0.2133,0.0747 -0.4053,0.1707 -0.576,0.288 -0.16,0.1067 -0.288,0.224 -0.384,0.352 -0.096,0.1173 -0.1493,0.224 -0.16,0.32 -0.0213,0.096 -0.0427,0.16 -0.064,0.192 l -0.816,-0.64 z"
       inkscape:connector-curvature="0" />
    <path
       id="path28_fill"
       d="m 74.076,13.528 c 0,0.48 -0.1387,0.9173 -0.416,1.312 -0.2667,0.3947 -0.624,0.6773 -1.072,0.848 0.512,0.1813 0.9227,0.5067 1.232,0.976 0.32,0.4693 0.48,1.0027 0.48,1.6 0,0.3947 -0.0747,0.768 -0.224,1.12 -0.1387,0.352 -0.3467,0.6613 -0.624,0.928 -0.2667,0.2667 -0.5973,0.48 -0.992,0.64 -0.3947,0.1493 -0.8427,0.224 -1.344,0.224 -0.9813,0 -1.8187,-0.3787 -2.512,-1.136 l 0.848,-1.008 c 0.0427,0.0427 0.0747,0.1173 0.096,0.224 0.0213,0.096 0.0587,0.176 0.112,0.24 l 0.224,0.208 c 0.0853,0.0853 0.256,0.1813 0.512,0.288 0.2667,0.1067 0.5387,0.16 0.816,0.16 0.288,0 0.5547,-0.0533 0.8,-0.16 0.2453,-0.1067 0.4587,-0.2507 0.64,-0.432 0.1813,-0.192 0.32,-0.4107 0.416,-0.656 0.1067,-0.256 0.16,-0.5227 0.16,-0.8 0,-0.576 -0.2187,-1.0293 -0.656,-1.36 -0.4267,-0.3413 -0.992,-0.512 -1.696,-0.512 -0.0853,0 -0.1707,0.0053 -0.256,0.016 -0.0747,0 -0.1547,0.0053 -0.24,0.016 l 0,-0.896 c 0.4907,0 0.9013,-0.048 1.232,-0.144 0.3307,-0.1067 0.5973,-0.2453 0.8,-0.416 0.2133,-0.1707 0.3627,-0.368 0.448,-0.592 0.096,-0.2347 0.144,-0.4853 0.144,-0.752 0,-0.192 -0.0427,-0.3733 -0.128,-0.544 -0.0853,-0.1813 -0.2027,-0.336 -0.352,-0.464 -0.1493,-0.1387 -0.3307,-0.2507 -0.544,-0.336 -0.2133,-0.0853 -0.448,-0.128 -0.704,-0.128 -0.6827,0 -1.2533,0.256 -1.712,0.768 L 68.94,12.072 C 69.5907,11.3573 70.3853,11 71.324,11 c 0.384,0 0.7413,0.0693 1.072,0.208 0.3413,0.128 0.6347,0.3093 0.88,0.544 0.2453,0.2347 0.4373,0.5067 0.576,0.816 0.1493,0.2987 0.224,0.6187 0.224,0.96 z"
       inkscape:connector-curvature="0" />
    <path
       id="path29_fill"
       d="m 72.508,11.016 0.944,0 0,6.24 1.28,0 0,0.992 -1.28,0 0,2.752 -1.168,0 0,-2.768 -4.016,0 0,-0.816 4.24,-6.4 z m -0.208,1.776 -2.928,4.464 2.928,0 0,-4.464 z"
       inkscape:connector-curvature="0" />
    <path
       id="path30_fill"
       d="m 35.284,11.016 0,9.984 -1.104,0 0,-8.592 -2.016,0.592 -0.256,-0.624 2.608,-1.36 0.768,0 z"
       inkscape:connector-curvature="0" />
    <path
       id="path31_fill"
       d="m 31.748,12.584 c 0.288,-0.512 0.6773,-0.9067 1.168,-1.184 0.5013,-0.288 1.04,-0.432 1.616,-0.432 0.3947,0 0.768,0.0747 1.12,0.224 0.352,0.1387 0.6613,0.336 0.928,0.592 0.2667,0.256 0.4747,0.5547 0.624,0.896 0.1493,0.3413 0.224,0.704 0.224,1.088 0,0.3093 -0.048,0.6027 -0.144,0.88 -0.0853,0.2773 -0.2027,0.544 -0.352,0.8 -0.1493,0.2453 -0.3253,0.4853 -0.528,0.72 -0.192,0.224 -0.3947,0.432 -0.608,0.624 l -0.96,0.896 c -0.1387,0.128 -0.2933,0.2827 -0.464,0.464 -0.1707,0.1707 -0.3413,0.3573 -0.512,0.56 -0.16,0.2027 -0.32,0.416 -0.48,0.64 -0.16,0.224 -0.2987,0.448 -0.416,0.672 l 4.176,0 c 0.0533,0 0.1067,-0.0213 0.16,-0.064 0.064,-0.0533 0.1227,-0.08 0.176,-0.08 l 0.048,0 0,1.12 -5.856,0 0,-0.704 c 0.3947,-0.7787 0.8213,-1.4507 1.28,-2.016 0.4587,-0.5653 0.9013,-1.04 1.328,-1.424 l 0.768,-0.704 c 0.2667,-0.2453 0.48,-0.4693 0.64,-0.672 0.1707,-0.2133 0.304,-0.416 0.4,-0.608 0.096,-0.192 0.16,-0.3733 0.192,-0.544 0.032,-0.1813 0.048,-0.3627 0.048,-0.544 0,-0.2347 -0.048,-0.4587 -0.144,-0.672 -0.096,-0.224 -0.2347,-0.4213 -0.416,-0.592 -0.1707,-0.1813 -0.368,-0.32 -0.592,-0.416 -0.2133,-0.1067 -0.4373,-0.16 -0.672,-0.16 -0.2773,0 -0.528,0.0427 -0.752,0.128 -0.2133,0.0747 -0.4053,0.1707 -0.576,0.288 -0.16,0.1067 -0.288,0.224 -0.384,0.352 -0.096,0.1173 -0.1493,0.224 -0.16,0.32 -0.0213,0.096 -0.0427,0.16 -0.064,0.192 l -0.816,-0.64 z"
       inkscape:connector-curvature="0" />
    <path
       id="path32_fill"
       d="m 37.076,13.528 c 0,0.48 -0.1387,0.9173 -0.416,1.312 -0.2667,0.3947 -0.624,0.6773 -1.072,0.848 0.512,0.1813 0.9227,0.5067 1.232,0.976 0.32,0.4693 0.48,1.0027 0.48,1.6 0,0.3947 -0.0747,0.768 -0.224,1.12 -0.1387,0.352 -0.3467,0.6613 -0.624,0.928 -0.2667,0.2667 -0.5973,0.48 -0.992,0.64 -0.3947,0.1493 -0.8427,0.224 -1.344,0.224 -0.9813,0 -1.8187,-0.3787 -2.512,-1.136 l 0.848,-1.008 c 0.0427,0.0427 0.0747,0.1173 0.096,0.224 0.0213,0.096 0.0587,0.176 0.112,0.24 l 0.224,0.208 c 0.0853,0.0853 0.256,0.1813 0.512,0.288 0.2667,0.1067 0.5387,0.16 0.816,0.16 0.288,0 0.5547,-0.0533 0.8,-0.16 0.2453,-0.1067 0.4587,-0.2507 0.64,-0.432 0.1813,-0.192 0.32,-0.4107 0.416,-0.656 0.1067,-0.256 0.16,-0.5227 0.16,-0.8 0,-0.576 -0.2187,-1.0293 -0.656,-1.36 -0.4267,-0.3413 -0.992,-0.512 -1.696,-0.512 -0.0853,0 -0.1707,0.0053 -0.256,0.016 -0.0747,0 -0.1547,0.0053 -0.24,0.016 l 0,-0.896 c 0.4907,0 0.9013,-0.048 1.232,-0.144 0.3307,-0.1067 0.5973,-0.2453 0.8,-0.416 0.2133,-0.1707 0.3627,-0.368 0.448,-0.592 0.096,-0.2347 0.144,-0.4853 0.144,-0.752 0,-0.192 -0.0427,-0.3733 -0.128,-0.544 -0.0853,-0.1813 -0.2027,-0.336 -0.352,-0.464 -0.1493,-0.1387 -0.3307,-0.2507 -0.544,-0.336 -0.2133,-0.0853 -0.448,-0.128 -0.704,-0.128 -0.6827,0 -1.2533,0.256 -1.712,0.768 L 31.94,12.072 C 32.5907,11.3573 33.3853,11 34.324,11 c 0.384,0 0.7413,0.0693 1.072,0.208 0.3413,0.128 0.6347,0.3093 0.88,0.544 0.2453,0.2347 0.4373,0.5067 0.576,0.816 0.1493,0.2987 0.224,0.6187 0.224,0.96 z"
       inkscape:connector-curvature="0" />
    <path
       id="path33_fill"
       d="m 35.508,11.016 0.944,0 0,6.24 1.28,0 0,0.992 -1.28,0 0,2.752 -1.168,0 0,-2.768 -4.016,0 0,-0.816 4.24,-6.4 z m -0.208,1.776 -2.928,4.464 2.928,0 0,-4.464 z"
       inkscape:connector-curvature="0" />
    <path
       id="path34_fill"
       d="m 32.196,11.032 5.056,0 0,1.008 -4.112,0 -0.16,2.864 c 0.5227,-0.256 1.0667,-0.384 1.632,-0.384 0.4267,0 0.8213,0.08 1.184,0.24 0.3733,0.1493 0.6933,0.3733 0.96,0.672 0.2773,0.288 0.4907,0.64 0.64,1.056 0.1493,0.4053 0.224,0.864 0.224,1.376 0,0.512 -0.08,0.976 -0.24,1.392 -0.16,0.4053 -0.384,0.752 -0.672,1.04 -0.2773,0.288 -0.608,0.5067 -0.992,0.656 -0.3733,0.1493 -0.784,0.224 -1.232,0.224 -0.608,0 -1.1733,-0.1333 -1.696,-0.4 -0.512,-0.2667 -0.9333,-0.6453 -1.264,-1.136 l 0.992,-0.736 c 0.0533,0.032 0.08,0.096 0.08,0.192 0.0107,0.096 0.0213,0.1547 0.032,0.176 0.0427,0.0747 0.1173,0.1653 0.224,0.272 0.1067,0.1067 0.24,0.208 0.4,0.304 0.1707,0.096 0.3627,0.1813 0.576,0.256 0.224,0.064 0.464,0.096 0.72,0.096 0.256,0 0.5013,-0.0533 0.736,-0.16 0.2347,-0.1173 0.4373,-0.2773 0.608,-0.48 0.1813,-0.2027 0.3253,-0.448 0.432,-0.736 0.1067,-0.2987 0.16,-0.6347 0.16,-1.008 0,-0.3733 -0.0533,-0.704 -0.16,-0.992 -0.1067,-0.2987 -0.256,-0.5493 -0.448,-0.752 -0.1813,-0.2027 -0.3947,-0.3573 -0.64,-0.464 -0.2453,-0.1067 -0.512,-0.16 -0.8,-0.16 -0.3413,0 -0.6773,0.0853 -1.008,0.256 -0.3307,0.16 -0.6187,0.3893 -0.864,0.688 l -0.704,-0.288 0.336,-5.072 z"
       inkscape:connector-curvature="0" />
    <path
       id="path35_fill"
       d="m 35.092,10.92 c 0.832,0 1.5627,0.304 2.192,0.912 L 36.5,12.68 c -0.096,-0.0853 -0.16,-0.176 -0.192,-0.272 -0.032,-0.1067 -0.1067,-0.1813 -0.224,-0.224 -0.16,-0.1067 -0.3253,-0.176 -0.496,-0.208 -0.16,-0.0427 -0.3147,-0.064 -0.464,-0.064 -0.2133,0 -0.464,0.0533 -0.752,0.16 -0.2773,0.096 -0.5387,0.2827 -0.784,0.56 -0.2453,0.2773 -0.4587,0.672 -0.64,1.184 -0.1707,0.5013 -0.2613,1.152 -0.272,1.952 0.224,-0.3733 0.5227,-0.6667 0.896,-0.88 0.384,-0.2133 0.7893,-0.32 1.216,-0.32 0.3733,0 0.7253,0.08 1.056,0.24 0.3307,0.1493 0.6187,0.368 0.864,0.656 0.256,0.288 0.4533,0.6347 0.592,1.04 0.1493,0.3947 0.224,0.8373 0.224,1.328 0,0.4907 -0.0747,0.944 -0.224,1.36 -0.1493,0.4053 -0.352,0.7573 -0.608,1.056 -0.256,0.288 -0.56,0.512 -0.912,0.672 -0.3413,0.16 -0.7093,0.24 -1.104,0.24 -0.5013,0 -0.944,-0.1067 -1.328,-0.32 C 32.964,20.616 32.6387,20.3013 32.372,19.896 32.116,19.4907 31.9187,19 31.78,18.424 c -0.1387,-0.5867 -0.208,-1.2427 -0.208,-1.968 0,-0.896 0.08,-1.6853 0.24,-2.368 0.1707,-0.6933 0.4107,-1.2747 0.72,-1.744 0.3093,-0.4693 0.6773,-0.8213 1.104,-1.056 0.4373,-0.2453 0.9227,-0.368 1.456,-0.368 z m -2.352,5.968 c -0.0107,0.064 -0.016,0.128 -0.016,0.192 0,0.064 0,0.128 0,0.192 0,0.416 0.048,0.8 0.144,1.152 0.1067,0.352 0.2507,0.656 0.432,0.912 0.1813,0.256 0.3947,0.4587 0.64,0.608 0.2453,0.1493 0.5067,0.224 0.784,0.224 0.4587,0 0.8587,-0.1973 1.2,-0.592 0.3413,-0.3947 0.512,-0.9707 0.512,-1.728 0,-0.4053 -0.0533,-0.752 -0.16,-1.04 -0.1067,-0.288 -0.2453,-0.5227 -0.416,-0.704 -0.16,-0.192 -0.3467,-0.3307 -0.56,-0.416 -0.2027,-0.096 -0.4053,-0.144 -0.608,-0.144 -0.384,0 -0.752,0.1333 -1.104,0.4 -0.352,0.256 -0.6347,0.5707 -0.848,0.944 z"
       inkscape:connector-curvature="0" />
    <path
       id="path36_fill"
       d="m 37.412,11.656 c -0.672,1.536 -1.3013,3.0773 -1.888,4.624 -0.576,1.5467 -1.1093,3.12 -1.6,4.72 l -1.264,0 c 0.512,-1.5253 1.0453,-3.024 1.6,-4.496 0.5547,-1.472 1.1413,-2.944 1.76,-4.416 l -4.256,0 0,-1.056 5.648,0 0,0.624 z"
       inkscape:connector-curvature="0" />
    <path
       id="path37_fill"
       d="m 37.22,13.272 c 0,0.48 -0.144,0.9387 -0.432,1.376 -0.288,0.4267 -0.672,0.768 -1.152,1.024 0.576,0.2667 1.04,0.6507 1.392,1.152 0.352,0.4907 0.528,1.024 0.528,1.6 0,0.384 -0.08,0.7467 -0.24,1.088 -0.16,0.3307 -0.3787,0.6187 -0.656,0.864 -0.2667,0.2453 -0.5867,0.4373 -0.96,0.576 -0.3733,0.1387 -0.7733,0.208 -1.2,0.208 -0.4267,0 -0.8267,-0.0693 -1.2,-0.208 -0.3733,-0.1387 -0.6987,-0.3253 -0.976,-0.56 -0.2667,-0.2453 -0.48,-0.528 -0.64,-0.848 -0.1493,-0.3307 -0.224,-0.6827 -0.224,-1.056 0,-0.576 0.1813,-1.1147 0.544,-1.616 0.3627,-0.5013 0.848,-0.8907 1.456,-1.168 -0.4587,-0.2347 -0.8267,-0.56 -1.104,-0.976 -0.2773,-0.4267 -0.416,-0.88 -0.416,-1.36 0,-0.3413 0.0693,-0.6613 0.208,-0.96 0.1387,-0.2987 0.3307,-0.56 0.576,-0.784 0.2453,-0.224 0.528,-0.4 0.848,-0.528 0.32,-0.128 0.6667,-0.192 1.04,-0.192 0.3733,0 0.72,0.064 1.04,0.192 0.32,0.1173 0.592,0.288 0.816,0.512 0.2347,0.2133 0.416,0.464 0.544,0.752 0.1387,0.288 0.208,0.592 0.208,0.912 z m -2.928,2.88 c -0.48,0.2027 -0.88,0.5067 -1.2,0.912 -0.32,0.3947 -0.48,0.832 -0.48,1.312 0,0.2453 0.048,0.4747 0.144,0.688 0.1067,0.2133 0.2453,0.4 0.416,0.56 0.1813,0.16 0.384,0.288 0.608,0.384 0.2347,0.096 0.4853,0.144 0.752,0.144 0.2667,0 0.512,-0.0427 0.736,-0.128 0.2347,-0.096 0.4373,-0.2187 0.608,-0.368 0.1707,-0.16 0.304,-0.3413 0.4,-0.544 0.096,-0.2133 0.144,-0.4427 0.144,-0.688 0,-0.4907 -0.192,-0.9387 -0.576,-1.344 -0.384,-0.416 -0.9013,-0.7253 -1.552,-0.928 z m -1.008,-2.016 c 0.128,0.2133 0.2933,0.4 0.496,0.56 0.2133,0.1493 0.4533,0.2933 0.72,0.432 l 0.272,0.144 c 0.3947,-0.2133 0.72,-0.5013 0.976,-0.864 0.256,-0.3627 0.384,-0.7307 0.384,-1.104 0,-0.192 -0.0427,-0.3733 -0.128,-0.544 -0.0747,-0.1707 -0.1867,-0.3253 -0.336,-0.464 -0.1387,-0.1387 -0.304,-0.2453 -0.496,-0.32 -0.192,-0.0853 -0.4,-0.128 -0.624,-0.128 -0.224,0 -0.432,0.0427 -0.624,0.128 -0.1813,0.0747 -0.3413,0.176 -0.48,0.304 -0.1387,0.128 -0.2453,0.2773 -0.32,0.448 -0.0747,0.1707 -0.112,0.3467 -0.112,0.528 0,0.32 0.0907,0.6133 0.272,0.88 z"
       inkscape:connector-curvature="0" />
    <path
       id="path38_stroke"
       d="M 0,0 291,0 291,-4 0,-4 0,0 Z"
       inkscape:connector-curvature="0" />
    <path
       id="path39_fill"
       d="m 147.676,12.296 c 0.309,0.416 0.555,0.96 0.736,1.632 0.192,0.672 0.288,1.424 0.288,2.256 0,0.8427 -0.096,1.5787 -0.288,2.208 -0.181,0.6187 -0.427,1.136 -0.736,1.552 -0.299,0.416 -0.64,0.7253 -1.024,0.928 -0.384,0.2027 -0.773,0.304 -1.168,0.304 -0.405,0 -0.8,-0.1227 -1.184,-0.368 -0.384,-0.2453 -0.725,-0.5867 -1.024,-1.024 -0.299,-0.448 -0.539,-0.9813 -0.72,-1.6 -0.171,-0.6293 -0.256,-1.3227 -0.256,-2.08 0,-0.7573 0.085,-1.4507 0.256,-2.08 0.181,-0.6293 0.421,-1.168 0.72,-1.616 0.299,-0.4587 0.64,-0.8107 1.024,-1.056 0.384,-0.256 0.779,-0.384 1.184,-0.384 0.832,0 1.563,0.4427 2.192,1.328 z m -0.592,0.944 c -0.213,-0.4267 -0.459,-0.7467 -0.736,-0.96 -0.277,-0.224 -0.56,-0.336 -0.848,-0.336 -0.267,0 -0.533,0.096 -0.8,0.288 -0.256,0.192 -0.485,0.4587 -0.688,0.8 -0.203,0.3413 -0.368,0.7573 -0.496,1.248 -0.117,0.4907 -0.176,1.0293 -0.176,1.616 0,0.6613 0.075,1.2907 0.224,1.888 l 3.52,-4.544 z m 0.368,1.072 -3.52,4.48 c 0.256,0.48 0.523,0.8267 0.8,1.04 0.288,0.2133 0.571,0.32 0.848,0.32 0.288,0 0.555,-0.0853 0.8,-0.256 0.256,-0.1813 0.475,-0.4373 0.656,-0.768 0.192,-0.3307 0.341,-0.7307 0.448,-1.2 0.117,-0.48 0.176,-1.0187 0.176,-1.616 0,-0.3733 -0.016,-0.7253 -0.048,-1.056 -0.032,-0.3307 -0.085,-0.6453 -0.16,-0.944 z"
       inkscape:connector-curvature="0" />
    <path
       id="path40_fill"
       d="m 146.284,11.016 0,9.984 -1.104,0 0,-8.592 -2.016,0.592 -0.256,-0.624 2.608,-1.36 0.768,0 z"
       inkscape:connector-curvature="0" />
    <path
       id="path41_stroke"
       d="M 0.00197756,1.0023 0.994173,0.998379 0.990218,-0.00161307 -0.00197756,0.00231121 0.00197756,1.0023 Z M 2.97856,0.990531 4.96295,0.982682 4.959,-0.0173102 2.97461,-0.00946162 2.97856,0.990531 Z M 6.94734,0.974833 8.93173,0.966985 8.92778,-0.0330073 6.94339,-0.0251587 6.94734,0.974833 Z m 3.96876,-0.015697 1.9844,-0.007848 -0.0039,-0.9999924 -1.9844,0.0078486 0.0039,0.9999918 z m 3.9688,-0.015697 1.9844,-0.007848 -0.004,-0.9999925 -1.9843,0.0078486 0.0039,0.9999919 z m 3.9688,-0.015697 1.9844,-0.007848 -0.004,-0.9999926 -1.9844,0.0078486 0.004,0.999992 z m 3.9688,-0.015697 1.9844,-0.007849 -0.004,-0.9999917 -1.9844,0.0078486 0.004,0.9999921 z m 3.9687,-0.015697 1.9844,-0.007849 -0.0039,-0.999992 -1.9844,0.007849 0.0039,0.999992 z M 30.76,0.880651 32.7444,0.872802 32.7405,-0.12719 30.7561,-0.119341 30.76,0.880651 Z m 3.9688,-0.015697 1.9844,-0.007849 -0.004,-0.999992 -1.9843,0.007849 0.0039,0.999992 z m 3.9688,-0.015697 1.9844,-0.007849 -0.004,-0.999992 -1.9844,0.007848 0.004,0.999993 z m 3.9688,-0.015697 1.9844,-0.007849 -0.004,-0.999992 -1.9844,0.007848 0.004,0.999993 z m 3.9688,-0.015698 1.9843,-0.007848 -0.0039,-0.999992 -1.9844,0.007848 0.004,0.999992 z M 50.6039,0.802165 52.5883,0.794317 52.5844,-0.205675 50.6,-0.197827 50.6039,0.802165 Z m 3.9688,-0.015697 1.9844,-0.007848 -0.0039,-0.999993 -1.9844,0.007849 0.0039,0.999992 z m 3.9688,-0.015697 1.9844,-0.007848 -0.004,-0.999993 -1.9844,0.007849 0.004,0.999992 z m 3.9688,-0.015697 1.9844,-0.007849 -0.004,-0.999992 -1.9844,0.007849 0.004,0.999992 z m 3.9688,-0.015697 1.9843,-0.007849 -0.0039,-0.999992 -1.9844,0.007849 0.004,0.999992 z m 3.9687,-0.015697 1.9844,-0.007849 -0.0039,-0.999992 -1.9844,0.007849 0.0039,0.999992 z m 3.9688,-0.015697 1.9844,-0.007849 -0.0039,-0.999992 -1.9844,0.007849 0.0039,0.999992 z m 3.9688,-0.015697 1.9844,-0.007849 -0.004,-0.999992 -1.9844,0.007848 0.004,0.999993 z m 3.9688,-0.015698 1.9844,-0.007848 -0.004,-0.999992 -1.9844,0.007848 0.004,0.999992 z m 3.9688,-0.015697 1.9844,-0.007848 -0.004,-0.999992 -1.9844,0.007848 0.004,0.999992 z m 3.9687,-0.015697 1.9844,-0.007848 -0.0039,-0.999992 -1.9844,0.007848 0.0039,0.999992 z m 3.9688,-0.015697 1.9844,-0.007848 -0.0039,-0.999993 -1.9844,0.007849 0.0039,0.999992 z M 98.2293,0.6138 100.214,0.605952 100.21,-0.394041 98.2254,-0.386192 98.2293,0.6138 Z m 3.9687,-0.015697 1.984,-0.007849 -0.003,-0.999992 -1.985,0.007849 0.004,0.999992 z m 3.969,-0.015697 1.984,-0.007849 -0.004,-0.999992 -1.984,0.007849 0.004,0.999992 z m 3.969,-0.015697 1.984,-0.007849 -0.004,-0.999992 -1.984,0.007849 0.004,0.999992 z m 3.968,-0.015697 1.985,-0.007849 -0.004,-0.999992 -1.985,0.007848 0.004,0.999993 z m 3.969,-0.015697 1.985,-0.007849 -0.004,-0.999992 -1.985,0.007848 0.004,0.999993 z m 3.969,-0.015698 1.984,-0.007848 -0.004,-0.999992 -1.984,0.007848 0.004,0.999992 z m 3.969,-0.015697 0.992,-0.003924 -0.004,-0.999992 -0.992,0.003924 0.004,0.999992 z"
       inkscape:connector-curvature="0" />
    <path
       id="path42_stroke"
       d="m 0.5,42 0,-42 -1,0 0,42 1,0 z"
       inkscape:connector-curvature="0" />
    <path
       id="path43_stroke"
       d="m -0.5,0 0,3.03409 1,0 L 0.5,0 l -1,0 z m 0,5.05682 0,6.06818 1,0 0,-6.06818 -1,0 z m 0,8.09088 0,6.0682 1,0 0,-6.0682 -1,0 z m 0,8.0909 0,6.0682 1,0 0,-6.0682 -1,0 z m 0,8.0909 0,6.0682 1,0 0,-6.0682 -1,0 z m 0,8.091 0,6.0681 1,0 0,-6.0681 -1,0 z m 0,8.0909 0,6.0681 1,0 0,-6.0681 -1,0 z m 0,8.0909 0,6.0682 1,0 0,-6.0682 -1,0 z m 0,8.0909 0,6.0682 1,0 0,-6.0682 -1,0 z m 0,8.0909 0,6.0682 1,0 0,-6.0682 -1,0 z m 0,8.0909 0,6.0682 1,0 0,-6.0682 -1,0 z m 0,8.0909 0,6.0682 1,0 0,-6.0682 -1,0 z m 0,8.0909 0,6.0682 1,0 0,-6.0682 -1,0 z m 0,8.0912 0,6.068 1,0 0,-6.068 -1,0 z m 0,8.091 0,6.068 1,0 0,-6.068 -1,0 z m 0,8.091 0,6.068 1,0 0,-6.068 -1,0 z m 0,8.09 0,6.069 1,0 0,-6.069 -1,0 z m 0,8.091 0,6.069 1,0 0,-6.069 -1,0 z m 0,8.091 0,6.068 1,0 0,-6.068 -1,0 z m 0,8.091 0,6.068 1,0 0,-6.068 -1,0 z m 0,8.091 0,6.068 1,0 0,-6.068 -1,0 z m 0,8.091 0,6.068 1,0 0,-6.068 -1,0 z m 0,8.091 0,3.034 1,0 0,-3.034 -1,0 z"
       inkscape:connector-curvature="0" />
    <path
       id="path44_stroke"
       d="m -0.5,0 0,0.982759 1,0 L 0.5,0 l -1,0 z m 0,2.94828 0,1.96551 1,0 0,-1.96551 -1,0 z m 0,3.93103 0,1.96552 1,0 0,-1.96552 -1,0 z m 0,3.93099 0,1.9656 1,0 0,-1.9656 -1,0 z m 0,3.9311 0,1.9655 1,0 0,-1.9655 -1,0 z m 0,3.931 0,1.9655 1,0 0,-1.9655 -1,0 z m 0,3.931 0,1.9656 1,0 0,-1.9656 -1,0 z m 0,3.9311 0,1.9655 1,0 0,-1.9655 -1,0 z m 0,3.931 0,1.9655 1,0 0,-1.9655 -1,0 z m 0,3.9311 0,1.9655 1,0 0,-1.9655 -1,0 z m 0,3.931 0,1.9655 1,0 0,-1.9655 -1,0 z m 0,3.931 0,1.9655 1,0 0,-1.9655 -1,0 z m 0,3.9311 0,1.9655 1,0 0,-1.9655 -1,0 z m 0,3.931 0,1.9655 1,0 0,-1.9655 -1,0 z m 0,3.931 0,1.9655 1,0 0,-1.9655 -1,0 z m 0,3.9311 0,1.9655 1,0 0,-1.9655 -1,0 z m 0,3.931 0,1.9655 1,0 0,-1.9655 -1,0 z m 0,3.931 0,1.9655 1,0 0,-1.9655 -1,0 z m 0,3.9311 0,1.9655 1,0 0,-1.9655 -1,0 z m 0,3.931 0,1.9655 1,0 0,-1.9655 -1,0 z m 0,3.931 0,1.9655 1,0 0,-1.9655 -1,0 z m 0,3.9311 0,1.9655 1,0 0,-1.9655 -1,0 z m 0,3.931 0,1.9655 1,0 0,-1.9655 -1,0 z m 0,3.931 0,1.9656 1,0 0,-1.9656 -1,0 z m 0,3.9311 0,1.9655 1,0 0,-1.9655 -1,0 z m 0,3.931 0,1.9655 1,0 0,-1.9655 -1,0 z m 0,3.9309 0,1.966 1,0 0,-1.966 -1,0 z m 0,3.931 0,1.966 1,0 0,-1.966 -1,0 z m 0,3.931 0,1.966 1,0 0,-1.966 -1,0 z m 0,3.931 0,0.983 1,0 0,-0.983 -1,0 z"
       inkscape:connector-curvature="0" />
    <path
       id="path45_stroke"
       d="m 0.5,228 0,-228 -1,0 0,228 1,0 z"
       inkscape:connector-curvature="0" />
    <path
       id="path46_stroke"
       d="m -0.5,0 0,3.03947 1,0 L 0.5,0 l -1,0 z m 0,5.06579 0,6.07891 1,0 0,-6.07891 -1,0 z m 0,8.10531 0,6.0789 1,0 0,-6.0789 -1,0 z m 0,8.1052 0,6.079 1,0 0,-6.079 -1,0 z m 0,8.1053 0,6.0789 1,0 0,-6.0789 -1,0 z m 0,8.1052 0,6.079 1,0 0,-6.079 -1,0 z m 0,8.1053 0,6.079 1,0 0,-6.079 -1,0 z m 0,8.1053 0,6.0789 1,0 0,-6.0789 -1,0 z m 0,8.1052 0,6.079 1,0 0,-6.079 -1,0 z m 0,8.1053 0,6.0789 1,0 0,-6.0789 -1,0 z m 0,8.1053 0,6.0789 1,0 0,-6.0789 -1,0 z m 0,8.1052 0,6.079 1,0 0,-6.079 -1,0 z m 0,8.1053 0,6.0793 1,0 0,-6.0793 -1,0 z m 0,8.1053 0,6.079 1,0 0,-6.079 -1,0 z m 0,8.105 0,6.079 1,0 0,-6.079 -1,0 z m 0,8.105 0,6.079 1,0 0,-6.079 -1,0 z m 0,8.106 0,6.079 1,0 0,-6.079 -1,0 z m 0,8.105 0,6.079 1,0 0,-6.079 -1,0 z m 0,8.105 0,6.079 1,0 0,-6.079 -1,0 z m 0,8.106 0,3.039 1,0 0,-3.039 -1,0 z"
       inkscape:connector-curvature="0" />
    <path
       id="path47_stroke"
       d="m 0.5,194 0,-194 -1,0 0,194 1,0 z"
       inkscape:connector-curvature="0" />
    <path
       id="path48_fill"
       d="m 4.07227,11.1934 c 1.73437,0 2.96484,-1.21293 2.96484,-2.91215 0,-1.64063 -1.16602,-2.83008 -2.77734,-2.83008 -1.00782,0 -1.83399,0.48047 -2.25,1.30078 l -0.09375,0 c 0.05859,-2.25 0.83789,-3.46875 2.21484,-3.46875 0.83203,0 1.4707,0.48047 1.69922,1.27149 l 1.08398,0 C 6.64453,3.19531 5.57812,2.3457 4.14258,2.3457 c -2.06836,0 -3.251955,1.66407 -3.251955,4.57032 0,0.93164 0.134765,1.71093 0.410155,2.35546 0.52734,1.24222 1.5,1.92192 2.77149,1.92192 z M 4.06055,10.2676 c -1.08399,0 -1.91016,-0.85549 -1.91016,-1.98635 0,-1.11914 0.80273,-1.91602 1.92188,-1.91602 1.11914,0 1.89843,0.79688 1.89843,1.95118 0,1.10742 -0.82617,1.95119 -1.91015,1.95119 z M 12.5977,11 l 1.0312,0 0,-1.75195 1.2012,0 0,-0.94336 -1.2012,0 0,-5.75977 -1.5293,0 C 10.5762,4.82422 9.23438,6.94531 8.47852,8.28711 l 0,0.96094 4.11918,0 0,1.75195 z M 9.55664,8.24023 C 10.5645,6.5293 11.666,4.7832 12.5332,3.52344 l 0.0703,0 0,4.78711 -3.04686,0 0,-0.07032 z m 10.71096,-0.16406 0,-0.95508 -3.8438,0 0,0.95508 3.8438,0 z m 4.998,3.03513 c 1.5996,0 2.6485,-1.29489 2.6485,-3.2695 0,-1.98633 -1.043,-3.26953 -2.6485,-3.26953 -0.8672,0 -1.6347,0.42773 -1.9804,1.10742 l -0.0938,0 0,-3.50391 -1.0078,0 0,8.82422 0.9609,0 0,-1.00781 0.0938,0 c 0.3984,0.70311 1.1484,1.11911 2.0273,1.11911 z M 25.0312,5.48047 c 1.1543,0 1.8399,0.88476 1.8399,2.36133 0,1.47656 -0.6856,2.3613 -1.8399,2.3613 -1.1484,0 -1.8632,-0.90232 -1.8632,-2.3613 0,-1.45899 0.7148,-2.36133 1.8632,-2.36133 z M 29.5195,11 l 1.0078,0 0,-6.31641 -1.0078,0 0,6.31641 z m 0.5039,-7.59961 c 0.3868,0 0.7032,-0.31641 0.7032,-0.70312 0,-0.38672 -0.3164,-0.70313 -0.7032,-0.70313 -0.3867,0 -0.7031,0.31641 -0.7031,0.70313 0,0.38671 0.3164,0.70312 0.7031,0.70312 z m 2.8477,-0.35156 0,1.63476 -1.0195,0 0,0.84375 1.0195,0 0,3.83204 c 0,1.20702 0.5215,1.68752 1.8223,1.68752 0.1992,0 0.3925,-0.0235 0.5918,-0.0586 l 0,-0.8496 c -0.1875,0.0175 -0.2872,0.0234 -0.4688,0.0234 -0.6562,0 -0.9375,-0.3164 -0.9375,-1.06054 l 0,-3.57422 1.4063,0 0,-0.84375 -1.4063,0 0,-1.63476 -1.0078,0 z"
       inkscape:connector-curvature="0" />
    <path
       id="path49_fill"
       d="m 3.11133,7.10352 1.07226,0 c 1.20118,0 1.94532,0.60937 1.94532,1.58789 0,0.92578 -0.79102,1.58789 -1.9043,1.58789 -1.08984,0 -1.85156,-0.58008 -1.94531,-1.48242 l -1.01953,0 c 0.07617,1.44722 1.25976,2.40232 2.97656,2.40232 1.66992,0 2.97656,-1.084 2.97656,-2.4785 0,-1.15429 -0.69727,-1.95117 -1.8457,-2.09765 l 0,-0.09375 C 6.29297,6.30664 6.84961,5.56836 6.84961,4.56055 c 0,-1.23047 -1.17773,-2.21485 -2.6543,-2.21485 -1.61133,0 -2.66015,0.90235 -2.76562,2.36719 l 1.02539,0 C 2.54297,3.80469 3.18164,3.26562 4.1543,3.26562 c 0.97265,0 1.62304,0.57422 1.62304,1.43555 0,0.87891 -0.67968,1.5 -1.64062,1.5 l -1.02539,0 0,0.90235 z m 5.74219,-2.17969 0,0.00586 1.01953,0 0,-0.00586 c 0,-0.9961 0.66795,-1.65821 1.65815,-1.65821 0.9317,0 1.6524,0.6504 1.6524,1.49415 0,0.67968 -0.2637,1.13671 -1.3535,2.32031 l -2.92385,3.19332 0,0.7266 5.47265,0 0,-0.9492 -3.9609,0 0,-0.09377 2.0332,-2.18555 c 1.3886,-1.48828 1.7871,-2.17382 1.7871,-3.05273 0,-1.3418 -1.1602,-2.37305 -2.6778,-2.37305 -1.57027,0 -2.70698,1.07813 -2.70698,2.57813 z m 11.11528,3.15234 0,-0.95508 -3.8438,0 0,0.95508 3.8438,0 z m 4.998,3.03513 c 1.5996,0 2.6484,-1.29489 2.6484,-3.2695 0,-1.98633 -1.0429,-3.26953 -2.6484,-3.26953 -0.8672,0 -1.6348,0.42773 -1.9805,1.10742 l -0.0937,0 0,-3.50391 -1.0078,0 0,8.82422 0.9609,0 0,-1.00781 0.0938,0 c 0.3984,0.70311 1.1484,1.11911 2.0273,1.11911 z M 24.7324,5.48047 c 1.1543,0 1.8399,0.88476 1.8399,2.36133 0,1.47656 -0.6856,2.3613 -1.8399,2.3613 -1.1484,0 -1.8633,-0.90232 -1.8633,-2.3613 0,-1.45899 0.7149,-2.36133 1.8633,-2.36133 z M 29.2207,11 l 1.0078,0 0,-6.31641 -1.0078,0 0,6.31641 z m 0.5039,-7.59961 c 0.3867,0 0.7031,-0.31641 0.7031,-0.70312 0,-0.38672 -0.3164,-0.70313 -0.7031,-0.70313 -0.3867,0 -0.7031,0.31641 -0.7031,0.70313 0,0.38671 0.3164,0.70312 0.7031,0.70312 z m 2.8477,-0.35156 0,1.63476 -1.0196,0 0,0.84375 1.0196,0 0,3.83204 c 0,1.20702 0.5215,1.68752 1.8222,1.68752 0.1993,0 0.3926,-0.0235 0.5918,-0.0586 l 0,-0.8496 c -0.1875,0.0175 -0.2871,0.0234 -0.4687,0.0234 -0.6563,0 -0.9375,-0.3164 -0.9375,-1.06054 l 0,-3.57422 1.4062,0 0,-0.84375 -1.4062,0 0,-1.63476 -1.0078,0 z"
       inkscape:connector-curvature="0" />
    <path
       id="path50_fill"
       d="m 3.16602,11 1.05468,0 0,-8.45508 -1.04882,0 -2.250005,1.61719 0,1.11328 2.150395,-1.55859 0.09375,0 0,7.2832 z m 6.56836,0.1934 c 1.73442,0 2.96482,-1.21293 2.96482,-2.91215 0,-1.64063 -1.166,-2.83008 -2.77732,-2.83008 -1.00782,0 -1.83399,0.48047 -2.25,1.30078 l -0.09376,0 c 0.0586,-2.25 0.8379,-3.46875 2.21485,-3.46875 0.83203,0 1.47073,0.48047 1.69923,1.27149 l 1.084,0 C 12.3066,3.19531 11.2402,2.3457 9.80469,2.3457 c -2.06836,0 -3.25196,1.66407 -3.25196,4.57032 0,0.93164 0.13477,1.71093 0.41016,2.35546 0.52734,1.24222 1.5,1.92192 2.77149,1.92192 z M 9.72266,10.2676 c -1.08399,0 -1.91016,-0.85549 -1.91016,-1.98635 0,-1.11914 0.80273,-1.91602 1.92188,-1.91602 1.11912,0 1.89842,0.79688 1.89842,1.95118 0,1.10742 -0.8262,1.95119 -1.91014,1.95119 z m 8.48434,-2.19143 0,-0.95508 -3.8437,0 0,0.95508 3.8437,0 z m 4.9981,3.03513 c 1.5996,0 2.6484,-1.29489 2.6484,-3.2695 0,-1.98633 -1.043,-3.26953 -2.6484,-3.26953 -0.8672,0 -1.6348,0.42773 -1.9805,1.10742 l -0.0937,0 0,-3.50391 -1.0079,0 0,8.82422 0.961,0 0,-1.00781 0.0937,0 c 0.3985,0.70311 1.1485,1.11911 2.0274,1.11911 z M 22.9707,5.48047 c 1.1543,0 1.8398,0.88476 1.8398,2.36133 0,1.47656 -0.6855,2.3613 -1.8398,2.3613 -1.1484,0 -1.8633,-0.90232 -1.8633,-2.3613 0,-1.45899 0.7149,-2.36133 1.8633,-2.36133 z M 27.459,11 l 1.0078,0 0,-6.31641 -1.0078,0 0,6.31641 z m 0.5039,-7.59961 c 0.3867,0 0.7031,-0.31641 0.7031,-0.70312 0,-0.38672 -0.3164,-0.70313 -0.7031,-0.70313 -0.3867,0 -0.7031,0.31641 -0.7031,0.70313 0,0.38671 0.3164,0.70312 0.7031,0.70312 z m 2.8476,-0.35156 0,1.63476 -1.0195,0 0,0.84375 1.0195,0 0,3.83204 c 0,1.20702 0.5215,1.68752 1.8223,1.68752 0.1992,0 0.3926,-0.0235 0.5918,-0.0586 l 0,-0.8496 c -0.1875,0.0175 -0.2871,0.0234 -0.4687,0.0234 -0.6563,0 -0.9375,-0.3164 -0.9375,-1.06054 l 0,-3.57422 1.4062,0 0,-0.84375 -1.4062,0 0,-1.63476 -1.0079,0 z"
       inkscape:connector-curvature="0" />
    <path
       id="path51_fill"
       d="m 4.32812,11.1992 c 1.79297,0 3.04688,-1.0137 3.04688,-2.46092 0,-1.10156 -0.69727,-1.95703 -1.75781,-2.15625 l 0,-0.09375 C 6.49023,6.24805 7.0293,5.52734 7.0293,4.60156 7.0293,3.2832 5.91016,2.3457 4.32812,2.3457 c -1.58203,0 -2.70117,0.9375 -2.70117,2.25586 0,0.91992 0.55078,1.65235 1.41211,1.88672 l 0,0.09375 C 1.97852,6.78125 1.28125,7.63672 1.28125,8.73828 c 0,1.44722 1.25391,2.46092 3.04687,2.46092 z m 0,-0.9023 c -1.17187,0 -1.98046,-0.66799 -1.98046,-1.63479 0,-0.9668 0.80859,-1.63477 1.98046,-1.63477 1.17188,0 1.98047,0.66797 1.98047,1.63477 0,0.9668 -0.80859,1.63479 -1.98047,1.63479 z m 0,-4.16018 c -0.99609,0 -1.66406,-0.57422 -1.66406,-1.43555 0,-0.87305 0.66211,-1.45312 1.66406,-1.45312 1.00196,0 1.66407,0.58007 1.66407,1.45312 0,0.86133 -0.66797,1.43555 -1.66407,1.43555 z m 8.58398,1.93945 0,-0.95508 -3.84374,0 0,0.95508 3.84374,0 z m 4.9981,3.03513 c 1.5996,0 2.6484,-1.29489 2.6484,-3.2695 0,-1.98633 -1.043,-3.26953 -2.6484,-3.26953 -0.8672,0 -1.6348,0.42773 -1.9805,1.10742 l -0.0938,0 0,-3.50391 -1.0078,0 0,8.82422 0.961,0 0,-1.00781 0.0937,0 c 0.3984,0.70311 1.1484,1.11911 2.0274,1.11911 z M 17.6758,5.48047 c 1.1543,0 1.8398,0.88476 1.8398,2.36133 0,1.47656 -0.6855,2.3613 -1.8398,2.3613 -1.1485,0 -1.8633,-0.90232 -1.8633,-2.3613 0,-1.45899 0.7148,-2.36133 1.8633,-2.36133 z M 22.1641,11 l 1.0078,0 0,-6.31641 -1.0078,0 0,6.31641 z M 22.668,3.40039 c 0.3867,0 0.7031,-0.31641 0.7031,-0.70312 0,-0.38672 -0.3164,-0.70313 -0.7031,-0.70313 -0.3868,0 -0.7032,0.31641 -0.7032,0.70313 0,0.38671 0.3164,0.70312 0.7032,0.70312 z m 2.8476,-0.35156 0,1.63476 -1.0195,0 0,0.84375 1.0195,0 0,3.83204 c 0,1.20702 0.5215,1.68752 1.8223,1.68752 0.1992,0 0.3926,-0.0235 0.5918,-0.0586 l 0,-0.8496 c -0.1875,0.0175 -0.2871,0.0234 -0.4688,0.0234 -0.6562,0 -0.9375,-0.3164 -0.9375,-1.06054 l 0,-3.57422 1.4063,0 0,-0.84375 -1.4063,0 0,-1.63476 -1.0078,0 z"
       inkscape:connector-curvature="0" />
    <path
       id="path52_stroke"
       d="M 0,0 41,0 41,-2 0,-2 0,0 Z"
       inkscape:connector-curvature="0" />
    <path
       id="path53_stroke"
       d="M 0,0 93,0 93,-2 0,-2 0,0 Z"
       inkscape:connector-curvature="0" />
    <mask
       mask-type="alpha"
       id="mask0_alpha">
      <path
         id="path10"
         d="m 1785,502 656,0 0,254 -656,0 0,-254 z"
         inkscape:connector-curvature="0"
         style="fill:#ffffff" />
    </mask>
    <linearGradient
       y2="29.747601"
       x2="57.498001"
       y1="29.747601"
       x1="2.7007"
       gradientUnits="userSpaceOnUse"
       id="XMLID_2_">
      <stop
         id="stop8"
         style="stop-color:#D25A00"
         offset="0" />
      <stop
         id="stop10"
         style="stop-color:#F97700"
         offset="1" />
    </linearGradient>
  </defs>
  <g
     id="g6251"
     transform="matrix(2.4802487,0,0,2.4802487,-47.119239,-77.364874)">
    <text
       sodipodi:linespacing="125%"
       id="text6100-2"
       y="98.728043"
       x="265.90781"
       style="font-style:normal;font-weight:normal;font-size:12.5px;line-height:125%;font-family:sans-serif;letter-spacing:0px;word-spacing:0px;fill:#000000;fill-opacity:1;stroke:none;stroke-width:1px;stroke-linecap:butt;stroke-linejoin:miter;stroke-opacity:1"
       xml:space="preserve"><tspan
         style="font-size:11.25px"
         y="98.728043"
         x="265.90781"
         id="tspan6102-2"
         sodipodi:role="line">LSB</tspan></text>
    <text
       sodipodi:linespacing="125%"
       id="text6100-4"
       y="98.608398"
       x="22.659853"
       style="font-style:normal;font-weight:normal;font-size:12.5px;line-height:125%;font-family:sans-serif;letter-spacing:0px;word-spacing:0px;fill:#000000;fill-opacity:1;stroke:none;stroke-width:1px;stroke-linecap:butt;stroke-linejoin:miter;stroke-opacity:1"
       xml:space="preserve"><tspan
         style="font-size:11.25px"
         y="98.608398"
         x="22.659853"
         id="tspan6102-7"
         sodipodi:role="line">MSB</tspan></text>
    <g
       transform="translate(-13.029649,0)"
       id="g6219">
      <g
         id="g6161"
         transform="translate(-1.2635498,0)">
        <text
           sodipodi:linespacing="125%"
           id="text6100"
           y="81.819"
           x="52.326065"
           style="font-style:normal;font-weight:normal;font-size:12.5px;line-height:125%;font-family:sans-serif;letter-spacing:0px;word-spacing:0px;fill:#000000;fill-opacity:1;stroke:none;stroke-width:1px;stroke-linecap:butt;stroke-linejoin:miter;stroke-opacity:1"
           xml:space="preserve"><tspan
             style="font-size:11.25px"
             y="81.819"
             x="52.326065"
             id="tspan6102"
             sodipodi:role="line">Byte 3</tspan></text>
        <rect
           y="70.369247"
           x="37.822842"
           height="16.889984"
           width="65.656837"
           id="rect6125"
           style="opacity:0.95;fill:none;fill-opacity:1;fill-rule:nonzero;stroke:#000000;stroke-width:1;stroke-miterlimit:4;stroke-dasharray:none;stroke-dashoffset:0;stroke-opacity:1" />
      </g>
      <g
         id="g6166"
         transform="translate(64.401659,0)">
        <text
           xml:space="preserve"
           style="font-style:normal;font-weight:normal;font-size:12.5px;line-height:125%;font-family:sans-serif;letter-spacing:0px;word-spacing:0px;fill:#000000;fill-opacity:1;stroke:none;stroke-width:1px;stroke-linecap:butt;stroke-linejoin:miter;stroke-opacity:1"
           x="52.326065"
           y="81.819"
           id="text6168"
           sodipodi:linespacing="125%"><tspan
             sodipodi:role="line"
             id="tspan6170"
             x="52.326065"
             y="81.819"
             style="font-size:11.25px">Byte 2</tspan></text>
        <rect
           style="opacity:0.95;fill:none;fill-opacity:1;fill-rule:nonzero;stroke:#000000;stroke-width:1;stroke-miterlimit:4;stroke-dasharray:none;stroke-dashoffset:0;stroke-opacity:1"
           id="rect6172"
           width="65.656837"
           height="16.889984"
           x="37.822842"
           y="70.369247" />
      </g>
      <g
         id="g6174"
         transform="translate(130.02278,0)">
        <text
           xml:space="preserve"
           style="font-style:normal;font-weight:normal;font-size:12.5px;line-height:125%;font-family:sans-serif;letter-spacing:0px;word-spacing:0px;fill:#000000;fill-opacity:1;stroke:none;stroke-width:1px;stroke-linecap:butt;stroke-linejoin:miter;stroke-opacity:1"
           x="52.326065"
           y="81.819"
           id="text6176"
           sodipodi:linespacing="125%"><tspan
             sodipodi:role="line"
             id="tspan6178"
             x="52.326065"
             y="81.819"
             style="font-size:11.25px">Byte 1</tspan></text>
        <rect
           style="opacity:0.95;fill:none;fill-opacity:1;fill-rule:nonzero;stroke:#000000;stroke-width:1;stroke-miterlimit:4;stroke-dasharray:none;stroke-dashoffset:0;stroke-opacity:1"
           id="rect6180"
           width="65.656837"
           height="16.889984"
           x="37.822842"
           y="70.369247" />
      </g>
      <g
         transform="translate(195.68799,0)"
         id="g6182">
        <text
           sodipodi:linespacing="125%"
           id="text6184"
           y="81.819"
           x="52.326065"
           style="font-style:normal;font-weight:normal;font-size:12.5px;line-height:125%;font-family:sans-serif;letter-spacing:0px;word-spacing:0px;fill:#000000;fill-opacity:1;stroke:none;stroke-width:1px;stroke-linecap:butt;stroke-linejoin:miter;stroke-opacity:1"
           xml:space="preserve"><tspan
             style="font-size:11.25px"
             y="81.819"
             x="52.326065"
             id="tspan6186"
             sodipodi:role="line">Byte 0</tspan></text>
        <rect
           y="70.369247"
           x="37.822842"
           height="16.889984"
           width="65.656837"
           id="rect6188"
           style="opacity:0.95;fill:none;fill-opacity:1;fill-rule:nonzero;stroke:#000000;stroke-width:1;stroke-miterlimit:4;stroke-dasharray:none;stroke-dashoffset:0;stroke-opacity:1" />
      </g>
    </g>
  </g>
  <g
     id="g6239"
     transform="matrix(2.4802487,0,0,2.4802487,-47.119239,-47.601894)">
    <text
       sodipodi:linespacing="125%"
       id="text6100-7"
       y="44.234398"
       x="261.70828"
       style="font-style:normal;font-weight:normal;font-size:12.5px;line-height:125%;font-family:sans-serif;letter-spacing:0px;word-spacing:0px;fill:#000000;fill-opacity:1;stroke:none;stroke-width:1px;stroke-linecap:butt;stroke-linejoin:miter;stroke-opacity:1"
       xml:space="preserve"><tspan
         style="font-size:11.25px"
         y="44.234398"
         x="261.70828"
         id="tspan6102-5"
         sodipodi:role="line">bit 0</tspan></text>
    <text
       sodipodi:linespacing="125%"
       id="text6100-7-4"
       y="44.018227"
       x="24.194134"
       style="font-style:normal;font-weight:normal;font-size:12.5px;line-height:125%;font-family:sans-serif;letter-spacing:0px;word-spacing:0px;fill:#000000;fill-opacity:1;stroke:none;stroke-width:1px;stroke-linecap:butt;stroke-linejoin:miter;stroke-opacity:1"
       xml:space="preserve"><tspan
         style="font-size:11.25px"
         y="44.018227"
         x="24.194134"
         id="tspan6102-5-8"
         sodipodi:role="line">bit 31</tspan></text>
    <g
       id="g6214">
      <text
         sodipodi:linespacing="125%"
         id="text6104"
         y="31.771605"
         x="92.233734"
         style="font-style:normal;font-weight:normal;font-size:12.5px;line-height:125%;font-family:sans-serif;letter-spacing:0px;word-spacing:0px;fill:#000000;fill-opacity:1;stroke:none;stroke-width:1px;stroke-linecap:butt;stroke-linejoin:miter;stroke-opacity:1"
         xml:space="preserve"><tspan
           style="font-size:11.25px"
           y="31.771605"
           x="92.233734"
           id="tspan6106"
           sodipodi:role="line">Registrador de 32 bits</tspan></text>
      <path
         style="fill:none;fill-rule:evenodd;stroke:#000000;stroke-width:1px;stroke-linecap:butt;stroke-linejoin:miter;stroke-opacity:1"
         d="m 24.10614,47.977474 130.86505,-6.478288 130.58923,6.753793"
         id="path6210"
         inkscape:connector-curvature="0"
         sodipodi:nodetypes="ccc" />
    </g>
  </g>
  <g
     id="g6425"
     transform="matrix(0.67611423,0,0,0.67611423,3.2388594,322.20387)">
    <text
       xml:space="preserve"
       style="font-style:normal;font-weight:normal;font-size:45.85483551px;line-height:125%;font-family:sans-serif;letter-spacing:0px;word-spacing:0px;fill:#000000;fill-opacity:1;stroke:none;stroke-width:1px;stroke-linecap:butt;stroke-linejoin:miter;stroke-opacity:1"
       x="8.6434679"
       y="137.59428"
       id="text6344"
       sodipodi:linespacing="125%"><tspan
         sodipodi:role="line"
         id="tspan6346"
         x="8.6434679"
         y="137.59428"
         style="font-size:41.26935196px">Endereo: 0</tspan></text>
    <g
       id="g6348"
       transform="matrix(3.668387,0,0,3.668387,-122.27944,-224.13947)">
      <g
         transform="translate(-1.2635498,0)"
         id="g6350">
        <text
           xml:space="preserve"
           style="font-style:normal;font-weight:normal;font-size:12.5px;line-height:125%;font-family:sans-serif;letter-spacing:0px;word-spacing:0px;fill:#000000;fill-opacity:1;stroke:none;stroke-width:1px;stroke-linecap:butt;stroke-linejoin:miter;stroke-opacity:1"
           x="52.326065"
           y="81.819"
           id="text6352"
           sodipodi:linespacing="125%"><tspan
             sodipodi:role="line"
             id="tspan6354"
             x="52.326065"
             y="81.819"
             style="font-size:11.25px">Byte 3</tspan></text>
        <rect
           style="opacity:0.95;fill:none;fill-opacity:1;fill-rule:nonzero;stroke:#000000;stroke-width:1;stroke-miterlimit:4;stroke-dasharray:none;stroke-dashoffset:0;stroke-opacity:1"
           id="rect6356"
           width="65.656837"
           height="16.889984"
           x="37.822842"
           y="70.369247" />
      </g>
      <g
         transform="translate(64.401659,0)"
         id="g6358">
        <text
           sodipodi:linespacing="125%"
           id="text6360"
           y="81.819"
           x="52.326065"
           style="font-style:normal;font-weight:normal;font-size:12.5px;line-height:125%;font-family:sans-serif;letter-spacing:0px;word-spacing:0px;fill:#000000;fill-opacity:1;stroke:none;stroke-width:1px;stroke-linecap:butt;stroke-linejoin:miter;stroke-opacity:1"
           xml:space="preserve"><tspan
             style="font-size:11.25px"
             y="81.819"
             x="52.326065"
             id="tspan6362"
             sodipodi:role="line">Byte 2</tspan></text>
        <rect
           y="70.369247"
           x="37.822842"
           height="16.889984"
           width="65.656837"
           id="rect6364"
           style="opacity:0.95;fill:none;fill-opacity:1;fill-rule:nonzero;stroke:#000000;stroke-width:1;stroke-miterlimit:4;stroke-dasharray:none;stroke-dashoffset:0;stroke-opacity:1" />
      </g>
      <g
         transform="translate(130.02278,0)"
         id="g6366">
        <text
           sodipodi:linespacing="125%"
           id="text6368"
           y="81.819"
           x="52.326065"
           style="font-style:normal;font-weight:normal;font-size:12.5px;line-height:125%;font-family:sans-serif;letter-spacing:0px;word-spacing:0px;fill:#000000;fill-opacity:1;stroke:none;stroke-width:1px;stroke-linecap:butt;stroke-linejoin:miter;stroke-opacity:1"
           xml:space="preserve"><tspan
             style="font-size:11.25px"
             y="81.819"
             x="52.326065"
             id="tspan6370"
             sodipodi:role="line">Byte 1</tspan></text>
        <rect
           y="70.369247"
           x="37.822842"
           height="16.889984"
           width="65.656837"
           id="rect6372"
           style="opacity:0.95;fill:none;fill-opacity:1;fill-rule:nonzero;stroke:#000000;stroke-width:1;stroke-miterlimit:4;stroke-dasharray:none;stroke-dashoffset:0;stroke-opacity:1" />
      </g>
      <g
         id="g6374"
         transform="translate(195.68799,0)">
        <text
           xml:space="preserve"
           style="font-style:normal;font-weight:normal;font-size:12.5px;line-height:125%;font-family:sans-serif;letter-spacing:0px;word-spacing:0px;fill:#000000;fill-opacity:1;stroke:none;stroke-width:1px;stroke-linecap:butt;stroke-linejoin:miter;stroke-opacity:1"
           x="52.326065"
           y="81.819"
           id="text6376"
           sodipodi:linespacing="125%"><tspan
             sodipodi:role="line"
             id="tspan6378"
             x="52.326065"
             y="81.819"
             style="font-size:11.25px">Byte 0</tspan></text>
        <rect
           style="opacity:0.95;fill:none;fill-opacity:1;fill-rule:nonzero;stroke:#000000;stroke-width:1;stroke-miterlimit:4;stroke-dasharray:none;stroke-dashoffset:0;stroke-opacity:1"
           id="rect6380"
           width="65.656837"
           height="16.889984"
           x="37.822842"
           y="70.369247" />
      </g>
    </g>
    <text
       sodipodi:linespacing="125%"
       id="text6403"
       y="137.59428"
       x="731.95221"
       style="font-style:normal;font-weight:normal;font-size:45.85483551px;line-height:125%;font-family:sans-serif;letter-spacing:0px;word-spacing:0px;fill:#000000;fill-opacity:1;stroke:none;stroke-width:1px;stroke-linecap:butt;stroke-linejoin:miter;stroke-opacity:1"
       xml:space="preserve"><tspan
         style="font-size:41.26935196px"
         y="137.59428"
         x="731.95221"
         id="tspan6405"
         sodipodi:role="line">Endereo: 4</tspan></text>
    <text
       xml:space="preserve"
       style="font-style:normal;font-weight:normal;font-size:45.85483551px;line-height:125%;font-family:sans-serif;letter-spacing:0px;word-spacing:0px;fill:#000000;fill-opacity:1;stroke:none;stroke-width:1px;stroke-linecap:butt;stroke-linejoin:miter;stroke-opacity:1"
       x="402.12466"
       y="19.431715"
       id="text6344-1"
       sodipodi:linespacing="125%"><tspan
         sodipodi:role="line"
         id="tspan6346-2"
         x="402.12466"
         y="19.431715"
         style="font-size:41.26935196px">Memria</tspan></text>
    <text
       xml:space="preserve"
       style="font-style:normal;font-weight:normal;font-size:45.85483551px;line-height:125%;font-family:sans-serif;text-align:center;letter-spacing:0px;word-spacing:0px;text-anchor:middle;fill:#000000;fill-opacity:1;stroke:none;stroke-width:1px;stroke-linecap:butt;stroke-linejoin:miter;stroke-opacity:1"
       x="271.92181"
       y="-149.93283"
       id="text6344-1-3"
       sodipodi:linespacing="125%"><tspan
         sodipodi:role="line"
         id="tspan6346-2-6"
         x="271.92181"
         y="-149.93283"
         style="font-size:41.26935196px;text-align:center;text-anchor:middle">Transferncia</tspan><tspan
         sodipodi:role="line"
         x="271.92181"
         y="-98.346138"
         style="font-size:41.26935196px;text-align:center;text-anchor:middle"
         id="tspan6505">Big-Endian</tspan></text>
  </g>
  <g
     style="overflow:visible"
     id="g6482"
     transform="matrix(0,-1.0159098,1.0159098,0,297.6518,300.26148)">
    <path
       style="fill:#000000;fill-opacity:1"
       inkscape:connector-curvature="0"
       id="path14"
       d="M 41.203,10 38.145,12.724 11.551,36.429 10,37.811 l 1.558,1.375 26.717,23.565 3.071,2.708 -0.01,-4.095 -0.016,-6.128 23.944,0 1.842,0 0,-1.842 0,-30.09 0,-1.842 -1.842,0 -24.031,0 -0.02,-7.369 -0.01,-4.093 0,0 z m -28.426,27.804 26.595,-23.705 0.024,9.206 25.869,0 0,30.09 0,0 0,0 -25.791,0 0.005,1.842 0,0 0,0 0,0 0.016,6.133 0,0 0,0 -26.718,-23.566 0,0 0,0 z" />
    <path
       d="m 39.372,14.119 -1.428,1.254 -25.166,22.431 1.049,0.926 25.55,-22.428 -0.005,-2.183 z m 10.56,39.276 15.334,-13.46 0,-2.188 -17.828,15.648 2.494,0 z M 39.385,19.254 15.508,40.213 16.752,41.31 39.392,21.438 39.385,19.254 Z m 22.272,34.141 3.609,-3.169 0,-2.188 -6.104,5.357 2.495,0 z m -5.864,0 9.473,-8.315 0,-2.188 -11.965,10.503 2.492,0 z m -15.162,-30.09 -22.2,19.485 1.244,1.097 23.449,-20.582 -2.493,0 z m 24.635,30.09 0,-0.3 -0.34,0.3 0.34,0 z m -31.021,3.344 31.021,-27.229 0,-2.188 -32.264,28.32 1.243,1.097 z m 4.68,4.128 0.569,0.502 -0.002,-0.999 -0.567,0.497 z m 7.57,-37.562 -25.139,22.066 1.244,1.096 26.388,-23.161 -2.493,0 z m -7.016,31.931 -3.478,3.052 1.244,1.098 2.24,-1.966 -0.006,-2.184 z m 4.59,-1.841 21.197,-18.606 0,-2.188 -23.689,20.794 2.492,0 z m 8.185,-30.09 -28.025,24.6 1.244,1.097 29.276,-25.697 -2.495,0 z m 5.864,0 -30.965,27.179 1.244,1.098 32.215,-28.276 -2.494,0 z m 5.861,0 -33.902,29.758 1.243,1.097 33.946,-29.797 0,-1.058 -1.287,0 z"
       id="path16"
       inkscape:connector-curvature="0"
       style="opacity:0;fill:none" />
    <path
       style="fill:#000000;fill-opacity:1"
       inkscape:connector-curvature="0"
       id="path14-3"
       d="m 97.156001,66.683654 3.057999,-2.724 26.59442,-23.705 1.551,-1.382 -1.558,-1.375 -26.71742,-23.565 -3.070999,-2.708 0.01,4.095 0.016,6.128 -23.944,0 -1.842,0 0,1.842 0,30.09 0,1.842 1.842,0 24.031,0 0.02,7.369 0.01,4.093 0,0 z m 28.426419,-27.804 -26.595419,23.705 -0.024,-9.206 -25.869,0 0,-30.09 0,0 0,0 25.791,0 -0.005,-1.842 0,0 0,0 0,0 -0.016,-6.133 0,0 0,0 26.718419,23.566 0,0 0,0 z" />
  </g>
</svg>
