<?xml version="1.0" encoding="UTF-8" standalone="no"?>
<!-- Created with Inkscape (http://www.inkscape.org/) -->

<svg
   xmlns:dc="http://purl.org/dc/elements/1.1/"
   xmlns:cc="http://creativecommons.org/ns#"
   xmlns:rdf="http://www.w3.org/1999/02/22-rdf-syntax-ns#"
   xmlns:svg="http://www.w3.org/2000/svg"
   xmlns="http://www.w3.org/2000/svg"
   xmlns:sodipodi="http://sodipodi.sourceforge.net/DTD/sodipodi-0.dtd"
   xmlns:inkscape="http://www.inkscape.org/namespaces/inkscape"
   id="svg2"
   version="1.1"
   inkscape:version="0.91 r13725"
   width="1163.7092"
   height="1304.0616"
   viewBox="0 0 1163.7092 1304.0616"
   sodipodi:docname="vhdl-type-conversions-914x1024.svg">
  <metadata
     id="metadata8">
    <rdf:RDF>
      <cc:Work
         rdf:about="">
        <dc:format>image/svg+xml</dc:format>
        <dc:type
           rdf:resource="http://purl.org/dc/dcmitype/StillImage" />
        <dc:title></dc:title>
      </cc:Work>
    </rdf:RDF>
  </metadata>
  <defs
     id="defs6">
    <marker
       inkscape:isstock="true"
       style="overflow:visible"
       id="marker10233"
       refX="0"
       refY="0"
       orient="auto"
       inkscape:stockid="Arrow1Lend">
      <path
         transform="matrix(-0.8,0,0,-0.8,-10,0)"
         style="fill:#000000;fill-opacity:1;fill-rule:evenodd;stroke:#000000;stroke-width:1pt;stroke-opacity:1"
         d="M 0,0 5,-5 -12.5,0 5,5 0,0 Z"
         id="path10235"
         inkscape:connector-curvature="0" />
    </marker>
    <marker
       inkscape:stockid="Arrow1Lend"
       orient="auto"
       refY="0"
       refX="0"
       id="marker9173"
       style="overflow:visible"
       inkscape:isstock="true">
      <path
         id="path9175"
         d="M 0,0 5,-5 -12.5,0 5,5 0,0 Z"
         style="fill:#000000;fill-opacity:1;fill-rule:evenodd;stroke:#000000;stroke-width:1pt;stroke-opacity:1"
         transform="matrix(-0.8,0,0,-0.8,-10,0)"
         inkscape:connector-curvature="0" />
    </marker>
    <marker
       inkscape:stockid="Arrow1Lend"
       orient="auto"
       refY="0"
       refX="0"
       id="marker8949"
       style="overflow:visible"
       inkscape:isstock="true"
       inkscape:collect="always">
      <path
         id="path8951"
         d="M 0,0 5,-5 -12.5,0 5,5 0,0 Z"
         style="fill:#000000;fill-opacity:1;fill-rule:evenodd;stroke:#000000;stroke-width:1pt;stroke-opacity:1"
         transform="matrix(-0.8,0,0,-0.8,-10,0)"
         inkscape:connector-curvature="0" />
    </marker>
    <marker
       inkscape:isstock="true"
       style="overflow:visible"
       id="marker8061"
       refX="0"
       refY="0"
       orient="auto"
       inkscape:stockid="Arrow1Lend"
       inkscape:collect="always">
      <path
         transform="matrix(-0.8,0,0,-0.8,-10,0)"
         style="fill:#000000;fill-opacity:1;fill-rule:evenodd;stroke:#000000;stroke-width:1pt;stroke-opacity:1"
         d="M 0,0 5,-5 -12.5,0 5,5 0,0 Z"
         id="path8063"
         inkscape:connector-curvature="0" />
    </marker>
    <marker
       inkscape:isstock="true"
       style="overflow:visible"
       id="marker5319"
       refX="0"
       refY="0"
       orient="auto"
       inkscape:stockid="Arrow1Lend">
      <path
         transform="matrix(-0.8,0,0,-0.8,-10,0)"
         style="fill:#000000;fill-opacity:1;fill-rule:evenodd;stroke:#000000;stroke-width:1pt;stroke-opacity:1"
         d="M 0,0 5,-5 -12.5,0 5,5 0,0 Z"
         id="path5321"
         inkscape:connector-curvature="0" />
    </marker>
    <marker
       inkscape:stockid="Arrow1Lend"
       orient="auto"
       refY="0"
       refX="0"
       id="marker4923"
       style="overflow:visible"
       inkscape:isstock="true"
       inkscape:collect="always">
      <path
         id="path4925"
         d="M 0,0 5,-5 -12.5,0 5,5 0,0 Z"
         style="fill:#000000;fill-opacity:1;fill-rule:evenodd;stroke:#000000;stroke-width:1pt;stroke-opacity:1"
         transform="matrix(-0.8,0,0,-0.8,-10,0)"
         inkscape:connector-curvature="0" />
    </marker>
    <marker
       inkscape:isstock="true"
       style="overflow:visible"
       id="marker4563"
       refX="0"
       refY="0"
       orient="auto"
       inkscape:stockid="Arrow1Lend"
       inkscape:collect="always">
      <path
         transform="matrix(-0.8,0,0,-0.8,-10,0)"
         style="fill:#000000;fill-opacity:1;fill-rule:evenodd;stroke:#000000;stroke-width:1pt;stroke-opacity:1"
         d="M 0,0 5,-5 -12.5,0 5,5 0,0 Z"
         id="path4565"
         inkscape:connector-curvature="0" />
    </marker>
    <marker
       inkscape:stockid="Arrow1Lend"
       orient="auto"
       refY="0"
       refX="0"
       id="Arrow1Lend"
       style="overflow:visible"
       inkscape:isstock="true"
       inkscape:collect="always">
      <path
         id="path4250"
         d="M 0,0 5,-5 -12.5,0 5,5 0,0 Z"
         style="fill:#000000;fill-opacity:1;fill-rule:evenodd;stroke:#000000;stroke-width:1pt;stroke-opacity:1"
         transform="matrix(-0.8,0,0,-0.8,-10,0)"
         inkscape:connector-curvature="0" />
    </marker>
    <marker
       inkscape:stockid="Arrow1Mend"
       orient="auto"
       refY="0"
       refX="0"
       id="Arrow1Mend"
       style="overflow:visible"
       inkscape:isstock="true">
      <path
         id="path4256"
         d="M 0,0 5,-5 -12.5,0 5,5 0,0 Z"
         style="fill:#000000;fill-opacity:1;fill-rule:evenodd;stroke:#000000;stroke-width:1pt;stroke-opacity:1"
         transform="matrix(-0.4,0,0,-0.4,-4,0)"
         inkscape:connector-curvature="0" />
    </marker>
    <linearGradient
       y2="29.747601"
       x2="57.498001"
       y1="29.747601"
       x1="2.7007"
       gradientUnits="userSpaceOnUse"
       id="XMLID_2_">
      <stop
         id="stop8"
         style="stop-color:#D25A00"
         offset="0" />
      <stop
         id="stop10"
         style="stop-color:#F97700"
         offset="1" />
    </linearGradient>
  </defs>
  <sodipodi:namedview
     pagecolor="#ffffff"
     bordercolor="#666666"
     borderopacity="1"
     objecttolerance="10"
     gridtolerance="10"
     guidetolerance="10"
     inkscape:pageopacity="0"
     inkscape:pageshadow="2"
     inkscape:window-width="1855"
     inkscape:window-height="1056"
     id="namedview4"
     showgrid="false"
     showguides="true"
     inkscape:guide-bbox="true"
     inkscape:zoom="0.68018257"
     inkscape:cx="581.85461"
     inkscape:cy="652.03082"
     inkscape:window-x="1985"
     inkscape:window-y="24"
     inkscape:window-maximized="1"
     inkscape:current-layer="g10330"
     fit-margin-left="10"
     fit-margin-top="10"
     fit-margin-right="10"
     fit-margin-bottom="10" />
  <path
     cx="571.70496"
     cy="215.67111"
     rx="136.39661"
     ry="61.668682"
     id="path4148"
     style="opacity:1;fill:none;fill-opacity:1;fill-rule:nonzero;stroke:#000000;stroke-width:4;stroke-linecap:butt;stroke-linejoin:miter;stroke-miterlimit:10;stroke-dasharray:none;stroke-dashoffset:0;stroke-opacity:1"
     d=""
     inkscape:connector-curvature="0" />
  <g
     id="g10330"
     transform="translate(10.5,10.5)">
    <rect
       y="0"
       x="0"
       height="1283.0616"
       width="359.74811"
       id="rect4138"
       style="opacity:1;fill:none;fill-opacity:1;fill-rule:nonzero;stroke:#000000;stroke-width:1;stroke-linecap:butt;stroke-linejoin:miter;stroke-miterlimit:10;stroke-dasharray:none;stroke-dashoffset:0;stroke-opacity:1" />
    <rect
       style="opacity:1;fill:none;fill-opacity:1;fill-rule:nonzero;stroke:#000000;stroke-width:1;stroke-linecap:butt;stroke-linejoin:miter;stroke-miterlimit:10;stroke-dasharray:none;stroke-dashoffset:0;stroke-opacity:1"
       id="rect4140"
       width="775.77448"
       height="1281.192"
       x="366.93481"
       y="0.93482238" />
    <ellipse
       cx="571.70496"
       cy="215.67111"
       rx="136.39661"
       ry="61.668682"
       id="path4146"
       style="opacity:1;fill:none;fill-opacity:1;fill-rule:nonzero;stroke:#000000;stroke-width:4;stroke-linecap:butt;stroke-linejoin:miter;stroke-miterlimit:10;stroke-dasharray:none;stroke-dashoffset:0;stroke-opacity:1" />
    <ellipse
       style="opacity:1;fill:none;fill-opacity:1;fill-rule:nonzero;stroke:#000000;stroke-width:4;stroke-linecap:butt;stroke-linejoin:miter;stroke-miterlimit:10;stroke-dasharray:none;stroke-dashoffset:0;stroke-opacity:1"
       id="ellipse4150"
       ry="61.668682"
       rx="136.39661"
       cy="1021.6711"
       cx="571.70496" />
    <ellipse
       cx="167.70496"
       cy="611.67108"
       rx="136.39661"
       ry="61.668682"
       id="ellipse4152"
       style="opacity:1;fill:none;fill-opacity:1;fill-rule:nonzero;stroke:#000000;stroke-width:4;stroke-linecap:butt;stroke-linejoin:miter;stroke-miterlimit:10;stroke-dasharray:none;stroke-dashoffset:0;stroke-opacity:1" />
    <ellipse
       style="opacity:1;fill:none;fill-opacity:1;fill-rule:nonzero;stroke:#000000;stroke-width:4;stroke-linecap:butt;stroke-linejoin:miter;stroke-miterlimit:10;stroke-dasharray:none;stroke-dashoffset:0;stroke-opacity:1"
       id="ellipse4154"
       ry="61.668682"
       rx="136.39661"
       cy="611.51373"
       cx="973.70496" />
    <text
       sodipodi:linespacing="125%"
       id="text4167"
       y="203.02293"
       x="572.03583"
       style="font-style:normal;font-weight:normal;font-size:30px;line-height:125%;font-family:sans-serif;letter-spacing:0px;word-spacing:0px;fill:#000000;fill-opacity:1;stroke:none;stroke-width:1px;stroke-linecap:butt;stroke-linejoin:miter;stroke-opacity:1"
       xml:space="preserve"><tspan
         style="font-style:normal;font-variant:normal;font-weight:bold;font-stretch:normal;font-size:25px;font-family:sans-serif;-inkscape-font-specification:'sans-serif Bold';text-align:center;text-anchor:middle"
         y="203.02293"
         x="572.03583"
         id="tspan4169"
         sodipodi:role="line">S</tspan><tspan
         id="tspan4181"
         style="font-style:normal;font-variant:normal;font-weight:bold;font-stretch:normal;font-size:25px;font-family:sans-serif;-inkscape-font-specification:'sans-serif Bold';text-align:center;text-anchor:middle"
         y="234.27293"
         x="572.03583"
         sodipodi:role="line">signed</tspan></text>
    <text
       xml:space="preserve"
       style="font-style:normal;font-weight:normal;font-size:30px;line-height:125%;font-family:sans-serif;letter-spacing:0px;word-spacing:0px;fill:#000000;fill-opacity:1;stroke:none;stroke-width:1px;stroke-linecap:butt;stroke-linejoin:miter;stroke-opacity:1"
       x="92.865776"
       y="117.72675"
       id="text4171"
       sodipodi:linespacing="125%"><tspan
         sodipodi:role="line"
         id="tspan4173"
         x="92.865776"
         y="117.72675"
         style="font-style:normal;font-variant:normal;font-weight:bold;font-stretch:normal;font-size:35px;font-family:sans-serif;-inkscape-font-specification:'sans-serif Bold'">Números</tspan></text>
    <text
       sodipodi:linespacing="125%"
       id="text4175"
       y="118.98428"
       x="742.69891"
       style="font-style:normal;font-weight:normal;font-size:30px;line-height:125%;font-family:sans-serif;letter-spacing:0px;word-spacing:0px;fill:#000000;fill-opacity:1;stroke:none;stroke-width:1px;stroke-linecap:butt;stroke-linejoin:miter;stroke-opacity:1"
       xml:space="preserve"><tspan
         style="font-style:normal;font-variant:normal;font-weight:bold;font-stretch:normal;font-size:35px;font-family:sans-serif;-inkscape-font-specification:'sans-serif Bold'"
         y="118.98428"
         x="742.69891"
         id="tspan4177"
         sodipodi:role="line">Vetores Binários</tspan></text>
    <text
       xml:space="preserve"
       style="font-style:normal;font-weight:normal;font-size:30px;line-height:125%;font-family:sans-serif;letter-spacing:0px;word-spacing:0px;fill:#000000;fill-opacity:1;stroke:none;stroke-width:1px;stroke-linecap:butt;stroke-linejoin:miter;stroke-opacity:1"
       x="976.03589"
       y="600.08228"
       id="text4183"
       sodipodi:linespacing="125%"><tspan
         sodipodi:role="line"
         id="tspan4185"
         x="976.03589"
         y="600.08228"
         style="font-style:normal;font-variant:normal;font-weight:bold;font-stretch:normal;font-size:25px;font-family:sans-serif;-inkscape-font-specification:'sans-serif Bold';text-align:center;text-anchor:middle">V</tspan><tspan
         sodipodi:role="line"
         x="976.03589"
         y="631.33228"
         style="font-style:normal;font-variant:normal;font-weight:bold;font-stretch:normal;font-size:25px;font-family:sans-serif;-inkscape-font-specification:'sans-serif Bold';text-align:center;text-anchor:middle"
         id="tspan4187">std_logic_vector</tspan></text>
    <text
       xml:space="preserve"
       style="font-style:normal;font-weight:normal;font-size:30px;line-height:125%;font-family:sans-serif;letter-spacing:0px;word-spacing:0px;fill:#000000;fill-opacity:1;stroke:none;stroke-width:1px;stroke-linecap:butt;stroke-linejoin:miter;stroke-opacity:1"
       x="572.03583"
       y="1012.0823"
       id="text4189"
       sodipodi:linespacing="125%"><tspan
         sodipodi:role="line"
         id="tspan4191"
         x="572.03583"
         y="1012.0823"
         style="font-style:normal;font-variant:normal;font-weight:bold;font-stretch:normal;font-size:25px;font-family:sans-serif;-inkscape-font-specification:'sans-serif Bold';text-align:center;text-anchor:middle">U</tspan><tspan
         sodipodi:role="line"
         x="572.03583"
         y="1043.3323"
         style="font-style:normal;font-variant:normal;font-weight:bold;font-stretch:normal;font-size:25px;font-family:sans-serif;-inkscape-font-specification:'sans-serif Bold';text-align:center;text-anchor:middle"
         id="tspan4193">unsigned</tspan></text>
    <text
       xml:space="preserve"
       style="font-style:normal;font-weight:normal;font-size:30px;line-height:125%;font-family:sans-serif;letter-spacing:0px;word-spacing:0px;fill:#000000;fill-opacity:1;stroke:none;stroke-width:1px;stroke-linecap:butt;stroke-linejoin:miter;stroke-opacity:1"
       x="162.03583"
       y="606.08228"
       id="text4195"
       sodipodi:linespacing="125%"><tspan
         sodipodi:role="line"
         id="tspan4197"
         x="162.03583"
         y="606.08228"
         style="font-style:normal;font-variant:normal;font-weight:bold;font-stretch:normal;font-size:25px;font-family:sans-serif;-inkscape-font-specification:'sans-serif Bold';text-align:center;text-anchor:middle">I</tspan><tspan
         sodipodi:role="line"
         x="162.03583"
         y="637.33228"
         style="font-style:normal;font-variant:normal;font-weight:bold;font-stretch:normal;font-size:25px;font-family:sans-serif;-inkscape-font-specification:'sans-serif Bold';text-align:center;text-anchor:middle"
         id="tspan4199">integer</tspan></text>
    <path
       sodipodi:nodetypes="cc"
       inkscape:connector-curvature="0"
       id="path4201"
       d="M 394.67956,200.43533 C 267.36808,213.90745 181.22605,293.25069 169.77025,492.09191"
       style="fill:none;fill-rule:evenodd;stroke:#000000;stroke-width:4;stroke-linecap:butt;stroke-linejoin:miter;stroke-miterlimit:4;stroke-dasharray:none;stroke-opacity:1;marker-end:url(#Arrow1Lend)" />
    <path
       style="fill:none;fill-rule:evenodd;stroke:#000000;stroke-width:4;stroke-linecap:butt;stroke-linejoin:miter;stroke-miterlimit:4;stroke-dasharray:none;stroke-opacity:1;marker-end:url(#marker4563)"
       d="m 739.80194,225.72675 c 127.31148,13.47212 213.45351,92.81536 224.90931,291.65658"
       id="path4561"
       inkscape:connector-curvature="0"
       sodipodi:nodetypes="cc" />
    <path
       sodipodi:nodetypes="cc"
       inkscape:connector-curvature="0"
       id="path4921"
       d="M 735.44885,1020.8318 C 862.76036,1007.3596 948.90243,928.01644 960.35823,729.17518"
       style="fill:none;fill-rule:evenodd;stroke:#000000;stroke-width:4;stroke-linecap:butt;stroke-linejoin:miter;stroke-miterlimit:4;stroke-dasharray:none;stroke-opacity:1;marker-end:url(#marker4923)" />
    <path
       style="fill:none;fill-rule:evenodd;stroke:#000000;stroke-width:4;stroke-linecap:butt;stroke-linejoin:miter;stroke-miterlimit:4;stroke-dasharray:none;stroke-opacity:1;marker-end:url(#marker5319)"
       d="M 396.13059,1019.4557 C 268.81911,1005.9836 182.67708,926.64035 171.22128,727.79913"
       id="path5317"
       inkscape:connector-curvature="0"
       sodipodi:nodetypes="cc" />
    <path
       style="fill:none;fill-rule:evenodd;stroke:#000000;stroke-width:4;stroke-linecap:butt;stroke-linejoin:miter;stroke-miterlimit:4;stroke-dasharray:none;stroke-opacity:1;marker-end:url(#marker8061)"
       d="M 815.49245,622.54882 C 688.18094,636.02102 602.03887,715.36418 590.58307,914.20544"
       id="path8059"
       inkscape:connector-curvature="0"
       sodipodi:nodetypes="cc" />
    <path
       sodipodi:nodetypes="cc"
       inkscape:connector-curvature="0"
       id="path8947"
       d="m 314.39953,622.54882 c 127.31151,13.4722 213.45358,92.81536 224.90938,291.65662"
       style="fill:none;fill-rule:evenodd;stroke:#000000;stroke-width:4;stroke-linecap:butt;stroke-linejoin:miter;stroke-miterlimit:4;stroke-dasharray:none;stroke-opacity:1;marker-end:url(#marker8949)" />
    <path
       sodipodi:nodetypes="cc"
       inkscape:connector-curvature="0"
       id="path9169"
       d="M 815.49245,589.4846 C 688.18094,576.0124 602.03887,496.66924 590.58307,297.82798"
       style="fill:none;fill-rule:evenodd;stroke:#000000;stroke-width:4;stroke-linecap:butt;stroke-linejoin:miter;stroke-miterlimit:4;stroke-dasharray:none;stroke-opacity:1;marker-end:url(#marker9173)" />
    <path
       style="fill:none;fill-rule:evenodd;stroke:#000000;stroke-width:4;stroke-linecap:butt;stroke-linejoin:miter;stroke-miterlimit:4;stroke-dasharray:none;stroke-opacity:1;marker-end:url(#marker10233)"
       d="M 314.39953,589.4846 C 441.71104,576.0124 527.85311,496.66924 539.30891,297.82798"
       id="path9171"
       inkscape:connector-curvature="0"
       sodipodi:nodetypes="cc" />
    <text
       sodipodi:linespacing="125%"
       id="text10382"
       y="270.08228"
       x="996.03589"
       style="font-style:normal;font-weight:normal;font-size:30px;line-height:125%;font-family:sans-serif;letter-spacing:0px;word-spacing:0px;fill:#000000;fill-opacity:1;stroke:none;stroke-width:1px;stroke-linecap:butt;stroke-linejoin:miter;stroke-opacity:1"
       xml:space="preserve"><tspan
         id="tspan10386"
         style="font-style:normal;font-variant:normal;font-weight:bold;font-stretch:normal;font-size:25px;font-family:sans-serif;-inkscape-font-specification:'sans-serif Bold';text-align:center;text-anchor:middle"
         y="270.08228"
         x="996.03589"
         sodipodi:role="line">std_logic_vector(S)</tspan></text>
    <text
       xml:space="preserve"
       style="font-style:normal;font-weight:normal;font-size:30px;line-height:125%;font-family:sans-serif;letter-spacing:0px;word-spacing:0px;fill:#000000;fill-opacity:1;stroke:none;stroke-width:1px;stroke-linecap:butt;stroke-linejoin:miter;stroke-opacity:1"
       x="976.03589"
       y="1010.0823"
       id="text10390"
       sodipodi:linespacing="125%"><tspan
         sodipodi:role="line"
         x="976.03589"
         y="1010.0823"
         style="font-style:normal;font-variant:normal;font-weight:bold;font-stretch:normal;font-size:25px;font-family:sans-serif;-inkscape-font-specification:'sans-serif Bold';text-align:center;text-anchor:middle"
         id="tspan10392">std_logic_vector(U)</tspan></text>
    <text
       sodipodi:linespacing="125%"
       id="text10394"
       y="1010.0823"
       x="196.03589"
       style="font-style:normal;font-weight:normal;font-size:30px;line-height:125%;font-family:sans-serif;letter-spacing:0px;word-spacing:0px;fill:#000000;fill-opacity:1;stroke:none;stroke-width:1px;stroke-linecap:butt;stroke-linejoin:miter;stroke-opacity:1"
       xml:space="preserve"><tspan
         id="tspan10396"
         style="font-style:normal;font-variant:normal;font-weight:bold;font-stretch:normal;font-size:25px;font-family:sans-serif;-inkscape-font-specification:'sans-serif Bold';text-align:center;text-anchor:middle"
         y="1010.0823"
         x="196.03589"
         sodipodi:role="line">to_integer(U)</tspan></text>
    <text
       xml:space="preserve"
       style="font-style:normal;font-weight:normal;font-size:30px;line-height:125%;font-family:sans-serif;letter-spacing:0px;word-spacing:0px;fill:#000000;fill-opacity:1;stroke:none;stroke-width:1px;stroke-linecap:butt;stroke-linejoin:miter;stroke-opacity:1"
       x="388.03589"
       y="828.08228"
       id="text10398"
       sodipodi:linespacing="125%"><tspan
         sodipodi:role="line"
         x="388.03589"
         y="828.08228"
         style="font-style:normal;font-variant:normal;font-weight:bold;font-stretch:normal;font-size:20px;font-family:sans-serif;-inkscape-font-specification:'sans-serif Bold';text-align:center;text-anchor:middle"
         id="tspan10400">to_unsigned(I,U'length)</tspan></text>
    <text
       sodipodi:linespacing="125%"
       id="text10402"
       y="760.08228"
       x="704.03589"
       style="font-style:normal;font-weight:normal;font-size:30px;line-height:125%;font-family:sans-serif;letter-spacing:0px;word-spacing:0px;fill:#000000;fill-opacity:1;stroke:none;stroke-width:1px;stroke-linecap:butt;stroke-linejoin:miter;stroke-opacity:1"
       xml:space="preserve"><tspan
         id="tspan10404"
         style="font-style:normal;font-variant:normal;font-weight:bold;font-stretch:normal;font-size:20px;font-family:sans-serif;-inkscape-font-specification:'sans-serif Bold';text-align:center;text-anchor:middle"
         y="760.08228"
         x="704.03589"
         sodipodi:role="line">unsigned(V)</tspan></text>
    <text
       xml:space="preserve"
       style="font-style:normal;font-weight:normal;font-size:30px;line-height:125%;font-family:sans-serif;letter-spacing:0px;word-spacing:0px;fill:#000000;fill-opacity:1;stroke:none;stroke-width:1px;stroke-linecap:butt;stroke-linejoin:miter;stroke-opacity:1"
       x="710.03589"
       y="482.08228"
       id="text10406"
       sodipodi:linespacing="125%"><tspan
         sodipodi:role="line"
         x="710.03589"
         y="482.08228"
         style="font-style:normal;font-variant:normal;font-weight:bold;font-stretch:normal;font-size:20px;font-family:sans-serif;-inkscape-font-specification:'sans-serif Bold';text-align:center;text-anchor:middle"
         id="tspan10408">signed(V)</tspan></text>
    <text
       sodipodi:linespacing="125%"
       id="text10410"
       y="434.08228"
       x="394.03589"
       style="font-style:normal;font-weight:normal;font-size:30px;line-height:125%;font-family:sans-serif;letter-spacing:0px;word-spacing:0px;fill:#000000;fill-opacity:1;stroke:none;stroke-width:1px;stroke-linecap:butt;stroke-linejoin:miter;stroke-opacity:1"
       xml:space="preserve"><tspan
         id="tspan10412"
         style="font-style:normal;font-variant:normal;font-weight:bold;font-stretch:normal;font-size:20px;font-family:sans-serif;-inkscape-font-specification:'sans-serif Bold';text-align:center;text-anchor:middle"
         y="434.08228"
         x="394.03589"
         sodipodi:role="line">to_signed(I,S'length)</tspan></text>
    <text
       xml:space="preserve"
       style="font-style:normal;font-weight:normal;font-size:30px;line-height:125%;font-family:sans-serif;letter-spacing:0px;word-spacing:0px;fill:#000000;fill-opacity:1;stroke:none;stroke-width:1px;stroke-linecap:butt;stroke-linejoin:miter;stroke-opacity:1"
       x="156.03589"
       y="270.08228"
       id="text10414"
       sodipodi:linespacing="125%"><tspan
         sodipodi:role="line"
         x="156.03589"
         y="270.08228"
         style="font-style:normal;font-variant:normal;font-weight:bold;font-stretch:normal;font-size:25px;font-family:sans-serif;-inkscape-font-specification:'sans-serif Bold';text-align:center;text-anchor:middle"
         id="tspan10416">to_integer(S)</tspan></text>
    <path
       d="m 719.8765,1133.9799 -4.04918,2.6558 -71.35979,47.5055 2.97451,1.9611 72.44864,-47.4991 -0.0142,-4.6233 z m 29.94355,83.1806 43.48053,-28.5062 0,-4.6339 -50.55242,33.1401 7.07189,0 z m -29.90669,-72.3054 -67.70474,44.388 3.52744,2.3232 64.19715,-42.0859 -0.0199,-4.6253 z m 63.15367,72.3054 10.23355,-6.7114 0,-4.6339 -17.30828,11.3453 7.07473,0 z m -16.62774,0 26.86129,-17.6099 0,-4.6338 -33.92752,22.2437 7.06623,0 z m -42.99281,-63.726 -62.94951,41.2663 3.52744,2.3232 66.49113,-43.5895 -7.06906,0 z m 69.8541,63.726 0,-0.6353 -0.96409,0.6353 0.96409,0 z m -87.96201,7.0821 87.96201,-57.6669 0,-4.6338 -91.48662,59.9774 3.52461,2.3233 z m 13.27044,8.7425 1.61343,1.0632 -0.006,-2.1158 -1.60776,1.0526 z m 21.46521,-79.5506 -71.28323,46.7324 3.52744,2.3212 74.82485,-49.0515 -7.06906,0 z m -19.89431,67.625 -9.86209,6.4637 3.52744,2.3254 6.35166,-4.1637 -0.017,-4.6254 z m 13.01523,-3.899 60.10544,-39.4047 0,-4.6338 -67.17166,44.0385 7.06622,0 z m 23.20909,-63.726 -79.46666,52.099 3.52744,2.3233 83.01395,-54.4223 -7.07473,0 z m 16.62774,0 -87.80322,57.561 3.52744,2.3254 91.34768,-59.8843 -7.0719,0 z m 16.61924,0 -96.13127,63.0229 3.52461,2.3233 96.25603,-63.1055 0,-2.2407 -3.64937,0 z"
       id="path10440"
       inkscape:connector-curvature="0"
       style="opacity:0;fill:none" />
    <path
       style="color:#000000;font-style:normal;font-variant:normal;font-weight:normal;font-stretch:normal;font-size:medium;line-height:normal;font-family:sans-serif;text-indent:0;text-align:start;text-decoration:none;text-decoration-line:none;text-decoration-style:solid;text-decoration-color:#000000;letter-spacing:normal;word-spacing:normal;text-transform:none;direction:ltr;block-progression:tb;writing-mode:lr-tb;baseline-shift:baseline;text-anchor:start;white-space:normal;clip-rule:nonzero;display:inline;overflow:visible;visibility:visible;opacity:1;isolation:auto;mix-blend-mode:normal;color-interpolation:sRGB;color-interpolation-filters:linearRGB;solid-color:#000000;solid-opacity:1;fill:#000000;fill-opacity:1;fill-rule:nonzero;stroke:#000000;stroke-width:1;stroke-linecap:butt;stroke-linejoin:miter;stroke-miterlimit:4;stroke-dasharray:none;stroke-dashoffset:0;stroke-opacity:1;color-rendering:auto;image-rendering:auto;shape-rendering:auto;text-rendering:auto;enable-background:accumulate"
       d="m 723.82194,1206.402 -0.0343,4.0433 156.86078,0 -9.0625,27.1777 c -0.38306,1.1521 -0.5918,2.3851 -0.5918,3.6602 0,6.3782 5.21414,11.5898 11.58984,11.5898 2.41846,0 4.68341,-0.7466 6.54493,-2.0234 l 0.006,0 96.30468,-67.1113 -96.30468,-67.1094 -0.008,-0.01 c -1.85976,-1.2728 -4.12305,-2.0214 -6.54297,-2.0214 l 4e-5,2e-4 c -6.37628,0 -11.58984,5.2116 -11.58984,11.5878 0,1.2751 0.20859,2.5099 0.5918,3.6622 l 9.0625,27.1777 -156.76288,0.043 0.0831,3.9593 162.23242,0 -10.82031,-32.4414 0,0 c -0.25008,-0.7526 -0.38672,-1.5541 -0.38672,-2.3965 0,-4.2137 3.3761,-7.5878 7.58984,-7.5878 l 5e-5,0 c 1.59851,0 3.06267,0.4869 4.28321,1.3222 l 91.57617,63.8145 -91.57813,63.8164 c -4.8e-4,3e-4 -0.001,-3e-4 -0.002,0 -1.21849,0.8353 -2.67997,1.3222 -4.2793,1.3222 -4.21432,0 -7.58984,-3.3732 -7.58984,-7.5898 0,-0.8422 0.1367,-1.6439 0.38672,-2.3965 l 0,0 10.82031,-32.4395 -162.23242,0 z"
       id="path10484"
       inkscape:connector-curvature="0"
       sodipodi:nodetypes="ccccsscccccccscccccccsccccccssccccc" />
    <path
       sodipodi:nodetypes="ccccsscccccccscccccccsccccccssccccc"
       inkscape:connector-curvature="0"
       id="path10506"
       d="m 849.40755,1161.0662 0.034,-4.0433 -156.86079,0 9.0625,-27.1777 c 0.3831,-1.1521 0.59179,-2.3851 0.59179,-3.6602 0,-6.3782 -5.21409,-11.5898 -11.58979,-11.5898 -2.4185,0 -4.6834,0.7466 -6.54491,2.0234 l -0.01,0 -96.30469,67.1113 96.30469,67.1094 0.01,0.01 c 1.8597,1.2728 4.123,2.0214 6.5429,2.0214 l 0,-2e-4 c 6.3763,0 11.5898,-5.2116 11.5898,-11.5878 0,-1.2751 -0.2086,-2.5099 -0.5918,-3.6622 l -9.0625,-27.1777 156.7629,-0.043 -0.083,-3.9593 -162.2324,0 10.8203,32.4414 0,0 c 0.2501,0.7526 0.3867,1.5541 0.3867,2.3965 0,4.2137 -3.3761,7.5878 -7.5898,7.5878 l -10e-5,0 c -1.5985,0 -3.0626,-0.4869 -4.2832,-1.3222 l -91.5761,-63.8145 91.5781,-63.8164 c 5e-4,-3e-4 10e-4,3e-4 0,0 1.2185,-0.8353 2.68,-1.3222 4.2793,-1.3222 4.2143,0 7.5898,3.3732 7.5898,7.5898 0,0.8422 -0.1367,1.6439 -0.3867,2.3965 l 0,0 -10.8203,32.4395 162.2324,0 z"
       style="color:#000000;font-style:normal;font-variant:normal;font-weight:normal;font-stretch:normal;font-size:medium;line-height:normal;font-family:sans-serif;text-indent:0;text-align:start;text-decoration:none;text-decoration-line:none;text-decoration-style:solid;text-decoration-color:#000000;letter-spacing:normal;word-spacing:normal;text-transform:none;direction:ltr;block-progression:tb;writing-mode:lr-tb;baseline-shift:baseline;text-anchor:start;white-space:normal;clip-rule:nonzero;display:inline;overflow:visible;visibility:visible;opacity:1;isolation:auto;mix-blend-mode:normal;color-interpolation:sRGB;color-interpolation-filters:linearRGB;solid-color:#000000;solid-opacity:1;fill:#000000;fill-opacity:1;fill-rule:nonzero;stroke:#000000;stroke-width:1;stroke-linecap:butt;stroke-linejoin:miter;stroke-miterlimit:4;stroke-dasharray:none;stroke-dashoffset:0;stroke-opacity:1;color-rendering:auto;image-rendering:auto;shape-rendering:auto;text-rendering:auto;enable-background:accumulate" />
    <path
       sodipodi:nodetypes="ccccsscccccccscccccccsccccccssccccc"
       inkscape:connector-curvature="0"
       id="path10516"
       d="m 267.82194,1206.402 -0.0343,4.0433 156.86078,0 -9.0625,27.1777 c -0.38306,1.1521 -0.5918,2.3851 -0.5918,3.6602 0,6.3782 5.21414,11.5898 11.58984,11.5898 2.41846,0 4.68341,-0.7466 6.54493,-2.0234 l 0.006,0 96.30468,-67.1113 -96.30468,-67.1094 -0.008,-0.01 c -1.85976,-1.2728 -4.12305,-2.0214 -6.54297,-2.0214 l 4e-5,2e-4 c -6.37628,0 -11.58984,5.2116 -11.58984,11.5878 0,1.2751 0.20859,2.5099 0.5918,3.6622 l 9.0625,27.1777 -156.76288,0.043 0.0831,3.9593 162.23242,0 -10.82031,-32.4414 0,0 c -0.25008,-0.7526 -0.38672,-1.5541 -0.38672,-2.3965 0,-4.2137 3.3761,-7.5878 7.58984,-7.5878 l 5e-5,0 c 1.59851,0 3.06267,0.4869 4.28321,1.3222 l 91.57617,63.8145 -91.57813,63.8164 c -4.8e-4,3e-4 -10e-4,-3e-4 -0.002,0 -1.21849,0.8353 -2.67997,1.3222 -4.2793,1.3222 -4.21432,0 -7.58984,-3.3732 -7.58984,-7.5898 0,-0.8422 0.1367,-1.6439 0.38672,-2.3965 l 0,0 10.82031,-32.4395 -162.23242,0 z"
       style="color:#000000;font-style:normal;font-variant:normal;font-weight:normal;font-stretch:normal;font-size:medium;line-height:normal;font-family:sans-serif;text-indent:0;text-align:start;text-decoration:none;text-decoration-line:none;text-decoration-style:solid;text-decoration-color:#000000;letter-spacing:normal;word-spacing:normal;text-transform:none;direction:ltr;block-progression:tb;writing-mode:lr-tb;baseline-shift:baseline;text-anchor:start;white-space:normal;clip-rule:nonzero;display:inline;overflow:visible;visibility:visible;opacity:1;isolation:auto;mix-blend-mode:normal;color-interpolation:sRGB;color-interpolation-filters:linearRGB;solid-color:#000000;solid-opacity:1;fill:#000000;fill-opacity:1;fill-rule:nonzero;stroke:#000000;stroke-width:1;stroke-linecap:butt;stroke-linejoin:miter;stroke-miterlimit:4;stroke-dasharray:none;stroke-dashoffset:0;stroke-opacity:1;color-rendering:auto;image-rendering:auto;shape-rendering:auto;text-rendering:auto;enable-background:accumulate" />
    <path
       style="color:#000000;font-style:normal;font-variant:normal;font-weight:normal;font-stretch:normal;font-size:medium;line-height:normal;font-family:sans-serif;text-indent:0;text-align:start;text-decoration:none;text-decoration-line:none;text-decoration-style:solid;text-decoration-color:#000000;letter-spacing:normal;word-spacing:normal;text-transform:none;direction:ltr;block-progression:tb;writing-mode:lr-tb;baseline-shift:baseline;text-anchor:start;white-space:normal;clip-rule:nonzero;display:inline;overflow:visible;visibility:visible;opacity:1;isolation:auto;mix-blend-mode:normal;color-interpolation:sRGB;color-interpolation-filters:linearRGB;solid-color:#000000;solid-opacity:1;fill:#000000;fill-opacity:1;fill-rule:nonzero;stroke:#000000;stroke-width:1;stroke-linecap:butt;stroke-linejoin:miter;stroke-miterlimit:4;stroke-dasharray:none;stroke-dashoffset:0;stroke-opacity:1;color-rendering:auto;image-rendering:auto;shape-rendering:auto;text-rendering:auto;enable-background:accumulate"
       d="m 393.40755,1161.0662 0.034,-4.0433 -156.86079,0 9.0625,-27.1777 c 0.3831,-1.1521 0.59179,-2.3851 0.59179,-3.6602 0,-6.3782 -5.21409,-11.5898 -11.58979,-11.5898 -2.4185,0 -4.6834,0.7466 -6.54491,2.0234 l -0.01,0 -96.30469,67.1113 96.30469,67.1094 0.01,0.01 c 1.8597,1.2728 4.123,2.0214 6.5429,2.0214 l 0,-2e-4 c 6.3763,0 11.5898,-5.2116 11.5898,-11.5878 0,-1.2751 -0.2086,-2.5099 -0.5918,-3.6622 l -9.0625,-27.1777 156.7629,-0.043 -0.083,-3.9593 -162.2324,0 10.8203,32.4414 0,0 c 0.2501,0.7526 0.3867,1.5541 0.3867,2.3965 0,4.2137 -3.3761,7.5878 -7.5898,7.5878 l -1e-4,0 c -1.5985,0 -3.0626,-0.4869 -4.2832,-1.3222 l -91.5761,-63.8145 91.5781,-63.8164 c 5e-4,-3e-4 10e-4,3e-4 0,0 1.2185,-0.8353 2.68,-1.3222 4.2793,-1.3222 4.2143,0 7.5898,3.3732 7.5898,7.5898 0,0.8422 -0.1367,1.6439 -0.3867,2.3965 l 0,0 -10.8203,32.4395 162.2324,0 z"
       id="path10518"
       inkscape:connector-curvature="0"
       sodipodi:nodetypes="ccccsscccccccscccccccsccccccssccccc" />
    <text
       xml:space="preserve"
       style="font-style:normal;font-weight:normal;font-size:30px;line-height:125%;font-family:sans-serif;letter-spacing:0px;word-spacing:0px;fill:#000000;fill-opacity:1;stroke:none;stroke-width:1px;stroke-linecap:butt;stroke-linejoin:miter;stroke-opacity:1"
       x="334.03589"
       y="1192.0823"
       id="text10520"
       sodipodi:linespacing="125%"><tspan
         sodipodi:role="line"
         x="334.03589"
         y="1192.0823"
         style="font-style:normal;font-variant:normal;font-weight:bold;font-stretch:normal;font-size:25px;font-family:sans-serif;-inkscape-font-specification:'sans-serif Bold';text-align:center;text-anchor:middle"
         id="tspan10522">Função de Conversão</tspan></text>
    <text
       sodipodi:linespacing="125%"
       id="text10524"
       y="1192.0823"
       x="790.03589"
       style="font-style:normal;font-weight:normal;font-size:30px;line-height:125%;font-family:sans-serif;letter-spacing:0px;word-spacing:0px;fill:#000000;fill-opacity:1;stroke:none;stroke-width:1px;stroke-linecap:butt;stroke-linejoin:miter;stroke-opacity:1"
       xml:space="preserve"><tspan
         id="tspan10526"
         style="font-style:normal;font-variant:normal;font-weight:bold;font-stretch:normal;font-size:25px;font-family:sans-serif;-inkscape-font-specification:'sans-serif Bold';text-align:center;text-anchor:middle"
         y="1192.0823"
         x="790.03589"
         sodipodi:role="line">Type Cast</tspan></text>
  </g>
</svg>
